<svg width="41" height="388" viewBox="0 0 41 388" fill="none" xmlns="http://www.w3.org/2000/svg">
<path d="M0.212158 397.45H62.9287V0.950607L0.212158 29.9816V397.45Z" fill="url(#paint0_linear)"/>
<path d="M6.43454 57.8273L56.6728 37.1994V29.9812L6.43454 50.6092V57.8273Z" fill="#727578"/>
<path d="M56.6728 54.5102L6.43454 74.1061V66.8888L56.6728 47.293V54.5102Z" fill="#727578"/>
<path d="M6.43454 90.384L56.6728 71.8193V64.6012L6.43454 83.1658V90.384Z" fill="#727578"/>
<path d="M56.6728 89.1311L6.43454 106.665V99.4474L56.6728 81.9139V89.1311Z" fill="#727578"/>
<path d="M6.43454 122.944L56.6728 106.442V99.2238L6.43454 115.726V122.944Z" fill="#727578"/>
<path d="M56.6728 123.753L6.43454 139.224V132.006L56.6728 116.531V123.753Z" fill="#727578"/>
<path d="M6.43454 155.502L56.6728 141.064V133.846L6.43454 148.284V155.502Z" fill="#727578"/>
<path d="M56.6728 158.374L6.43454 171.782V164.563L56.6728 151.156V158.374Z" fill="#727578"/>
<path d="M6.43454 188.058L56.6728 175.681V168.463L6.43454 180.84V188.058Z" fill="#727578"/>
<path d="M56.6728 192.995L6.43454 204.341V197.123L56.6728 185.777V192.995Z" fill="#727578"/>
<path d="M6.43454 220.62L56.6728 210.306V203.093L6.43454 213.406V220.62Z" fill="#727578"/>
<path d="M56.6728 227.617L6.43454 236.9V229.681L56.6728 220.399V227.617Z" fill="#727578"/>
<path d="M6.43454 253.181L56.6728 244.927V237.712L6.43454 245.963V253.181Z" fill="#727578"/>
<path d="M56.6728 262.238L6.43454 269.458V262.24L56.6728 255.02V262.238Z" fill="#727578"/>
<path d="M6.43454 285.737L56.6728 279.549V272.33L6.43454 278.518V285.737Z" fill="#727578"/>
<path d="M56.6728 296.86L6.43454 302.017V294.798L56.6728 289.642V296.86Z" fill="#727578"/>
<path d="M6.43454 318.293L56.6728 314.171V306.949L6.43454 311.074V318.293Z" fill="#727578"/>
<path d="M56.6728 331.481L6.43454 334.575V327.357L56.6728 324.263V331.481Z" fill="#727578"/>
<path d="M6.43454 350.854L56.6728 348.792V341.573L6.43454 343.636V350.854Z" fill="#727578"/>
<path d="M56.6728 366.103L6.43454 367.134V359.916L56.6728 358.885V366.103Z" fill="#727578"/>
<path d="M56.6728 376.194H6.43454V383.413H56.6728V376.194Z" fill="#727578"/>
<defs>
<linearGradient id="paint0_linear" x1="31.5704" y1="397.45" x2="31.5704" y2="0.950607" gradientUnits="userSpaceOnUse">
<stop stop-color="#D8D8D8"/>
<stop offset="1" stop-color="white"/>
</linearGradient>
</defs>
</svg>
