<svg width="111" height="130" viewBox="0 0 111 130" fill="none" xmlns="http://www.w3.org/2000/svg">
<path d="M55.165 135.88H110.33V7.98614L55.165 0.799667V135.88Z" fill="url(#paint0_linear)"/>
<path d="M55.165 135.881H0V7.98653L55.165 0.800049V135.881Z" fill="url(#paint1_linear)"/>
<path d="M71.032 13.8563L61.8103 12.8372V23.8959L71.032 24.9122V13.8563Z" fill="#E2E5E7"/>
<path d="M87.3602 15.5041L78.1384 14.4851V25.5419L87.3602 26.56V15.5041Z" fill="#E2E5E7"/>
<path d="M103.68 17.182L94.4628 16.1639V27.2207L103.68 28.2397V17.182Z" fill="#E2E5E7"/>
<path d="M94.4628 36.1664L103.68 36.9806V48.0383L94.4628 47.2232V36.1664Z" fill="#E2E5E7"/>
<path d="M103.68 56.7814L94.4628 56.1704V67.2262L103.68 67.8373V56.7814Z" fill="#E2E5E7"/>
<path d="M94.4628 76.1734L103.68 76.5805V87.6382L94.4628 87.2302V76.1734Z" fill="#E2E5E7"/>
<path d="M103.68 96.3813L94.4628 96.1774V107.236L103.68 107.44V96.3813Z" fill="#E2E5E7"/>
<path d="M94.4628 116.18H103.68V127.239H94.4628V116.18Z" fill="#E2E5E7"/>
<path d="M87.3565 116.18H78.1384V127.239H87.3565V116.18Z" fill="#E2E5E7"/>
<path d="M87.3602 96.0452L78.1384 95.8412V106.899L87.3602 107.103V96.0452Z" fill="#E2E5E7"/>
<path d="M78.1384 75.5025L87.3602 75.9106V86.9683L78.1384 86.5612V75.5025Z" fill="#E2E5E7"/>
<path d="M87.3602 55.7744L78.1384 55.1634V66.2202L87.3602 66.8313V55.7744Z" fill="#E2E5E7"/>
<path d="M78.1384 34.8242L87.3602 35.6393V46.6924L78.1384 45.8783V34.8242Z" fill="#E2E5E7"/>
<path d="M71.032 116.18H61.814V127.239H71.032V116.18Z" fill="#E2E5E7"/>
<path d="M71.032 95.7164L61.8103 95.5124V106.571L71.032 106.774V95.7164Z" fill="#E2E5E7"/>
<path d="M61.8103 74.843L71.032 75.2511V86.3088L61.8103 85.9027V74.843Z" fill="#E2E5E7"/>
<path d="M71.032 54.7852L61.8103 54.1741V65.2319L71.032 65.842V54.7852Z" fill="#E2E5E7"/>
<path d="M61.8103 33.5061L71.032 34.3212V45.3781L61.8103 44.5649V33.5061Z" fill="#E2E5E7"/>
<path d="M39.2988 13.8563L48.5159 12.8372V23.8959L39.2988 24.9122V13.8563Z" fill="#727578"/>
<path d="M22.9669 15.5041L32.1887 14.4851V25.5419L22.9669 26.56V15.5041Z" fill="#727578"/>
<path d="M6.64526 17.182L15.8671 16.1639V27.2207L6.64526 28.2397V17.182Z" fill="#727578"/>
<path d="M15.8671 36.1664L6.64526 36.9806V48.0383L15.8671 47.2232V36.1664Z" fill="#727578"/>
<path d="M6.64526 56.7814L15.8671 56.1704V67.2262L6.64526 67.8373V56.7814Z" fill="#727578"/>
<path d="M15.8671 76.1734L6.64526 76.5805V87.6382L15.8671 87.2302V76.1734Z" fill="#727578"/>
<path d="M6.64526 96.3813L15.8671 96.1774V107.236L6.64526 107.44V96.3813Z" fill="#727578"/>
<path d="M6.64901 116.18H15.8671V127.239H6.64901V116.18Z" fill="#727578"/>
<path d="M32.1915 116.18H22.9734V127.239H32.1915V116.18Z" fill="#727578"/>
<path d="M22.9669 96.0452L32.1887 95.8412V106.899L22.9669 107.103V96.0452Z" fill="#727578"/>
<path d="M32.1887 75.5025L22.9669 75.9106V86.9683L32.1887 86.5612V75.5025Z" fill="#727578"/>
<path d="M22.9669 55.7744L32.1887 55.1634V66.2202L22.9669 66.8313V55.7744Z" fill="#727578"/>
<path d="M32.1887 34.8242L22.9669 35.6393V46.6924L32.1887 45.8783V34.8242Z" fill="#727578"/>
<path d="M48.5169 116.18H39.2998V127.239H48.5169V116.18Z" fill="#727578"/>
<path d="M39.2988 95.7164L48.5159 95.5124V106.571L39.2988 106.774V95.7164Z" fill="#727578"/>
<path d="M48.5159 74.843L39.2988 75.2511V86.3088L48.5159 85.9027V74.843Z" fill="#727578"/>
<path d="M39.2988 54.7852L48.5159 54.1741V65.2319L39.2988 65.842V54.7852Z" fill="#727578"/>
<path d="M48.5159 33.5061L39.2988 34.3212V45.3781L48.5159 44.5649V33.5061Z" fill="#727578"/>
<defs>
<linearGradient id="paint0_linear" x1="82.7474" y1="135.88" x2="82.7474" y2="0.799667" gradientUnits="userSpaceOnUse">
<stop stop-color="#4D4D4D"/>
<stop offset="1" stop-color="#989898"/>
</linearGradient>
<linearGradient id="paint1_linear" x1="27.5825" y1="135.881" x2="27.5825" y2="0.800049" gradientUnits="userSpaceOnUse">
<stop stop-color="#D8D8D8"/>
<stop offset="1" stop-color="white"/>
</linearGradient>
</defs>
</svg>
