<svg width="126" height="388" viewBox="0 0 126 388" fill="none" xmlns="http://www.w3.org/2000/svg">
<path d="M125.904 397.449H63.188V0.950241L125.904 29.9812V397.449Z" fill="url(#paint0_linear)"/>
<path d="M119.688 57.8273L69.4476 37.1993V29.9821L119.688 50.6091V57.8273Z" fill="#E2E5E7"/>
<path d="M69.4476 54.5102L119.688 74.1061V66.8889L69.4476 47.2921V54.5102Z" fill="#E2E5E7"/>
<path d="M119.688 90.3839L69.4476 71.8192V64.603L119.688 83.1658V90.3839Z" fill="#E2E5E7"/>
<path d="M69.4476 89.1311L119.688 106.665V99.4474L69.4476 81.9139V89.1311Z" fill="#E2E5E7"/>
<path d="M119.688 122.944L69.4476 106.442V99.2247L119.688 115.726V122.944Z" fill="#E2E5E7"/>
<path d="M69.4476 123.753L119.688 139.224V132.006L69.4476 116.531V123.753Z" fill="#E2E5E7"/>
<path d="M119.688 155.502L69.4476 141.064V133.846L119.688 148.284V155.502Z" fill="#E2E5E7"/>
<path d="M69.4476 158.374L119.688 171.782V164.563L69.4476 151.156V158.374Z" fill="#E2E5E7"/>
<path d="M119.688 188.058L69.4476 175.681V168.466L119.688 180.839V188.058Z" fill="#E2E5E7"/>
<path d="M69.4476 192.995L119.688 204.341V197.123L69.4476 185.777V192.995Z" fill="#E2E5E7"/>
<path d="M119.688 220.62L69.4476 210.306V203.088L119.688 213.406V220.62Z" fill="#E2E5E7"/>
<path d="M69.4476 227.617L119.688 236.9V229.681L69.4476 220.399V227.617Z" fill="#E2E5E7"/>
<path d="M119.683 253.181L69.4476 244.927V237.709L119.683 245.963V253.181Z" fill="#E2E5E7"/>
<path d="M69.4476 262.238L119.688 269.458V262.24L69.4476 255.02V262.238Z" fill="#E2E5E7"/>
<path d="M119.688 285.737L69.4476 279.549V272.331L119.688 278.518V285.737Z" fill="#E2E5E7"/>
<path d="M69.4476 296.86L119.688 302.017V294.798L69.4476 289.641V296.86Z" fill="#E2E5E7"/>
<path d="M119.683 318.293L69.4476 314.171V306.952L119.683 311.074V318.293Z" fill="#E2E5E7"/>
<path d="M69.4476 331.481L119.688 334.575V327.357L69.4476 324.263V331.481Z" fill="#E2E5E7"/>
<path d="M119.688 350.854L69.4476 348.792V341.573L119.688 343.636V350.854Z" fill="#E2E5E7"/>
<path d="M69.4476 366.102L119.688 367.134V359.915L69.4476 358.883V366.102Z" fill="#E2E5E7"/>
<path d="M119.684 376.194H69.4439V383.413H119.684V376.194Z" fill="#E2E5E7"/>
<path d="M0.4732 397.45H63.188V0.9506L0.47229 29.9816L0.4732 397.45Z" fill="url(#paint1_linear)"/>
<path d="M56.9339 37.1994L6.69376 57.8273V50.6092L56.9339 29.9812V37.1994Z" fill="#727578"/>
<path d="M6.69376 74.1061L56.9339 54.5102V47.293L6.69376 66.8888V74.1061Z" fill="#727578"/>
<path d="M6.69376 90.384L56.9339 71.8193V64.6012L6.69376 83.1658V90.384Z" fill="#727578"/>
<path d="M6.69376 106.665L56.9339 89.1311V81.9139L6.69376 99.4474V106.665Z" fill="#727578"/>
<path d="M6.69376 122.944L56.9339 106.442V99.2238L6.69376 115.726V122.944Z" fill="#727578"/>
<path d="M6.69376 139.224L56.9339 123.753V116.531L6.69376 132.006V139.224Z" fill="#727578"/>
<path d="M6.69376 155.502L56.9339 141.064V133.846L6.69376 148.284V155.502Z" fill="#727578"/>
<path d="M6.69376 171.782L56.9339 158.374V151.156L6.69376 164.563V171.782Z" fill="#727578"/>
<path d="M6.69376 188.058L56.9339 175.681V168.463L6.69376 180.84V188.058Z" fill="#727578"/>
<path d="M6.69376 204.341L56.9339 192.995V185.777L6.69376 197.123V204.341Z" fill="#727578"/>
<path d="M6.69376 220.62L56.9339 210.306V203.093L6.69376 213.406V220.62Z" fill="#727578"/>
<path d="M6.69376 236.9L56.9339 227.617V220.399L6.69376 229.681V236.9Z" fill="#727578"/>
<path d="M6.69467 253.181L56.9339 244.927L56.9348 237.712L6.69467 245.963V253.181Z" fill="#727578"/>
<path d="M6.69376 269.458L56.9339 262.238V255.02L6.69376 262.24V269.458Z" fill="#727578"/>
<path d="M6.69376 285.737L56.9339 279.549V272.33L6.69376 278.518V285.737Z" fill="#727578"/>
<path d="M6.69376 302.017L56.9339 296.86V289.642L6.69376 294.798V302.017Z" fill="#727578"/>
<path d="M6.69467 318.293L56.9339 314.171L56.9348 306.949L6.69467 311.074V318.293Z" fill="#727578"/>
<path d="M6.69376 334.575L56.9339 331.481V324.263L6.69376 327.357V334.575Z" fill="#727578"/>
<path d="M6.69376 350.854L56.9339 348.792V341.573L6.69376 343.636V350.854Z" fill="#727578"/>
<path d="M56.9339 366.103L6.69376 367.134V359.916L56.9339 358.885V366.103Z" fill="#727578"/>
<path d="M6.69467 376.194H56.9348V383.413H6.69467V376.194Z" fill="#727578"/>
<defs>
<linearGradient id="paint0_linear" x1="94.5458" y1="397.449" x2="94.5458" y2="0.950241" gradientUnits="userSpaceOnUse">
<stop stop-color="#4D4D4D"/>
<stop offset="1" stop-color="#989898"/>
</linearGradient>
<linearGradient id="paint1_linear" x1="31.8301" y1="397.45" x2="31.8301" y2="0.9506" gradientUnits="userSpaceOnUse">
<stop stop-color="#D8D8D8"/>
<stop offset="1" stop-color="white"/>
</linearGradient>
</defs>
</svg>
