<svg width="259" height="39" viewBox="0 0 259 39" fill="none" xmlns="http://www.w3.org/2000/svg">
<path d="M1.935 5.632C2.412 6.118 2.9925 6.361 3.6765 6.361C4.3605 6.361 4.9395 6.118 5.4135 5.632C5.8905 5.146 6.129 4.552 6.129 3.85C6.129 3.148 5.8905 2.554 5.4135 2.068C4.9395 1.582 4.3605 1.339 3.6765 1.339C2.9925 1.339 2.412 1.582 1.935 2.068C1.461 2.554 1.224 3.148 1.224 3.85C1.224 4.552 1.461 5.146 1.935 5.632ZM2.3715 0.844C2.7825 0.676 3.2175 0.592 3.6765 0.592C4.1355 0.592 4.569 0.676 4.977 0.844C5.388 1.012 5.7405 1.2415 6.0345 1.5325C6.3285 1.8205 6.561 2.1655 6.732 2.5675C6.903 2.9695 6.9885 3.397 6.9885 3.85C6.9885 4.303 6.903 4.7305 6.732 5.1325C6.561 5.5345 6.3285 5.881 6.0345 6.172C5.7405 6.46 5.388 6.688 4.977 6.856C4.569 7.024 4.1355 7.108 3.6765 7.108C3.2175 7.108 2.7825 7.024 2.3715 6.856C1.9635 6.688 1.6125 6.46 1.3185 6.172C1.0245 5.881 0.792 5.5345 0.621 5.1325C0.45 4.7305 0.3645 4.303 0.3645 3.85C0.3645 3.397 0.45 2.9695 0.621 2.5675C0.792 2.1655 1.0245 1.8205 1.3185 1.5325C1.6125 1.2415 1.9635 1.012 2.3715 0.844ZM9.29145 5.632C9.76845 6.118 10.3489 6.361 11.0329 6.361C11.7169 6.361 12.2959 6.118 12.7699 5.632C13.2469 5.146 13.4854 4.552 13.4854 3.85C13.4854 3.148 13.2469 2.554 12.7699 2.068C12.2959 1.582 11.7169 1.339 11.0329 1.339C10.3489 1.339 9.76845 1.582 9.29145 2.068C8.81745 2.554 8.58045 3.148 8.58045 3.85C8.58045 4.552 8.81745 5.146 9.29145 5.632ZM9.72795 0.844C10.1389 0.676 10.5739 0.592 11.0329 0.592C11.4919 0.592 11.9254 0.676 12.3334 0.844C12.7444 1.012 13.0969 1.2415 13.3909 1.5325C13.6849 1.8205 13.9174 2.1655 14.0884 2.5675C14.2594 2.9695 14.3449 3.397 14.3449 3.85C14.3449 4.303 14.2594 4.7305 14.0884 5.1325C13.9174 5.5345 13.6849 5.881 13.3909 6.172C13.0969 6.46 12.7444 6.688 12.3334 6.856C11.9254 7.024 11.4919 7.108 11.0329 7.108C10.5739 7.108 10.1389 7.024 9.72795 6.856C9.31995 6.688 8.96895 6.46 8.67495 6.172C8.38095 5.881 8.14845 5.5345 7.97745 5.1325C7.80645 4.7305 7.72095 4.303 7.72095 3.85C7.72095 3.397 7.80645 2.9695 7.97745 2.5675C8.14845 2.1655 8.38095 1.8205 8.67495 1.5325C8.96895 1.2415 9.31995 1.012 9.72795 0.844ZM16.6479 5.632C17.1249 6.118 17.7054 6.361 18.3894 6.361C19.0734 6.361 19.6524 6.118 20.1264 5.632C20.6034 5.146 20.8419 4.552 20.8419 3.85C20.8419 3.148 20.6034 2.554 20.1264 2.068C19.6524 1.582 19.0734 1.339 18.3894 1.339C17.7054 1.339 17.1249 1.582 16.6479 2.068C16.1739 2.554 15.9369 3.148 15.9369 3.85C15.9369 4.552 16.1739 5.146 16.6479 5.632ZM17.0844 0.844C17.4954 0.676 17.9304 0.592 18.3894 0.592C18.8484 0.592 19.2819 0.676 19.6899 0.844C20.1009 1.012 20.4534 1.2415 20.7474 1.5325C21.0414 1.8205 21.2739 2.1655 21.4449 2.5675C21.6159 2.9695 21.7014 3.397 21.7014 3.85C21.7014 4.303 21.6159 4.7305 21.4449 5.1325C21.2739 5.5345 21.0414 5.881 20.7474 6.172C20.4534 6.46 20.1009 6.688 19.6899 6.856C19.2819 7.024 18.8484 7.108 18.3894 7.108C17.9304 7.108 17.4954 7.024 17.0844 6.856C16.6764 6.688 16.3254 6.46 16.0314 6.172C15.7374 5.881 15.5049 5.5345 15.3339 5.1325C15.1629 4.7305 15.0774 4.303 15.0774 3.85C15.0774 3.397 15.1629 2.9695 15.3339 2.5675C15.5049 2.1655 15.7374 1.8205 16.0314 1.5325C16.3254 1.2415 16.6764 1.012 17.0844 0.844ZM25.2137 4.408V3.976L27.7022 2.4145V3.175L26.0462 4.192L27.7022 5.209V5.9695L25.2137 4.408ZM27.4187 4.408V3.976L29.9072 2.4145V3.175L28.2512 4.192L29.9072 5.209V5.9695L27.4187 4.408ZM34.1394 6.361C34.7574 6.361 35.3259 6.148 35.8449 5.722L36.2949 6.3565C35.6829 6.8575 34.9644 7.108 34.1394 7.108C33.6804 7.108 33.2454 7.024 32.8344 6.856C32.4264 6.688 32.0754 6.46 31.7814 6.172C31.4874 5.881 31.2549 5.5345 31.0839 5.1325C30.9129 4.7305 30.8274 4.303 30.8274 3.85C30.8274 3.397 30.9129 2.9695 31.0839 2.5675C31.2549 2.1655 31.4874 1.8205 31.7814 1.5325C32.0754 1.2415 32.4264 1.012 32.8344 0.844C33.2454 0.676 33.6804 0.592 34.1394 0.592C34.9194 0.592 35.6124 0.8245 36.2184 1.2895L35.7909 1.9285C35.5179 1.7395 35.2509 1.594 34.9899 1.492C34.7289 1.39 34.4454 1.339 34.1394 1.339C33.4554 1.339 32.8749 1.582 32.3979 2.068C31.9239 2.554 31.6869 3.148 31.6869 3.85C31.6869 4.552 31.9239 5.146 32.3979 5.632C32.8749 6.118 33.4554 6.361 34.1394 6.361ZM40.1657 5.1505C40.1657 4.7905 40.0307 4.4935 39.7607 4.2595C39.4907 4.0255 39.1382 3.9085 38.7032 3.9085H38.0507V3.2155H38.7122C39.0542 3.2155 39.3317 3.1255 39.5447 2.9455C39.7607 2.7625 39.8687 2.533 39.8687 2.257C39.8687 1.987 39.7637 1.762 39.5537 1.582C39.3467 1.402 39.0887 1.312 38.7797 1.312C38.3507 1.312 37.9817 1.4905 37.6727 1.8475L37.1687 1.3345C37.5827 0.8395 38.1422 0.592 38.8472 0.592C39.3782 0.592 39.8147 0.7495 40.1567 1.0645C40.5017 1.3795 40.6742 1.771 40.6742 2.239C40.6742 2.527 40.5872 2.788 40.4132 3.022C40.2422 3.256 40.0172 3.427 39.7382 3.535C40.1132 3.661 40.4162 3.871 40.6472 4.165C40.8812 4.456 40.9982 4.789 40.9982 5.164C40.9982 5.713 40.7897 6.175 40.3727 6.55C39.9587 6.922 39.4472 7.108 38.8382 7.108C38.4362 7.108 38.0627 7.0195 37.7177 6.8425C37.3757 6.6625 37.1027 6.415 36.8987 6.1L37.4342 5.5645C37.5992 5.8165 37.8017 6.0175 38.0417 6.1675C38.2817 6.3145 38.5472 6.388 38.8382 6.388C39.2132 6.388 39.5282 6.2695 39.7832 6.0325C40.0382 5.7925 40.1657 5.4985 40.1657 5.1505ZM44.5145 4.408V3.976L47.003 2.4145V3.175L45.347 4.192L47.003 5.209V5.9695L44.5145 4.408ZM46.7195 4.408V3.976L49.208 2.4145V3.175L47.552 4.192L49.208 5.209V5.9695L46.7195 4.408ZM53.4402 6.361C54.0582 6.361 54.6267 6.148 55.1457 5.722L55.5957 6.3565C54.9837 6.8575 54.2652 7.108 53.4402 7.108C52.9812 7.108 52.5462 7.024 52.1352 6.856C51.7272 6.688 51.3762 6.46 51.0822 6.172C50.7882 5.881 50.5557 5.5345 50.3847 5.1325C50.2137 4.7305 50.1282 4.303 50.1282 3.85C50.1282 3.397 50.2137 2.9695 50.3847 2.5675C50.5557 2.1655 50.7882 1.8205 51.0822 1.5325C51.3762 1.2415 51.7272 1.012 52.1352 0.844C52.5462 0.676 52.9812 0.592 53.4402 0.592C54.2202 0.592 54.9132 0.8245 55.5192 1.2895L55.0917 1.9285C54.8187 1.7395 54.5517 1.594 54.2907 1.492C54.0297 1.39 53.7462 1.339 53.4402 1.339C52.7562 1.339 52.1757 1.582 51.6987 2.068C51.2247 2.554 50.9877 3.148 50.9877 3.85C50.9877 4.552 51.2247 5.146 51.6987 5.632C52.1757 6.118 52.7562 6.361 53.4402 6.361ZM57.6215 3.0715H56.1185V2.338H59.9435V3.0715H58.4405V7H57.6215V3.0715ZM62.9526 6.3745C63.2796 6.3745 63.5766 6.2905 63.8436 6.1225C64.1136 5.9545 64.3191 5.731 64.4601 5.452V3.8995C64.3191 3.6175 64.1136 3.391 63.8436 3.22C63.5766 3.049 63.2796 2.9635 62.9526 2.9635C62.4786 2.9635 62.0781 3.13 61.7511 3.463C61.4271 3.793 61.2651 4.195 61.2651 4.669C61.2651 5.143 61.4271 5.5465 61.7511 5.8795C62.0781 6.2095 62.4786 6.3745 62.9526 6.3745ZM62.8176 2.23C63.4806 2.23 64.0281 2.467 64.4601 2.941V2.338H65.2791V7H64.4601V6.397C64.0311 6.871 63.4836 7.108 62.8176 7.108C62.3676 7.108 61.9581 6.997 61.5891 6.775C61.2231 6.55 60.9381 6.253 60.7341 5.884C60.5331 5.512 60.4326 5.107 60.4326 4.669C60.4326 4.231 60.5331 3.8275 60.7341 3.4585C60.9381 3.0865 61.2231 2.7895 61.5891 2.5675C61.9581 2.3425 62.3676 2.23 62.8176 2.23ZM70.8 2.338V7H69.981V4.957H67.4115V7H66.5925V2.338H67.4115V4.2235H69.981V2.338H70.8ZM76.0496 8.26V7H72.1121V2.338H72.9311V6.2665H75.5006V2.338H76.3196V6.2665H76.8686V8.26H76.0496ZM81.9534 2.338V7H81.1614V3.49L78.5244 7H77.7459V2.338H78.5379V5.848L81.1749 2.338H81.9534ZM86.0509 5.353H85.1284L83.8279 7H82.9189L84.2734 5.2945C83.9044 5.2045 83.6059 5.0275 83.3779 4.7635C83.1499 4.4995 83.0359 4.1935 83.0359 3.8455C83.0359 3.4195 83.2024 3.0625 83.5354 2.7745C83.8714 2.4835 84.2854 2.338 84.7774 2.338H86.8699V7H86.0509V5.353ZM84.8044 4.6465H86.0509V3.0445H84.8044C84.5344 3.0445 84.3079 3.121 84.1249 3.274C83.9449 3.427 83.8549 3.6175 83.8549 3.8455C83.8549 4.0765 83.9449 4.2685 84.1249 4.4215C84.3079 4.5715 84.5344 4.6465 84.8044 4.6465ZM93.8786 6.361C94.4966 6.361 95.0651 6.148 95.5841 5.722L96.0341 6.3565C95.4221 6.8575 94.7036 7.108 93.8786 7.108C93.4196 7.108 92.9846 7.024 92.5736 6.856C92.1656 6.688 91.8146 6.46 91.5206 6.172C91.2266 5.881 90.9941 5.5345 90.8231 5.1325C90.6521 4.7305 90.5666 4.303 90.5666 3.85C90.5666 3.397 90.6521 2.9695 90.8231 2.5675C90.9941 2.1655 91.2266 1.8205 91.5206 1.5325C91.8146 1.2415 92.1656 1.012 92.5736 0.844C92.9846 0.676 93.4196 0.592 93.8786 0.592C94.6586 0.592 95.3516 0.8245 95.9576 1.2895L95.5301 1.9285C95.2571 1.7395 94.9901 1.594 94.7291 1.492C94.4681 1.39 94.1846 1.339 93.8786 1.339C93.1946 1.339 92.6141 1.582 92.1371 2.068C91.6631 2.554 91.4261 3.148 91.4261 3.85C91.4261 4.552 91.6631 5.146 92.1371 5.632C92.6141 6.118 93.1946 6.361 93.8786 6.361ZM101.219 2.338V7H100.4V3.0715H97.8305V7H97.0115V2.338H101.219ZM103.526 5.8795C103.853 6.2095 104.253 6.3745 104.727 6.3745C105.201 6.3745 105.6 6.2095 105.924 5.8795C106.251 5.5465 106.415 5.143 106.415 4.669C106.415 4.195 106.251 3.793 105.924 3.463C105.6 3.13 105.201 2.9635 104.727 2.9635C104.253 2.9635 103.853 3.13 103.526 3.463C103.202 3.793 103.04 4.195 103.04 4.669C103.04 5.143 103.202 5.5465 103.526 5.8795ZM103.436 2.5585C103.823 2.3395 104.253 2.23 104.727 2.23C105.201 2.23 105.632 2.3395 106.019 2.5585C106.406 2.7775 106.707 3.073 106.923 3.445C107.139 3.817 107.247 4.225 107.247 4.669C107.247 5.113 107.139 5.521 106.923 5.893C106.707 6.265 106.406 6.5605 106.019 6.7795C105.632 6.9985 105.201 7.108 104.727 7.108C104.253 7.108 103.823 6.9985 103.436 6.7795C103.049 6.5605 102.747 6.265 102.531 5.893C102.315 5.521 102.207 5.113 102.207 4.669C102.207 4.225 102.315 3.817 102.531 3.445C102.747 3.073 103.049 2.7775 103.436 2.5585ZM110.562 6.3745C111.036 6.3745 111.435 6.2095 111.759 5.8795C112.086 5.5465 112.249 5.143 112.249 4.669C112.249 4.195 112.086 3.793 111.759 3.463C111.435 3.13 111.036 2.9635 110.562 2.9635C110.235 2.9635 109.936 3.049 109.666 3.22C109.399 3.391 109.195 3.6175 109.054 3.8995V5.452C109.195 5.731 109.399 5.9545 109.666 6.1225C109.936 6.2905 110.235 6.3745 110.562 6.3745ZM110.697 2.23C111.147 2.23 111.555 2.3425 111.921 2.5675C112.29 2.7895 112.575 3.0865 112.776 3.4585C112.98 3.8275 113.082 4.231 113.082 4.669C113.082 5.107 112.98 5.512 112.776 5.884C112.575 6.253 112.29 6.55 111.921 6.775C111.555 6.997 111.147 7.108 110.697 7.108C110.031 7.108 109.483 6.871 109.054 6.397V9.088H108.235V2.338H109.054V2.941C109.486 2.467 110.034 2.23 110.697 2.23ZM115.032 3.0715H113.529V2.338H117.354V3.0715H115.851V7H115.032V3.0715ZM122.418 2.338V7H121.626V3.49L118.989 7H118.211V2.338H119.003V5.848L121.64 2.338H122.418ZM125.701 7H123.73V2.338H125.562C125.988 2.338 126.345 2.4565 126.633 2.6935C126.924 2.9305 127.069 3.223 127.069 3.571C127.069 3.787 127.005 3.9835 126.876 4.1605C126.747 4.3375 126.579 4.4665 126.372 4.5475C126.63 4.6075 126.846 4.7455 127.02 4.9615C127.197 5.1775 127.285 5.4175 127.285 5.6815C127.285 6.0535 127.132 6.367 126.826 6.622C126.523 6.874 126.148 7 125.701 7ZM124.549 4.2595H125.508C125.721 4.2595 125.898 4.2025 126.039 4.0885C126.18 3.9715 126.25 3.826 126.25 3.652C126.25 3.478 126.18 3.334 126.039 3.22C125.898 3.103 125.721 3.0445 125.508 3.0445H124.549V4.2595ZM124.549 6.2935H125.661C125.889 6.2935 126.079 6.229 126.232 6.1C126.388 5.971 126.466 5.812 126.466 5.623C126.466 5.431 126.388 5.269 126.232 5.137C126.079 5.005 125.889 4.939 125.661 4.939H124.549V6.2935ZM132.578 2.338V7H131.759V4.957H129.19V7H128.371V2.338H129.19V4.2235H131.759V2.338H132.578ZM136.086 6.3745C136.413 6.3745 136.71 6.2905 136.977 6.1225C137.247 5.9545 137.453 5.731 137.594 5.452V3.8995C137.453 3.6175 137.247 3.391 136.977 3.22C136.71 3.049 136.413 2.9635 136.086 2.9635C135.612 2.9635 135.212 3.13 134.885 3.463C134.561 3.793 134.399 4.195 134.399 4.669C134.399 5.143 134.561 5.5465 134.885 5.8795C135.212 6.2095 135.612 6.3745 136.086 6.3745ZM135.951 2.23C136.614 2.23 137.162 2.467 137.594 2.941V2.338H138.413V7H137.594V6.397C137.165 6.871 136.617 7.108 135.951 7.108C135.501 7.108 135.092 6.997 134.723 6.775C134.357 6.55 134.072 6.253 133.868 5.884C133.667 5.512 133.566 5.107 133.566 4.669C133.566 4.231 133.667 3.8275 133.868 3.4585C134.072 3.0865 134.357 2.7895 134.723 2.5675C135.092 2.3425 135.501 2.23 135.951 2.23ZM142.512 5.353H141.589L140.289 7H139.38L140.734 5.2945C140.365 5.2045 140.067 5.0275 139.839 4.7635C139.611 4.4995 139.497 4.1935 139.497 3.8455C139.497 3.4195 139.663 3.0625 139.996 2.7745C140.332 2.4835 140.746 2.338 141.238 2.338H143.331V7H142.512V5.353ZM141.265 4.6465H142.512V3.0445H141.265C140.995 3.0445 140.769 3.121 140.586 3.274C140.406 3.427 140.316 3.6175 140.316 3.8455C140.316 4.0765 140.406 4.2685 140.586 4.4215C140.769 4.5715 140.995 4.6465 141.265 4.6465ZM149.238 3.976V4.408L146.75 5.9695V5.209L148.406 4.192L146.75 3.175V2.4145L149.238 3.976ZM147.033 3.976V4.408L144.545 5.9695V5.209L146.201 4.192L144.545 3.175V2.4145L147.033 3.976ZM150.487 6.5455C150.487 6.3865 150.541 6.253 150.649 6.145C150.757 6.037 150.89 5.983 151.049 5.983C151.208 5.983 151.342 6.037 151.45 6.145C151.558 6.253 151.612 6.3865 151.612 6.5455C151.612 6.6325 151.592 6.718 151.553 6.802L150.959 8.1025H150.415L150.874 7.081C150.757 7.045 150.662 6.979 150.59 6.883C150.521 6.784 150.487 6.6715 150.487 6.5455ZM159.921 2.338V7H159.102V3.0715H156.533V7H155.714V2.338H159.921ZM163.56 6.3745C164.034 6.3745 164.433 6.2095 164.757 5.8795C165.084 5.5465 165.247 5.143 165.247 4.669C165.247 4.195 165.084 3.793 164.757 3.463C164.433 3.13 164.034 2.9635 163.56 2.9635C163.233 2.9635 162.934 3.049 162.664 3.22C162.397 3.391 162.193 3.6175 162.052 3.8995V5.452C162.193 5.731 162.397 5.9545 162.664 6.1225C162.934 6.2905 163.233 6.3745 163.56 6.3745ZM163.695 2.23C164.145 2.23 164.553 2.3425 164.919 2.5675C165.288 2.7895 165.573 3.0865 165.774 3.4585C165.978 3.8275 166.08 4.231 166.08 4.669C166.08 5.107 165.978 5.512 165.774 5.884C165.573 6.253 165.288 6.55 164.919 6.775C164.553 6.997 164.145 7.108 163.695 7.108C163.029 7.108 162.481 6.871 162.052 6.397V9.088H161.233V2.338H162.052V2.941C162.484 2.467 163.032 2.23 163.695 2.23ZM168.064 5.8795C168.391 6.2095 168.791 6.3745 169.265 6.3745C169.739 6.3745 170.138 6.2095 170.462 5.8795C170.789 5.5465 170.953 5.143 170.953 4.669C170.953 4.195 170.789 3.793 170.462 3.463C170.138 3.13 169.739 2.9635 169.265 2.9635C168.791 2.9635 168.391 3.13 168.064 3.463C167.74 3.793 167.578 4.195 167.578 4.669C167.578 5.143 167.74 5.5465 168.064 5.8795ZM167.974 2.5585C168.361 2.3395 168.791 2.23 169.265 2.23C169.739 2.23 170.17 2.3395 170.557 2.5585C170.944 2.7775 171.245 3.073 171.461 3.445C171.677 3.817 171.785 4.225 171.785 4.669C171.785 5.113 171.677 5.521 171.461 5.893C171.245 6.265 170.944 6.5605 170.557 6.7795C170.17 6.9985 169.739 7.108 169.265 7.108C168.791 7.108 168.361 6.9985 167.974 6.7795C167.587 6.5605 167.285 6.265 167.069 5.893C166.853 5.521 166.745 5.113 166.745 4.669C166.745 4.225 166.853 3.817 167.069 3.445C167.285 3.073 167.587 2.7775 167.974 2.5585ZM173.286 4.9255C173.331 5.3485 173.51 5.701 173.822 5.983C174.137 6.262 174.516 6.4015 174.96 6.4015C175.53 6.4015 176.021 6.1765 176.432 5.7265L176.994 6.2485C176.748 6.5275 176.453 6.7405 176.108 6.8875C175.763 7.0345 175.388 7.108 174.983 7.108C174.611 7.108 174.266 7.045 173.948 6.919C173.63 6.79 173.361 6.616 173.142 6.397C172.926 6.178 172.757 5.92 172.634 5.623C172.511 5.323 172.449 5.005 172.449 4.669C172.449 4.336 172.511 4.0195 172.634 3.7195C172.76 3.4195 172.931 3.16 173.147 2.941C173.366 2.722 173.628 2.5495 173.934 2.4235C174.24 2.2945 174.567 2.23 174.915 2.23C175.368 2.23 175.776 2.335 176.139 2.545C176.505 2.755 176.789 3.0385 176.99 3.3955C177.191 3.7495 177.291 4.1395 177.291 4.5655C177.291 4.6855 177.278 4.8055 177.251 4.9255H173.286ZM174.915 2.9365C174.531 2.9365 174.189 3.061 173.889 3.31C173.589 3.559 173.399 3.871 173.318 4.246H176.432C176.369 3.865 176.198 3.5515 175.919 3.3055C175.64 3.0595 175.305 2.9365 174.915 2.9365ZM181.276 7L179.679 4.786H179.103V7H178.284V2.338H179.103V4.0795H179.688L181.006 2.338H181.978L180.367 4.4305L182.221 7H181.276ZM183.964 3.0715H182.461V2.338H186.286V3.0715H184.783V7H183.964V3.0715ZM191.351 2.338V7H190.532V4.957H187.962V7H187.143V2.338H187.962V4.2235H190.532V2.338H191.351ZM194.859 6.3745C195.186 6.3745 195.483 6.2905 195.75 6.1225C196.02 5.9545 196.225 5.731 196.366 5.452V3.8995C196.225 3.6175 196.02 3.391 195.75 3.22C195.483 3.049 195.186 2.9635 194.859 2.9635C194.385 2.9635 193.984 3.13 193.657 3.463C193.333 3.793 193.171 4.195 193.171 4.669C193.171 5.143 193.333 5.5465 193.657 5.8795C193.984 6.2095 194.385 6.3745 194.859 6.3745ZM194.724 2.23C195.387 2.23 195.934 2.467 196.366 2.941V2.338H197.185V7H196.366V6.397C195.937 6.871 195.39 7.108 194.724 7.108C194.274 7.108 193.864 6.997 193.495 6.775C193.129 6.55 192.844 6.253 192.64 5.884C192.439 5.512 192.339 5.107 192.339 4.669C192.339 4.231 192.439 3.8275 192.64 3.4585C192.844 3.0865 193.129 2.7895 193.495 2.5675C193.864 2.3425 194.274 2.23 194.724 2.23ZM201.284 5.353H200.362L199.061 7H198.152L199.507 5.2945C199.138 5.2045 198.839 5.0275 198.611 4.7635C198.383 4.4995 198.269 4.1935 198.269 3.8455C198.269 3.4195 198.436 3.0625 198.769 2.7745C199.105 2.4835 199.519 2.338 200.011 2.338H202.103V7H201.284V5.353ZM200.038 4.6465H201.284V3.0445H200.038C199.768 3.0445 199.541 3.121 199.358 3.274C199.178 3.427 199.088 3.6175 199.088 3.8455C199.088 4.0765 199.178 4.2685 199.358 4.4215C199.541 4.5715 199.768 4.6465 200.038 4.6465ZM210.165 6.28V7.954H209.346V7H206.475V7.954H205.656V6.28H206.142C206.589 5.335 206.813 4.021 206.813 2.338H209.567V6.28H210.165ZM207.015 6.28H208.761V3.058H207.591C207.591 3.601 207.54 4.165 207.438 4.75C207.339 5.332 207.198 5.842 207.015 6.28ZM211.51 4.9255C211.555 5.3485 211.733 5.701 212.045 5.983C212.36 6.262 212.74 6.4015 213.184 6.4015C213.754 6.4015 214.244 6.1765 214.655 5.7265L215.218 6.2485C214.972 6.5275 214.676 6.7405 214.331 6.8875C213.986 7.0345 213.611 7.108 213.206 7.108C212.834 7.108 212.489 7.045 212.171 6.919C211.853 6.79 211.585 6.616 211.366 6.397C211.15 6.178 210.98 5.92 210.857 5.623C210.734 5.323 210.673 5.005 210.673 4.669C210.673 4.336 210.734 4.0195 210.857 3.7195C210.983 3.4195 211.154 3.16 211.37 2.941C211.589 2.722 211.852 2.5495 212.158 2.4235C212.464 2.2945 212.791 2.23 213.139 2.23C213.592 2.23 214 2.335 214.363 2.545C214.729 2.755 215.012 3.0385 215.213 3.3955C215.414 3.7495 215.515 4.1395 215.515 4.5655C215.515 4.6855 215.501 4.8055 215.474 4.9255H211.51ZM213.139 2.9365C212.755 2.9365 212.413 3.061 212.113 3.31C211.813 3.559 211.622 3.871 211.541 4.246H214.655C214.592 3.865 214.421 3.5515 214.142 3.3055C213.863 3.0595 213.529 2.9365 213.139 2.9365ZM219.5 7L217.903 4.786H217.327V7H216.508V2.338H217.327V4.0795H217.912L219.23 2.338H220.202L218.591 4.4305L220.445 7H219.5ZM221.522 5.6545V2.338H225.351V7H224.532V3.0715H222.341V5.7175C222.341 6.0955 222.222 6.409 221.985 6.658C221.748 6.907 221.447 7.0315 221.081 7.0315C220.922 7.0315 220.79 7.021 220.685 7V6.2755C220.733 6.2785 220.812 6.28 220.923 6.28C221.1 6.28 221.244 6.223 221.355 6.109C221.466 5.995 221.522 5.8435 221.522 5.6545ZM228.864 6.3745C229.191 6.3745 229.488 6.2905 229.755 6.1225C230.025 5.9545 230.23 5.731 230.371 5.452V3.8995C230.23 3.6175 230.025 3.391 229.755 3.22C229.488 3.049 229.191 2.9635 228.864 2.9635C228.39 2.9635 227.989 3.13 227.662 3.463C227.338 3.793 227.176 4.195 227.176 4.669C227.176 5.143 227.338 5.5465 227.662 5.8795C227.989 6.2095 228.39 6.3745 228.864 6.3745ZM228.729 2.23C229.392 2.23 229.939 2.467 230.371 2.941V2.338H231.19V7H230.371V6.397C229.942 6.871 229.395 7.108 228.729 7.108C228.279 7.108 227.869 6.997 227.5 6.775C227.134 6.55 226.849 6.253 226.645 5.884C226.444 5.512 226.344 5.107 226.344 4.669C226.344 4.231 226.444 3.8275 226.645 3.4585C226.849 3.0865 227.134 2.7895 227.5 2.5675C227.869 2.3425 228.279 2.23 228.729 2.23ZM234.83 6.3745C235.304 6.3745 235.703 6.2095 236.027 5.8795C236.354 5.5465 236.518 5.143 236.518 4.669C236.518 4.195 236.354 3.793 236.027 3.463C235.703 3.13 235.304 2.9635 234.83 2.9635C234.503 2.9635 234.205 3.049 233.935 3.22C233.668 3.391 233.464 3.6175 233.323 3.8995V5.452C233.464 5.731 233.668 5.9545 233.935 6.1225C234.205 6.2905 234.503 6.3745 234.83 6.3745ZM234.965 2.23C235.415 2.23 235.823 2.3425 236.189 2.5675C236.558 2.7895 236.843 3.0865 237.044 3.4585C237.248 3.8275 237.35 4.231 237.35 4.669C237.35 5.107 237.248 5.512 237.044 5.884C236.843 6.253 236.558 6.55 236.189 6.775C235.823 6.997 235.415 7.108 234.965 7.108C234.299 7.108 233.752 6.871 233.323 6.397V9.088H232.504V2.338H233.323V2.941C233.755 2.467 234.302 2.23 234.965 2.23ZM240.536 6.3745C240.863 6.3745 241.16 6.2905 241.427 6.1225C241.697 5.9545 241.902 5.731 242.043 5.452V3.8995C241.902 3.6175 241.697 3.391 241.427 3.22C241.16 3.049 240.863 2.9635 240.536 2.9635C240.062 2.9635 239.661 3.13 239.334 3.463C239.01 3.793 238.848 4.195 238.848 4.669C238.848 5.143 239.01 5.5465 239.334 5.8795C239.661 6.2095 240.062 6.3745 240.536 6.3745ZM240.401 2.23C241.064 2.23 241.611 2.467 242.043 2.941V2.338H242.862V7H242.043V6.397C241.614 6.871 241.067 7.108 240.401 7.108C239.951 7.108 239.541 6.997 239.172 6.775C238.806 6.55 238.521 6.253 238.317 5.884C238.116 5.512 238.016 5.107 238.016 4.669C238.016 4.231 238.116 3.8275 238.317 3.4585C238.521 3.0865 238.806 2.7895 239.172 2.5675C239.541 2.3425 239.951 2.23 240.401 2.23ZM248.113 8.26V7H244.176V2.338H244.995V6.2665H247.564V2.338H248.383V6.2665H248.932V8.26H248.113ZM254.017 2.338V7H253.225V3.49L250.588 7H249.809V2.338H250.601V5.848L253.238 2.338H254.017ZM258.114 5.353H257.192L255.891 7H254.982L256.337 5.2945C255.968 5.2045 255.669 5.0275 255.441 4.7635C255.213 4.4995 255.099 4.1935 255.099 3.8455C255.099 3.4195 255.266 3.0625 255.599 2.7745C255.935 2.4835 256.349 2.338 256.841 2.338H258.933V7H258.114V5.353ZM256.868 4.6465H258.114V3.0445H256.868C256.598 3.0445 256.371 3.121 256.188 3.274C256.008 3.427 255.918 3.6175 255.918 3.8455C255.918 4.0765 256.008 4.2685 256.188 4.4215C256.371 4.5715 256.598 4.6465 256.868 4.6465ZM4.8645 11.338V16H4.0455V13.957H1.476V16H0.657V11.338H1.476V13.2235H4.0455V11.338H4.8645ZM8.37253 15.3745C8.69953 15.3745 8.99653 15.2905 9.26353 15.1225C9.53353 14.9545 9.73903 14.731 9.88003 14.452V12.8995C9.73903 12.6175 9.53353 12.391 9.26353 12.22C8.99653 12.049 8.69953 11.9635 8.37253 11.9635C7.89853 11.9635 7.49803 12.13 7.17103 12.463C6.84703 12.793 6.68503 13.195 6.68503 13.669C6.68503 14.143 6.84703 14.5465 7.17103 14.8795C7.49803 15.2095 7.89853 15.3745 8.37253 15.3745ZM8.23753 11.23C8.90053 11.23 9.44803 11.467 9.88003 11.941V11.338H10.699V16H9.88003V15.397C9.45103 15.871 8.90353 16.108 8.23753 16.108C7.78753 16.108 7.37803 15.997 7.00903 15.775C6.64303 15.55 6.35803 15.253 6.15403 14.884C5.95303 14.512 5.85253 14.107 5.85253 13.669C5.85253 13.231 5.95303 12.8275 6.15403 12.4585C6.35803 12.0865 6.64303 11.7895 7.00903 11.5675C7.37803 11.3425 7.78753 11.23 8.23753 11.23ZM16.8803 16.108C16.4063 16.108 15.9758 15.9985 15.5888 15.7795C15.2018 15.5605 14.9003 15.265 14.6843 14.893C14.4683 14.521 14.3603 14.113 14.3603 13.669C14.3603 13.225 14.4683 12.817 14.6843 12.445C14.9003 12.073 15.2018 11.7775 15.5888 11.5585C15.9758 11.3395 16.4063 11.23 16.8803 11.23C17.5313 11.23 18.0968 11.4355 18.5768 11.8465L18.1493 12.49C17.7533 12.139 17.3303 11.9635 16.8803 11.9635C16.4063 11.9635 16.0058 12.13 15.6788 12.463C15.3548 12.793 15.1928 13.195 15.1928 13.669C15.1928 14.143 15.3548 14.5465 15.6788 14.8795C16.0058 15.2095 16.4063 15.3745 16.8803 15.3745C17.3663 15.3745 17.7998 15.187 18.1808 14.812L18.6623 15.4105C18.1823 15.8755 17.5883 16.108 16.8803 16.108ZM21.8198 15.3745C22.1468 15.3745 22.4438 15.2905 22.7108 15.1225C22.9808 14.9545 23.1863 14.731 23.3273 14.452V12.8995C23.1863 12.6175 22.9808 12.391 22.7108 12.22C22.4438 12.049 22.1468 11.9635 21.8198 11.9635C21.3458 11.9635 20.9453 12.13 20.6183 12.463C20.2943 12.793 20.1323 13.195 20.1323 13.669C20.1323 14.143 20.2943 14.5465 20.6183 14.8795C20.9453 15.2095 21.3458 15.3745 21.8198 15.3745ZM21.6848 11.23C22.3478 11.23 22.8953 11.467 23.3273 11.941V11.338H24.1463V16H23.3273V15.397C22.8983 15.871 22.3508 16.108 21.6848 16.108C21.2348 16.108 20.8253 15.997 20.4563 15.775C20.0903 15.55 19.8053 15.253 19.6013 14.884C19.4003 14.512 19.2998 14.107 19.2998 13.669C19.2998 13.231 19.4003 12.8275 19.6013 12.4585C19.8053 12.0865 20.0903 11.7895 20.4563 11.5675C20.8253 11.3425 21.2348 11.23 21.6848 11.23ZM29.6672 11.338V16H28.8752V12.49L26.2382 16H25.4597V11.338H26.2517V14.848L28.8887 11.338H29.6672ZM28.5737 10.3615C28.2947 10.6225 27.9572 10.753 27.5612 10.753C27.1652 10.753 26.8262 10.6225 26.5442 10.3615C26.2652 10.0975 26.1152 9.7645 26.0942 9.3625H26.8232C26.8322 9.5875 26.9042 9.7735 27.0392 9.9205C27.1772 10.0675 27.3512 10.141 27.5612 10.141C27.7712 10.141 27.9437 10.0675 28.0787 9.9205C28.2167 9.7735 28.2902 9.5875 28.2992 9.3625H29.0282C29.0072 9.7645 28.8557 10.0975 28.5737 10.3615ZM32.0278 12.0715H30.5248V11.338H34.3498V12.0715H32.8468V16H32.0278V12.0715ZM35.544 13.9255C35.589 14.3485 35.7675 14.701 36.0795 14.983C36.3945 15.262 36.774 15.4015 37.218 15.4015C37.788 15.4015 38.2785 15.1765 38.6895 14.7265L39.252 15.2485C39.006 15.5275 38.7105 15.7405 38.3655 15.8875C38.0205 16.0345 37.6455 16.108 37.2405 16.108C36.8685 16.108 36.5235 16.045 36.2055 15.919C35.8875 15.79 35.619 15.616 35.4 15.397C35.184 15.178 35.0145 14.92 34.8915 14.623C34.7685 14.323 34.707 14.005 34.707 13.669C34.707 13.336 34.7685 13.0195 34.8915 12.7195C35.0175 12.4195 35.1885 12.16 35.4045 11.941C35.6235 11.722 35.886 11.5495 36.192 11.4235C36.498 11.2945 36.825 11.23 37.173 11.23C37.626 11.23 38.034 11.335 38.397 11.545C38.763 11.755 39.0465 12.0385 39.2475 12.3955C39.4485 12.7495 39.549 13.1395 39.549 13.5655C39.549 13.6855 39.5355 13.8055 39.5085 13.9255H35.544ZM37.173 11.9365C36.789 11.9365 36.447 12.061 36.147 12.31C35.847 12.559 35.6565 12.871 35.5755 13.246H38.6895C38.6265 12.865 38.4555 12.5515 38.1765 12.3055C37.8975 12.0595 37.563 11.9365 37.173 11.9365ZM47.4211 11.338V16H46.6021V13.957H44.0326V16H43.2136V11.338H44.0326V13.2235H46.6021V11.338H47.4211ZM50.9292 15.3745C51.2562 15.3745 51.5532 15.2905 51.8202 15.1225C52.0902 14.9545 52.2957 14.731 52.4367 14.452V12.8995C52.2957 12.6175 52.0902 12.391 51.8202 12.22C51.5532 12.049 51.2562 11.9635 50.9292 11.9635C50.4552 11.9635 50.0547 12.13 49.7277 12.463C49.4037 12.793 49.2417 13.195 49.2417 13.669C49.2417 14.143 49.4037 14.5465 49.7277 14.8795C50.0547 15.2095 50.4552 15.3745 50.9292 15.3745ZM50.7942 11.23C51.4572 11.23 52.0047 11.467 52.4367 11.941V11.338H53.2557V16H52.4367V15.397C52.0077 15.871 51.4602 16.108 50.7942 16.108C50.3442 16.108 49.9347 15.997 49.5657 15.775C49.1997 15.55 48.9147 15.253 48.7107 14.884C48.5097 14.512 48.4092 14.107 48.4092 13.669C48.4092 13.231 48.5097 12.8275 48.7107 12.4585C48.9147 12.0865 49.1997 11.7895 49.5657 11.5675C49.9347 11.3425 50.3442 11.23 50.7942 11.23ZM60.3471 11.338V16H54.5691V11.338H55.3881V15.2665H57.0486V11.338H57.8676V15.2665H59.5281V11.338H60.3471ZM61.9409 15.946C61.8329 15.838 61.7789 15.7045 61.7789 15.5455C61.7789 15.3865 61.8329 15.253 61.9409 15.145C62.0489 15.037 62.1824 14.983 62.3414 14.983C62.5004 14.983 62.6339 15.037 62.7419 15.145C62.8499 15.253 62.9039 15.3865 62.9039 15.5455C62.9039 15.7045 62.8499 15.838 62.7419 15.946C62.6339 16.054 62.5004 16.108 62.3414 16.108C62.1824 16.108 62.0489 16.054 61.9409 15.946ZM68.4063 15.28V16.954H67.5873V16H64.7163V16.954H63.8973V15.28H64.3833C64.8303 14.335 65.0538 13.021 65.0538 11.338H67.8078V15.28H68.4063ZM65.2563 15.28H67.0023V12.058H65.8323C65.8323 12.601 65.7813 13.165 65.6793 13.75C65.5803 14.332 65.4393 14.842 65.2563 15.28ZM70.2326 14.8795C70.5596 15.2095 70.9601 15.3745 71.4341 15.3745C71.9081 15.3745 72.3071 15.2095 72.6311 14.8795C72.9581 14.5465 73.1216 14.143 73.1216 13.669C73.1216 13.195 72.9581 12.793 72.6311 12.463C72.3071 12.13 71.9081 11.9635 71.4341 11.9635C70.9601 11.9635 70.5596 12.13 70.2326 12.463C69.9086 12.793 69.7466 13.195 69.7466 13.669C69.7466 14.143 69.9086 14.5465 70.2326 14.8795ZM70.1426 11.5585C70.5296 11.3395 70.9601 11.23 71.4341 11.23C71.9081 11.23 72.3386 11.3395 72.7256 11.5585C73.1126 11.7775 73.4141 12.073 73.6301 12.445C73.8461 12.817 73.9541 13.225 73.9541 13.669C73.9541 14.113 73.8461 14.521 73.6301 14.893C73.4141 15.265 73.1126 15.5605 72.7256 15.7795C72.3386 15.9985 71.9081 16.108 71.4341 16.108C70.9601 16.108 70.5296 15.9985 70.1426 15.7795C69.7556 15.5605 69.4541 15.265 69.2381 14.893C69.0221 14.521 68.9141 14.113 68.9141 13.669C68.9141 13.225 69.0221 12.817 69.2381 12.445C69.4541 12.073 69.7556 11.7775 70.1426 11.5585ZM75.6982 11.338L77.3227 13.795L78.9472 11.338H79.7032V16H78.9112V12.5935L77.5702 14.5915H77.0752L75.7342 12.5935V16H74.9422V11.338H75.6982ZM81.2944 15.946C81.1864 15.838 81.1324 15.7045 81.1324 15.5455C81.1324 15.3865 81.1864 15.253 81.2944 15.145C81.4024 15.037 81.5359 14.983 81.6949 14.983C81.8539 14.983 81.9874 15.037 82.0954 15.145C82.2034 15.253 82.2574 15.3865 82.2574 15.5455C82.2574 15.7045 82.2034 15.838 82.0954 15.946C81.9874 16.054 81.8539 16.108 81.6949 16.108C81.5359 16.108 81.4024 16.054 81.2944 15.946ZM86.0138 15.3745C86.4878 15.3745 86.8868 15.2095 87.2108 14.8795C87.5378 14.5465 87.7013 14.143 87.7013 13.669C87.7013 13.195 87.5378 12.793 87.2108 12.463C86.8868 12.13 86.4878 11.9635 86.0138 11.9635C85.6868 11.9635 85.3883 12.049 85.1183 12.22C84.8513 12.391 84.6473 12.6175 84.5063 12.8995V14.452C84.6473 14.731 84.8513 14.9545 85.1183 15.1225C85.3883 15.2905 85.6868 15.3745 86.0138 15.3745ZM86.1488 11.23C86.5988 11.23 87.0068 11.3425 87.3728 11.5675C87.7418 11.7895 88.0268 12.0865 88.2278 12.4585C88.4318 12.8275 88.5338 13.231 88.5338 13.669C88.5338 14.107 88.4318 14.512 88.2278 14.884C88.0268 15.253 87.7418 15.55 87.3728 15.775C87.0068 15.997 86.5988 16.108 86.1488 16.108C85.4828 16.108 84.9353 15.871 84.5063 15.397V18.088H83.6873V11.338H84.5063V11.941C84.9383 11.467 85.4858 11.23 86.1488 11.23ZM91.7192 15.3745C92.0462 15.3745 92.3432 15.2905 92.6102 15.1225C92.8802 14.9545 93.0857 14.731 93.2267 14.452V12.8995C93.0857 12.6175 92.8802 12.391 92.6102 12.22C92.3432 12.049 92.0462 11.9635 91.7192 11.9635C91.2452 11.9635 90.8447 12.13 90.5177 12.463C90.1937 12.793 90.0317 13.195 90.0317 13.669C90.0317 14.143 90.1937 14.5465 90.5177 14.8795C90.8447 15.2095 91.2452 15.3745 91.7192 15.3745ZM94.0457 15.397V18.088H93.2267V15.397C92.7977 15.871 92.2502 16.108 91.5842 16.108C91.1342 16.108 90.7247 15.997 90.3557 15.775C89.9897 15.55 89.7047 15.253 89.5007 14.884C89.2997 14.512 89.1992 14.107 89.1992 13.669C89.1992 13.231 89.2997 12.8275 89.5007 12.4585C89.7047 12.0865 89.9897 11.7895 90.3557 11.5675C90.7247 11.3425 91.1342 11.23 91.5842 11.23C92.2472 11.23 92.7947 11.467 93.2267 11.941V9.43H94.0457V11.941C94.4777 11.467 95.0252 11.23 95.6882 11.23C96.1382 11.23 96.5462 11.3425 96.9122 11.5675C97.2812 11.7895 97.5662 12.0865 97.7672 12.4585C97.9712 12.8275 98.0732 13.231 98.0732 13.669C98.0732 14.107 97.9712 14.512 97.7672 14.884C97.5662 15.253 97.2812 15.55 96.9122 15.775C96.5462 15.997 96.1382 16.108 95.6882 16.108C95.0222 16.108 94.4747 15.871 94.0457 15.397ZM95.5532 15.3745C96.0272 15.3745 96.4262 15.2095 96.7502 14.8795C97.0772 14.5465 97.2407 14.143 97.2407 13.669C97.2407 13.195 97.0772 12.793 96.7502 12.463C96.4262 12.13 96.0272 11.9635 95.5532 11.9635C95.2262 11.9635 94.9277 12.049 94.6577 12.22C94.3907 12.391 94.1867 12.6175 94.0457 12.8995V14.452C94.1867 14.731 94.3907 14.9545 94.6577 15.1225C94.9277 15.2905 95.2262 15.3745 95.5532 15.3745ZM99.3383 15.946C99.2303 15.838 99.1763 15.7045 99.1763 15.5455C99.1763 15.3865 99.2303 15.253 99.3383 15.145C99.4463 15.037 99.5798 14.983 99.7388 14.983C99.8978 14.983 100.031 15.037 100.139 15.145C100.247 15.253 100.301 15.3865 100.301 15.5455C100.301 15.7045 100.247 15.838 100.139 15.946C100.031 16.054 99.8978 16.108 99.7388 16.108C99.5798 16.108 99.4463 16.054 99.3383 15.946ZM104.606 9.7H105.452V16H104.606V9.7ZM107.069 9.7H109.206C110.154 9.7 110.907 9.985 111.465 10.555C112.026 11.122 112.307 11.887 112.307 12.85C112.307 13.813 112.026 14.5795 111.465 15.1495C110.907 15.7165 110.154 16 109.206 16H107.069V9.7ZM109.206 10.447H107.915V15.253H109.206C109.887 15.253 110.43 15.046 110.835 14.632C111.243 14.215 111.447 13.621 111.447 12.85C111.447 12.079 111.243 11.4865 110.835 11.0725C110.43 10.6555 109.887 10.447 109.206 10.447ZM120.068 15.28V16.954H119.249V16H116.378V16.954H115.559V15.28H116.045C116.492 14.335 116.716 13.021 116.716 11.338H119.47V15.28H120.068ZM116.918 15.28H118.664V12.058H117.494C117.494 12.601 117.443 13.165 117.341 13.75C117.242 14.332 117.101 14.842 116.918 15.28ZM121.895 14.8795C122.222 15.2095 122.622 15.3745 123.096 15.3745C123.57 15.3745 123.969 15.2095 124.293 14.8795C124.62 14.5465 124.784 14.143 124.784 13.669C124.784 13.195 124.62 12.793 124.293 12.463C123.969 12.13 123.57 11.9635 123.096 11.9635C122.622 11.9635 122.222 12.13 121.895 12.463C121.571 12.793 121.409 13.195 121.409 13.669C121.409 14.143 121.571 14.5465 121.895 14.8795ZM121.805 11.5585C122.192 11.3395 122.622 11.23 123.096 11.23C123.57 11.23 124.001 11.3395 124.388 11.5585C124.775 11.7775 125.076 12.073 125.292 12.445C125.508 12.817 125.616 13.225 125.616 13.669C125.616 14.113 125.508 14.521 125.292 14.893C125.076 15.265 124.775 15.5605 124.388 15.7795C124.001 15.9985 123.57 16.108 123.096 16.108C122.622 16.108 122.192 15.9985 121.805 15.7795C121.418 15.5605 121.116 15.265 120.9 14.893C120.684 14.521 120.576 14.113 120.576 13.669C120.576 13.225 120.684 12.817 120.9 12.445C121.116 12.073 121.418 11.7775 121.805 11.5585ZM127.36 11.338L128.985 13.795L130.609 11.338H131.365V16H130.573V12.5935L129.232 14.5915H128.737L127.396 12.5935V16H126.604V11.338H127.36ZM133.672 14.8795C133.999 15.2095 134.4 15.3745 134.874 15.3745C135.348 15.3745 135.747 15.2095 136.071 14.8795C136.398 14.5465 136.561 14.143 136.561 13.669C136.561 13.195 136.398 12.793 136.071 12.463C135.747 12.13 135.348 11.9635 134.874 11.9635C134.4 11.9635 133.999 12.13 133.672 12.463C133.348 12.793 133.186 13.195 133.186 13.669C133.186 14.143 133.348 14.5465 133.672 14.8795ZM133.582 11.5585C133.969 11.3395 134.4 11.23 134.874 11.23C135.348 11.23 135.778 11.3395 136.165 11.5585C136.552 11.7775 136.854 12.073 137.07 12.445C137.286 12.817 137.394 13.225 137.394 13.669C137.394 14.113 137.286 14.521 137.07 14.893C136.854 15.265 136.552 15.5605 136.165 15.7795C135.778 15.9985 135.348 16.108 134.874 16.108C134.4 16.108 133.969 15.9985 133.582 15.7795C133.195 15.5605 132.894 15.265 132.678 14.893C132.462 14.521 132.354 14.113 132.354 13.669C132.354 13.225 132.462 12.817 132.678 12.445C132.894 12.073 133.195 11.7775 133.582 11.5585ZM140.353 16H138.382V11.338H140.213C140.639 11.338 140.996 11.4565 141.284 11.6935C141.575 11.9305 141.721 12.223 141.721 12.571C141.721 12.787 141.656 12.9835 141.527 13.1605C141.398 13.3375 141.23 13.4665 141.023 13.5475C141.281 13.6075 141.497 13.7455 141.671 13.9615C141.848 14.1775 141.937 14.4175 141.937 14.6815C141.937 15.0535 141.784 15.367 141.478 15.622C141.175 15.874 140.8 16 140.353 16ZM139.201 13.2595H140.159C140.372 13.2595 140.549 13.2025 140.69 13.0885C140.831 12.9715 140.902 12.826 140.902 12.652C140.902 12.478 140.831 12.334 140.69 12.22C140.549 12.103 140.372 12.0445 140.159 12.0445H139.201V13.2595ZM139.201 15.2935H140.312C140.54 15.2935 140.731 15.229 140.884 15.1C141.04 14.971 141.118 14.812 141.118 14.623C141.118 14.431 141.04 14.269 140.884 14.137C140.731 14.005 140.54 13.939 140.312 13.939H139.201V15.2935ZM143.301 15.946C143.193 15.838 143.139 15.7045 143.139 15.5455C143.139 15.3865 143.193 15.253 143.301 15.145C143.409 15.037 143.543 14.983 143.702 14.983C143.861 14.983 143.994 15.037 144.102 15.145C144.21 15.253 144.264 15.3865 144.264 15.5455C144.264 15.7045 144.21 15.838 144.102 15.946C143.994 16.054 143.861 16.108 143.702 16.108C143.543 16.108 143.409 16.054 143.301 15.946ZM143.301 12.193C143.193 12.085 143.139 11.9515 143.139 11.7925C143.139 11.6335 143.193 11.5 143.301 11.392C143.409 11.284 143.543 11.23 143.702 11.23C143.861 11.23 143.994 11.284 144.102 11.392C144.21 11.5 144.264 11.6335 144.264 11.7925C144.264 11.9515 144.21 12.085 144.102 12.193C143.994 12.301 143.861 12.355 143.702 12.355C143.543 12.355 143.409 12.301 143.301 12.193ZM151.489 14.047C151.489 13.675 151.355 13.3585 151.088 13.0975C150.821 12.8365 150.49 12.706 150.094 12.706C149.974 12.706 149.851 12.7255 149.725 12.7645L149.396 12.346L151.016 10.4335H148.523V9.7H152.029V10.4335L150.526 12.1705C151.06 12.2095 151.492 12.4135 151.822 12.7825C152.155 13.1485 152.321 13.5955 152.321 14.1235C152.321 14.3755 152.269 14.62 152.164 14.857C152.059 15.094 151.913 15.3055 151.727 15.4915C151.541 15.6775 151.309 15.8275 151.03 15.9415C150.751 16.0525 150.448 16.108 150.121 16.108C149.704 16.108 149.329 16.018 148.996 15.838C148.666 15.658 148.391 15.4015 148.172 15.0685L148.744 14.5915C149.095 15.1225 149.545 15.388 150.094 15.388C150.49 15.388 150.821 15.259 151.088 15.001C151.355 14.74 151.489 14.422 151.489 14.047ZM153.813 9.7H157.67V10.402L155.321 16H154.385L156.734 10.4335H153.813V9.7ZM159.98 16L161.542 13.5835C161.389 13.6765 161.198 13.723 160.97 13.723C160.406 13.723 159.919 13.528 159.508 13.138C159.1 12.745 158.896 12.253 158.896 11.662C158.896 11.272 158.998 10.9165 159.202 10.5955C159.406 10.2745 159.673 10.027 160.003 9.853C160.336 9.679 160.694 9.592 161.078 9.592C161.462 9.592 161.821 9.679 162.154 9.853C162.487 10.027 162.755 10.2745 162.959 10.5955C163.163 10.9165 163.265 11.272 163.265 11.662C163.265 12.067 163.162 12.43 162.955 12.751L160.867 16H159.98ZM159.728 11.662C159.728 12.043 159.859 12.364 160.12 12.625C160.384 12.886 160.703 13.0165 161.078 13.0165C161.453 13.0165 161.773 12.886 162.037 12.625C162.301 12.364 162.433 12.043 162.433 11.662C162.433 11.284 162.301 10.9645 162.037 10.7035C161.776 10.4425 161.456 10.312 161.078 10.312C160.703 10.312 160.384 10.4425 160.12 10.7035C159.859 10.9645 159.728 11.284 159.728 11.662ZM167.52 14.047C167.52 13.675 167.387 13.3585 167.12 13.0975C166.853 12.8365 166.521 12.706 166.125 12.706C166.005 12.706 165.882 12.7255 165.756 12.7645L165.428 12.346L167.048 10.4335H164.555V9.7H168.06V10.4335L166.557 12.1705C167.091 12.2095 167.523 12.4135 167.853 12.7825C168.186 13.1485 168.353 13.5955 168.353 14.1235C168.353 14.3755 168.3 14.62 168.195 14.857C168.09 15.094 167.945 15.3055 167.759 15.4915C167.573 15.6775 167.34 15.8275 167.061 15.9415C166.782 16.0525 166.479 16.108 166.152 16.108C165.735 16.108 165.36 16.018 165.027 15.838C164.697 15.658 164.423 15.4015 164.204 15.0685L164.775 14.5915C165.126 15.1225 165.576 15.388 166.125 15.388C166.521 15.388 166.853 15.259 167.12 15.001C167.387 14.74 167.52 14.422 167.52 14.047ZM172.828 13.2775L171.019 15.28H173.66V16H169.925V15.316L172.18 12.832C172.435 12.55 172.616 12.298 172.724 12.076C172.835 11.851 172.891 11.6215 172.891 11.3875C172.891 11.0725 172.784 10.8145 172.571 10.6135C172.361 10.4125 172.091 10.312 171.761 10.312C171.161 10.312 170.753 10.6315 170.537 11.2705L169.84 10.969C169.963 10.549 170.191 10.2145 170.524 9.9655C170.86 9.7165 171.272 9.592 171.761 9.592C172.331 9.592 172.801 9.757 173.17 10.087C173.539 10.417 173.723 10.849 173.723 11.383C173.723 11.719 173.653 12.031 173.512 12.319C173.371 12.607 173.143 12.9265 172.828 13.2775ZM175.202 15.5455C175.202 15.3865 175.256 15.253 175.364 15.145C175.472 15.037 175.605 14.983 175.764 14.983C175.923 14.983 176.057 15.037 176.165 15.145C176.273 15.253 176.327 15.3865 176.327 15.5455C176.327 15.6325 176.307 15.718 176.268 15.802L175.674 17.1025H175.13L175.589 16.081C175.472 16.045 175.377 15.979 175.305 15.883C175.236 15.784 175.202 15.6715 175.202 15.5455ZM183.551 14.047C183.551 13.675 183.418 13.3585 183.151 13.0975C182.884 12.8365 182.552 12.706 182.156 12.706C182.036 12.706 181.913 12.7255 181.787 12.7645L181.459 12.346L183.079 10.4335H180.586V9.7H184.091V10.4335L182.588 12.1705C183.122 12.2095 183.554 12.4135 183.884 12.7825C184.217 13.1485 184.384 13.5955 184.384 14.1235C184.384 14.3755 184.331 14.62 184.226 14.857C184.121 15.094 183.976 15.3055 183.79 15.4915C183.604 15.6775 183.371 15.8275 183.092 15.9415C182.813 16.0525 182.51 16.108 182.183 16.108C181.766 16.108 181.391 16.018 181.058 15.838C180.728 15.658 180.454 15.4015 180.235 15.0685L180.806 14.5915C181.157 15.1225 181.607 15.388 182.156 15.388C182.552 15.388 182.884 15.259 183.151 15.001C183.418 14.74 183.551 14.422 183.551 14.047ZM189.318 15.55C188.904 15.922 188.394 16.108 187.788 16.108C187.182 16.108 186.672 15.922 186.258 15.55C185.844 15.175 185.637 14.713 185.637 14.164C185.637 13.786 185.744 13.45 185.957 13.156C186.173 12.862 186.465 12.655 186.834 12.535C186.579 12.43 186.369 12.2575 186.204 12.0175C186.042 11.7775 185.961 11.518 185.961 11.239C185.961 10.777 186.134 10.387 186.479 10.069C186.827 9.751 187.263 9.592 187.788 9.592C188.313 9.592 188.748 9.751 189.093 10.069C189.441 10.387 189.615 10.777 189.615 11.239C189.615 11.518 189.533 11.7775 189.368 12.0175C189.206 12.2575 188.997 12.43 188.742 12.535C189.111 12.655 189.402 12.862 189.615 13.156C189.831 13.45 189.939 13.786 189.939 14.164C189.939 14.713 189.732 15.175 189.318 15.55ZM188.724 13.273C188.472 13.03 188.16 12.9085 187.788 12.9085C187.416 12.9085 187.103 13.03 186.848 13.273C186.596 13.516 186.47 13.8085 186.47 14.1505C186.47 14.4925 186.596 14.785 186.848 15.028C187.103 15.268 187.416 15.388 187.788 15.388C188.16 15.388 188.472 15.268 188.724 15.028C188.979 14.785 189.107 14.4925 189.107 14.1505C189.107 13.8085 188.979 13.516 188.724 13.273ZM187.064 11.932C187.262 12.121 187.503 12.2155 187.788 12.2155C188.073 12.2155 188.315 12.121 188.513 11.932C188.711 11.743 188.81 11.518 188.81 11.257C188.81 10.996 188.711 10.774 188.513 10.591C188.315 10.405 188.073 10.312 187.788 10.312C187.503 10.312 187.262 10.405 187.064 10.591C186.866 10.774 186.767 10.996 186.767 11.257C186.767 11.518 186.866 11.743 187.064 11.932ZM194.221 9.7L192.659 12.1165C192.812 12.0235 193.003 11.977 193.231 11.977C193.795 11.977 194.281 12.1735 194.689 12.5665C195.1 12.9565 195.305 13.447 195.305 14.038C195.305 14.428 195.203 14.7835 194.999 15.1045C194.795 15.4255 194.527 15.673 194.194 15.847C193.864 16.021 193.507 16.108 193.123 16.108C192.739 16.108 192.38 16.021 192.047 15.847C191.714 15.673 191.446 15.4255 191.242 15.1045C191.038 14.7835 190.936 14.428 190.936 14.038C190.936 13.633 191.039 13.27 191.246 12.949L193.334 9.7H194.221ZM194.473 14.038C194.473 13.657 194.341 13.336 194.077 13.075C193.816 12.814 193.498 12.6835 193.123 12.6835C192.748 12.6835 192.428 12.814 192.164 13.075C191.9 13.336 191.768 13.657 191.768 14.038C191.768 14.416 191.899 14.7355 192.16 14.9965C192.424 15.2575 192.745 15.388 193.123 15.388C193.498 15.388 193.816 15.2575 194.077 14.9965C194.341 14.7355 194.473 14.416 194.473 14.038ZM198.453 9.7H199.218V16H198.386V10.537L197.193 11.1895L196.842 10.573L198.453 9.7ZM204.926 14.047C204.926 13.675 204.793 13.3585 204.526 13.0975C204.259 12.8365 203.927 12.706 203.531 12.706C203.411 12.706 203.288 12.7255 203.162 12.7645L202.834 12.346L204.454 10.4335H201.961V9.7H205.466V10.4335L203.963 12.1705C204.497 12.2095 204.929 12.4135 205.259 12.7825C205.592 13.1485 205.759 13.5955 205.759 14.1235C205.759 14.3755 205.706 14.62 205.601 14.857C205.496 15.094 205.351 15.3055 205.165 15.4915C204.979 15.6775 204.746 15.8275 204.467 15.9415C204.188 16.0525 203.885 16.108 203.558 16.108C203.141 16.108 202.766 16.018 202.433 15.838C202.103 15.658 201.829 15.4015 201.61 15.0685L202.181 14.5915C202.532 15.1225 202.982 15.388 203.531 15.388C203.927 15.388 204.259 15.259 204.526 15.001C204.793 14.74 204.926 14.422 204.926 14.047ZM207.426 15.946C207.318 15.838 207.264 15.7045 207.264 15.5455C207.264 15.3865 207.318 15.253 207.426 15.145C207.534 15.037 207.668 14.983 207.827 14.983C207.986 14.983 208.119 15.037 208.227 15.145C208.335 15.253 208.389 15.3865 208.389 15.5455C208.389 15.7045 208.335 15.838 208.227 15.946C208.119 16.054 207.986 16.108 207.827 16.108C207.668 16.108 207.534 16.054 207.426 15.946ZM0.756 27V20.7H1.602V23.4675H4.671V20.7H5.517V27H4.671V24.201H1.602V27H0.756ZM7.44539 24.9255C7.49039 25.3485 7.66889 25.701 7.98089 25.983C8.29589 26.262 8.67539 26.4015 9.11939 26.4015C9.68939 26.4015 10.1799 26.1765 10.5909 25.7265L11.1534 26.2485C10.9074 26.5275 10.6119 26.7405 10.2669 26.8875C9.92189 27.0345 9.54689 27.108 9.14189 27.108C8.76989 27.108 8.42489 27.045 8.10689 26.919C7.78889 26.79 7.52039 26.616 7.30139 26.397C7.08539 26.178 6.91589 25.92 6.79289 25.623C6.66989 25.323 6.60839 25.005 6.60839 24.669C6.60839 24.336 6.66989 24.0195 6.79289 23.7195C6.91889 23.4195 7.08989 23.16 7.30589 22.941C7.52489 22.722 7.78739 22.5495 8.09339 22.4235C8.39939 22.2945 8.72639 22.23 9.07439 22.23C9.52739 22.23 9.93539 22.335 10.2984 22.545C10.6644 22.755 10.9479 23.0385 11.1489 23.3955C11.3499 23.7495 11.4504 24.1395 11.4504 24.5655C11.4504 24.6855 11.4369 24.8055 11.4099 24.9255H7.44539ZM9.07439 22.9365C8.69039 22.9365 8.34839 23.061 8.04839 23.31C7.74839 23.559 7.55789 23.871 7.47689 24.246H10.5909C10.5279 23.865 10.3569 23.5515 10.0779 23.3055C9.79889 23.0595 9.46439 22.9365 9.07439 22.9365ZM17.9005 25.353H16.978L15.6775 27H14.7685L16.123 25.2945C15.754 25.2045 15.4555 25.0275 15.2275 24.7635C14.9995 24.4995 14.8855 24.1935 14.8855 23.8455C14.8855 23.4195 15.052 23.0625 15.385 22.7745C15.721 22.4835 16.135 22.338 16.627 22.338H18.7195V27H17.9005V25.353ZM16.654 24.6465H17.9005V23.0445H16.654C16.384 23.0445 16.1575 23.121 15.9745 23.274C15.7945 23.427 15.7045 23.6175 15.7045 23.8455C15.7045 24.0765 15.7945 24.2685 15.9745 24.4215C16.1575 24.5715 16.384 24.6465 16.654 24.6465ZM22.0079 27H20.0369V22.338H21.8684C22.2944 22.338 22.6514 22.4565 22.9394 22.6935C23.2304 22.9305 23.3759 23.223 23.3759 23.571C23.3759 23.787 23.3114 23.9835 23.1824 24.1605C23.0534 24.3375 22.8854 24.4665 22.6784 24.5475C22.9364 24.6075 23.1524 24.7455 23.3264 24.9615C23.5034 25.1775 23.5919 25.4175 23.5919 25.6815C23.5919 26.0535 23.4389 26.367 23.1329 26.622C22.8299 26.874 22.4549 27 22.0079 27ZM20.8559 24.2595H21.8144C22.0274 24.2595 22.2044 24.2025 22.3454 24.0885C22.4864 23.9715 22.5569 23.826 22.5569 23.652C22.5569 23.478 22.4864 23.334 22.3454 23.22C22.2044 23.103 22.0274 23.0445 21.8144 23.0445H20.8559V24.2595ZM20.8559 26.2935H21.9674C22.1954 26.2935 22.3859 26.229 22.5389 26.1C22.6949 25.971 22.7729 25.812 22.7729 25.623C22.7729 25.431 22.6949 25.269 22.5389 25.137C22.3859 25.005 22.1954 24.939 21.9674 24.939H20.8559V26.2935ZM24.9721 25.6545V22.338H28.8016V27H27.9826V23.0715H25.7911V25.7175C25.7911 26.0955 25.6726 26.409 25.4356 26.658C25.1986 26.907 24.8971 27.0315 24.5311 27.0315C24.3721 27.0315 24.2401 27.021 24.1351 27V26.2755C24.1831 26.2785 24.2626 26.28 24.3736 26.28C24.5506 26.28 24.6946 26.223 24.8056 26.109C24.9166 25.995 24.9721 25.8435 24.9721 25.6545ZM32.9034 25.353H31.9809L30.6804 27H29.7714L31.1259 25.2945C30.7569 25.2045 30.4584 25.0275 30.2304 24.7635C30.0024 24.4995 29.8884 24.1935 29.8884 23.8455C29.8884 23.4195 30.0549 23.0625 30.3879 22.7745C30.7239 22.4835 31.1379 22.338 31.6299 22.338H33.7224V27H32.9034V25.353ZM31.6569 24.6465H32.9034V23.0445H31.6569C31.3869 23.0445 31.1604 23.121 30.9774 23.274C30.7974 23.427 30.7074 23.6175 30.7074 23.8455C30.7074 24.0765 30.7974 24.2685 30.9774 24.4215C31.1604 24.5715 31.3869 24.6465 31.6569 24.6465ZM35.5528 24.9255C35.5978 25.3485 35.7763 25.701 36.0883 25.983C36.4033 26.262 36.7828 26.4015 37.2268 26.4015C37.7968 26.4015 38.2873 26.1765 38.6983 25.7265L39.2608 26.2485C39.0148 26.5275 38.7193 26.7405 38.3743 26.8875C38.0293 27.0345 37.6543 27.108 37.2493 27.108C36.8773 27.108 36.5323 27.045 36.2143 26.919C35.8963 26.79 35.6278 26.616 35.4088 26.397C35.1928 26.178 35.0233 25.92 34.9003 25.623C34.7773 25.323 34.7158 25.005 34.7158 24.669C34.7158 24.336 34.7773 24.0195 34.9003 23.7195C35.0263 23.4195 35.1973 23.16 35.4133 22.941C35.6323 22.722 35.8948 22.5495 36.2008 22.4235C36.5068 22.2945 36.8338 22.23 37.1818 22.23C37.6348 22.23 38.0428 22.335 38.4058 22.545C38.7718 22.755 39.0553 23.0385 39.2563 23.3955C39.4573 23.7495 39.5578 24.1395 39.5578 24.5655C39.5578 24.6855 39.5443 24.8055 39.5173 24.9255H35.5528ZM37.1818 22.9365C36.7978 22.9365 36.4558 23.061 36.1558 23.31C35.8558 23.559 35.6653 23.871 35.5843 24.246H38.6983C38.6353 23.865 38.4643 23.5515 38.1853 23.3055C37.9063 23.0595 37.5718 22.9365 37.1818 22.9365ZM41.5112 23.0715H40.0082V22.338H43.8332V23.0715H42.3302V27H41.5112V23.0715ZM46.7104 27.108C46.2364 27.108 45.8059 26.9985 45.4189 26.7795C45.0319 26.5605 44.7304 26.265 44.5144 25.893C44.2984 25.521 44.1904 25.113 44.1904 24.669C44.1904 24.225 44.2984 23.817 44.5144 23.445C44.7304 23.073 45.0319 22.7775 45.4189 22.5585C45.8059 22.3395 46.2364 22.23 46.7104 22.23C47.3614 22.23 47.9269 22.4355 48.4069 22.8465L47.9794 23.49C47.5834 23.139 47.1604 22.9635 46.7104 22.9635C46.2364 22.9635 45.8359 23.13 45.5089 23.463C45.1849 23.793 45.0229 24.195 45.0229 24.669C45.0229 25.143 45.1849 25.5465 45.5089 25.8795C45.8359 26.2095 46.2364 26.3745 46.7104 26.3745C47.1964 26.3745 47.6299 26.187 48.0109 25.812L48.4924 26.4105C48.0124 26.8755 47.4184 27.108 46.7104 27.108ZM52.2394 25.353H51.3169L50.0164 27H49.1074L50.4619 25.2945C50.0929 25.2045 49.7944 25.0275 49.5664 24.7635C49.3384 24.4995 49.2244 24.1935 49.2244 23.8455C49.2244 23.4195 49.3909 23.0625 49.7239 22.7745C50.0599 22.4835 50.4739 22.338 50.9659 22.338H53.0584V27H52.2394V25.353ZM50.9929 24.6465H52.2394V23.0445H50.9929C50.7229 23.0445 50.4964 23.121 50.3134 23.274C50.1334 23.427 50.0434 23.6175 50.0434 23.8455C50.0434 24.0765 50.1334 24.2685 50.3134 24.4215C50.4964 24.5715 50.7229 24.6465 50.9929 24.6465ZM61.2551 22.338V27H60.4361V23.0715H57.8666V27H57.0476V22.338H61.2551ZM63.0262 29.088L63.8542 26.982L62.0317 22.338H62.8867L64.2727 25.9425L65.6587 22.338H66.5137L63.8812 29.088H63.0262ZM67.9482 23.499C68.1462 23.268 68.3862 23.085 68.6682 22.95C68.9532 22.812 69.2592 22.743 69.5862 22.743C70.2012 22.743 70.7202 22.9545 71.1432 23.3775C71.5662 23.7975 71.7777 24.3135 71.7777 24.9255C71.7777 25.5525 71.5557 26.073 71.1117 26.487C70.6677 26.901 70.1037 27.108 69.4197 27.108C68.7267 27.108 68.1597 26.874 67.7187 26.406C67.2807 25.938 67.0617 25.293 67.0617 24.471C67.0617 23.898 67.1007 23.403 67.1787 22.986C67.2567 22.569 67.3782 22.2045 67.5432 21.8925C67.7082 21.5805 67.9302 21.3255 68.2092 21.1275C68.4912 20.9265 68.8227 20.7705 69.2037 20.6595C69.5877 20.5455 70.0467 20.469 70.5807 20.43L70.6977 21.1635C70.2747 21.2025 69.9147 21.2595 69.6177 21.3345C69.3207 21.4095 69.0687 21.504 68.8617 21.618C68.6577 21.732 68.4927 21.8805 68.3667 22.0635C68.2437 22.2465 68.1492 22.4505 68.0832 22.6755C68.0202 22.9005 67.9752 23.175 67.9482 23.499ZM67.8942 24.4125C67.8942 25.0215 68.0322 25.5015 68.3082 25.8525C68.5842 26.2005 68.9547 26.3745 69.4197 26.3745C69.8547 26.3745 70.2177 26.2365 70.5087 25.9605C70.7997 25.6815 70.9452 25.3365 70.9452 24.9255C70.9452 24.5175 70.8012 24.174 70.5132 23.895C70.2282 23.616 69.8787 23.4765 69.4647 23.4765C69.1437 23.4765 68.8497 23.562 68.5827 23.733C68.3157 23.901 68.0862 24.1275 67.8942 24.4125ZM73.0219 25.6545V22.338H76.8514V27H76.0324V23.0715H73.8409V25.7175C73.8409 26.0955 73.7224 26.409 73.4854 26.658C73.2484 26.907 72.9469 27.0315 72.5809 27.0315C72.4219 27.0315 72.2899 27.021 72.1849 27V26.2755C72.2329 26.2785 72.3124 26.28 72.4234 26.28C72.6004 26.28 72.7444 26.223 72.8554 26.109C72.9664 25.995 73.0219 25.8435 73.0219 25.6545ZM82.3752 22.338V27H81.5832V23.49L78.9462 27H78.1677V22.338H78.9597V25.848L81.5967 22.338H82.3752ZM86.4953 27V24.993C86.3423 25.212 86.1518 25.386 85.9238 25.515C85.6988 25.641 85.4483 25.704 85.1723 25.704C84.6953 25.704 84.2918 25.5345 83.9618 25.1955C83.6318 24.8535 83.4668 24.435 83.4668 23.94V22.338H84.2858V23.8995C84.2858 24.2025 84.3848 24.4575 84.5828 24.6645C84.7808 24.8685 85.0268 24.9705 85.3208 24.9705C85.8338 24.9705 86.2253 24.6915 86.4953 24.1335V22.338H87.3143V27H86.4953ZM92.8342 22.338V27H92.0152V24.957H89.4457V27H88.6267V22.338H89.4457V24.2235H92.0152V22.338H92.8342ZM95.1408 25.8795C95.4678 26.2095 95.8683 26.3745 96.3423 26.3745C96.8163 26.3745 97.2153 26.2095 97.5393 25.8795C97.8663 25.5465 98.0298 25.143 98.0298 24.669C98.0298 24.195 97.8663 23.793 97.5393 23.463C97.2153 23.13 96.8163 22.9635 96.3423 22.9635C95.8683 22.9635 95.4678 23.13 95.1408 23.463C94.8168 23.793 94.6548 24.195 94.6548 24.669C94.6548 25.143 94.8168 25.5465 95.1408 25.8795ZM95.0508 22.5585C95.4378 22.3395 95.8683 22.23 96.3423 22.23C96.8163 22.23 97.2468 22.3395 97.6338 22.5585C98.0208 22.7775 98.3223 23.073 98.5383 23.445C98.7543 23.817 98.8623 24.225 98.8623 24.669C98.8623 25.113 98.7543 25.521 98.5383 25.893C98.3223 26.265 98.0208 26.5605 97.6338 26.7795C97.2468 26.9985 96.8163 27.108 96.3423 27.108C95.8683 27.108 95.4378 26.9985 95.0508 26.7795C94.6638 26.5605 94.3623 26.265 94.1463 25.893C93.9303 25.521 93.8223 25.113 93.8223 24.669C93.8223 24.225 93.9303 23.817 94.1463 23.445C94.3623 23.073 94.6638 22.7775 95.0508 22.5585ZM104.058 22.338V27H103.266V23.49L100.629 27H99.8504V22.338H100.642V25.848L103.279 22.338H104.058ZM102.964 21.3615C102.685 21.6225 102.348 21.753 101.952 21.753C101.556 21.753 101.217 21.6225 100.935 21.3615C100.656 21.0975 100.506 20.7645 100.485 20.3625H101.214C101.223 20.5875 101.295 20.7735 101.43 20.9205C101.568 21.0675 101.742 21.141 101.952 21.141C102.162 21.141 102.334 21.0675 102.469 20.9205C102.607 20.7735 102.681 20.5875 102.69 20.3625H103.419C103.398 20.7645 103.246 21.0975 102.964 21.3615ZM109.036 25.8795C109.363 26.2095 109.764 26.3745 110.238 26.3745C110.712 26.3745 111.111 26.2095 111.435 25.8795C111.762 25.5465 111.925 25.143 111.925 24.669C111.925 24.195 111.762 23.793 111.435 23.463C111.111 23.13 110.712 22.9635 110.238 22.9635C109.764 22.9635 109.363 23.13 109.036 23.463C108.712 23.793 108.55 24.195 108.55 24.669C108.55 25.143 108.712 25.5465 109.036 25.8795ZM108.946 22.5585C109.333 22.3395 109.764 22.23 110.238 22.23C110.712 22.23 111.142 22.3395 111.529 22.5585C111.916 22.7775 112.218 23.073 112.434 23.445C112.65 23.817 112.758 24.225 112.758 24.669C112.758 25.113 112.65 25.521 112.434 25.893C112.218 26.265 111.916 26.5605 111.529 26.7795C111.142 26.9985 110.712 27.108 110.238 27.108C109.764 27.108 109.333 26.9985 108.946 26.7795C108.559 26.5605 108.258 26.265 108.042 25.893C107.826 25.521 107.718 25.113 107.718 24.669C107.718 24.225 107.826 23.817 108.042 23.445C108.258 23.073 108.559 22.7775 108.946 22.5585ZM115.942 26.3745C116.269 26.3745 116.566 26.2905 116.833 26.1225C117.103 25.9545 117.308 25.731 117.449 25.452V23.8995C117.308 23.6175 117.103 23.391 116.833 23.22C116.566 23.049 116.269 22.9635 115.942 22.9635C115.468 22.9635 115.067 23.13 114.74 23.463C114.416 23.793 114.254 24.195 114.254 24.669C114.254 25.143 114.416 25.5465 114.74 25.8795C115.067 26.2095 115.468 26.3745 115.942 26.3745ZM118.268 26.397V29.088H117.449V26.397C117.02 26.871 116.473 27.108 115.807 27.108C115.357 27.108 114.947 26.997 114.578 26.775C114.212 26.55 113.927 26.253 113.723 25.884C113.522 25.512 113.422 25.107 113.422 24.669C113.422 24.231 113.522 23.8275 113.723 23.4585C113.927 23.0865 114.212 22.7895 114.578 22.5675C114.947 22.3425 115.357 22.23 115.807 22.23C116.47 22.23 117.017 22.467 117.449 22.941V20.43H118.268V22.941C118.7 22.467 119.248 22.23 119.911 22.23C120.361 22.23 120.769 22.3425 121.135 22.5675C121.504 22.7895 121.789 23.0865 121.99 23.4585C122.194 23.8275 122.296 24.231 122.296 24.669C122.296 25.107 122.194 25.512 121.99 25.884C121.789 26.253 121.504 26.55 121.135 26.775C120.769 26.997 120.361 27.108 119.911 27.108C119.245 27.108 118.697 26.871 118.268 26.397ZM119.776 26.3745C120.25 26.3745 120.649 26.2095 120.973 25.8795C121.3 25.5465 121.463 25.143 121.463 24.669C121.463 24.195 121.3 23.793 120.973 23.463C120.649 23.13 120.25 22.9635 119.776 22.9635C119.449 22.9635 119.15 23.049 118.88 23.22C118.613 23.391 118.409 23.6175 118.268 23.8995V25.452C118.409 25.731 118.613 25.9545 118.88 26.1225C119.15 26.2905 119.449 26.3745 119.776 26.3745ZM123.795 24.9255C123.84 25.3485 124.019 25.701 124.331 25.983C124.646 26.262 125.025 26.4015 125.469 26.4015C126.039 26.4015 126.53 26.1765 126.941 25.7265L127.503 26.2485C127.257 26.5275 126.962 26.7405 126.617 26.8875C126.272 27.0345 125.897 27.108 125.492 27.108C125.12 27.108 124.775 27.045 124.457 26.919C124.139 26.79 123.87 26.616 123.651 26.397C123.435 26.178 123.266 25.92 123.143 25.623C123.02 25.323 122.958 25.005 122.958 24.669C122.958 24.336 123.02 24.0195 123.143 23.7195C123.269 23.4195 123.44 23.16 123.656 22.941C123.875 22.722 124.137 22.5495 124.443 22.4235C124.749 22.2945 125.076 22.23 125.424 22.23C125.877 22.23 126.285 22.335 126.648 22.545C127.014 22.755 127.298 23.0385 127.499 23.3955C127.7 23.7495 127.8 24.1395 127.8 24.5655C127.8 24.6855 127.787 24.8055 127.76 24.9255H123.795ZM125.424 22.9365C125.04 22.9365 124.698 23.061 124.398 23.31C124.098 23.559 123.908 23.871 123.827 24.246H126.941C126.878 23.865 126.707 23.5515 126.428 23.3055C126.149 23.0595 125.814 22.9365 125.424 22.9365ZM131.119 26.3745C131.593 26.3745 131.992 26.2095 132.316 25.8795C132.643 25.5465 132.807 25.143 132.807 24.669C132.807 24.195 132.643 23.793 132.316 23.463C131.992 23.13 131.593 22.9635 131.119 22.9635C130.792 22.9635 130.494 23.049 130.224 23.22C129.957 23.391 129.753 23.6175 129.612 23.8995V25.452C129.753 25.731 129.957 25.9545 130.224 26.1225C130.494 26.2905 130.792 26.3745 131.119 26.3745ZM131.254 22.23C131.704 22.23 132.112 22.3425 132.478 22.5675C132.847 22.7895 133.132 23.0865 133.333 23.4585C133.537 23.8275 133.639 24.231 133.639 24.669C133.639 25.107 133.537 25.512 133.333 25.884C133.132 26.253 132.847 26.55 132.478 26.775C132.112 26.997 131.704 27.108 131.254 27.108C130.588 27.108 130.041 26.871 129.612 26.397V29.088H128.793V22.338H129.612V22.941C130.044 22.467 130.591 22.23 131.254 22.23ZM135.589 23.0715H134.086V22.338H137.911V23.0715H136.408V27H135.589V23.0715ZM139.587 25.8795C139.914 26.2095 140.315 26.3745 140.789 26.3745C141.263 26.3745 141.662 26.2095 141.986 25.8795C142.313 25.5465 142.476 25.143 142.476 24.669C142.476 24.195 142.313 23.793 141.986 23.463C141.662 23.13 141.263 22.9635 140.789 22.9635C140.315 22.9635 139.914 23.13 139.587 23.463C139.263 23.793 139.101 24.195 139.101 24.669C139.101 25.143 139.263 25.5465 139.587 25.8795ZM139.497 22.5585C139.884 22.3395 140.315 22.23 140.789 22.23C141.263 22.23 141.693 22.3395 142.08 22.5585C142.467 22.7775 142.769 23.073 142.985 23.445C143.201 23.817 143.309 24.225 143.309 24.669C143.309 25.113 143.201 25.521 142.985 25.893C142.769 26.265 142.467 26.5605 142.08 26.7795C141.693 26.9985 141.263 27.108 140.789 27.108C140.315 27.108 139.884 26.9985 139.497 26.7795C139.11 26.5605 138.809 26.265 138.593 25.893C138.377 25.521 138.269 25.113 138.269 24.669C138.269 24.225 138.377 23.817 138.593 23.445C138.809 23.073 139.11 22.7775 139.497 22.5585ZM148.504 22.338V27H147.712V23.49L145.075 27H144.297V22.338H145.089V25.848L147.726 22.338H148.504ZM147.411 21.3615C147.132 21.6225 146.794 21.753 146.398 21.753C146.002 21.753 145.663 21.6225 145.381 21.3615C145.102 21.0975 144.952 20.7645 144.931 20.3625H145.66C145.669 20.5875 145.741 20.7735 145.876 20.9205C146.014 21.0675 146.188 21.141 146.398 21.141C146.608 21.141 146.781 21.0675 146.916 20.9205C147.054 20.7735 147.127 20.5875 147.136 20.3625H147.865C147.844 20.7645 147.693 21.0975 147.411 21.3615ZM149.933 26.5455C149.933 26.3865 149.987 26.253 150.095 26.145C150.203 26.037 150.337 25.983 150.496 25.983C150.655 25.983 150.788 26.037 150.896 26.145C151.004 26.253 151.058 26.3865 151.058 26.5455C151.058 26.6325 151.039 26.718 151 26.802L150.406 28.1025H149.861L150.32 27.081C150.203 27.045 150.109 26.979 150.037 26.883C149.968 26.784 149.933 26.6715 149.933 26.5455ZM159.367 22.338V27H158.548V23.0715H155.979V27H155.16V22.338H159.367ZM161.674 25.8795C162.001 26.2095 162.401 26.3745 162.875 26.3745C163.349 26.3745 163.748 26.2095 164.072 25.8795C164.399 25.5465 164.563 25.143 164.563 24.669C164.563 24.195 164.399 23.793 164.072 23.463C163.748 23.13 163.349 22.9635 162.875 22.9635C162.401 22.9635 162.001 23.13 161.674 23.463C161.35 23.793 161.188 24.195 161.188 24.669C161.188 25.143 161.35 25.5465 161.674 25.8795ZM161.584 22.5585C161.971 22.3395 162.401 22.23 162.875 22.23C163.349 22.23 163.78 22.3395 164.167 22.5585C164.554 22.7775 164.855 23.073 165.071 23.445C165.287 23.817 165.395 24.225 165.395 24.669C165.395 25.113 165.287 25.521 165.071 25.893C164.855 26.265 164.554 26.5605 164.167 26.7795C163.78 26.9985 163.349 27.108 162.875 27.108C162.401 27.108 161.971 26.9985 161.584 26.7795C161.197 26.5605 160.895 26.265 160.679 25.893C160.463 25.521 160.355 25.113 160.355 24.669C160.355 24.225 160.463 23.817 160.679 23.445C160.895 23.073 161.197 22.7775 161.584 22.5585ZM170.368 26.28V27.954H169.549V27H166.678V27.954H165.859V26.28H166.345C166.792 25.335 167.016 24.021 167.016 22.338H169.77V26.28H170.368ZM167.218 26.28H168.964V23.058H167.794C167.794 23.601 167.743 24.165 167.641 24.75C167.542 25.332 167.401 25.842 167.218 26.28ZM173.57 26.3745C174.044 26.3745 174.443 26.2095 174.767 25.8795C175.094 25.5465 175.258 25.143 175.258 24.669C175.258 24.195 175.094 23.793 174.767 23.463C174.443 23.13 174.044 22.9635 173.57 22.9635C173.243 22.9635 172.945 23.049 172.675 23.22C172.408 23.391 172.204 23.6175 172.063 23.8995V25.452C172.204 25.731 172.408 25.9545 172.675 26.1225C172.945 26.2905 173.243 26.3745 173.57 26.3745ZM173.705 22.23C174.155 22.23 174.563 22.3425 174.929 22.5675C175.298 22.7895 175.583 23.0865 175.784 23.4585C175.988 23.8275 176.09 24.231 176.09 24.669C176.09 25.107 175.988 25.512 175.784 25.884C175.583 26.253 175.298 26.55 174.929 26.775C174.563 26.997 174.155 27.108 173.705 27.108C173.039 27.108 172.492 26.871 172.063 26.397V29.088H171.244V22.338H172.063V22.941C172.495 22.467 173.042 22.23 173.705 22.23ZM178.074 25.8795C178.401 26.2095 178.802 26.3745 179.276 26.3745C179.75 26.3745 180.149 26.2095 180.473 25.8795C180.8 25.5465 180.963 25.143 180.963 24.669C180.963 24.195 180.8 23.793 180.473 23.463C180.149 23.13 179.75 22.9635 179.276 22.9635C178.802 22.9635 178.401 23.13 178.074 23.463C177.75 23.793 177.588 24.195 177.588 24.669C177.588 25.143 177.75 25.5465 178.074 25.8795ZM177.984 22.5585C178.371 22.3395 178.802 22.23 179.276 22.23C179.75 22.23 180.18 22.3395 180.567 22.5585C180.954 22.7775 181.256 23.073 181.472 23.445C181.688 23.817 181.796 24.225 181.796 24.669C181.796 25.113 181.688 25.521 181.472 25.893C181.256 26.265 180.954 26.5605 180.567 26.7795C180.18 26.9985 179.75 27.108 179.276 27.108C178.802 27.108 178.371 26.9985 177.984 26.7795C177.597 26.5605 177.296 26.265 177.08 25.893C176.864 25.521 176.756 25.113 176.756 24.669C176.756 24.225 176.864 23.817 177.08 23.445C177.296 23.073 177.597 22.7775 177.984 22.5585ZM183.436 23.499C183.634 23.268 183.874 23.085 184.156 22.95C184.441 22.812 184.747 22.743 185.074 22.743C185.689 22.743 186.208 22.9545 186.631 23.3775C187.054 23.7975 187.266 24.3135 187.266 24.9255C187.266 25.5525 187.044 26.073 186.6 26.487C186.156 26.901 185.592 27.108 184.908 27.108C184.215 27.108 183.648 26.874 183.207 26.406C182.769 25.938 182.55 25.293 182.55 24.471C182.55 23.898 182.589 23.403 182.667 22.986C182.745 22.569 182.866 22.2045 183.031 21.8925C183.196 21.5805 183.418 21.3255 183.697 21.1275C183.979 20.9265 184.311 20.7705 184.692 20.6595C185.076 20.5455 185.535 20.469 186.069 20.43L186.186 21.1635C185.763 21.2025 185.403 21.2595 185.106 21.3345C184.809 21.4095 184.557 21.504 184.35 21.618C184.146 21.732 183.981 21.8805 183.855 22.0635C183.732 22.2465 183.637 22.4505 183.571 22.6755C183.508 22.9005 183.463 23.175 183.436 23.499ZM183.382 24.4125C183.382 25.0215 183.52 25.5015 183.796 25.8525C184.072 26.2005 184.443 26.3745 184.908 26.3745C185.343 26.3745 185.706 26.2365 185.997 25.9605C186.288 25.6815 186.433 25.3365 186.433 24.9255C186.433 24.5175 186.289 24.174 186.001 23.895C185.716 23.616 185.367 23.4765 184.953 23.4765C184.632 23.4765 184.338 23.562 184.071 23.733C183.804 23.901 183.574 24.1275 183.382 24.4125ZM192.467 22.338V27H191.648V24.957H189.079V27H188.26V22.338H189.079V24.2235H191.648V22.338H192.467ZM194.774 25.8795C195.101 26.2095 195.501 26.3745 195.975 26.3745C196.449 26.3745 196.848 26.2095 197.172 25.8795C197.499 25.5465 197.663 25.143 197.663 24.669C197.663 24.195 197.499 23.793 197.172 23.463C196.848 23.13 196.449 22.9635 195.975 22.9635C195.501 22.9635 195.101 23.13 194.774 23.463C194.45 23.793 194.288 24.195 194.288 24.669C194.288 25.143 194.45 25.5465 194.774 25.8795ZM194.684 22.5585C195.071 22.3395 195.501 22.23 195.975 22.23C196.449 22.23 196.88 22.3395 197.267 22.5585C197.654 22.7775 197.955 23.073 198.171 23.445C198.387 23.817 198.495 24.225 198.495 24.669C198.495 25.113 198.387 25.521 198.171 25.893C197.955 26.265 197.654 26.5605 197.267 26.7795C196.88 26.9985 196.449 27.108 195.975 27.108C195.501 27.108 195.071 26.9985 194.684 26.7795C194.297 26.5605 193.995 26.265 193.779 25.893C193.563 25.521 193.455 25.113 193.455 24.669C193.455 24.225 193.563 23.817 193.779 23.445C193.995 23.073 194.297 22.7775 194.684 22.5585ZM201.679 27.108C201.205 27.108 200.775 26.9985 200.388 26.7795C200.001 26.5605 199.699 26.265 199.483 25.893C199.267 25.521 199.159 25.113 199.159 24.669C199.159 24.225 199.267 23.817 199.483 23.445C199.699 23.073 200.001 22.7775 200.388 22.5585C200.775 22.3395 201.205 22.23 201.679 22.23C202.33 22.23 202.896 22.4355 203.376 22.8465L202.948 23.49C202.552 23.139 202.129 22.9635 201.679 22.9635C201.205 22.9635 200.805 23.13 200.478 23.463C200.154 23.793 199.992 24.195 199.992 24.669C199.992 25.143 200.154 25.5465 200.478 25.8795C200.805 26.2095 201.205 26.3745 201.679 26.3745C202.165 26.3745 202.599 26.187 202.98 25.812L203.461 26.4105C202.981 26.8755 202.387 27.108 201.679 27.108ZM205.427 23.0715H203.924V22.338H207.749V23.0715H206.246V27H205.427V23.0715ZM212.814 22.338V27H212.022V23.49L209.385 27H208.606V22.338H209.398V25.848L212.035 22.338H212.814ZM218.769 27H216.798V22.338H218.629C219.055 22.338 219.412 22.4565 219.7 22.6935C219.991 22.9305 220.137 23.223 220.137 23.571C220.137 23.787 220.072 23.9835 219.943 24.1605C219.814 24.3375 219.646 24.4665 219.439 24.5475C219.697 24.6075 219.913 24.7455 220.087 24.9615C220.264 25.1775 220.353 25.4175 220.353 25.6815C220.353 26.0535 220.2 26.367 219.894 26.622C219.591 26.874 219.216 27 218.769 27ZM217.617 24.2595H218.575C218.788 24.2595 218.965 24.2025 219.106 24.0885C219.247 23.9715 219.318 23.826 219.318 23.652C219.318 23.478 219.247 23.334 219.106 23.22C218.965 23.103 218.788 23.0445 218.575 23.0445H217.617V24.2595ZM217.617 26.2935H218.728C218.956 26.2935 219.147 26.229 219.3 26.1C219.456 25.971 219.534 25.812 219.534 25.623C219.534 25.431 219.456 25.269 219.3 25.137C219.147 25.005 218.956 24.939 218.728 24.939H217.617V26.2935ZM225.105 25.8795C225.432 26.2095 225.832 26.3745 226.306 26.3745C226.78 26.3745 227.179 26.2095 227.503 25.8795C227.83 25.5465 227.994 25.143 227.994 24.669C227.994 24.195 227.83 23.793 227.503 23.463C227.179 23.13 226.78 22.9635 226.306 22.9635C225.832 22.9635 225.432 23.13 225.105 23.463C224.781 23.793 224.619 24.195 224.619 24.669C224.619 25.143 224.781 25.5465 225.105 25.8795ZM225.015 22.5585C225.402 22.3395 225.832 22.23 226.306 22.23C226.78 22.23 227.211 22.3395 227.598 22.5585C227.985 22.7775 228.286 23.073 228.502 23.445C228.718 23.817 228.826 24.225 228.826 24.669C228.826 25.113 228.718 25.521 228.502 25.893C228.286 26.265 227.985 26.5605 227.598 26.7795C227.211 26.9985 226.78 27.108 226.306 27.108C225.832 27.108 225.402 26.9985 225.015 26.7795C224.628 26.5605 224.326 26.265 224.11 25.893C223.894 25.521 223.786 25.113 223.786 24.669C223.786 24.225 223.894 23.817 224.11 23.445C224.326 23.073 224.628 22.7775 225.015 22.5585ZM230.775 23.0715H229.272V22.338H233.097V23.0715H231.594V27H230.775V23.0715ZM237.851 26.28V27.954H237.032V27H234.161V27.954H233.342V26.28H233.828C234.275 25.335 234.498 24.021 234.498 22.338H237.252V26.28H237.851ZM234.701 26.28H236.447V23.058H235.277C235.277 23.601 235.226 24.165 235.124 24.75C235.025 25.332 234.884 25.842 234.701 26.28ZM239.195 24.9255C239.24 25.3485 239.419 25.701 239.731 25.983C240.046 26.262 240.425 26.4015 240.869 26.4015C241.439 26.4015 241.93 26.1765 242.341 25.7265L242.903 26.2485C242.657 26.5275 242.362 26.7405 242.017 26.8875C241.672 27.0345 241.297 27.108 240.892 27.108C240.52 27.108 240.175 27.045 239.857 26.919C239.539 26.79 239.27 26.616 239.051 26.397C238.835 26.178 238.666 25.92 238.543 25.623C238.42 25.323 238.358 25.005 238.358 24.669C238.358 24.336 238.42 24.0195 238.543 23.7195C238.669 23.4195 238.84 23.16 239.056 22.941C239.275 22.722 239.537 22.5495 239.843 22.4235C240.149 22.2945 240.476 22.23 240.824 22.23C241.277 22.23 241.685 22.335 242.048 22.545C242.414 22.755 242.698 23.0385 242.899 23.3955C243.1 23.7495 243.2 24.1395 243.2 24.5655C243.2 24.6855 243.187 24.8055 243.16 24.9255H239.195ZM240.824 22.9365C240.44 22.9365 240.098 23.061 239.798 23.31C239.498 23.559 239.308 23.871 239.227 24.246H242.341C242.278 23.865 242.107 23.5515 241.828 23.3055C241.549 23.0595 241.214 22.9365 240.824 22.9365ZM244.488 25.6545V22.338H248.317V27H247.498V23.0715H245.307V25.7175C245.307 26.0955 245.188 26.409 244.951 26.658C244.714 26.907 244.413 27.0315 244.047 27.0315C243.888 27.0315 243.756 27.021 243.651 27V26.2755C243.699 26.2785 243.778 26.28 243.889 26.28C244.066 26.28 244.21 26.223 244.321 26.109C244.432 25.995 244.488 25.8435 244.488 25.6545ZM250.147 24.9255C250.192 25.3485 250.37 25.701 250.682 25.983C250.997 26.262 251.377 26.4015 251.821 26.4015C252.391 26.4015 252.881 26.1765 253.292 25.7265L253.855 26.2485C253.609 26.5275 253.313 26.7405 252.968 26.8875C252.623 27.0345 252.248 27.108 251.843 27.108C251.471 27.108 251.126 27.045 250.808 26.919C250.49 26.79 250.222 26.616 250.003 26.397C249.787 26.178 249.617 25.92 249.494 25.623C249.371 25.323 249.31 25.005 249.31 24.669C249.31 24.336 249.371 24.0195 249.494 23.7195C249.62 23.4195 249.791 23.16 250.007 22.941C250.226 22.722 250.489 22.5495 250.795 22.4235C251.101 22.2945 251.428 22.23 251.776 22.23C252.229 22.23 252.637 22.335 253 22.545C253.366 22.755 253.649 23.0385 253.85 23.3955C254.051 23.7495 254.152 24.1395 254.152 24.5655C254.152 24.6855 254.138 24.8055 254.111 24.9255H250.147ZM251.776 22.9365C251.392 22.9365 251.05 23.061 250.75 23.31C250.45 23.559 250.259 23.871 250.178 24.246H253.292C253.229 23.865 253.058 23.5515 252.779 23.3055C252.5 23.0595 252.166 22.9365 251.776 22.9365ZM4.8645 31.338V36H4.0455V32.0715H1.476V36H0.657V31.338H4.8645ZM8.50303 35.3745C8.97703 35.3745 9.37603 35.2095 9.70003 34.8795C10.027 34.5465 10.1905 34.143 10.1905 33.669C10.1905 33.195 10.027 32.793 9.70003 32.463C9.37603 32.13 8.97703 31.9635 8.50303 31.9635C8.17603 31.9635 7.87753 32.049 7.60753 32.22C7.34053 32.391 7.13653 32.6175 6.99553 32.8995V34.452C7.13653 34.731 7.34053 34.9545 7.60753 35.1225C7.87753 35.2905 8.17603 35.3745 8.50303 35.3745ZM8.63803 31.23C9.08803 31.23 9.49603 31.3425 9.86203 31.5675C10.231 31.7895 10.516 32.0865 10.717 32.4585C10.921 32.8275 11.023 33.231 11.023 33.669C11.023 34.107 10.921 34.512 10.717 34.884C10.516 35.253 10.231 35.55 9.86203 35.775C9.49603 35.997 9.08803 36.108 8.63803 36.108C7.97203 36.108 7.42453 35.871 6.99553 35.397V38.088H6.17653V31.338H6.99553V31.941C7.42753 31.467 7.97503 31.23 8.63803 31.23ZM13.007 34.8795C13.334 35.2095 13.7345 35.3745 14.2085 35.3745C14.6825 35.3745 15.0815 35.2095 15.4055 34.8795C15.7325 34.5465 15.896 34.143 15.896 33.669C15.896 33.195 15.7325 32.793 15.4055 32.463C15.0815 32.13 14.6825 31.9635 14.2085 31.9635C13.7345 31.9635 13.334 32.13 13.007 32.463C12.683 32.793 12.521 33.195 12.521 33.669C12.521 34.143 12.683 34.5465 13.007 34.8795ZM12.917 31.5585C13.304 31.3395 13.7345 31.23 14.2085 31.23C14.6825 31.23 15.113 31.3395 15.5 31.5585C15.887 31.7775 16.1885 32.073 16.4045 32.445C16.6205 32.817 16.7285 33.225 16.7285 33.669C16.7285 34.113 16.6205 34.521 16.4045 34.893C16.1885 35.265 15.887 35.5605 15.5 35.7795C15.113 35.9985 14.6825 36.108 14.2085 36.108C13.7345 36.108 13.304 35.9985 12.917 35.7795C12.53 35.5605 12.2285 35.265 12.0125 34.893C11.7965 34.521 11.6885 34.113 11.6885 33.669C11.6885 33.225 11.7965 32.817 12.0125 32.445C12.2285 32.073 12.53 31.7775 12.917 31.5585ZM21.7012 35.28V36.954H20.8822V36H18.0112V36.954H17.1922V35.28H17.6782C18.1252 34.335 18.3487 33.021 18.3487 31.338H21.1027V35.28H21.7012ZM18.5512 35.28H20.2972V32.058H19.1272C19.1272 32.601 19.0762 33.165 18.9742 33.75C18.8752 34.332 18.7342 34.842 18.5512 35.28ZM24.7729 35.3745C25.0999 35.3745 25.3969 35.2905 25.6639 35.1225C25.9339 34.9545 26.1394 34.731 26.2804 34.452V32.8995C26.1394 32.6175 25.9339 32.391 25.6639 32.22C25.3969 32.049 25.0999 31.9635 24.7729 31.9635C24.2989 31.9635 23.8984 32.13 23.5714 32.463C23.2474 32.793 23.0854 33.195 23.0854 33.669C23.0854 34.143 23.2474 34.5465 23.5714 34.8795C23.8984 35.2095 24.2989 35.3745 24.7729 35.3745ZM24.6379 31.23C25.3009 31.23 25.8484 31.467 26.2804 31.941V31.338H27.0994V36H26.2804V35.397C25.8514 35.871 25.3039 36.108 24.6379 36.108C24.1879 36.108 23.7784 35.997 23.4094 35.775C23.0434 35.55 22.7584 35.253 22.5544 34.884C22.3534 34.512 22.2529 34.107 22.2529 33.669C22.2529 33.231 22.3534 32.8275 22.5544 32.4585C22.7584 32.0865 23.0434 31.7895 23.4094 31.5675C23.7784 31.3425 24.1879 31.23 24.6379 31.23ZM33.8129 36L32.2469 33.8535H31.6844V36H30.8654V33.8535H30.3029L28.7369 36H27.7919L29.6234 33.498L28.0349 31.338H29.0069L30.3074 33.147H30.8654V31.338H31.6844V33.147H32.2424L33.5429 31.338H34.5149L32.9264 33.498L34.7579 36H33.8129ZM42.3323 31.338V36H41.5403V32.49L38.9033 36H38.1248V31.338H38.9168V34.848L41.5538 31.338H42.3323ZM44.0268 34.6545V31.338H47.8563V36H47.0373V32.0715H44.8458V34.7175C44.8458 35.0955 44.7273 35.409 44.4903 35.658C44.2533 35.907 43.9518 36.0315 43.5858 36.0315C43.4268 36.0315 43.2948 36.021 43.1898 36V35.2755C43.2378 35.2785 43.3173 35.28 43.4283 35.28C43.6053 35.28 43.7493 35.223 43.8603 35.109C43.9713 34.995 44.0268 34.8435 44.0268 34.6545ZM53.3801 31.338V36H52.5881V32.49L49.9511 36H49.1726V31.338H49.9646V34.848L52.6016 31.338H53.3801ZM61.5715 31.338V36H60.7525V32.0715H58.183V36H57.364V31.338H61.5715ZM63.8781 34.8795C64.2051 35.2095 64.6056 35.3745 65.0796 35.3745C65.5536 35.3745 65.9526 35.2095 66.2766 34.8795C66.6036 34.5465 66.7671 34.143 66.7671 33.669C66.7671 33.195 66.6036 32.793 66.2766 32.463C65.9526 32.13 65.5536 31.9635 65.0796 31.9635C64.6056 31.9635 64.2051 32.13 63.8781 32.463C63.5541 32.793 63.3921 33.195 63.3921 33.669C63.3921 34.143 63.5541 34.5465 63.8781 34.8795ZM63.7881 31.5585C64.1751 31.3395 64.6056 31.23 65.0796 31.23C65.5536 31.23 65.9841 31.3395 66.3711 31.5585C66.7581 31.7775 67.0596 32.073 67.2756 32.445C67.4916 32.817 67.5996 33.225 67.5996 33.669C67.5996 34.113 67.4916 34.521 67.2756 34.893C67.0596 35.265 66.7581 35.5605 66.3711 35.7795C65.9841 35.9985 65.5536 36.108 65.0796 36.108C64.6056 36.108 64.1751 35.9985 63.7881 35.7795C63.4011 35.5605 63.0996 35.265 62.8836 34.893C62.6676 34.521 62.5596 34.113 62.5596 33.669C62.5596 33.225 62.6676 32.817 62.8836 32.445C63.0996 32.073 63.4011 31.7775 63.7881 31.5585ZM75.467 31.338V36H74.648V33.957H72.0785V36H71.2595V31.338H72.0785V33.2235H74.648V31.338H75.467ZM77.7736 34.8795C78.1006 35.2095 78.5011 35.3745 78.9751 35.3745C79.4491 35.3745 79.8481 35.2095 80.1721 34.8795C80.4991 34.5465 80.6626 34.143 80.6626 33.669C80.6626 33.195 80.4991 32.793 80.1721 32.463C79.8481 32.13 79.4491 31.9635 78.9751 31.9635C78.5011 31.9635 78.1006 32.13 77.7736 32.463C77.4496 32.793 77.2876 33.195 77.2876 33.669C77.2876 34.143 77.4496 34.5465 77.7736 34.8795ZM77.6836 31.5585C78.0706 31.3395 78.5011 31.23 78.9751 31.23C79.4491 31.23 79.8796 31.3395 80.2666 31.5585C80.6536 31.7775 80.9551 32.073 81.1711 32.445C81.3871 32.817 81.4951 33.225 81.4951 33.669C81.4951 34.113 81.3871 34.521 81.1711 34.893C80.9551 35.265 80.6536 35.5605 80.2666 35.7795C79.8796 35.9985 79.4491 36.108 78.9751 36.108C78.5011 36.108 78.0706 35.9985 77.6836 35.7795C77.2966 35.5605 76.9951 35.265 76.7791 34.893C76.5631 34.521 76.4551 34.113 76.4551 33.669C76.4551 33.225 76.5631 32.817 76.7791 32.445C76.9951 32.073 77.2966 31.7775 77.6836 31.5585ZM83.2392 31.338L84.8637 33.795L86.4882 31.338H87.2442V36H86.4522V32.5935L85.1112 34.5915H84.6162L83.2752 32.5935V36H82.4832V31.338H83.2392ZM89.0694 33.9255C89.1144 34.3485 89.2929 34.701 89.6049 34.983C89.9199 35.262 90.2994 35.4015 90.7434 35.4015C91.3134 35.4015 91.8039 35.1765 92.2149 34.7265L92.7774 35.2485C92.5314 35.5275 92.2359 35.7405 91.8909 35.8875C91.5459 36.0345 91.1709 36.108 90.7659 36.108C90.3939 36.108 90.0489 36.045 89.7309 35.919C89.4129 35.79 89.1444 35.616 88.9254 35.397C88.7094 35.178 88.5399 34.92 88.4169 34.623C88.2939 34.323 88.2324 34.005 88.2324 33.669C88.2324 33.336 88.2939 33.0195 88.4169 32.7195C88.5429 32.4195 88.7139 32.16 88.9299 31.941C89.1489 31.722 89.4114 31.5495 89.7174 31.4235C90.0234 31.2945 90.3504 31.23 90.6984 31.23C91.1514 31.23 91.5594 31.335 91.9224 31.545C92.2884 31.755 92.5719 32.0385 92.7729 32.3955C92.9739 32.7495 93.0744 33.1395 93.0744 33.5655C93.0744 33.6855 93.0609 33.8055 93.0339 33.9255H89.0694ZM90.6984 31.9365C90.3144 31.9365 89.9724 32.061 89.6724 32.31C89.3724 32.559 89.1819 32.871 89.1009 33.246H92.2149C92.1519 32.865 91.9809 32.5515 91.7019 32.3055C91.4229 32.0595 91.0884 31.9365 90.6984 31.9365ZM96.3937 35.3745C96.8677 35.3745 97.2667 35.2095 97.5907 34.8795C97.9177 34.5465 98.0812 34.143 98.0812 33.669C98.0812 33.195 97.9177 32.793 97.5907 32.463C97.2667 32.13 96.8677 31.9635 96.3937 31.9635C96.0667 31.9635 95.7682 32.049 95.4982 32.22C95.2312 32.391 95.0272 32.6175 94.8862 32.8995V34.452C95.0272 34.731 95.2312 34.9545 95.4982 35.1225C95.7682 35.2905 96.0667 35.3745 96.3937 35.3745ZM96.5287 31.23C96.9787 31.23 97.3867 31.3425 97.7527 31.5675C98.1217 31.7895 98.4067 32.0865 98.6077 32.4585C98.8117 32.8275 98.9137 33.231 98.9137 33.669C98.9137 34.107 98.8117 34.512 98.6077 34.884C98.4067 35.253 98.1217 35.55 97.7527 35.775C97.3867 35.997 96.9787 36.108 96.5287 36.108C95.8627 36.108 95.3152 35.871 94.8862 35.397V38.088H94.0672V31.338H94.8862V31.941C95.3182 31.467 95.8657 31.23 96.5287 31.23ZM100.274 38.088L101.102 35.982L99.2797 31.338H100.135L101.521 34.9425L102.907 31.338H103.762L101.129 38.088H100.274ZM110.762 35.55C110.348 35.922 109.838 36.108 109.232 36.108C108.626 36.108 108.116 35.922 107.702 35.55C107.288 35.175 107.081 34.713 107.081 34.164C107.081 33.786 107.187 33.45 107.4 33.156C107.616 32.862 107.909 32.655 108.278 32.535C108.023 32.43 107.813 32.2575 107.648 32.0175C107.486 31.7775 107.405 31.518 107.405 31.239C107.405 30.777 107.577 30.387 107.922 30.069C108.27 29.751 108.707 29.592 109.232 29.592C109.757 29.592 110.192 29.751 110.537 30.069C110.885 30.387 111.059 30.777 111.059 31.239C111.059 31.518 110.976 31.7775 110.811 32.0175C110.649 32.2575 110.441 32.43 110.186 32.535C110.555 32.655 110.846 32.862 111.059 33.156C111.275 33.45 111.383 33.786 111.383 34.164C111.383 34.713 111.176 35.175 110.762 35.55ZM110.168 33.273C109.916 33.03 109.604 32.9085 109.232 32.9085C108.86 32.9085 108.546 33.03 108.291 33.273C108.039 33.516 107.913 33.8085 107.913 34.1505C107.913 34.4925 108.039 34.785 108.291 35.028C108.546 35.268 108.86 35.388 109.232 35.388C109.604 35.388 109.916 35.268 110.168 35.028C110.423 34.785 110.55 34.4925 110.55 34.1505C110.55 33.8085 110.423 33.516 110.168 33.273ZM108.507 31.932C108.705 32.121 108.947 32.2155 109.232 32.2155C109.517 32.2155 109.758 32.121 109.956 31.932C110.154 31.743 110.253 31.518 110.253 31.257C110.253 30.996 110.154 30.774 109.956 30.591C109.758 30.405 109.517 30.312 109.232 30.312C108.947 30.312 108.705 30.405 108.507 30.591C108.309 30.774 108.21 30.996 108.21 31.257C108.21 31.518 108.309 31.743 108.507 31.932ZM118.777 35.55C118.363 35.922 117.853 36.108 117.247 36.108C116.641 36.108 116.131 35.922 115.717 35.55C115.303 35.175 115.096 34.713 115.096 34.164C115.096 33.786 115.203 33.45 115.416 33.156C115.632 32.862 115.924 32.655 116.293 32.535C116.038 32.43 115.828 32.2575 115.663 32.0175C115.501 31.7775 115.42 31.518 115.42 31.239C115.42 30.777 115.593 30.387 115.938 30.069C116.286 29.751 116.722 29.592 117.247 29.592C117.772 29.592 118.207 29.751 118.552 30.069C118.9 30.387 119.074 30.777 119.074 31.239C119.074 31.518 118.992 31.7775 118.827 32.0175C118.665 32.2575 118.456 32.43 118.201 32.535C118.57 32.655 118.861 32.862 119.074 33.156C119.29 33.45 119.398 33.786 119.398 34.164C119.398 34.713 119.191 35.175 118.777 35.55ZM118.183 33.273C117.931 33.03 117.619 32.9085 117.247 32.9085C116.875 32.9085 116.562 33.03 116.307 33.273C116.055 33.516 115.929 33.8085 115.929 34.1505C115.929 34.4925 116.055 34.785 116.307 35.028C116.562 35.268 116.875 35.388 117.247 35.388C117.619 35.388 117.931 35.268 118.183 35.028C118.438 34.785 118.566 34.4925 118.566 34.1505C118.566 33.8085 118.438 33.516 118.183 33.273ZM116.523 31.932C116.721 32.121 116.962 32.2155 117.247 32.2155C117.532 32.2155 117.774 32.121 117.972 31.932C118.17 31.743 118.269 31.518 118.269 31.257C118.269 30.996 118.17 30.774 117.972 30.591C117.774 30.405 117.532 30.312 117.247 30.312C116.962 30.312 116.721 30.405 116.523 30.591C116.325 30.774 116.226 30.996 116.226 31.257C116.226 31.518 116.325 31.743 116.523 31.932ZM120.593 34.137C120.506 33.744 120.462 33.315 120.462 32.85C120.462 32.385 120.506 31.9575 120.593 31.5675C120.683 31.1745 120.813 30.831 120.984 30.537C121.155 30.24 121.377 30.009 121.65 29.844C121.926 29.676 122.24 29.592 122.591 29.592C122.942 29.592 123.254 29.676 123.527 29.844C123.803 30.009 124.026 30.24 124.197 30.537C124.368 30.831 124.497 31.1745 124.584 31.5675C124.674 31.9575 124.719 32.385 124.719 32.85C124.719 33.315 124.674 33.744 124.584 34.137C124.497 34.527 124.368 34.8705 124.197 35.1675C124.026 35.4615 123.803 35.6925 123.527 35.8605C123.254 36.0255 122.942 36.108 122.591 36.108C122.24 36.108 121.926 36.0255 121.65 35.8605C121.377 35.6925 121.155 35.4615 120.984 35.1675C120.813 34.8705 120.683 34.527 120.593 34.137ZM121.425 31.554C121.338 31.917 121.295 32.349 121.295 32.85C121.295 33.351 121.338 33.7845 121.425 34.1505C121.515 34.5135 121.658 34.8045 121.853 35.0235C122.051 35.2395 122.297 35.3475 122.591 35.3475C122.885 35.3475 123.129 35.2395 123.324 35.0235C123.522 34.8045 123.665 34.5135 123.752 34.1505C123.842 33.7845 123.887 33.351 123.887 32.85C123.887 32.349 123.842 31.917 123.752 31.554C123.665 31.188 123.522 30.897 123.324 30.681C123.129 30.462 122.885 30.3525 122.591 30.3525C122.297 30.3525 122.051 30.462 121.853 30.681C121.658 30.897 121.515 31.188 121.425 31.554ZM125.937 34.137C125.85 33.744 125.806 33.315 125.806 32.85C125.806 32.385 125.85 31.9575 125.937 31.5675C126.027 31.1745 126.157 30.831 126.328 30.537C126.499 30.24 126.721 30.009 126.994 29.844C127.27 29.676 127.584 29.592 127.935 29.592C128.286 29.592 128.598 29.676 128.871 29.844C129.147 30.009 129.37 30.24 129.541 30.537C129.712 30.831 129.841 31.1745 129.928 31.5675C130.018 31.9575 130.063 32.385 130.063 32.85C130.063 33.315 130.018 33.744 129.928 34.137C129.841 34.527 129.712 34.8705 129.541 35.1675C129.37 35.4615 129.147 35.6925 128.871 35.8605C128.598 36.0255 128.286 36.108 127.935 36.108C127.584 36.108 127.27 36.0255 126.994 35.8605C126.721 35.6925 126.499 35.4615 126.328 35.1675C126.157 34.8705 126.027 34.527 125.937 34.137ZM126.769 31.554C126.682 31.917 126.639 32.349 126.639 32.85C126.639 33.351 126.682 33.7845 126.769 34.1505C126.859 34.5135 127.002 34.8045 127.197 35.0235C127.395 35.2395 127.641 35.3475 127.935 35.3475C128.229 35.3475 128.473 35.2395 128.668 35.0235C128.866 34.8045 129.009 34.5135 129.096 34.1505C129.186 33.7845 129.231 33.351 129.231 32.85C129.231 32.349 129.186 31.917 129.096 31.554C129.009 31.188 128.866 30.897 128.668 30.681C128.473 30.462 128.229 30.3525 127.935 30.3525C127.641 30.3525 127.395 30.462 127.197 30.681C127.002 30.897 126.859 31.188 126.769 31.554ZM133.633 34.722V33.9705L136.508 29.7H137.341V33.9615H138.083V34.722H137.341V36H136.508V34.722H133.633ZM134.555 33.9705H136.508V31.068L134.555 33.9705ZM138.977 34.722V33.9705L141.852 29.7H142.685V33.9615H143.427V34.722H142.685V36H141.852V34.722H138.977ZM139.899 33.9705H141.852V31.068L139.899 33.9705ZM144.32 34.722V33.9705L147.196 29.7H148.028V33.9615H148.771V34.722H148.028V36H147.196V34.722H144.32ZM145.243 33.9705H147.196V31.068L145.243 33.9705ZM155.76 34.047C155.76 33.675 155.627 33.3585 155.36 33.0975C155.093 32.8365 154.761 32.706 154.365 32.706C154.245 32.706 154.122 32.7255 153.996 32.7645L153.668 32.346L155.288 30.4335H152.795V29.7H156.3V30.4335L154.797 32.1705C155.331 32.2095 155.763 32.4135 156.093 32.7825C156.426 33.1485 156.593 33.5955 156.593 34.1235C156.593 34.3755 156.54 34.62 156.435 34.857C156.33 35.094 156.185 35.3055 155.999 35.4915C155.813 35.6775 155.58 35.8275 155.301 35.9415C155.022 36.0525 154.719 36.108 154.392 36.108C153.975 36.108 153.6 36.018 153.267 35.838C152.937 35.658 152.663 35.4015 152.444 35.0685L153.015 34.5915C153.366 35.1225 153.816 35.388 154.365 35.388C154.761 35.388 155.093 35.259 155.36 35.001C155.627 34.74 155.76 34.422 155.76 34.047ZM161.104 34.047C161.104 33.675 160.971 33.3585 160.704 33.0975C160.437 32.8365 160.105 32.706 159.709 32.706C159.589 32.706 159.466 32.7255 159.34 32.7645L159.012 32.346L160.632 30.4335H158.139V29.7H161.644V30.4335L160.141 32.1705C160.675 32.2095 161.107 32.4135 161.437 32.7825C161.77 33.1485 161.937 33.5955 161.937 34.1235C161.937 34.3755 161.884 34.62 161.779 34.857C161.674 35.094 161.529 35.3055 161.343 35.4915C161.157 35.6775 160.924 35.8275 160.645 35.9415C160.366 36.0525 160.063 36.108 159.736 36.108C159.319 36.108 158.944 36.018 158.611 35.838C158.281 35.658 158.007 35.4015 157.788 35.0685L158.359 34.5915C158.71 35.1225 159.16 35.388 159.709 35.388C160.105 35.388 160.437 35.259 160.704 35.001C160.971 34.74 161.104 34.422 161.104 34.047ZM169.102 29.7L167.54 32.1165C167.693 32.0235 167.884 31.977 168.112 31.977C168.676 31.977 169.162 32.1735 169.57 32.5665C169.981 32.9565 170.186 33.447 170.186 34.038C170.186 34.428 170.084 34.7835 169.88 35.1045C169.676 35.4255 169.408 35.673 169.075 35.847C168.745 36.021 168.388 36.108 168.004 36.108C167.62 36.108 167.261 36.021 166.928 35.847C166.595 35.673 166.327 35.4255 166.123 35.1045C165.919 34.7835 165.817 34.428 165.817 34.038C165.817 33.633 165.92 33.27 166.127 32.949L168.215 29.7H169.102ZM169.354 34.038C169.354 33.657 169.222 33.336 168.958 33.075C168.697 32.814 168.379 32.6835 168.004 32.6835C167.629 32.6835 167.309 32.814 167.045 33.075C166.781 33.336 166.649 33.657 166.649 34.038C166.649 34.416 166.78 34.7355 167.041 34.9965C167.305 35.2575 167.626 35.388 168.004 35.388C168.379 35.388 168.697 35.2575 168.958 34.9965C169.222 34.7355 169.354 34.416 169.354 34.038ZM172.268 36L173.829 33.5835C173.676 33.6765 173.486 33.723 173.258 33.723C172.694 33.723 172.206 33.528 171.795 33.138C171.387 32.745 171.183 32.253 171.183 31.662C171.183 31.272 171.285 30.9165 171.489 30.5955C171.693 30.2745 171.96 30.027 172.29 29.853C172.623 29.679 172.982 29.592 173.366 29.592C173.75 29.592 174.108 29.679 174.441 29.853C174.774 30.027 175.043 30.2745 175.247 30.5955C175.451 30.9165 175.553 31.272 175.553 31.662C175.553 32.067 175.449 32.43 175.242 32.751L173.154 36H172.268ZM172.016 31.662C172.016 32.043 172.146 32.364 172.407 32.625C172.671 32.886 172.991 33.0165 173.366 33.0165C173.741 33.0165 174.06 32.886 174.324 32.625C174.588 32.364 174.72 32.043 174.72 31.662C174.72 31.284 174.588 30.9645 174.324 30.7035C174.063 30.4425 173.744 30.312 173.366 30.312C172.991 30.312 172.671 30.4425 172.407 30.7035C172.146 30.9645 172.016 31.284 172.016 31.662Z" fill="#E31D13"/>
</svg>
