<svg width="157" height="38" viewBox="0 0 157 38" fill="none" xmlns="http://www.w3.org/2000/svg">
<path d="M4.01134 14.9914C3.06186 15.0348 2.13152 14.6978 1.40345 14.0468C1.07647 13.7473 0.816312 13.3738 0.64196 12.9535C0.467608 12.5333 0.383452 12.0768 0.395629 11.6175C0.397006 11.3601 0.421108 11.1034 0.467617 10.8509C0.61139 10.0454 0.968204 9.30046 1.49601 8.70391C2.0359 8.07947 2.72423 7.62232 3.48807 7.38092C3.09584 7.199 2.76704 6.89051 2.548 6.49892C2.31713 6.09416 2.19784 5.6283 2.20379 5.15465C2.20158 4.97448 2.21658 4.79453 2.24855 4.61759C2.43766 3.61777 2.97005 2.72916 3.74154 2.12569C4.53719 1.45546 5.52467 1.09675 6.53877 1.10959C7.35094 1.06845 8.14768 1.3561 8.76917 1.91486C9.04346 2.16918 9.26161 2.48497 9.40802 2.83963C9.55443 3.1943 9.62548 3.57906 9.61608 3.96641C9.61797 4.18537 9.59769 4.40391 9.55559 4.61823C9.43633 5.23668 9.16301 5.80949 8.76433 6.27649C8.37211 6.7671 7.87151 7.14598 7.30764 7.37899C7.85096 7.56632 8.32371 7.93415 8.65665 8.42861C8.97654 8.92535 9.14162 9.51679 9.1285 10.1191C9.1303 10.3635 9.11004 10.6074 9.06801 10.8477C8.84254 12.0336 8.20681 13.0859 7.28708 13.7954C6.35399 14.5784 5.1989 15.0001 4.01134 14.9914ZM5.25267 8.17652C4.51658 8.17304 3.80304 8.44709 3.23823 8.9502C2.67125 9.41213 2.27864 10.0756 2.1318 10.8199C2.10209 10.9776 2.08709 11.1381 2.08703 11.299C2.07975 11.5881 2.13056 11.8756 2.23604 12.1422C2.34152 12.4087 2.49924 12.6481 2.69863 12.8444C3.13287 13.2639 3.70468 13.4842 4.29022 13.4575C5.02771 13.4606 5.74265 13.1867 6.3095 12.6839C6.87631 12.2277 7.26532 11.5647 7.40201 10.8219C7.43175 10.6576 7.44674 10.4908 7.44678 10.3235C7.45442 10.036 7.40441 9.75002 7.30009 9.48474C7.19577 9.21946 7.03954 8.98095 6.84184 8.78515C6.40797 8.36711 5.83698 8.1482 5.25267 8.17588V8.17652ZM5.52247 6.70201C6.09163 6.70193 6.64254 6.48802 7.07837 6.0979C7.51692 5.74456 7.8204 5.23375 7.93254 4.66014C7.95754 4.54058 7.96952 4.41835 7.96824 4.29587C7.9732 4.07431 7.93318 3.85422 7.8509 3.65069C7.76863 3.44715 7.64604 3.26498 7.49154 3.11665C7.15355 2.7956 6.71164 2.62728 6.25929 2.64728C5.704 2.64874 5.16542 2.84977 4.73061 3.21787C4.28859 3.5566 3.97827 4.05613 3.85829 4.6221C3.82968 4.75101 3.81467 4.88293 3.81353 5.01539C3.80972 5.23953 3.85019 5.46201 3.93231 5.66839C4.01444 5.87477 4.13638 6.06043 4.29022 6.21331C4.45497 6.37774 4.64876 6.50562 4.8603 6.58952C5.07185 6.67342 5.29694 6.71166 5.52247 6.70201ZM17.96 8.9141C18.2756 7.18685 18.8737 5.5322 19.727 4.02572C20.5705 2.5029 21.6482 1.14203 22.915 0L23.9041 0.949049C22.8117 2.00017 21.8868 3.2335 21.1655 4.60082C20.4436 5.94112 19.9317 7.39804 19.6502 8.9141C19.5079 9.69349 19.436 10.4856 19.4354 11.2796C19.3818 13.2759 19.9303 15.2378 21.0004 16.8772L19.6599 17.8282C19.0218 16.9617 18.5358 15.9795 18.2256 14.9288C17.8887 13.8034 17.7203 12.6285 17.7265 11.4473C17.7291 10.5969 17.8073 9.74873 17.96 8.9141ZM27.5113 14.9914C26.5619 15.035 25.6316 14.6982 24.9035 14.0475C24.5765 13.7478 24.3164 13.3742 24.1422 12.9538C23.9679 12.5334 23.8839 12.0769 23.8962 11.6175C23.8976 11.3601 23.9217 11.1034 23.9682 10.8509C24.112 10.0454 24.4688 9.30046 24.9966 8.70391C25.5365 8.07947 26.2248 7.62232 26.9887 7.38092C26.5967 7.19888 26.2681 6.89041 26.0492 6.49892C25.8181 6.09511 25.6982 5.63019 25.7032 5.15723C25.701 4.97705 25.716 4.79711 25.7479 4.62017C25.9371 3.62035 26.4694 2.73174 27.2409 2.12827C28.0366 1.45803 29.0241 1.09933 30.0382 1.11217C30.8503 1.07102 31.6471 1.35868 32.2686 1.91744C32.5429 2.17176 32.761 2.48755 32.9074 2.84221C33.0538 3.19687 33.1249 3.58164 33.1155 3.96898C33.1174 4.18795 33.0971 4.40649 33.055 4.62081C32.9357 5.23926 32.6624 5.81207 32.2637 6.27907C31.8715 6.76968 31.3709 7.14856 30.807 7.38156C31.3504 7.5689 31.8231 7.93673 32.1561 8.43119C32.4757 8.92713 32.6409 9.51759 32.6285 10.1191C32.6303 10.3635 32.61 10.6074 32.568 10.8477C32.3425 12.0336 31.7068 13.0859 30.7871 13.7954C29.854 14.5784 28.6989 15.0001 27.5113 14.9914ZM28.7527 8.17652C28.0166 8.17304 27.303 8.44709 26.7382 8.9502C26.1712 9.41213 25.7786 10.0756 25.6318 10.8199C25.6021 10.9776 25.5871 11.1381 25.587 11.299C25.58 11.5878 25.6309 11.8749 25.7364 12.1411C25.8419 12.4073 25.9995 12.6464 26.1986 12.8425C26.6329 13.2619 27.2047 13.4822 27.7902 13.4556C28.5277 13.4587 29.2427 13.1848 29.8095 12.6819C30.3759 12.2262 30.7649 11.564 30.902 10.8219C30.9318 10.6576 30.9467 10.4908 30.9468 10.3235C30.9544 10.036 30.9044 9.75002 30.8001 9.48474C30.6958 9.21946 30.5395 8.98095 30.3418 8.78515C29.908 8.36711 29.337 8.1482 28.7527 8.17588V8.17652ZM29.0225 6.70072C29.5916 6.70064 30.1425 6.48674 30.5784 6.09661C31.0173 5.74322 31.321 5.23214 31.4331 4.65821C31.4581 4.53865 31.4701 4.41641 31.4688 4.29393C31.4738 4.07237 31.4338 3.85229 31.3515 3.64876C31.2692 3.44522 31.1466 3.26305 30.9922 3.11471C30.6542 2.79367 30.2122 2.62534 29.7599 2.64535C29.2046 2.64681 28.666 2.84784 28.2312 3.21594C27.7892 3.55466 27.4789 4.0542 27.3589 4.62017C27.3303 4.74908 27.3153 4.88099 27.3141 5.01345C27.3103 5.23759 27.3508 5.46008 27.4329 5.66645C27.515 5.87283 27.637 6.05849 27.7908 6.21137C27.9554 6.37604 28.149 6.50422 28.3604 6.58845C28.5719 6.67268 28.7969 6.71128 29.0225 6.70201V6.70072ZM34.104 12.0398L34.3913 10.4415L41.8018 1.34169H43.4654L41.8108 10.4189H43.2948L42.9977 12.0385H41.5144L41.0196 14.7612H39.3578L39.8527 12.0391L34.104 12.0398ZM36.2351 10.4415H40.1382L41.2712 4.25912L36.2351 10.4415ZM51.8927 10.6046C51.9277 10.4236 51.9458 10.2394 51.9466 10.0546C51.9546 9.74628 51.9015 9.43959 51.7907 9.15461C51.6799 8.86964 51.5139 8.6128 51.3035 8.40089C51.0784 8.17891 50.8143 8.00663 50.5264 7.89398C50.2384 7.78133 49.9325 7.73054 49.626 7.74455C49.3669 7.74755 49.1095 7.78944 48.8614 7.86898L48.3666 6.97732L52.3507 2.90388H47.369L47.657 1.34169H54.6627L54.3748 2.90388L50.6962 6.60401C51.5045 6.62773 52.2717 6.98921 52.8322 7.61045C53.3571 8.22845 53.636 9.03969 53.6102 9.87282C53.6092 10.1718 53.5823 10.4701 53.5297 10.7638C53.4261 11.3206 53.2229 11.851 52.9314 12.326C52.6254 12.8358 52.2478 13.2924 51.8117 13.68C51.3435 14.0906 50.8127 14.4127 50.2425 14.6322C49.6398 14.872 49.0014 14.9939 48.3581 14.992C47.6084 15.0148 46.8675 14.8155 46.2178 14.4163C45.6216 14.0297 45.1508 13.4577 44.8688 12.7773L46.1936 11.7612C46.3804 12.2712 46.7099 12.7076 47.1374 13.011C47.5649 13.3145 48.0696 13.4704 48.5831 13.4575C49.3658 13.4611 50.1237 13.1653 50.7192 12.6239C51.3223 12.1187 51.7381 11.4022 51.8927 10.6014V10.6046ZM60.6432 8.91732C60.3234 10.6457 59.7238 12.3016 58.8713 13.8109C58.0294 15.3322 56.9531 16.6917 55.6875 17.8321L54.7075 16.883C55.7954 15.8298 56.717 14.5968 57.437 13.2312C58.159 11.8909 58.6708 10.434 58.9524 8.91797C59.0946 8.13789 59.1669 7.34517 59.1683 6.5505C59.2239 4.55543 58.6786 2.5938 57.6124 0.952918L58.9433 0.00386874C59.5867 0.862161 60.0747 1.84053 60.3824 2.88906C60.7174 4.01746 60.8844 5.19485 60.8773 6.37836C60.8734 7.22949 60.7952 8.0784 60.6438 8.9141L60.6432 8.91732ZM75.6172 8.96503L71.2284 13.2306H76.5076L76.2294 14.7612H68.7644L69.0252 13.3041L74.4932 8.01276C75.011 7.53026 75.4776 6.98867 75.8846 6.3977C76.1777 5.96043 76.3815 5.46251 76.4828 4.93609C76.5108 4.7781 76.5258 4.61781 76.5276 4.45705C76.5376 4.21085 76.4968 3.96531 76.4083 3.73766C76.3198 3.51 76.1856 3.30575 76.0152 3.13921C75.632 2.79431 75.1399 2.61774 74.639 2.64535C73.434 2.64535 72.4957 3.32597 71.8242 4.68722L70.5472 4.04248C70.9365 3.17054 71.545 2.4307 72.3051 1.90519C73.0831 1.37056 73.9923 1.0937 74.9179 1.10959C75.7844 1.06403 76.6367 1.35726 77.3146 1.9342C77.6119 2.20487 77.8476 2.54387 78.0042 2.92569C78.1607 3.30751 78.234 3.7222 78.2184 4.13855C78.2194 4.40245 78.1953 4.66577 78.1464 4.92448C78.0149 5.63931 77.7473 6.3178 77.36 6.918C76.8533 7.66722 76.2689 8.35306 75.6178 8.96245L75.6172 8.96503ZM80.078 8.05467C80.2426 7.1187 80.4972 6.20329 80.8378 5.32293C81.1393 4.54062 81.5354 3.80368 82.0162 3.13083C82.4479 2.52209 82.9949 2.01687 83.6217 1.64794C84.2253 1.29545 84.9031 1.11241 85.5914 1.11604C86.0587 1.08378 86.5261 1.1775 86.9505 1.38856C87.3749 1.59961 87.7426 1.92119 88.0196 2.32362C88.604 3.2993 88.8871 4.44556 88.829 5.60145C88.8237 6.42586 88.7426 7.24774 88.587 8.05531C88.4223 8.99183 88.166 9.9074 87.8224 10.7871C87.5183 11.5689 87.1208 12.3057 86.6397 12.9791C86.208 13.5879 85.661 14.0931 85.0342 14.462C84.4306 14.8145 83.7528 14.9976 83.0646 14.9939C82.5982 15.0265 82.1317 14.9333 81.7081 14.723C81.2845 14.5128 80.9173 14.1922 80.6406 13.7909C80.0593 12.8192 79.7777 11.678 79.8354 10.5272C79.8403 9.69547 79.9218 8.86624 80.0786 8.05144L80.078 8.05467ZM81.7416 8.05467C81.589 8.83358 81.5079 9.62648 81.4996 10.4221C81.4599 11.1788 81.6187 11.9322 81.9581 12.5981C82.1049 12.8498 82.3127 13.0546 82.5596 13.1907C82.8066 13.3269 83.0834 13.3895 83.361 13.3718C83.8143 13.3562 84.256 13.2155 84.643 12.9635C85.0301 12.7115 85.3491 12.3568 85.569 11.934C86.2536 10.7466 86.7133 9.42784 86.9222 8.05209C87.0751 7.27649 87.1561 6.48677 87.1642 5.69429C87.2045 4.93452 87.0458 4.17777 86.7057 3.50865C86.5575 3.25613 86.3481 3.05095 86.0996 2.91477C85.8511 2.77859 85.5726 2.71647 85.2937 2.73496C84.841 2.75036 84.3999 2.891 84.0136 3.14307C83.6273 3.39515 83.3092 3.74998 83.0906 4.17272C82.4093 5.3602 81.9514 6.67758 81.7422 8.05144L81.7416 8.05467ZM92.4169 1.34492H100.124L99.8455 2.84006L92.9843 14.7612H91.1138L97.9672 2.90453H92.1301L92.4169 1.34492ZM106.312 9.22099H101.204L101.501 7.57241H106.609L106.312 9.22099ZM114.902 8.9631L110.514 13.2287H115.793L115.513 14.7612H108.048L108.309 13.3041L113.777 8.01276C114.295 7.53026 114.762 6.98867 115.169 6.3977C115.462 5.96043 115.666 5.46251 115.767 4.93609C115.795 4.7781 115.81 4.61781 115.812 4.45705C115.822 4.21085 115.781 3.96531 115.692 3.73766C115.604 3.51 115.47 3.30575 115.299 3.13921C114.916 2.79431 114.424 2.61774 113.923 2.64535C112.718 2.64535 111.78 3.32597 111.108 4.68722L109.831 4.04248C110.221 3.17054 110.829 2.4307 111.589 1.90519C112.367 1.37056 113.276 1.0937 114.202 1.10959C115.068 1.06403 115.921 1.35726 116.599 1.9342C116.896 2.20487 117.132 2.54387 117.288 2.92569C117.445 3.30751 117.518 3.7222 117.502 4.13855C117.503 4.40245 117.479 4.66577 117.43 4.92448C117.299 5.63931 117.031 6.3178 116.644 6.918C116.137 7.66726 115.553 8.35309 114.901 8.96245L114.902 8.9631ZM122.006 14.9914C121.261 15.0103 120.525 14.815 119.875 14.4259C119.274 14.0546 118.799 13.4905 118.517 12.8141L119.893 11.7787C120.073 12.2811 120.394 12.712 120.813 13.0121C121.231 13.3122 121.727 13.4669 122.231 13.455C123.007 13.4609 123.759 13.1712 124.352 12.6381C124.954 12.1287 125.366 11.4062 125.512 10.6014C125.546 10.4118 125.564 10.2193 125.566 10.0263C125.576 9.72036 125.525 9.41568 125.416 9.1323C125.308 8.84891 125.144 8.59326 124.936 8.38219C124.482 7.94353 123.884 7.71426 123.272 7.74455C122.837 7.74397 122.408 7.84545 122.013 8.04177C121.635 8.22073 121.298 8.48465 121.024 8.81545L119.882 8.66201L121.978 1.33911H128.399L128.111 2.9013H123.165L121.995 6.87932C122.561 6.44745 123.242 6.22137 123.938 6.23458C124.815 6.20032 125.671 6.53012 126.325 7.15462C126.64 7.46871 126.886 7.8515 127.048 8.27673C127.211 8.70196 127.285 9.15956 127.266 9.61815C127.268 9.93338 127.241 10.2481 127.184 10.5575C126.975 11.8171 126.342 12.9521 125.404 13.7496C124.444 14.5781 123.241 15.018 122.006 14.9914ZM134.912 9.22099H129.804L130.101 7.57241H135.209L134.912 9.22099ZM142.71 1.34169H144.238L141.792 14.7612H140.128L142.242 3.12503L139.607 4.51508L139.148 3.20175L142.71 1.34169ZM150.606 14.9914C149.861 15.0103 149.124 14.815 148.475 14.4259C147.874 14.0546 147.399 13.4905 147.117 12.8141L148.493 11.7787C148.672 12.2811 148.994 12.712 149.412 13.0121C149.831 13.3122 150.326 13.4669 150.831 13.455C151.608 13.4608 152.361 13.1701 152.954 12.6355C153.556 12.1269 153.968 11.4053 154.114 10.6014C154.149 10.4118 154.167 10.2193 154.168 10.0263C154.178 9.72036 154.127 9.41568 154.019 9.1323C153.91 8.84891 153.747 8.59326 153.539 8.38219C153.085 7.94353 152.487 7.71426 151.875 7.74455C151.44 7.74397 151.01 7.84545 150.616 8.04177C150.238 8.22073 149.901 8.48465 149.627 8.81545L148.485 8.66201L150.58 1.33911H157L156.712 2.9013H151.765L150.596 6.87932C151.162 6.44745 151.843 6.22137 152.539 6.23458C153.416 6.20032 154.272 6.53012 154.926 7.15462C155.241 7.46905 155.489 7.85258 155.652 8.27877C155.814 8.70495 155.888 9.16367 155.869 9.62331C155.871 9.93854 155.844 10.2532 155.788 10.5627C155.578 11.8223 154.945 12.9573 154.007 13.7548C153.046 14.5823 151.841 15.0204 150.606 14.9914ZM0 35.8389L1.2861 34.6139C1.62159 35.1381 2.05871 35.5796 2.56796 35.9085C3.07542 36.2393 3.65969 36.4119 4.25452 36.4069C5.00406 36.4296 5.74344 36.218 6.38148 35.7982C6.65509 35.6256 6.89145 35.3934 7.07512 35.1167C7.25879 34.8401 7.38564 34.5253 7.44738 34.1928C7.47425 34.0508 7.48923 33.9064 7.49215 33.7615C7.49215 32.7072 6.63778 31.9818 4.92903 31.5855C4.03335 31.4281 3.19257 31.0213 2.49174 30.4063C2.22896 30.1596 2.01945 29.8552 1.87764 29.5139C1.73582 29.1727 1.66506 28.8027 1.67023 28.4296C1.66926 28.201 1.68952 27.973 1.73073 27.7487C1.91526 26.6874 2.48385 25.7458 3.31385 25.1272C4.20572 24.4435 5.28255 24.0886 6.38088 24.1163C7.07256 24.0741 7.7638 24.2067 8.39832 24.5031C9.03284 24.7996 9.59269 25.2515 10.0323 25.8223L8.78248 27.1162C8.47522 26.6875 8.08115 26.3381 7.62961 26.0942C7.17808 25.8503 6.68072 25.7181 6.1746 25.7075C5.53808 25.6897 4.91132 25.8769 4.37612 26.2446C4.14399 26.3958 3.94362 26.5965 3.78749 26.834C3.63137 27.0715 3.52285 27.3407 3.46871 27.6249C3.44436 27.7511 3.4324 27.8797 3.43302 28.0086C3.43302 28.98 4.25735 29.6765 5.906 30.0981C6.83828 30.2759 7.71245 30.7047 8.44553 31.3438C8.70545 31.5994 8.91126 31.9112 9.04926 32.2583C9.18727 32.6053 9.25429 32.9798 9.24586 33.3566C9.24439 33.6337 9.21724 33.9099 9.1648 34.1812C9.06624 34.7374 8.86528 35.2673 8.57352 35.7403C8.28176 36.2132 7.90497 36.6199 7.46493 36.9368C6.46005 37.6672 5.26331 38.0382 4.04764 37.9961C3.22125 38.0066 2.40434 37.8077 1.66418 37.4159C0.982579 37.0655 0.406238 36.5193 0 35.8389ZM22.2684 24.3465L20.6762 33.0787C20.5105 34.0165 20.1409 34.8998 19.5969 35.6577C19.0843 36.3806 18.4209 36.9667 17.6592 37.3695C16.8975 37.7723 16.0584 37.9809 15.2081 37.9787C14.204 38.0282 13.2215 37.6581 12.4696 36.9471C12.1212 36.5921 11.8482 36.1615 11.669 35.6845C11.4898 35.2075 11.4086 34.6951 11.4309 34.1819C11.4326 33.8115 11.4687 33.4422 11.5386 33.0794L13.1302 24.3471H14.8216L13.1846 33.2799C13.1434 33.5042 13.1231 33.7322 13.1241 33.9607C13.1102 34.2871 13.1611 34.613 13.2735 34.9169C13.3858 35.2209 13.5572 35.4962 13.7762 35.7247C14.2455 36.1796 14.8649 36.4175 15.4985 36.3862C16.3102 36.3911 17.0964 36.0841 17.7132 35.5216C18.3598 34.9535 18.7951 34.1582 18.9406 33.2786L20.5775 24.3452L22.2684 24.3465ZM25.9016 24.3465L27.743 35.4939L33.6521 24.3465H35.4669L28.276 37.7653H26.3874L24.085 24.3465H25.9016ZM44.1852 37.7653H42.3414L41.8018 34.305H36.442L34.6429 37.7653H32.7997L39.9942 24.3465H41.8828L44.1852 37.7653ZM37.2242 32.7428H41.5798L40.5677 26.34L37.2242 32.7428ZM50.4282 32.7048H48.7344L47.8173 37.766H46.1277L48.5741 24.3465H52.5939C53.5586 24.2835 54.5126 24.5911 55.2828 25.2136C55.6027 25.5064 55.8556 25.8731 56.0224 26.2859C56.1892 26.6986 56.2654 27.1464 56.2453 27.5953C56.2446 27.9076 56.2144 28.2191 56.1551 28.525C55.9834 29.5462 55.5164 30.4847 54.8194 31.209C54.1072 31.9354 53.2063 32.4165 52.2339 32.5894L54.7069 37.7653H52.837L50.4282 32.7048ZM54.4395 28.5256C54.4747 28.3234 54.4927 28.1182 54.4934 27.9125C54.5066 27.6365 54.4614 27.361 54.3609 27.1062C54.2605 26.8515 54.1075 26.6242 53.9132 26.4412C53.435 26.0547 52.8418 25.8655 52.243 25.9087H49.9769L49.0235 31.142H51.2896C52.0434 31.1713 52.7836 30.9224 53.3851 30.4373C53.9464 29.9614 54.3216 29.28 54.4377 28.5256H54.4395ZM56.6953 35.8389L57.9814 34.6139C58.316 35.1378 58.7521 35.5793 59.2603 35.9085C59.7677 36.2393 60.352 36.4119 60.9468 36.4069C61.6964 36.4296 62.4358 36.218 63.0738 35.7982C63.3474 35.6256 63.5838 35.3934 63.7674 35.1167C63.9511 34.8401 64.0779 34.5253 64.1397 34.1928C64.1666 34.0508 64.1815 33.9064 64.1845 33.7615C64.1845 32.7072 63.3301 31.9818 61.6213 31.5855C60.7257 31.4281 59.8849 31.0213 59.184 30.4063C58.9223 30.1591 58.7138 29.8544 58.5729 29.5132C58.432 29.172 58.3621 28.8023 58.368 28.4296C58.367 28.201 58.3873 27.973 58.4285 27.7487C58.613 26.6874 59.1816 25.7458 60.0116 25.1272C60.9035 24.4435 61.9803 24.0886 63.0786 24.1163C63.7703 24.0741 64.4616 24.2067 65.0961 24.5031C65.7306 24.7996 66.2904 25.2515 66.73 25.8223L65.4802 27.1162C65.173 26.6875 64.7789 26.3381 64.3274 26.0942C63.8758 25.8503 63.3785 25.7181 62.8724 25.7075C62.2358 25.6897 61.6091 25.8769 61.0739 26.2446C60.8417 26.3958 60.6414 26.5965 60.4852 26.834C60.3291 27.0715 60.2206 27.3407 60.1665 27.6249C60.1421 27.7511 60.1302 27.8797 60.1308 28.0086C60.1308 28.98 60.9551 29.6765 62.6038 30.0981C63.5348 30.2767 64.4077 30.7057 65.1397 31.3444C65.3996 31.6001 65.6054 31.9118 65.7434 32.2589C65.8814 32.606 65.9484 32.9804 65.94 33.3573C65.9385 33.6343 65.9114 33.9105 65.8589 34.1819C65.7604 34.7381 65.5594 35.268 65.2676 35.7409C64.9759 36.2139 64.5991 36.6206 64.159 36.9375C63.1542 37.6679 61.9574 38.0388 60.7418 37.9968C59.9154 38.0072 59.0985 37.8084 58.3583 37.4165C57.6771 37.0657 57.1012 36.5194 56.6953 35.8389ZM69.7178 37.7653L71.8762 25.9087H68.3416L68.6295 24.3465H77.389L77.1011 25.9087H73.567L71.4086 37.7653H69.7178ZM81.3102 32.7042H79.6194L78.7023 37.7653H77.0116L79.4579 24.3458H83.4777C84.4425 24.2828 85.3965 24.5905 86.1667 25.213C86.4865 25.5058 86.7395 25.8725 86.9063 26.2852C87.073 26.6979 87.1493 27.1458 87.1291 27.5946C87.1285 27.907 87.0983 28.2185 87.039 28.5243C86.8673 29.5456 86.4003 30.4841 85.7033 31.2084C84.9911 31.9348 84.0901 32.4158 83.1178 32.5887L85.5908 37.7647H83.7203L81.3102 32.7042ZM85.3216 28.525C85.3567 28.3227 85.3748 28.1175 85.3754 27.9118C85.3887 27.6359 85.3434 27.3603 85.243 27.1056C85.1425 26.8509 84.9895 26.6236 84.7953 26.4406C84.3175 26.0547 83.725 25.8658 83.1269 25.9087H80.8608L79.9074 31.142H82.1735C82.9273 31.1713 83.6675 30.9224 84.269 30.4373C84.8303 29.9614 85.2055 29.28 85.3216 28.5256V28.525ZM93.7907 36.4043C95.1799 36.3955 96.5177 35.8429 97.5498 34.8518C98.6494 33.8876 99.3999 32.5457 99.6725 31.0562C99.7359 30.7023 99.7691 30.343 99.7717 29.9827C99.7945 29.4132 99.7057 28.8449 99.5111 28.314C99.3164 27.7831 99.0201 27.3012 98.6411 26.899C98.2621 26.4968 97.8087 26.1831 97.3097 25.978C96.8107 25.7729 96.2771 25.6807 95.7428 25.7075C94.3536 25.7163 93.0158 26.2688 91.9837 27.26C90.8846 28.223 90.1368 29.566 89.8701 31.0556C89.803 31.4121 89.7697 31.775 89.7709 32.1387C89.7493 32.7066 89.8387 33.2731 90.0333 33.8023C90.2279 34.3315 90.5235 34.8118 90.9015 35.2128C91.2794 35.6138 91.7313 35.9268 92.2287 36.1319C92.726 36.337 93.2579 36.4298 93.7907 36.4043ZM96.029 24.1163C96.7927 24.1079 97.5514 24.2493 98.2672 24.5334C98.9141 24.7869 99.505 25.18 100.003 25.6882C100.483 26.1903 100.861 26.7923 101.113 27.4567C101.384 28.164 101.52 28.9216 101.514 29.6855C101.515 30.1457 101.473 30.6049 101.388 31.0562C101.154 32.341 100.634 33.5472 99.8727 34.5739C99.1083 35.6242 98.1345 36.4804 97.0217 37.0806C95.9337 37.6815 94.7263 37.9955 93.5009 37.9961C92.7372 38.0045 91.9785 37.8631 91.2627 37.579C90.6165 37.3259 90.0259 36.9344 89.5271 36.4288C89.0468 35.9295 88.6699 35.3286 88.4207 34.6648C88.1531 33.9566 88.0186 33.1993 88.025 32.4359C88.0241 31.9725 88.0663 31.5101 88.1509 31.0556C88.3856 29.77 88.904 28.5625 89.6632 27.5327C90.4235 26.4802 91.3963 25.6235 92.5094 25.026C93.5993 24.4279 94.8074 24.116 96.0332 24.1163H96.029ZM105.058 24.3465H106.749L104.307 37.7653H102.616L105.058 24.3465ZM110.113 37.766L112.271 25.9093H108.736L109.024 24.3471H117.784L117.496 25.9093H113.961L111.803 37.766H110.113ZM116.502 36.7466C116.571 36.4171 116.744 36.1228 116.992 35.913C117.23 35.7064 117.527 35.5945 117.833 35.5964C118.082 35.5857 118.325 35.6805 118.508 35.8601C118.594 35.9483 118.662 36.0549 118.707 36.173C118.752 36.2912 118.773 36.4181 118.769 36.5455C118.768 36.6322 118.759 36.7187 118.741 36.8034C118.675 37.1352 118.504 37.4328 118.257 37.6467C118.02 37.8696 117.715 37.9923 117.398 37.9916C117.15 38.0024 116.907 37.9075 116.724 37.7279C116.637 37.6398 116.57 37.5331 116.525 37.415C116.48 37.2969 116.459 37.1699 116.463 37.0426C116.465 36.9426 116.478 36.8432 116.502 36.7466ZM125.927 32.7016H124.237L123.32 37.7627H121.629L124.076 24.3432H128.095C129.06 24.2802 130.014 24.5879 130.784 25.2104C131.104 25.5032 131.357 25.8699 131.524 26.2826C131.691 26.6954 131.767 27.1432 131.747 27.5921C131.746 27.9044 131.716 28.2159 131.657 28.5218C131.485 29.543 131.018 30.4815 130.321 31.2058C129.609 31.9322 128.708 32.4132 127.736 32.5862L130.209 37.7621H128.338L125.927 32.7016ZM129.939 28.5224C129.974 28.3202 129.992 28.115 129.993 27.9093C130.006 27.6333 129.961 27.3577 129.86 27.103C129.76 26.8483 129.607 26.621 129.412 26.438C128.935 26.0521 128.342 25.8632 127.744 25.9061H125.478L124.525 31.1394H126.791C127.544 31.1687 128.285 30.9198 128.886 30.4347C129.447 29.9594 129.822 29.2791 129.939 28.5256V28.5224ZM143.888 24.3432L142.296 33.0755C142.131 34.0133 141.761 34.8965 141.217 35.6545C140.704 36.3774 140.041 36.9635 139.279 37.3663C138.518 37.7691 137.679 37.9777 136.828 37.9755C135.824 38.025 134.842 37.6548 134.09 36.9439C133.741 36.5889 133.468 36.1583 133.289 35.6813C133.11 35.2043 133.029 34.6919 133.051 34.1787C133.053 33.8083 133.089 33.439 133.159 33.0762L134.75 24.3439H136.441L134.804 33.2773C134.763 33.5016 134.743 33.7296 134.744 33.9582C134.73 34.2845 134.781 34.6104 134.893 34.9144C135.005 35.2183 135.177 35.4936 135.396 35.7222C135.864 36.1771 136.483 36.4156 137.116 36.3856C137.928 36.3916 138.715 36.0853 139.333 35.5229C139.979 34.9548 140.415 34.1595 140.56 33.2799L142.197 24.3465L143.888 24.3432Z" fill="black"/>
</svg>
