<svg width="225" height="25" viewBox="0 0 225 25" fill="none" xmlns="http://www.w3.org/2000/svg">
<path d="M9.12512 21.2466C6.698 21.3513 4.32801 20.4894 2.53157 18.8486C1.70051 18.0639 1.04536 17.1107 0.609605 16.0524C0.173852 14.9941 -0.0325305 13.855 0.00415947 12.7106C0.00270373 12.0112 0.0712475 11.3134 0.20876 10.6277C0.590147 8.65925 1.44033 6.8125 2.68683 5.2449C3.94837 3.6302 5.55451 2.3196 7.38722 1.40943C9.19953 0.487419 11.2032 0.00753081 13.2352 0.00878619C15.6457 -0.0751364 17.9958 0.775643 19.7974 2.38445L17.1075 5.47914C16.4657 4.93017 15.7507 4.47359 14.9833 4.12257C14.2094 3.79322 13.3752 3.63072 12.5347 3.64563C11.2795 3.64741 10.0441 3.9597 8.93797 4.55484C7.78475 5.16229 6.78207 6.02156 6.00376 7.06936C5.20947 8.11847 4.66223 9.33437 4.40306 10.6259C4.30557 11.1045 4.25658 11.5918 4.25684 12.0803C4.22945 12.8155 4.35285 13.5485 4.61939 14.2339C4.88594 14.9193 5.28995 15.5425 5.80638 16.0649C6.33673 16.5831 6.9667 16.9875 7.6579 17.2535C8.34909 17.5195 9.08704 17.6416 9.82677 17.6122C11.808 17.5499 13.718 16.8563 15.28 15.632L16.8879 18.6977C14.636 20.3533 11.9169 21.2461 9.12512 21.2466ZM23.1896 20.8947L26.4644 3.95413H21.2013L21.9036 0.360155H36.5813L35.879 3.95413H30.616L27.3412 20.8947H23.1896ZM43.584 0.360155H48.1749L51.5225 20.8947H47.1218L46.4929 16.2744H39.0954L36.6836 20.8947H32.2829L43.584 0.360155ZM46.0837 12.8712L45.0168 4.80478L40.8207 12.8718L46.0837 12.8712ZM62.8525 13.7363H59.7679L58.3935 20.8947H54.2413L58.2177 0.360155H65.4546C67.0446 0.266396 68.6128 0.768091 69.8553 1.76804C70.385 2.24304 70.8028 2.83031 71.0784 3.48731C71.354 4.14431 71.4805 4.85459 71.4488 5.56668C71.4489 6.06416 71.3999 6.56043 71.3025 7.04823C70.9644 8.96604 69.934 10.6917 68.408 11.8955C66.8253 13.1376 64.8613 13.7886 62.8525 13.7369V13.7363ZM67.1509 7.04823C67.2085 6.78323 67.238 6.51286 67.2388 6.24165C67.2564 5.908 67.2014 5.5745 67.0778 5.26427C66.9541 4.95403 66.7647 4.67448 66.5227 4.44496C65.9371 3.97328 65.1958 3.74026 64.4466 3.79233H61.6983L60.4407 10.3047H63.1889C64.1423 10.3415 65.0768 10.0315 65.8204 9.43173C66.5299 8.8195 67.0011 7.97558 67.1509 7.04883V7.04823ZM75.616 20.8947L78.8908 3.95413H73.6277L74.3294 0.360758H89.0077L88.306 3.95413H83.043L79.7675 20.8947H75.616ZM116.303 0.360155L112.326 20.8947H108.174L111.446 3.95413H104.314L101.039 20.8947H96.8872L100.864 0.360155H116.303ZM125.411 13.7369H122.326L120.954 20.8947H116.802L120.774 0.360155H128.013C129.603 0.266396 131.171 0.768091 132.414 1.76804C132.943 2.24304 133.361 2.83031 133.637 3.48731C133.912 4.14431 134.039 4.85459 134.007 5.56668C134.007 6.06416 133.958 6.56043 133.861 7.04823C133.523 8.96604 132.492 10.6917 130.966 11.8955C129.384 13.1376 127.42 13.7886 125.411 13.7369ZM129.709 7.04883C129.767 6.78383 129.796 6.51347 129.797 6.24225C129.815 5.9086 129.76 5.57511 129.636 5.26487C129.512 4.95464 129.323 4.67508 129.081 4.44556C128.495 3.97388 127.754 3.74087 127.005 3.79294H124.257L123 10.3047H125.748C126.702 10.3415 127.636 10.0315 128.38 9.43173C129.089 8.81921 129.559 7.97533 129.709 7.04883H129.709ZM139.417 10.6277C139.32 11.1055 139.271 11.592 139.271 12.0797C139.243 12.8149 139.367 13.5479 139.633 14.2333C139.9 14.9187 140.304 15.5419 140.82 16.0643C141.351 16.5825 141.981 16.9869 142.672 17.2529C143.363 17.5189 144.101 17.641 144.841 17.6116C146.765 17.6066 148.62 16.8914 150.053 15.6024C151.573 14.3372 152.605 12.5782 152.969 10.6301C153.071 10.1577 153.125 9.67605 153.13 9.19266C153.157 8.45589 153.033 7.72136 152.767 7.03432C152.5 6.34728 152.096 5.72228 151.58 5.19781C151.048 4.67673 150.416 4.27006 149.722 4.00274C149.029 3.73542 148.288 3.61308 147.545 3.64321C145.621 3.64823 143.766 4.36339 142.333 5.65241C140.812 6.91838 139.78 8.67852 139.416 10.6277H139.417ZM135.221 10.6277C135.602 8.65925 136.452 6.8125 137.699 5.2449C138.96 3.6302 140.567 2.3196 142.399 1.40943C144.212 0.487419 146.215 0.00753081 148.247 0.00878619C150.679 -0.0975253 153.054 0.764377 154.855 2.40678C155.687 3.19394 156.343 4.14968 156.779 5.21055C157.215 6.27143 157.42 7.41316 157.383 8.55995C157.378 9.25425 157.309 9.94663 157.178 10.6283C156.796 12.5979 155.943 14.4451 154.693 16.0111C153.427 17.625 151.819 18.9353 149.985 19.8466C148.173 20.7686 146.169 21.2485 144.137 21.2472C141.71 21.3514 139.341 20.4893 137.545 18.8486C136.714 18.0638 136.059 17.1107 135.623 16.0524C135.187 14.9941 134.981 13.855 135.017 12.7106C135.015 12.0112 135.083 11.3134 135.22 10.6277H135.221ZM175.001 17.4498L173.539 25H169.46L170.264 20.8947H160.323L159.519 25H155.44L156.902 17.4462H158.406C160.765 13.6914 162.495 8.96364 163.596 3.26287L164.167 0.358948H176.521L173.202 17.4444L175.001 17.4498ZM162.706 17.4498H169.124L171.771 3.80924H167.517C167.036 6.25517 166.384 8.66414 165.565 11.0183C164.813 13.2459 163.855 15.3983 162.705 17.448L162.706 17.4498ZM186.931 0.364381H191.521L194.869 20.8947H190.468L189.839 16.2744H182.442L180.03 20.8947H175.629L186.931 0.364381ZM189.43 12.8754L188.363 4.8084L184.167 12.8754H189.43ZM200.234 0.364381H204.796L208.056 8.73926H208.918L210.543 0.364381H214.695L213.071 8.73926H213.933L220.439 0.364381H225L217.062 10.481L222.149 20.8947H217.5L213.363 12.329H212.369L210.717 20.8947H206.564L208.216 12.329H207.222L199.781 20.8947H195.132L204.255 10.481L200.234 0.364381Z" fill="#1D1D1B"/>
</svg>
