<svg width="244" height="21" viewBox="0 0 244 21" fill="none" xmlns="http://www.w3.org/2000/svg">
<path fill-rule="evenodd" clip-rule="evenodd" d="M240.359 12.9677C241.062 12.9467 241.756 13.1362 242.351 13.5119C242.946 13.8875 243.416 14.4323 243.7 15.0764C243.984 15.7205 244.069 16.4347 243.944 17.1275C243.82 17.8203 243.492 18.4602 243.001 18.9653C242.511 19.4704 241.881 19.8177 241.193 19.9627C240.504 20.1078 239.787 20.044 239.135 19.7795C238.483 19.515 237.924 19.0618 237.531 18.478C237.138 17.8942 236.928 17.2064 236.928 16.5025C236.914 15.5788 237.268 14.6876 237.911 14.0247C238.555 13.3619 239.435 12.9817 240.359 12.9677Z" fill="#E31D13"/>
<path d="M221.12 19.7097H226.532L229.467 4.70783H234.878L235.749 0.337312H219.499L218.636 4.70783H224.048L221.12 19.7097ZM196.421 19.7097H201.722L210.044 9.13281L207.98 19.7097H213.249L217.047 0.337312H211.746L203.43 10.8828L205.495 0.337312H200.218L196.421 19.7097ZM184.644 15.6137C182.665 15.6137 181.55 14.2246 181.55 11.9026C181.55 7.39121 184.114 4.43336 186.85 4.43336C188.837 4.43336 189.976 5.8476 189.976 8.19156C189.974 12.7024 187.322 15.6137 184.642 15.6137H184.644ZM183.781 20.0386C190.284 20.0386 195.506 14.7824 195.506 7.53211C195.506 2.96623 192.737 0 187.713 0C181.186 0 175.996 5.29028 175.996 12.571C175.994 17.1044 178.787 20.0386 183.779 20.0386H183.781ZM169.43 6.89675C169.098 8.60744 167.982 9.30618 166.17 9.30618H164.438L165.356 4.48731H167.088C168.624 4.48731 169.518 4.98177 169.518 6.19749C169.518 6.43341 169.488 6.66839 169.428 6.89675H169.43ZM174.905 6.89675C175.01 6.396 175.066 5.88617 175.071 5.37461C175.071 1.96997 172.333 0.337312 168.093 0.337312H160.781L156.984 19.7097H162.393L163.596 13.4562H165.497C170.354 13.4562 174.04 11.3238 174.903 6.89675H174.905ZM143.7 19.7097H149.112L152.047 4.70783H157.458L158.328 0.337312H142.079L141.216 4.70783H146.628L143.7 19.7097ZM132.284 0C125.196 0 120.425 5.7905 120.425 12.593C120.425 17.2767 123.408 20.0386 128.352 20.0386C130.22 20.0399 132.062 19.6136 133.736 18.793C135.41 17.9725 136.871 16.7798 138.004 15.3078L133.875 13.2288C133.396 13.944 132.751 14.5342 131.993 14.9494C131.236 15.3645 130.388 15.5924 129.523 15.6137C127.459 15.6137 126.003 14.311 126.003 11.7926C126.003 7.33621 128.74 4.43336 131.731 4.43336C132.485 4.39138 133.232 4.60337 133.849 5.03493C134.466 5.46649 134.919 6.0923 135.133 6.81084L140.1 4.73139C138.954 1.68608 135.971 0 132.284 0ZM113.857 6.89675C113.525 8.60744 112.409 9.30618 110.597 9.30618H108.865L109.783 4.48731H111.515C113.05 4.48731 113.944 4.98177 113.944 6.19749C113.945 6.43332 113.916 6.66829 113.857 6.89675ZM119.331 6.89675C119.437 6.396 119.492 5.88617 119.497 5.37461C119.497 1.96997 116.76 0.337312 112.52 0.337312H105.212L101.415 19.7097H106.826L108.028 13.4562H109.93C114.785 13.4562 118.471 11.3238 119.333 6.89675H119.331ZM91.8394 5.2887L92.4806 12.098H88.5195L91.8394 5.2887ZM89.3239 0.337312L79.0889 19.7097H84.8325L86.3673 16.5004H92.8704L93.2105 19.7097H98.9541L96.3039 0.337312H89.3239ZM74.1439 6.14354C73.8993 7.36764 73.1156 7.8071 71.5253 7.8071H69.5981L70.2388 4.51141H72.1691C73.5376 4.51141 74.202 4.79425 74.202 5.67264C74.1969 5.83102 74.1775 5.98863 74.1439 6.14354ZM73.3374 13.6762C73.0601 15.0569 72.1665 15.5587 70.4099 15.5587H68.0924L68.8196 11.824H71.1297C72.6645 11.824 73.3923 12.2085 73.3923 13.1739C73.3901 13.3426 73.3717 13.5108 73.3374 13.6762ZM61.8661 19.7097H69.9034C75.5445 19.7097 78.0844 17.3872 78.7483 13.9815C78.8048 13.6788 78.8339 13.3717 78.8354 13.0638C78.8482 12.2536 78.5813 11.4634 78.0791 10.8241C77.5769 10.1849 76.8696 9.73507 76.0743 9.54922C77.1222 9.15948 78.0201 8.4527 78.6406 7.52893C79.2612 6.60516 79.573 5.5112 79.532 4.40193C79.532 1.80498 77.5541 0.337312 73.2503 0.337312H65.6629L61.8661 19.7097ZM45.3388 0.337312L49.1367 13.6997L45.2812 19.7097H50.8114L63.3132 0.337312H57.7914L52.7122 8.11298L50.869 0.337312H45.3388ZM35.4344 0C28.3456 0 23.5749 5.7905 23.5749 12.593C23.5749 17.2767 26.5573 20.0386 31.5024 20.0386C33.3698 20.0398 35.2122 19.6135 36.8863 18.7929C38.5604 17.9724 40.0209 16.7797 41.1543 15.3078L37.0241 13.2288C36.5457 13.944 35.9004 14.5341 35.143 14.9493C34.3856 15.3644 33.5384 15.5923 32.6733 15.6137C30.6082 15.6137 29.1521 14.311 29.1521 11.7926C29.1521 7.33621 31.8895 4.43336 34.8804 4.43336C35.6346 4.39138 36.381 4.60337 36.9985 5.03493C37.616 5.46649 38.0684 6.0923 38.2822 6.81084L43.2505 4.73139C42.1033 1.68608 39.1209 0 35.4344 0Z" fill="#1D1D1B"/>
<path d="M13.6819 8.61161L12.1293 12.5758H8.69309L10.2381 8.61161H13.6819ZM11.585 5.1359L13.1289 1.17882H8.51997L6.96738 5.1359H3.49427L2.7812 8.61161H5.6183L4.07331 12.5758H0.715787L0 16.051H2.72368L1.20419 20.0387H5.82126L7.34075 16.051H10.7791L9.25964 20.0387H13.8767L15.3962 16.051H18.8693L19.5845 12.5758H16.7464L18.2908 8.61161H21.6809L22.3961 5.1359H19.6404L21.193 1.17882H16.5754L15.0228 5.1359H11.585Z" fill="#E31D13"/>
</svg>
