<svg width="268" height="105" viewBox="0 0 268 105" fill="none" xmlns="http://www.w3.org/2000/svg">
<path d="M10.3029 0L8.45688 9.5895H9.78828L17.4929 0H22.7L13.3318 11.5888L19.4569 23.5134H14.1475L9.12119 13.7049H7.65625L5.77571 23.5134H1.04654L5.57597 0H10.3029ZM31.5898 23.5134H21.6702L26.1974 0H34.9686C36.8232 0 38.2546 0.433811 39.2627 1.30143C39.7677 1.74443 40.1665 2.29738 40.4288 2.91857C40.6912 3.53976 40.8103 4.21297 40.7772 4.88739C40.7735 5.38362 40.7234 5.8784 40.6275 6.36512C40.4331 7.42426 39.9782 8.41715 39.3044 9.25264C38.6698 10.0398 37.8481 10.6523 36.9159 11.033C37.8213 11.276 38.6189 11.8204 39.1793 12.5781C39.7624 13.3932 40.061 14.3805 40.0283 15.3853C40.0234 15.814 39.9789 16.2412 39.8953 16.6615C39.5469 18.6005 38.5299 20.3527 37.0244 21.6078C35.4992 22.8824 33.5696 23.559 31.5898 23.5134ZM35.9668 6.73511C36.012 6.49149 36.0343 6.2441 36.0335 5.99625C36.0531 5.71402 36.0111 5.4309 35.9104 5.16685C35.8098 4.90279 35.6529 4.66423 35.451 4.46799C34.9959 4.09824 34.4207 3.9127 33.8375 3.94753H30.0753L29.0099 9.50585H32.7704C33.5242 9.52164 34.2588 9.26563 34.8423 8.78383C35.4495 8.25989 35.8484 7.53243 35.9668 6.73511ZM35.2017 16.4425C35.2532 16.1711 35.2811 15.8957 35.2852 15.6194C35.3017 15.3094 35.2557 14.9991 35.1498 14.7076C35.0439 14.416 34.8804 14.1492 34.6693 13.9233C34.4455 13.7102 34.181 13.5453 33.8921 13.4384C33.6032 13.3316 33.2958 13.2851 32.9885 13.3018H28.2777L27.0631 19.5664H31.7734C32.5925 19.5758 33.3843 19.2693 33.9872 18.7096C34.6333 18.1133 35.0612 17.3146 35.2017 16.4425ZM53.0435 0H58.2695L62.0807 23.5134H57.0733L56.3578 18.2229H47.9338L45.1875 23.5134H40.1802L53.0435 0ZM55.8894 14.3264L54.6748 5.08895L49.8978 14.3264H55.8894ZM74.9797 15.3163H71.4678L69.9033 23.5134H65.1741L69.7013 0H77.9424C80.0729 0 81.742 0.537492 82.9497 1.61247C83.553 2.15634 84.0287 2.82884 84.3426 3.58124C84.6564 4.33363 84.8003 5.14706 84.764 5.96256C84.764 6.53211 84.7081 7.10026 84.5971 7.65869C84.2123 9.85494 83.0391 11.8311 81.3017 13.2097C79.5004 14.6307 77.2654 15.3755 74.9797 15.3163ZM79.873 7.65757C79.9384 7.35411 79.9717 7.04453 79.9726 6.73399C79.9926 6.35184 79.93 5.96986 79.7892 5.61454C79.6483 5.25922 79.4326 4.93907 79.1569 4.67629C78.4902 4.13619 77.6464 3.86937 76.7934 3.929H73.6638L72.2334 11.3861H75.3624C76.4479 11.4282 77.5118 11.0734 78.3585 10.3868C79.166 9.68579 79.7023 8.71966 79.873 7.65869V7.65757ZM89.5094 23.5134L93.2371 4.11484H87.246L88.045 0H104.755L103.956 4.11484H97.9646L94.2363 23.5134H89.5094ZM126.658 0L122.131 23.5134H117.673L120.719 7.69238L108.483 23.5134H103.69L108.215 0H112.675L109.632 15.8216L121.865 0H126.658ZM137.027 15.3163H133.515L131.951 23.5134H127.221L131.749 0H139.988C142.119 0 143.788 0.537492 144.995 1.61247C145.599 2.15634 146.074 2.82884 146.388 3.58124C146.702 4.33363 146.846 5.14706 146.81 5.96256C146.81 6.53211 146.754 7.10026 146.643 7.65869C146.258 9.85494 145.085 11.8311 143.347 13.2097C141.546 14.6304 139.312 15.3751 137.027 15.3163ZM141.92 7.65757C141.986 7.35412 142.019 7.04453 142.02 6.73399C142.04 6.35184 141.977 5.96986 141.837 5.61454C141.696 5.25922 141.48 4.93907 141.204 4.67629C140.538 4.13619 139.694 3.86937 138.841 3.929H135.712L134.281 11.3861H137.41C138.495 11.4282 139.559 11.0734 140.406 10.3868C141.213 9.68579 141.75 8.71966 141.92 7.65869V7.65757ZM151.723 0H156.452L154.821 8.44808H158.583C160.734 8.44808 162.42 8.98277 163.642 10.0521C164.248 10.586 164.727 11.2502 165.043 11.9959C165.36 12.7415 165.507 13.5495 165.473 14.3601C165.477 14.9065 165.426 15.4519 165.324 15.9883C164.931 18.1538 163.757 20.0956 162.028 21.4383C160.212 22.8432 157.972 23.5758 155.684 23.5134H147.196L151.723 0ZM160.544 15.99C160.596 15.7015 160.623 15.4094 160.628 15.1164C160.649 14.7458 160.585 14.3753 160.443 14.0332C160.3 13.6911 160.081 13.3866 159.804 13.1429C159.108 12.6324 158.257 12.3857 157.399 12.4461H154.053L152.688 19.5327H156.034C157.111 19.5783 158.172 19.2494 159.038 18.6007C159.84 17.946 160.376 17.017 160.544 15.99ZM170.528 0H175.258L170.73 23.5134H166.001L170.528 0ZM6.82448 50.1489C6.71349 50.6962 6.65757 51.2534 6.65756 51.812C6.62698 52.6534 6.76777 53.4922 7.07123 54.2766C7.37468 55.0609 7.83436 55.7741 8.42182 56.372C9.02556 56.9654 9.74269 57.4285 10.5295 57.7331C11.3164 58.0378 12.1564 58.1775 12.9986 58.1439C15.1893 58.1378 17.3012 57.3184 18.9317 55.842C20.6639 54.3938 21.8395 52.3798 22.2549 50.1489C22.3713 49.6079 22.4326 49.0564 22.438 48.5028C22.468 47.6602 22.327 46.8202 22.0236 46.0346C21.7202 45.249 21.2609 44.5342 20.6737 43.9343C20.0685 43.3373 19.3487 42.8714 18.5586 42.5652C17.7686 42.259 16.9248 42.1188 16.0792 42.1534C13.8885 42.1595 11.7766 42.9789 10.146 44.4553C8.41435 45.9039 7.23932 47.9181 6.82448 50.1489ZM2.04801 50.1489C2.48218 47.8948 3.44994 45.7801 4.86882 43.9848C6.30486 42.1358 8.13319 40.635 10.2195 39.5926C12.2827 38.5368 14.5637 37.9872 16.877 37.9886C19.9727 37.9886 22.4803 38.9039 24.3998 40.7346C25.3475 41.6358 26.0943 42.7302 26.5907 43.945C27.0871 45.1599 27.3218 46.4674 27.279 47.7808C27.2735 48.5757 27.1955 49.3685 27.0459 50.1489C26.6111 52.4044 25.6402 54.5197 24.2167 56.3131C22.7763 58.1611 20.9455 59.6616 18.8577 60.7053C16.7945 61.7611 14.5135 62.3107 12.2002 62.3093C9.11562 62.3093 6.61361 61.394 4.69412 59.5633C3.74753 58.6646 3.00124 57.5731 2.50482 56.361C2.00841 55.149 1.77322 53.8442 1.81489 52.5334C1.81315 51.7327 1.89162 50.9339 2.04801 50.1489ZM31.3405 61.9056L35.0682 42.5071H29.0766L29.8773 38.3917H46.5857L45.7895 42.5071H39.7952L36.0675 61.9056H31.3405ZM55.5567 61.9056L60.0839 38.3923H64.8131L62.9492 48.0329H71.9369L73.8007 38.3923H78.5299L73.9977 61.9056H69.2685L71.1351 52.1471H62.1469L60.2831 61.9051L55.5567 61.9056ZM89.9589 38.3917H95.1849L98.9961 61.9051H93.9887L93.2732 56.6146H84.8469L82.1007 61.9051H77.0933L89.9589 38.3917ZM92.8031 52.7181L91.5902 43.4812L86.8137 52.7187L92.8031 52.7181ZM121.813 57.9581L120.149 66.6077H115.505L116.421 61.9051H105.105L104.189 66.6077H99.5458L101.21 57.9581H102.924C105.609 53.6585 107.579 48.2449 108.833 41.7171L109.482 38.3917H123.546L119.768 57.9581H121.813ZM107.816 57.9581H115.122L118.135 42.3387H113.292C112.743 45.1389 112.001 47.8968 111.069 50.5919C110.214 53.1439 109.125 55.6101 107.817 57.9587L107.816 57.9581ZM124.526 61.9051L129.053 38.3917H143.566L142.784 42.456H132.997L131.916 48.066H140.904L140.122 52.0966H131.137L130.039 57.8408H140.123L139.34 61.9051H124.526ZM146.614 38.3917H151.806L155.518 47.9818H156.5L158.347 38.3917H163.076L161.229 47.9818H162.211L169.615 38.3917H174.808L165.77 49.9805L171.562 61.9051H166.269L161.559 52.0966H160.427L158.547 61.9051H153.818L155.698 52.0966H154.567L146.095 61.9051H140.803L151.188 49.9805L146.614 38.3917ZM173.859 61.9051L178.387 38.3917H183.116L181.252 48.0323H190.24L192.103 38.3917H196.833L192.305 61.9051H187.576L189.437 52.1471H180.45L178.586 61.9051H173.859ZM203.169 50.1484C203.058 50.6956 203.002 51.2528 203.002 51.8114C202.971 52.6528 203.112 53.4916 203.415 54.276C203.719 55.0603 204.179 55.7735 204.766 56.3715C205.37 56.9648 206.087 57.4279 206.874 57.7326C207.661 58.0372 208.501 58.177 209.343 58.1434C211.533 58.1372 213.645 57.3178 215.276 55.8415C217.008 54.3934 218.184 52.3796 218.599 50.1489C218.715 49.6079 218.777 49.0564 218.782 48.5028C218.812 47.6602 218.671 46.8202 218.368 46.0346C218.064 45.249 217.605 44.5342 217.018 43.9343C216.413 43.3373 215.693 42.8714 214.903 42.5652C214.113 42.259 213.269 42.1188 212.423 42.1534C210.233 42.1596 208.121 42.9789 206.49 44.4553C204.758 45.9038 203.583 47.918 203.168 50.1489L203.169 50.1484ZM198.392 50.1484C198.826 47.8943 199.794 45.7795 201.213 43.9843C202.649 42.1353 204.477 40.6344 206.564 39.5921C208.627 38.5362 210.908 37.9866 213.221 37.988C216.317 37.988 218.824 38.9034 220.744 40.7341C221.692 41.6352 222.438 42.7295 222.935 43.9442C223.431 45.159 223.666 46.4664 223.623 47.7796C223.618 48.5746 223.54 49.3673 223.39 50.1478C222.955 52.4033 221.984 54.5186 220.561 56.3119C219.12 58.16 217.29 59.6605 215.202 60.7041C213.139 61.7604 210.858 62.3104 208.544 62.3093C205.46 62.3093 202.958 61.394 201.038 59.5633C200.092 58.6648 199.346 57.5734 198.849 56.3615C198.353 55.1497 198.118 53.8452 198.159 52.5345C198.157 51.7335 198.235 50.9343 198.392 50.1489L198.392 50.1484ZM224.955 61.9051L229.482 38.3917H243.662L242.863 42.5065H233.41L229.682 61.9051H224.955ZM247.541 50.1484C247.43 50.6956 247.374 51.2528 247.374 51.8114C247.343 52.6528 247.484 53.4916 247.787 54.276C248.091 55.0603 248.55 55.7735 249.138 56.3715C249.742 56.9648 250.459 57.4279 251.246 57.7326C252.032 58.0372 252.873 58.177 253.715 58.1434C255.905 58.1372 258.017 57.3178 259.648 55.8415C261.379 54.3927 262.554 52.3785 262.968 50.1478C263.085 49.6068 263.146 49.0552 263.151 48.5017C263.181 47.659 263.04 46.8191 262.737 46.0335C262.434 45.2478 261.974 44.5331 261.387 43.9332C260.782 43.3366 260.062 42.8711 259.273 42.565C258.483 42.259 257.639 42.1189 256.794 42.1534C254.603 42.1596 252.492 42.9789 250.861 44.4553C249.13 45.904 247.955 47.9182 247.54 50.1489L247.541 50.1484ZM242.764 50.1484C243.198 47.8943 244.166 45.7795 245.585 43.9843C247.021 42.1353 248.849 40.6344 250.936 39.5921C252.999 38.5362 255.28 37.9866 257.593 37.988C260.689 37.988 263.196 38.9034 265.116 40.7341C266.063 41.6352 266.81 42.7295 267.307 43.9442C267.803 45.159 268.038 46.4664 267.995 47.7796C267.99 48.5746 267.912 49.3673 267.762 50.1478C267.327 52.4033 266.356 54.5186 264.933 56.3119C263.492 58.16 261.662 59.6605 259.574 60.7041C257.511 61.7605 255.229 62.3104 252.916 62.3093C249.831 62.3093 247.329 61.394 245.41 59.5633C244.463 58.6648 243.717 57.5734 243.221 56.3615C242.724 55.1497 242.489 53.8452 242.53 52.5345C242.529 51.7335 242.607 50.9343 242.764 50.1489L242.764 50.1484ZM6.6392 81.906L4.461 79.2195C5.3736 78.2915 6.46422 77.5611 7.66615 77.073C8.86808 76.5849 10.1561 76.3494 11.4513 76.3808C13.0346 76.2976 14.5928 76.8059 15.8283 77.8086C16.3564 78.2587 16.7773 78.8231 17.0597 79.4598C17.3421 80.0966 17.4788 80.7893 17.4596 81.4866C17.4534 81.8755 17.4145 82.2632 17.3433 82.6455C17.1319 83.6991 16.6398 84.6747 15.9201 85.4673C15.172 86.3176 14.2412 86.984 13.1988 87.4155C14.1853 87.8055 15.0401 88.4728 15.6619 89.3385C16.2709 90.1909 16.5918 91.2185 16.5771 92.2692C16.5739 92.6464 16.535 93.0224 16.4609 93.3921C16.1972 94.7661 15.5768 96.0448 14.6632 97.0976C13.6998 98.2279 12.5005 99.129 11.1514 99.7364C9.76797 100.377 8.26312 100.707 6.74102 100.702C5.31112 100.73 3.89821 100.386 2.63832 99.7028C1.49188 99.0852 0.568391 98.1175 0 96.9382L3.34547 94.131C4.22195 95.9111 5.57579 96.8012 7.407 96.8012C8.46095 96.8053 9.48181 96.4301 10.2862 95.7429C10.7864 95.3376 11.193 94.827 11.4776 94.2469C11.7623 93.6667 11.9181 93.0309 11.9342 92.3838C11.9486 91.9732 11.8664 91.5651 11.6942 91.1929C11.5221 90.8207 11.2649 90.4949 10.9439 90.2424C10.1429 89.6669 9.1708 89.3854 8.18926 89.4446H5.77571L6.52459 85.5987H8.98766C9.90862 85.6254 10.8144 85.358 11.5759 84.8345C11.9108 84.6115 12.1987 84.3238 12.4229 83.988C12.6471 83.6521 12.8032 83.2749 12.8823 82.8779C12.9148 82.7175 12.9316 82.5543 12.9323 82.3906C12.9397 82.0971 12.8789 81.806 12.7546 81.5406C12.6303 81.2752 12.4462 81.0429 12.2168 80.8623C11.6776 80.45 11.012 80.242 10.3363 80.2745C8.94183 80.3157 7.61747 80.9007 6.64143 81.9066L6.6392 81.906ZM29.2764 76.784H34.5024L38.3135 100.297H33.3062L32.5907 95.0068H24.1672L21.4204 100.297H16.413L29.2764 76.784ZM32.1228 91.1115L30.9077 81.874L26.1306 91.1115H32.1228ZM51.5625 100.702C48.4779 100.702 45.9759 99.7862 44.0564 97.9555C43.11 97.057 42.3638 95.9656 41.8674 94.7538C41.3709 93.542 41.1357 92.2374 41.1772 90.9268C41.1756 90.1259 41.2537 89.3269 41.4103 88.5418C41.8445 86.2877 42.8122 84.1729 44.2311 82.3776C45.6672 80.5286 47.4955 79.0278 49.5818 77.9855C51.645 76.9296 53.926 76.38 56.2393 76.3814C58.9845 76.2847 61.6609 77.2591 63.7125 79.1022L60.6525 82.646C59.9207 82.0171 59.1055 81.4942 58.2306 81.0925C57.3494 80.7154 56.3996 80.5295 55.4426 80.5468C54.0137 80.549 52.6074 80.9067 51.3483 81.5883C50.0349 82.2936 48.8917 83.2824 48 84.4842C47.1083 85.6861 46.4899 87.0714 46.189 88.5418C46.078 89.089 46.0221 89.6462 46.0221 90.2048C45.9915 91.0462 46.1323 91.885 46.4358 92.6694C46.7392 93.4537 47.1989 94.1669 47.7864 94.7648C48.3901 95.3582 49.1072 95.8213 49.8941 96.126C50.6809 96.4306 51.521 96.5704 52.3631 96.5368C54.6185 96.4653 56.7928 95.6713 58.5711 94.2696L60.4021 97.7798C57.8381 99.6767 54.7417 100.7 51.5625 100.7V100.702ZM67.5738 100.298L71.3015 80.8999H65.3099L66.1088 76.7851H82.819L82.02 80.8999H76.0284L72.3007 100.298H67.5738ZM91.5574 92.1013H88.0455L86.481 100.298H81.7518L86.2791 76.7851H94.5178C96.6484 76.7851 98.3175 77.3226 99.5252 78.3976C100.128 78.9414 100.604 79.6139 100.918 80.3663C101.232 81.1187 101.376 81.9321 101.34 82.7476C101.339 83.3172 101.284 83.8853 101.173 84.4438C100.788 86.64 99.6146 88.6162 97.8772 89.9948C96.0763 91.4155 93.842 92.1601 91.5568 92.1013H91.5574ZM96.4507 84.4426C96.5161 84.1392 96.5494 83.8296 96.5503 83.5191C96.5703 83.1369 96.5077 82.7549 96.3669 82.3996C96.2261 82.0443 96.0103 81.7242 95.7346 81.4614C95.0679 80.9213 94.2241 80.6544 93.3711 80.7141H90.2438L88.8122 88.1712H91.9413C93.0188 88.2308 94.0794 87.8811 94.9142 87.191C95.749 86.5009 96.2975 85.5205 96.4518 84.4426H96.4507ZM107.502 88.5412C107.391 89.0885 107.335 89.6456 107.335 90.2042C107.304 91.0456 107.445 91.8845 107.749 92.6688C108.052 93.4532 108.512 94.1663 109.099 94.7643C109.703 95.3577 110.42 95.8208 111.207 96.1254C111.994 96.43 112.834 96.5698 113.676 96.5362C115.867 96.5301 117.979 95.7107 119.609 94.2343C121.34 92.7855 122.515 90.7714 122.93 88.5406C123.046 87.9996 123.107 87.4481 123.113 86.8945C123.143 86.0518 123.002 85.2119 122.698 84.4263C122.395 83.6406 121.936 82.9259 121.348 82.326C120.743 81.7293 120.024 81.2636 119.234 80.9574C118.444 80.6513 117.6 80.5112 116.755 80.5456C114.564 80.5518 112.452 81.3711 110.822 82.8476C109.091 84.2962 107.916 86.3102 107.501 88.5406L107.502 88.5412ZM102.725 88.5412C103.16 86.2871 104.127 84.1723 105.546 82.3771C106.982 80.5281 108.811 79.0273 110.897 77.9849C112.96 76.929 115.241 76.3795 117.554 76.3808C120.65 76.3808 123.158 77.2962 125.077 79.1269C126.025 80.028 126.772 81.1223 127.268 82.3371C127.764 83.5518 127.999 84.8592 127.956 86.1725C127.951 86.9674 127.873 87.7602 127.723 88.5406C127.289 90.7961 126.318 92.9114 124.894 94.7048C123.454 96.5528 121.623 98.0533 119.535 99.097C117.472 100.153 115.191 100.702 112.878 100.701C109.793 100.701 107.291 99.7857 105.372 97.955C104.425 97.0565 103.679 95.9651 103.182 94.7532C102.686 93.5414 102.451 92.2369 102.492 90.9262C102.49 90.1252 102.568 89.326 102.724 88.5406L102.725 88.5412ZM152.257 76.7845L147.729 100.298H143.266L146.312 84.4769L134.079 100.298H129.286L133.813 76.7845H138.273L135.228 92.6055L147.461 76.7845H152.257ZM143.319 75.3068C142.03 75.3537 140.771 74.91 139.79 74.0638C139.335 73.6648 138.973 73.1683 138.731 72.6105C138.489 72.0526 138.373 71.4474 138.392 70.8388C138.398 70.5689 138.42 70.2996 138.459 70.0326H142.27C142.249 70.1716 142.238 70.3119 142.237 70.4525C142.228 70.6832 142.264 70.9135 142.345 71.1298C142.425 71.3461 142.546 71.5441 142.703 71.7124C142.861 71.8747 143.05 72.0019 143.26 72.0859C143.469 72.1698 143.693 72.2086 143.918 72.1998C144.501 72.1977 145.062 71.9761 145.491 71.5782C145.954 71.1783 146.273 70.6351 146.398 70.0331H150.209C149.849 71.5636 148.946 72.908 147.671 73.8122C146.422 74.7785 144.892 75.3034 143.318 75.3062L143.319 75.3068ZM177.921 100.298H152.822L157.349 76.7851H162.078L158.333 96.1836H165.02L168.765 76.7851H173.494L169.75 96.1825H176.44L180.185 76.784H184.915L181.17 96.1825H183.214L181.516 105H177.005L177.921 100.298ZM208.863 76.784L204.335 100.297H199.875L202.921 84.4763L190.686 100.297H185.893L190.42 76.784H194.88L191.835 92.605L204.068 76.784H208.863ZM218.682 76.784L216.835 86.374H218.166L225.872 76.784H231.081L221.709 88.3728L227.835 100.297H222.525L217.499 90.4889H216.035L214.154 100.297H209.425L213.952 76.784H218.682ZM240.918 76.784H246.14L249.951 100.297H244.943L244.228 95.0068H235.806L233.06 100.297H228.052L240.918 76.784ZM243.764 91.1104L242.549 81.8729L237.77 91.1115L243.764 91.1104Z" fill="#E31D13"/>
</svg>
