<svg width="67" height="208" viewBox="0 0 67 208" fill="none" xmlns="http://www.w3.org/2000/svg">
<path d="M66.4753 207.499H33.6544V0L66.4753 15.1927V207.499Z" fill="url(#paint0_linear)"/>
<path d="M63.2223 29.7654L36.9302 18.9702V15.1932L63.2223 25.9879V29.7654Z" fill="#E2E5E7"/>
<path d="M36.9302 28.0295L63.2223 38.2845V34.5076L36.9302 24.252V28.0295Z" fill="#E2E5E7"/>
<path d="M63.2223 46.8032L36.9302 37.0878V33.3113L63.2223 43.0257V46.8032Z" fill="#E2E5E7"/>
<path d="M36.9302 46.1475L63.2223 55.3233V51.5463L36.9302 42.3706V46.1475Z" fill="#E2E5E7"/>
<path d="M63.2223 63.843L36.9302 55.2068V51.4298L63.2223 60.0655V63.843Z" fill="#E2E5E7"/>
<path d="M36.9302 64.2662L63.2223 72.3627V68.5852L36.9302 60.4867V64.2662Z" fill="#E2E5E7"/>
<path d="M63.2223 80.8813L36.9302 73.3254V69.5479L63.2223 77.1038V80.8813Z" fill="#E2E5E7"/>
<path d="M36.9302 82.3842L63.2223 89.4009V85.6234L36.9302 78.6072V82.3842Z" fill="#E2E5E7"/>
<path d="M63.2223 97.9186L36.9302 91.4415V87.666L63.2223 94.1411V97.9186Z" fill="#E2E5E7"/>
<path d="M36.9302 100.503L63.2223 106.44V102.663L36.9302 96.7252V100.503Z" fill="#E2E5E7"/>
<path d="M63.2223 114.959L36.9302 109.562V105.785L63.2223 111.184V114.959Z" fill="#E2E5E7"/>
<path d="M36.9302 118.621L63.2223 123.479V119.702L36.9302 114.844V118.621Z" fill="#E2E5E7"/>
<path d="M63.2199 132L36.9302 127.68V123.903L63.2199 128.222V132Z" fill="#E2E5E7"/>
<path d="M36.9302 136.739L63.2223 140.518V136.74L36.9302 132.962V136.739Z" fill="#E2E5E7"/>
<path d="M63.2223 149.037L36.9302 145.799V142.021L63.2223 145.259V149.037Z" fill="#E2E5E7"/>
<path d="M36.9302 154.858L63.2223 157.557V153.779L36.9302 151.08V154.858Z" fill="#E2E5E7"/>
<path d="M63.2199 166.074L36.9302 163.917V160.139L63.2199 162.297V166.074Z" fill="#E2E5E7"/>
<path d="M36.9302 172.976L63.2223 174.595V170.818L36.9302 169.199V172.976Z" fill="#E2E5E7"/>
<path d="M63.2223 183.115L36.9302 182.035V178.258L63.2223 179.337V183.115Z" fill="#E2E5E7"/>
<path d="M36.9302 191.095L63.2223 191.634V187.857L36.9302 187.317V191.095Z" fill="#E2E5E7"/>
<path d="M63.2204 196.376H36.9283V200.154H63.2204V196.376Z" fill="#E2E5E7"/>
<path d="M0.833972 207.499H33.6544V0.000183105L0.833496 15.1929L0.833972 207.499Z" fill="url(#paint1_linear)"/>
<path d="M30.3815 18.9702L4.08936 29.7654V25.9879L30.3815 15.1927V18.9702Z" fill="#727578"/>
<path d="M4.08936 38.2845L30.3815 28.0295V24.2525L4.08936 34.5075V38.2845Z" fill="#727578"/>
<path d="M4.08936 46.8032L30.3815 37.0878V33.3103L4.08936 43.0258V46.8032Z" fill="#727578"/>
<path d="M4.08936 55.3233L30.3815 46.1475V42.3706L4.08936 51.5464V55.3233Z" fill="#727578"/>
<path d="M4.08936 63.843L30.3815 55.2068V51.4294L4.08936 60.0655V63.843Z" fill="#727578"/>
<path d="M4.08936 72.3627L30.3815 64.2662V60.4867L4.08936 68.5852V72.3627Z" fill="#727578"/>
<path d="M4.08936 80.8813L30.3815 73.3254V69.5479L4.08936 77.1038V80.8813Z" fill="#727578"/>
<path d="M4.08936 89.4009L30.3815 82.3842V78.6067L4.08936 85.6235V89.4009Z" fill="#727578"/>
<path d="M4.08936 97.9187L30.3815 91.4415V87.6641L4.08936 94.1412V97.9187Z" fill="#727578"/>
<path d="M4.08936 106.44L30.3815 100.503V96.7253L4.08936 102.663V106.44Z" fill="#727578"/>
<path d="M4.08936 114.959L30.3815 109.562V105.787L4.08936 111.184V114.959Z" fill="#727578"/>
<path d="M4.08936 123.479L30.3815 118.621V114.844L4.08936 119.702V123.479Z" fill="#727578"/>
<path d="M4.08983 132L30.3815 127.68L30.3819 123.904L4.08983 128.222V132Z" fill="#727578"/>
<path d="M4.08936 140.518L30.3815 136.739V132.962L4.08936 136.74V140.518Z" fill="#727578"/>
<path d="M4.08936 149.037L30.3815 145.799V142.021L4.08936 145.259V149.037Z" fill="#727578"/>
<path d="M4.08936 157.557L30.3815 154.858V151.08L4.08936 153.779V157.557Z" fill="#727578"/>
<path d="M4.08983 166.074L30.3815 163.917L30.3819 160.138L4.08983 162.297V166.074Z" fill="#727578"/>
<path d="M4.08936 174.595L30.3815 172.976V169.199L4.08936 170.818V174.595Z" fill="#727578"/>
<path d="M4.08936 183.115L30.3815 182.035V178.258L4.08936 179.337V183.115Z" fill="#727578"/>
<path d="M30.3815 191.095L4.08936 191.634V187.857L30.3815 187.317V191.095Z" fill="#727578"/>
<path d="M4.08983 196.376H30.3819V200.154H4.08983V196.376Z" fill="#727578"/>
<defs>
<linearGradient id="paint0_linear" x1="50.0648" y1="207.499" x2="50.0648" y2="0" gradientUnits="userSpaceOnUse">
<stop stop-color="#4D4D4D"/>
<stop offset="1" stop-color="#989898"/>
</linearGradient>
<linearGradient id="paint1_linear" x1="17.2439" y1="207.499" x2="17.2439" y2="0.000183105" gradientUnits="userSpaceOnUse">
<stop stop-color="#D8D8D8"/>
<stop offset="1" stop-color="white"/>
</linearGradient>
</defs>
</svg>
