<svg width="33" height="208" viewBox="0 0 33 208" fill="none" xmlns="http://www.w3.org/2000/svg">
<path d="M0.226929 207.499H33.0483V0.000183105L0.226929 15.1929V207.499Z" fill="url(#paint0_linear)"/>
<path d="M3.48331 29.7654L29.7744 18.9702V15.1927L3.48331 25.9879V29.7654Z" fill="#727578"/>
<path d="M29.7744 28.0295L3.48331 38.2845V34.5075L29.7744 24.2525V28.0295Z" fill="#727578"/>
<path d="M3.48331 46.8032L29.7744 37.0878V33.3103L3.48331 43.0258V46.8032Z" fill="#727578"/>
<path d="M29.7744 46.1475L3.48331 55.3233V51.5464L29.7744 42.3706V46.1475Z" fill="#727578"/>
<path d="M3.48331 63.843L29.7744 55.2068V51.4294L3.48331 60.0655V63.843Z" fill="#727578"/>
<path d="M29.7744 64.2662L3.48331 72.3627V68.5852L29.7744 60.4867V64.2662Z" fill="#727578"/>
<path d="M3.48331 80.8813L29.7744 73.3254V69.5479L3.48331 77.1038V80.8813Z" fill="#727578"/>
<path d="M29.7744 82.3842L3.48331 89.4009V85.6235L29.7744 78.6067V82.3842Z" fill="#727578"/>
<path d="M3.48331 97.9187L29.7744 91.4415V87.6641L3.48331 94.1412V97.9187Z" fill="#727578"/>
<path d="M29.7744 100.503L3.48331 106.44V102.663L29.7744 96.7253V100.503Z" fill="#727578"/>
<path d="M3.48331 114.959L29.7744 109.562V105.787L3.48331 111.184V114.959Z" fill="#727578"/>
<path d="M29.7744 118.621L3.48331 123.479V119.702L29.7744 114.844V118.621Z" fill="#727578"/>
<path d="M3.48331 132L29.7744 127.68V123.904L3.48331 128.222V132Z" fill="#727578"/>
<path d="M29.7744 136.739L3.48331 140.518V136.74L29.7744 132.962V136.739Z" fill="#727578"/>
<path d="M3.48331 149.037L29.7744 145.799V142.021L3.48331 145.259V149.037Z" fill="#727578"/>
<path d="M29.7744 154.858L3.48331 157.557V153.779L29.7744 151.08V154.858Z" fill="#727578"/>
<path d="M3.48331 166.074L29.7744 163.917V160.138L3.48331 162.297V166.074Z" fill="#727578"/>
<path d="M29.7744 172.976L3.48331 174.595V170.818L29.7744 169.199V172.976Z" fill="#727578"/>
<path d="M3.48331 183.115L29.7744 182.035V178.258L3.48331 179.337V183.115Z" fill="#727578"/>
<path d="M29.7744 191.095L3.48331 191.634V187.857L29.7744 187.317V191.095Z" fill="#727578"/>
<path d="M29.7744 196.376H3.48331V200.154H29.7744V196.376Z" fill="#727578"/>
<defs>
<linearGradient id="paint0_linear" x1="16.6376" y1="207.499" x2="16.6376" y2="0.000183105" gradientUnits="userSpaceOnUse">
<stop stop-color="#D8D8D8"/>
<stop offset="1" stop-color="white"/>
</linearGradient>
</defs>
</svg>
