<svg width="58" height="72" viewBox="0 0 58 72" fill="none" xmlns="http://www.w3.org/2000/svg">
<path d="M28.8694 71.6315H57.7388V4.7008L28.8694 0.939911V71.6315Z" fill="url(#paint0_linear)"/>
<path d="M28.8694 71.6317H0V4.701L28.8694 0.940109V71.6317Z" fill="url(#paint1_linear)"/>
<path d="M37.1731 7.77281L32.3471 7.23952V13.0269L37.1731 13.5587V7.77281Z" fill="#E2E5E7"/>
<path d="M45.7181 8.63518L40.8921 8.10188V13.8882L45.7181 14.421V8.63518Z" fill="#E2E5E7"/>
<path d="M54.2587 9.51324L49.4351 8.98044V14.7668L54.2587 15.3001V9.51324Z" fill="#E2E5E7"/>
<path d="M49.4351 19.4484L54.2587 19.8744V25.6612L49.4351 25.2347V19.4484Z" fill="#E2E5E7"/>
<path d="M54.2587 30.2368L49.4351 29.917V35.7028L54.2587 36.0226V30.2368Z" fill="#E2E5E7"/>
<path d="M49.4351 40.3851L54.2587 40.5982V46.385L49.4351 46.1715V40.3851Z" fill="#E2E5E7"/>
<path d="M54.2587 50.9605L49.4351 50.8538V56.6411L54.2587 56.7479V50.9605Z" fill="#E2E5E7"/>
<path d="M49.4351 61.3219H54.2587V67.1092H49.4351V61.3219Z" fill="#E2E5E7"/>
<path d="M45.7161 61.3219H40.8921V67.1092H45.7161V61.3219Z" fill="#E2E5E7"/>
<path d="M45.7181 50.7846L40.8921 50.6779V56.4647L45.7181 56.5715V50.7846Z" fill="#E2E5E7"/>
<path d="M40.8921 40.034L45.7181 40.2476V46.0344L40.8921 45.8214V40.034Z" fill="#E2E5E7"/>
<path d="M45.7181 29.7098L40.8921 29.39V35.1763L45.7181 35.4961V29.7098Z" fill="#E2E5E7"/>
<path d="M40.8921 18.7459L45.7181 19.1725V24.9569L40.8921 24.5308V18.7459Z" fill="#E2E5E7"/>
<path d="M37.1731 61.3219H32.349V67.1092H37.1731V61.3219Z" fill="#E2E5E7"/>
<path d="M37.1731 50.6125L32.3471 50.5058V56.2931L37.1731 56.3994V50.6125Z" fill="#E2E5E7"/>
<path d="M32.3471 39.6889L37.1731 39.9025V45.6893L32.3471 45.4768V39.6889Z" fill="#E2E5E7"/>
<path d="M37.1731 29.1921L32.3471 28.8723V34.6591L37.1731 34.9784V29.1921Z" fill="#E2E5E7"/>
<path d="M32.3471 18.0561L37.1731 18.4827V24.2691L32.3471 23.8435V18.0561Z" fill="#E2E5E7"/>
<path d="M20.5662 7.77281L25.3898 7.23952V13.0269L20.5662 13.5587V7.77281Z" fill="#727578"/>
<path d="M12.0193 8.63518L16.8453 8.10188V13.8882L12.0193 14.421V8.63518Z" fill="#727578"/>
<path d="M3.47766 9.51324L8.3037 8.98044V14.7668L3.47766 15.3001V9.51324Z" fill="#727578"/>
<path d="M8.3037 19.4484L3.47766 19.8744V25.6612L8.3037 25.2347V19.4484Z" fill="#727578"/>
<path d="M3.47766 30.2368L8.3037 29.917V35.7028L3.47766 36.0226V30.2368Z" fill="#727578"/>
<path d="M8.3037 40.3851L3.47766 40.5982V46.385L8.3037 46.1715V40.3851Z" fill="#727578"/>
<path d="M3.47766 50.9605L8.3037 50.8538V56.6411L3.47766 56.7479V50.9605Z" fill="#727578"/>
<path d="M3.47963 61.3219H8.3037V67.1092H3.47963V61.3219Z" fill="#727578"/>
<path d="M16.8467 61.3219H12.0227V67.1092H16.8467V61.3219Z" fill="#727578"/>
<path d="M12.0193 50.7846L16.8453 50.6779V56.4647L12.0193 56.5715V50.7846Z" fill="#727578"/>
<path d="M16.8453 40.034L12.0193 40.2476V46.0344L16.8453 45.8214V40.034Z" fill="#727578"/>
<path d="M12.0193 29.7098L16.8453 29.39V35.1763L12.0193 35.4961V29.7098Z" fill="#727578"/>
<path d="M16.8453 18.7459L12.0193 19.1725V24.9569L16.8453 24.5308V18.7459Z" fill="#727578"/>
<path d="M25.3903 61.3219H20.5667V67.1092H25.3903V61.3219Z" fill="#727578"/>
<path d="M20.5662 50.6125L25.3898 50.5058V56.2931L20.5662 56.3994V50.6125Z" fill="#727578"/>
<path d="M25.3898 39.6889L20.5662 39.9025V45.6893L25.3898 45.4768V39.6889Z" fill="#727578"/>
<path d="M20.5662 29.1921L25.3898 28.8723V34.6591L20.5662 34.9784V29.1921Z" fill="#727578"/>
<path d="M25.3898 18.0561L20.5662 18.4827V24.2691L25.3898 23.8435V18.0561Z" fill="#727578"/>
<defs>
<linearGradient id="paint0_linear" x1="43.3041" y1="71.6315" x2="43.3041" y2="0.939911" gradientUnits="userSpaceOnUse">
<stop stop-color="#4D4D4D"/>
<stop offset="1" stop-color="#989898"/>
</linearGradient>
<linearGradient id="paint1_linear" x1="14.4347" y1="71.6317" x2="14.4347" y2="0.940109" gradientUnits="userSpaceOnUse">
<stop stop-color="#D8D8D8"/>
<stop offset="1" stop-color="white"/>
</linearGradient>
</defs>
</svg>
