<svg width="285" height="24" viewBox="0 0 285 24" fill="none" xmlns="http://www.w3.org/2000/svg">
<path d="M1.72001 4.78401C2.14401 5.21601 2.66001 5.43201 3.26801 5.43201C3.87601 5.43201 4.39067 5.21601 4.81201 4.78401C5.23601 4.35201 5.44801 3.82401 5.44801 3.20001C5.44801 2.57601 5.23601 2.04801 4.81201 1.61601C4.39067 1.18401 3.87601 0.968006 3.26801 0.968006C2.66001 0.968006 2.14401 1.18401 1.72001 1.61601C1.29867 2.04801 1.08801 2.57601 1.08801 3.20001C1.08801 3.82401 1.29867 4.35201 1.72001 4.78401ZM2.10801 0.528006C2.47334 0.378673 2.86001 0.304006 3.26801 0.304006C3.67601 0.304006 4.06134 0.378673 4.42401 0.528006C4.78934 0.677339 5.10267 0.881339 5.36401 1.14001C5.62534 1.39601 5.83201 1.70267 5.98401 2.06001C6.13601 2.41734 6.21201 2.79734 6.21201 3.20001C6.21201 3.60267 6.13601 3.98267 5.98401 4.34001C5.83201 4.69734 5.62534 5.00534 5.36401 5.26401C5.10267 5.52001 4.78934 5.72267 4.42401 5.87201C4.06134 6.02134 3.67601 6.09601 3.26801 6.09601C2.86001 6.09601 2.47334 6.02134 2.10801 5.87201C1.74534 5.72267 1.43334 5.52001 1.17201 5.26401C0.910672 5.00534 0.704005 4.69734 0.552005 4.34001C0.400005 3.98267 0.324005 3.60267 0.324005 3.20001C0.324005 2.79734 0.400005 2.41734 0.552005 2.06001C0.704005 1.70267 0.910672 1.39601 1.17201 1.14001C1.43334 0.881339 1.74534 0.677339 2.10801 0.528006Z" fill="#E31D13"/>
<path d="M8.25907 4.78401C8.68307 5.21601 9.19907 5.43201 9.80707 5.43201C10.4151 5.43201 10.9297 5.21601 11.3511 4.78401C11.7751 4.35201 11.9871 3.82401 11.9871 3.20001C11.9871 2.57601 11.7751 2.04801 11.3511 1.61601C10.9297 1.18401 10.4151 0.968006 9.80707 0.968006C9.19907 0.968006 8.68307 1.18401 8.25907 1.61601C7.83773 2.04801 7.62707 2.57601 7.62707 3.20001C7.62707 3.82401 7.83773 4.35201 8.25907 4.78401ZM8.64707 0.528006C9.0124 0.378673 9.39907 0.304006 9.80707 0.304006C10.2151 0.304006 10.6004 0.378673 10.9631 0.528006C11.3284 0.677339 11.6417 0.881339 11.9031 1.14001C12.1644 1.39601 12.3711 1.70267 12.5231 2.06001C12.6751 2.41734 12.7511 2.79734 12.7511 3.20001C12.7511 3.60267 12.6751 3.98267 12.5231 4.34001C12.3711 4.69734 12.1644 5.00534 11.9031 5.26401C11.6417 5.52001 11.3284 5.72267 10.9631 5.87201C10.6004 6.02134 10.2151 6.09601 9.80707 6.09601C9.39907 6.09601 9.0124 6.02134 8.64707 5.87201C8.2844 5.72267 7.9724 5.52001 7.71107 5.26401C7.44973 5.00534 7.24307 4.69734 7.09107 4.34001C6.93907 3.98267 6.86307 3.60267 6.86307 3.20001C6.86307 2.79734 6.93907 2.41734 7.09107 2.06001C7.24307 1.70267 7.44973 1.39601 7.71107 1.14001C7.9724 0.881339 8.2844 0.677339 8.64707 0.528006Z" fill="#E31D13"/>
<path d="M14.7981 4.78401C15.2221 5.21601 15.7381 5.43201 16.3461 5.43201C16.9541 5.43201 17.4688 5.21601 17.8901 4.78401C18.3141 4.35201 18.5261 3.82401 18.5261 3.20001C18.5261 2.57601 18.3141 2.04801 17.8901 1.61601C17.4688 1.18401 16.9541 0.968006 16.3461 0.968006C15.7381 0.968006 15.2221 1.18401 14.7981 1.61601C14.3768 2.04801 14.1661 2.57601 14.1661 3.20001C14.1661 3.82401 14.3768 4.35201 14.7981 4.78401ZM15.1861 0.528006C15.5515 0.378673 15.9381 0.304006 16.3461 0.304006C16.7541 0.304006 17.1395 0.378673 17.5021 0.528006C17.8675 0.677339 18.1808 0.881339 18.4421 1.14001C18.7035 1.39601 18.9101 1.70267 19.0621 2.06001C19.2141 2.41734 19.2901 2.79734 19.2901 3.20001C19.2901 3.60267 19.2141 3.98267 19.0621 4.34001C18.9101 4.69734 18.7035 5.00534 18.4421 5.26401C18.1808 5.52001 17.8675 5.72267 17.5021 5.87201C17.1395 6.02134 16.7541 6.09601 16.3461 6.09601C15.9381 6.09601 15.5515 6.02134 15.1861 5.87201C14.8235 5.72267 14.5115 5.52001 14.2501 5.26401C13.9888 5.00534 13.7821 4.69734 13.6301 4.34001C13.4781 3.98267 13.4021 3.60267 13.4021 3.20001C13.4021 2.79734 13.4781 2.41734 13.6301 2.06001C13.7821 1.70267 13.9888 1.39601 14.2501 1.14001C14.5115 0.881339 14.8235 0.677339 15.1861 0.528006Z" fill="#E31D13"/>
<path d="M22.4122 3.69601V3.31201L24.6242 1.92401V2.60001L23.1522 3.50401L24.6242 4.40801V5.08401L22.4122 3.69601ZM24.3722 3.69601V3.31201L26.5842 1.92401V2.60001L25.1122 3.50401L26.5842 4.40801V5.08401L24.3722 3.69601Z" fill="#E31D13"/>
<path d="M30.3461 5.43201C30.8955 5.43201 31.4008 5.24267 31.8621 4.86401L32.2621 5.42801C31.7181 5.87334 31.0795 6.09601 30.3461 6.09601C29.9381 6.09601 29.5515 6.02134 29.1861 5.87201C28.8235 5.72267 28.5115 5.52001 28.2501 5.26401C27.9888 5.00534 27.7821 4.69734 27.6301 4.34001C27.4781 3.98267 27.4021 3.60267 27.4021 3.20001C27.4021 2.79734 27.4781 2.41734 27.6301 2.06001C27.7821 1.70267 27.9888 1.39601 28.2501 1.14001C28.5115 0.881339 28.8235 0.677339 29.1861 0.528006C29.5515 0.378673 29.9381 0.304006 30.3461 0.304006C31.0395 0.304006 31.6555 0.510673 32.1941 0.924006L31.8141 1.49201C31.5715 1.32401 31.3341 1.19467 31.1021 1.10401C30.8701 1.01334 30.6181 0.968006 30.3461 0.968006C29.7381 0.968006 29.2221 1.18401 28.7981 1.61601C28.3768 2.04801 28.1661 2.57601 28.1661 3.20001C28.1661 3.82401 28.3768 4.35201 28.7981 4.78401C29.2221 5.21601 29.7381 5.43201 30.3461 5.43201Z" fill="#E31D13"/>
<path d="M35.7029 4.35601C35.7029 4.03601 35.5829 3.77201 35.3429 3.56401C35.1029 3.35601 34.7895 3.25201 34.4029 3.25201H33.8229V2.63601H34.4109C34.7149 2.63601 34.9615 2.55601 35.1509 2.39601C35.3429 2.23334 35.4389 2.02934 35.4389 1.78401C35.4389 1.54401 35.3455 1.34401 35.1589 1.18401C34.9749 1.02401 34.7455 0.944006 34.4709 0.944006C34.0895 0.944006 33.7615 1.10267 33.4869 1.42001L33.0389 0.964006C33.4069 0.524006 33.9042 0.304006 34.5309 0.304006C35.0029 0.304006 35.3909 0.444006 35.6949 0.724006C36.0015 1.00401 36.1549 1.35201 36.1549 1.76801C36.1549 2.02401 36.0775 2.25601 35.9229 2.46401C35.7709 2.67201 35.5709 2.82401 35.3229 2.92001C35.6562 3.03201 35.9255 3.21867 36.1309 3.48001C36.3389 3.73867 36.4429 4.03467 36.4429 4.36801C36.4429 4.85601 36.2575 5.26667 35.8869 5.60001C35.5189 5.93067 35.0642 6.09601 34.5229 6.09601C34.1655 6.09601 33.8335 6.01734 33.5269 5.86001C33.2229 5.70001 32.9802 5.48001 32.7989 5.20001L33.2749 4.72401C33.4215 4.94801 33.6015 5.12667 33.8149 5.26001C34.0282 5.39067 34.2642 5.45601 34.5229 5.45601C34.8562 5.45601 35.1362 5.35067 35.3629 5.14001C35.5895 4.92667 35.7029 4.66534 35.7029 4.35601Z" fill="#E31D13"/>
<path d="M39.5684 3.69601V3.31201L41.7804 1.92401V2.60001L40.3084 3.50401L41.7804 4.40801V5.08401L39.5684 3.69601ZM41.5284 3.69601V3.31201L43.7404 1.92401V2.60001L42.2684 3.50401L43.7404 4.40801V5.08401L41.5284 3.69601Z" fill="#E31D13"/>
<path d="M47.5024 5.43201C48.0517 5.43201 48.557 5.24267 49.0184 4.86401L49.4184 5.42801C48.8744 5.87334 48.2357 6.09601 47.5024 6.09601C47.0944 6.09601 46.7077 6.02134 46.3424 5.87201C45.9797 5.72267 45.6677 5.52001 45.4064 5.26401C45.145 5.00534 44.9384 4.69734 44.7864 4.34001C44.6344 3.98267 44.5584 3.60267 44.5584 3.20001C44.5584 2.79734 44.6344 2.41734 44.7864 2.06001C44.9384 1.70267 45.145 1.39601 45.4064 1.14001C45.6677 0.881339 45.9797 0.677339 46.3424 0.528006C46.7077 0.378673 47.0944 0.304006 47.5024 0.304006C48.1957 0.304006 48.8117 0.510673 49.3504 0.924006L48.9704 1.49201C48.7277 1.32401 48.4904 1.19467 48.2584 1.10401C48.0264 1.01334 47.7744 0.968006 47.5024 0.968006C46.8944 0.968006 46.3784 1.18401 45.9544 1.61601C45.533 2.04801 45.3224 2.57601 45.3224 3.20001C45.3224 3.82401 45.533 4.35201 45.9544 4.78401C46.3784 5.21601 46.8944 5.43201 47.5024 5.43201Z" fill="#E31D13"/>
<path d="M51.2191 2.50801H49.8831V1.85601H53.2831V2.50801H51.9471V6.00001H51.2191V2.50801Z" fill="#E31D13"/>
<path d="M55.9579 5.44401C56.2485 5.44401 56.5125 5.36934 56.7499 5.22001C56.9899 5.07067 57.1725 4.87201 57.2979 4.62401V3.24401C57.1725 2.99334 56.9899 2.79201 56.7499 2.64001C56.5125 2.48801 56.2485 2.41201 55.9579 2.41201C55.5365 2.41201 55.1805 2.56001 54.8899 2.85601C54.6019 3.14934 54.4579 3.50667 54.4579 3.92801C54.4579 4.34934 54.6019 4.70801 54.8899 5.00401C55.1805 5.29734 55.5365 5.44401 55.9579 5.44401ZM55.8379 1.76001C56.4272 1.76001 56.9139 1.97067 57.2979 2.39201V1.85601H58.0259V6.00001H57.2979V5.46401C56.9165 5.88534 56.4299 6.09601 55.8379 6.09601C55.4379 6.09601 55.0739 5.99734 54.7459 5.80001C54.4205 5.60001 54.1672 5.33601 53.9859 5.00801C53.8072 4.67734 53.7179 4.31734 53.7179 3.92801C53.7179 3.53867 53.8072 3.18001 53.9859 2.85201C54.1672 2.52134 54.4205 2.25734 54.7459 2.06001C55.0739 1.86001 55.4379 1.76001 55.8379 1.76001Z" fill="#E31D13"/>
<path d="M62.9334 1.85601V6.00001H62.2054V4.18401H59.9214V6.00001H59.1934V1.85601H59.9214V3.53201H62.2054V1.85601H62.9334Z" fill="#E31D13"/>
<path d="M67.5996 7.12001V6.00001H64.0996V1.85601H64.8276V5.34801H67.1116V1.85601H67.8396V5.34801H68.3276V7.12001H67.5996Z" fill="#E31D13"/>
<path d="M72.8474 1.85601V6.00001H72.1434V2.88001L69.7994 6.00001H69.1074V1.85601H69.8114V4.97601L72.1554 1.85601H72.8474Z" fill="#E31D13"/>
<path d="M76.4897 4.53601H75.6697L74.5137 6.00001H73.7057L74.9097 4.48401C74.5817 4.40401 74.3164 4.24667 74.1137 4.01201C73.911 3.77734 73.8097 3.50534 73.8097 3.19601C73.8097 2.81734 73.9577 2.50001 74.2537 2.24401C74.5524 1.98534 74.9204 1.85601 75.3577 1.85601H77.2177V6.00001H76.4897V4.53601ZM75.3817 3.90801H76.4897V2.48401H75.3817C75.1417 2.48401 74.9404 2.55201 74.7777 2.68801C74.6177 2.82401 74.5377 2.99334 74.5377 3.19601C74.5377 3.40134 74.6177 3.57201 74.7777 3.70801C74.9404 3.84134 75.1417 3.90801 75.3817 3.90801Z" fill="#E31D13"/>
<path d="M83.4477 5.43201C83.997 5.43201 84.5024 5.24267 84.9637 4.86401L85.3637 5.42801C84.8197 5.87334 84.181 6.09601 83.4477 6.09601C83.0397 6.09601 82.653 6.02134 82.2877 5.87201C81.925 5.72267 81.613 5.52001 81.3517 5.26401C81.0904 5.00534 80.8837 4.69734 80.7317 4.34001C80.5797 3.98267 80.5037 3.60267 80.5037 3.20001C80.5037 2.79734 80.5797 2.41734 80.7317 2.06001C80.8837 1.70267 81.0904 1.39601 81.3517 1.14001C81.613 0.881339 81.925 0.677339 82.2877 0.528006C82.653 0.378673 83.0397 0.304006 83.4477 0.304006C84.141 0.304006 84.757 0.510673 85.2957 0.924006L84.9157 1.49201C84.673 1.32401 84.4357 1.19467 84.2037 1.10401C83.9717 1.01334 83.7197 0.968006 83.4477 0.968006C82.8397 0.968006 82.3237 1.18401 81.8997 1.61601C81.4784 2.04801 81.2677 2.57601 81.2677 3.20001C81.2677 3.82401 81.4784 4.35201 81.8997 4.78401C82.3237 5.21601 82.8397 5.43201 83.4477 5.43201Z" fill="#E31D13"/>
<path d="M89.9724 1.85601V6.00001H89.2444V2.50801H86.9604V6.00001H86.2324V1.85601H89.9724Z" fill="#E31D13"/>
<path d="M92.0227 5.00401C92.3134 5.29734 92.6694 5.44401 93.0907 5.44401C93.512 5.44401 93.8667 5.29734 94.1547 5.00401C94.4454 4.70801 94.5907 4.34934 94.5907 3.92801C94.5907 3.50667 94.4454 3.14934 94.1547 2.85601C93.8667 2.56001 93.512 2.41201 93.0907 2.41201C92.6694 2.41201 92.3134 2.56001 92.0227 2.85601C91.7347 3.14934 91.5907 3.50667 91.5907 3.92801C91.5907 4.34934 91.7347 4.70801 92.0227 5.00401ZM91.9427 2.05201C92.2867 1.85734 92.6694 1.76001 93.0907 1.76001C93.512 1.76001 93.8947 1.85734 94.2387 2.05201C94.5827 2.24667 94.8507 2.50934 95.0427 2.84001C95.2347 3.17067 95.3307 3.53334 95.3307 3.92801C95.3307 4.32267 95.2347 4.68534 95.0427 5.01601C94.8507 5.34667 94.5827 5.60934 94.2387 5.80401C93.8947 5.99867 93.512 6.09601 93.0907 6.09601C92.6694 6.09601 92.2867 5.99867 91.9427 5.80401C91.5987 5.60934 91.3307 5.34667 91.1387 5.01601C90.9467 4.68534 90.8507 4.32267 90.8507 3.92801C90.8507 3.53334 90.9467 3.17067 91.1387 2.84001C91.3307 2.50934 91.5987 2.24667 91.9427 2.05201Z" fill="#E31D13"/>
<path d="M98.277 5.44401C98.6983 5.44401 99.053 5.29734 99.341 5.00401C99.6317 4.70801 99.777 4.34934 99.777 3.92801C99.777 3.50667 99.6317 3.14934 99.341 2.85601C99.053 2.56001 98.6983 2.41201 98.277 2.41201C97.9863 2.41201 97.721 2.48801 97.481 2.64001C97.2437 2.79201 97.0623 2.99334 96.937 3.24401V4.62401C97.0623 4.87201 97.2437 5.07067 97.481 5.22001C97.721 5.36934 97.9863 5.44401 98.277 5.44401ZM98.397 1.76001C98.797 1.76001 99.1597 1.86001 99.485 2.06001C99.813 2.25734 100.066 2.52134 100.245 2.85201C100.426 3.18001 100.517 3.53867 100.517 3.92801C100.517 4.31734 100.426 4.67734 100.245 5.00801C100.066 5.33601 99.813 5.60001 99.485 5.80001C99.1597 5.99734 98.797 6.09601 98.397 6.09601C97.805 6.09601 97.3183 5.88534 96.937 5.46401V7.85601H96.209V1.85601H96.937V2.39201C97.321 1.97067 97.8077 1.76001 98.397 1.76001Z" fill="#E31D13"/>
<path d="M102.25 2.50801H100.914V1.85601H104.314V2.50801H102.978V6.00001H102.25V2.50801Z" fill="#E31D13"/>
<path d="M108.816 1.85601V6.00001H108.112V2.88001L105.768 6.00001H105.076V1.85601H105.78V4.97601L108.124 1.85601H108.816Z" fill="#E31D13"/>
<path d="M111.734 6.00001H109.982V1.85601H111.61C111.989 1.85601 112.306 1.96134 112.562 2.17201C112.821 2.38267 112.95 2.64267 112.95 2.95201C112.95 3.14401 112.893 3.31867 112.778 3.47601C112.664 3.63334 112.514 3.74801 112.33 3.82001C112.56 3.87334 112.752 3.99601 112.906 4.18801C113.064 4.38001 113.142 4.59334 113.142 4.82801C113.142 5.15867 113.006 5.43734 112.734 5.66401C112.465 5.88801 112.132 6.00001 111.734 6.00001ZM110.71 3.56401H111.562C111.752 3.56401 111.909 3.51334 112.034 3.41201C112.16 3.30801 112.222 3.17867 112.222 3.02401C112.222 2.86934 112.16 2.74134 112.034 2.64001C111.909 2.53601 111.752 2.48401 111.562 2.48401H110.71V3.56401ZM110.71 5.37201H111.698C111.901 5.37201 112.07 5.31467 112.206 5.20001C112.345 5.08534 112.414 4.94401 112.414 4.77601C112.414 4.60534 112.345 4.46134 112.206 4.34401C112.07 4.22667 111.901 4.16801 111.698 4.16801H110.71V5.37201Z" fill="#E31D13"/>
<path d="M117.847 1.85601V6.00001H117.119V4.18401H114.835V6.00001H114.107V1.85601H114.835V3.53201H117.119V1.85601H117.847Z" fill="#E31D13"/>
<path d="M120.966 5.44401C121.256 5.44401 121.52 5.36934 121.758 5.22001C121.998 5.07067 122.18 4.87201 122.306 4.62401V3.24401C122.18 2.99334 121.998 2.79201 121.758 2.64001C121.52 2.48801 121.256 2.41201 120.966 2.41201C120.544 2.41201 120.188 2.56001 119.898 2.85601C119.61 3.14934 119.466 3.50667 119.466 3.92801C119.466 4.34934 119.61 4.70801 119.898 5.00401C120.188 5.29734 120.544 5.44401 120.966 5.44401ZM120.846 1.76001C121.435 1.76001 121.922 1.97067 122.306 2.39201V1.85601H123.034V6.00001H122.306V5.46401C121.924 5.88534 121.438 6.09601 120.846 6.09601C120.446 6.09601 120.082 5.99734 119.754 5.80001C119.428 5.60001 119.175 5.33601 118.994 5.00801C118.815 4.67734 118.726 4.31734 118.726 3.92801C118.726 3.53867 118.815 3.18001 118.994 2.85201C119.175 2.52134 119.428 2.25734 119.754 2.06001C120.082 1.86001 120.446 1.76001 120.846 1.76001Z" fill="#E31D13"/>
<path d="M126.677 4.53601H125.857L124.701 6.00001H123.893L125.097 4.48401C124.769 4.40401 124.504 4.24667 124.301 4.01201C124.099 3.77734 123.997 3.50534 123.997 3.19601C123.997 2.81734 124.145 2.50001 124.441 2.24401C124.74 1.98534 125.108 1.85601 125.545 1.85601H127.405V6.00001H126.677V4.53601ZM125.569 3.90801H126.677V2.48401H125.569C125.329 2.48401 125.128 2.55201 124.965 2.68801C124.805 2.82401 124.725 2.99334 124.725 3.19601C124.725 3.40134 124.805 3.57201 124.965 3.70801C125.128 3.84134 125.329 3.90801 125.569 3.90801Z" fill="#E31D13"/>
<path d="M132.656 3.31201V3.69601L130.444 5.08401V4.40801L131.916 3.50401L130.444 2.60001V1.92401L132.656 3.31201ZM130.696 3.31201V3.69601L128.484 5.08401V4.40801L129.956 3.50401L128.484 2.60001V1.92401L130.696 3.31201Z" fill="#E31D13"/>
<path d="M133.766 5.59601C133.766 5.45467 133.814 5.33601 133.91 5.24001C134.006 5.14401 134.125 5.09601 134.266 5.09601C134.407 5.09601 134.526 5.14401 134.622 5.24001C134.718 5.33601 134.766 5.45467 134.766 5.59601C134.766 5.67334 134.749 5.74934 134.714 5.82401L134.186 6.98001H133.702L134.11 6.07201C134.006 6.04001 133.922 5.98134 133.858 5.89601C133.797 5.80801 133.766 5.70801 133.766 5.59601Z" fill="#E31D13"/>
<path d="M142.152 1.85601V6.00001H141.424V2.50801H139.14V6.00001H138.412V1.85601H142.152Z" fill="#E31D13"/>
<path d="M145.386 5.44401C145.808 5.44401 146.162 5.29734 146.45 5.00401C146.741 4.70801 146.886 4.34934 146.886 3.92801C146.886 3.50667 146.741 3.14934 146.45 2.85601C146.162 2.56001 145.808 2.41201 145.386 2.41201C145.096 2.41201 144.83 2.48801 144.59 2.64001C144.353 2.79201 144.172 2.99334 144.046 3.24401V4.62401C144.172 4.87201 144.353 5.07067 144.59 5.22001C144.83 5.36934 145.096 5.44401 145.386 5.44401ZM145.506 1.76001C145.906 1.76001 146.269 1.86001 146.594 2.06001C146.922 2.25734 147.176 2.52134 147.354 2.85201C147.536 3.18001 147.626 3.53867 147.626 3.92801C147.626 4.31734 147.536 4.67734 147.354 5.00801C147.176 5.33601 146.922 5.60001 146.594 5.80001C146.269 5.99734 145.906 6.09601 145.506 6.09601C144.914 6.09601 144.428 5.88534 144.046 5.46401V7.85601H143.318V1.85601H144.046V2.39201C144.43 1.97067 144.917 1.76001 145.506 1.76001Z" fill="#E31D13"/>
<path d="M149.39 5.00401C149.681 5.29734 150.037 5.44401 150.458 5.44401C150.879 5.44401 151.234 5.29734 151.522 5.00401C151.813 4.70801 151.958 4.34934 151.958 3.92801C151.958 3.50667 151.813 3.14934 151.522 2.85601C151.234 2.56001 150.879 2.41201 150.458 2.41201C150.037 2.41201 149.681 2.56001 149.39 2.85601C149.102 3.14934 148.958 3.50667 148.958 3.92801C148.958 4.34934 149.102 4.70801 149.39 5.00401ZM149.31 2.05201C149.654 1.85734 150.037 1.76001 150.458 1.76001C150.879 1.76001 151.262 1.85734 151.606 2.05201C151.95 2.24667 152.218 2.50934 152.41 2.84001C152.602 3.17067 152.698 3.53334 152.698 3.92801C152.698 4.32267 152.602 4.68534 152.41 5.01601C152.218 5.34667 151.95 5.60934 151.606 5.80401C151.262 5.99867 150.879 6.09601 150.458 6.09601C150.037 6.09601 149.654 5.99867 149.31 5.80401C148.966 5.60934 148.698 5.34667 148.506 5.01601C148.314 4.68534 148.218 4.32267 148.218 3.92801C148.218 3.53334 148.314 3.17067 148.506 2.84001C148.698 2.50934 148.966 2.24667 149.31 2.05201Z" fill="#E31D13"/>
<path d="M154.032 4.15601C154.072 4.53201 154.231 4.84534 154.508 5.09601C154.788 5.34401 155.126 5.46801 155.52 5.46801C156.027 5.46801 156.463 5.26801 156.828 4.86801L157.328 5.33201C157.11 5.58001 156.847 5.76934 156.54 5.90001C156.234 6.03067 155.9 6.09601 155.54 6.09601C155.21 6.09601 154.903 6.04001 154.62 5.92801C154.338 5.81334 154.099 5.65867 153.904 5.46401C153.712 5.26934 153.562 5.04001 153.452 4.77601C153.343 4.50934 153.288 4.22667 153.288 3.92801C153.288 3.63201 153.343 3.35067 153.452 3.08401C153.564 2.81734 153.716 2.58667 153.908 2.39201C154.103 2.19734 154.336 2.04401 154.608 1.93201C154.88 1.81734 155.171 1.76001 155.48 1.76001C155.883 1.76001 156.246 1.85334 156.568 2.04001C156.894 2.22667 157.146 2.47867 157.324 2.79601C157.503 3.11067 157.592 3.45734 157.592 3.83601C157.592 3.94267 157.58 4.04934 157.556 4.15601H154.032ZM155.48 2.38801C155.139 2.38801 154.835 2.49867 154.568 2.72001C154.302 2.94134 154.132 3.21867 154.06 3.55201H156.828C156.772 3.21334 156.62 2.93467 156.372 2.71601C156.124 2.49734 155.827 2.38801 155.48 2.38801Z" fill="#E31D13"/>
<path d="M161.135 6.00001L159.715 4.03201H159.203V6.00001H158.475V1.85601H159.203V3.40401H159.723L160.895 1.85601H161.759L160.327 3.71601L161.975 6.00001H161.135Z" fill="#E31D13"/>
<path d="M163.524 2.50801H162.188V1.85601H165.588V2.50801H164.252V6.00001H163.524V2.50801Z" fill="#E31D13"/>
<path d="M170.09 1.85601V6.00001H169.362V4.18401H167.078V6.00001H166.35V1.85601H167.078V3.53201H169.362V1.85601H170.09Z" fill="#E31D13"/>
<path d="M173.208 5.44401C173.499 5.44401 173.763 5.36934 174 5.22001C174.24 5.07067 174.423 4.87201 174.548 4.62401V3.24401C174.423 2.99334 174.24 2.79201 174 2.64001C173.763 2.48801 173.499 2.41201 173.208 2.41201C172.787 2.41201 172.431 2.56001 172.14 2.85601C171.852 3.14934 171.708 3.50667 171.708 3.92801C171.708 4.34934 171.852 4.70801 172.14 5.00401C172.431 5.29734 172.787 5.44401 173.208 5.44401ZM173.088 1.76001C173.677 1.76001 174.164 1.97067 174.548 2.39201V1.85601H175.276V6.00001H174.548V5.46401C174.167 5.88534 173.68 6.09601 173.088 6.09601C172.688 6.09601 172.324 5.99734 171.996 5.80001C171.671 5.60001 171.417 5.33601 171.236 5.00801C171.057 4.67734 170.968 4.31734 170.968 3.92801C170.968 3.53867 171.057 3.18001 171.236 2.85201C171.417 2.52134 171.671 2.25734 171.996 2.06001C172.324 1.86001 172.688 1.76001 173.088 1.76001Z" fill="#E31D13"/>
<path d="M178.919 4.53601H178.099L176.943 6.00001H176.135L177.339 4.48401C177.011 4.40401 176.746 4.24667 176.543 4.01201C176.341 3.77734 176.239 3.50534 176.239 3.19601C176.239 2.81734 176.387 2.50001 176.683 2.24401C176.982 1.98534 177.35 1.85601 177.787 1.85601H179.647V6.00001H178.919V4.53601ZM177.811 3.90801H178.919V2.48401H177.811C177.571 2.48401 177.37 2.55201 177.207 2.68801C177.047 2.82401 176.967 2.99334 176.967 3.19601C176.967 3.40134 177.047 3.57201 177.207 3.70801C177.37 3.84134 177.571 3.90801 177.811 3.90801Z" fill="#E31D13"/>
<path d="M186.813 5.36001V6.84801H186.085V6.00001H183.533V6.84801H182.805V5.36001H183.237C183.635 4.52001 183.833 3.35201 183.833 1.85601H186.281V5.36001H186.813ZM184.013 5.36001H185.565V2.49601H184.525C184.525 2.97867 184.48 3.48001 184.389 4.00001C184.301 4.51734 184.176 4.97067 184.013 5.36001Z" fill="#E31D13"/>
<path d="M188.009 4.15601C188.049 4.53201 188.207 4.84534 188.485 5.09601C188.765 5.34401 189.102 5.46801 189.497 5.46801C190.003 5.46801 190.439 5.26801 190.805 4.86801L191.305 5.33201C191.086 5.58001 190.823 5.76934 190.517 5.90001C190.21 6.03067 189.877 6.09601 189.517 6.09601C189.186 6.09601 188.879 6.04001 188.597 5.92801C188.314 5.81334 188.075 5.65867 187.881 5.46401C187.689 5.26934 187.538 5.04001 187.429 4.77601C187.319 4.50934 187.265 4.22667 187.265 3.92801C187.265 3.63201 187.319 3.35067 187.429 3.08401C187.541 2.81734 187.693 2.58667 187.885 2.39201C188.079 2.19734 188.313 2.04401 188.585 1.93201C188.857 1.81734 189.147 1.76001 189.457 1.76001C189.859 1.76001 190.222 1.85334 190.545 2.04001C190.87 2.22667 191.122 2.47867 191.301 2.79601C191.479 3.11067 191.569 3.45734 191.569 3.83601C191.569 3.94267 191.557 4.04934 191.533 4.15601H188.009ZM189.457 2.38801C189.115 2.38801 188.811 2.49867 188.545 2.72001C188.278 2.94134 188.109 3.21867 188.037 3.55201H190.805C190.749 3.21334 190.597 2.93467 190.349 2.71601C190.101 2.49734 189.803 2.38801 189.457 2.38801Z" fill="#E31D13"/>
<path d="M195.111 6.00001L193.691 4.03201H193.179V6.00001H192.451V1.85601H193.179V3.40401H193.699L194.871 1.85601H195.735L194.303 3.71601L195.951 6.00001H195.111Z" fill="#E31D13"/>
<path d="M196.908 4.80401V1.85601H200.312V6.00001H199.584V2.50801H197.636V4.86001C197.636 5.19601 197.531 5.47467 197.32 5.69601C197.11 5.91734 196.842 6.02801 196.516 6.02801C196.375 6.02801 196.258 6.01867 196.164 6.00001V5.35601C196.207 5.35867 196.278 5.36001 196.376 5.36001C196.534 5.36001 196.662 5.30934 196.76 5.20801C196.859 5.10667 196.908 4.97201 196.908 4.80401Z" fill="#E31D13"/>
<path d="M203.434 5.44401C203.725 5.44401 203.989 5.36934 204.226 5.22001C204.466 5.07067 204.649 4.87201 204.774 4.62401V3.24401C204.649 2.99334 204.466 2.79201 204.226 2.64001C203.989 2.48801 203.725 2.41201 203.434 2.41201C203.013 2.41201 202.657 2.56001 202.366 2.85601C202.078 3.14934 201.934 3.50667 201.934 3.92801C201.934 4.34934 202.078 4.70801 202.366 5.00401C202.657 5.29734 203.013 5.44401 203.434 5.44401ZM203.314 1.76001C203.904 1.76001 204.39 1.97067 204.774 2.39201V1.85601H205.502V6.00001H204.774V5.46401C204.393 5.88534 203.906 6.09601 203.314 6.09601C202.914 6.09601 202.55 5.99734 202.222 5.80001C201.897 5.60001 201.644 5.33601 201.462 5.00801C201.284 4.67734 201.194 4.31734 201.194 3.92801C201.194 3.53867 201.284 3.18001 201.462 2.85201C201.644 2.52134 201.897 2.25734 202.222 2.06001C202.55 1.86001 202.914 1.76001 203.314 1.76001Z" fill="#E31D13"/>
<path d="M208.738 5.44401C209.159 5.44401 209.514 5.29734 209.802 5.00401C210.093 4.70801 210.238 4.34934 210.238 3.92801C210.238 3.50667 210.093 3.14934 209.802 2.85601C209.514 2.56001 209.159 2.41201 208.738 2.41201C208.447 2.41201 208.182 2.48801 207.942 2.64001C207.705 2.79201 207.523 2.99334 207.398 3.24401V4.62401C207.523 4.87201 207.705 5.07067 207.942 5.22001C208.182 5.36934 208.447 5.44401 208.738 5.44401ZM208.858 1.76001C209.258 1.76001 209.621 1.86001 209.946 2.06001C210.274 2.25734 210.527 2.52134 210.706 2.85201C210.887 3.18001 210.978 3.53867 210.978 3.92801C210.978 4.31734 210.887 4.67734 210.706 5.00801C210.527 5.33601 210.274 5.60001 209.946 5.80001C209.621 5.99734 209.258 6.09601 208.858 6.09601C208.266 6.09601 207.779 5.88534 207.398 5.46401V7.85601H206.67V1.85601H207.398V2.39201C207.782 1.97067 208.269 1.76001 208.858 1.76001Z" fill="#E31D13"/>
<path d="M213.809 5.44401C214.1 5.44401 214.364 5.36934 214.601 5.22001C214.841 5.07067 215.024 4.87201 215.149 4.62401V3.24401C215.024 2.99334 214.841 2.79201 214.601 2.64001C214.364 2.48801 214.1 2.41201 213.809 2.41201C213.388 2.41201 213.032 2.56001 212.741 2.85601C212.453 3.14934 212.309 3.50667 212.309 3.92801C212.309 4.34934 212.453 4.70801 212.741 5.00401C213.032 5.29734 213.388 5.44401 213.809 5.44401ZM213.689 1.76001C214.279 1.76001 214.765 1.97067 215.149 2.39201V1.85601H215.877V6.00001H215.149V5.46401C214.768 5.88534 214.281 6.09601 213.689 6.09601C213.289 6.09601 212.925 5.99734 212.597 5.80001C212.272 5.60001 212.019 5.33601 211.837 5.00801C211.659 4.67734 211.569 4.31734 211.569 3.92801C211.569 3.53867 211.659 3.18001 211.837 2.85201C212.019 2.52134 212.272 2.25734 212.597 2.06001C212.925 1.86001 213.289 1.76001 213.689 1.76001Z" fill="#E31D13"/>
<path d="M220.545 7.12001V6.00001H217.045V1.85601H217.773V5.34801H220.057V1.85601H220.785V5.34801H221.273V7.12001H220.545Z" fill="#E31D13"/>
<path d="M225.793 1.85601V6.00001H225.089V2.88001L222.745 6.00001H222.053V1.85601H222.757V4.97601L225.101 1.85601H225.793Z" fill="#E31D13"/>
<path d="M229.435 4.53601H228.615L227.459 6.00001H226.651L227.855 4.48401C227.527 4.40401 227.262 4.24667 227.059 4.01201C226.856 3.77734 226.755 3.50534 226.755 3.19601C226.755 2.81734 226.903 2.50001 227.199 2.24401C227.498 1.98534 227.866 1.85601 228.303 1.85601H230.163V6.00001H229.435V4.53601ZM228.327 3.90801H229.435V2.48401H228.327C228.087 2.48401 227.886 2.55201 227.723 2.68801C227.563 2.82401 227.483 2.99334 227.483 3.19601C227.483 3.40134 227.563 3.57201 227.723 3.70801C227.886 3.84134 228.087 3.90801 228.327 3.90801Z" fill="#E31D13"/>
<path d="M237.449 1.85601V6.00001H236.721V4.18401H234.437V6.00001H233.709V1.85601H234.437V3.53201H236.721V1.85601H237.449Z" fill="#E31D13"/>
<path d="M240.567 5.44401C240.858 5.44401 241.122 5.36934 241.359 5.22001C241.599 5.07067 241.782 4.87201 241.907 4.62401V3.24401C241.782 2.99334 241.599 2.79201 241.359 2.64001C241.122 2.48801 240.858 2.41201 240.567 2.41201C240.146 2.41201 239.79 2.56001 239.499 2.85601C239.211 3.14934 239.067 3.50667 239.067 3.92801C239.067 4.34934 239.211 4.70801 239.499 5.00401C239.79 5.29734 240.146 5.44401 240.567 5.44401ZM240.447 1.76001C241.037 1.76001 241.523 1.97067 241.907 2.39201V1.85601H242.635V6.00001H241.907V5.46401C241.526 5.88534 241.039 6.09601 240.447 6.09601C240.047 6.09601 239.683 5.99734 239.355 5.80001C239.03 5.60001 238.777 5.33601 238.595 5.00801C238.417 4.67734 238.327 4.31734 238.327 3.92801C238.327 3.53867 238.417 3.18001 238.595 2.85201C238.777 2.52134 239.03 2.25734 239.355 2.06001C239.683 1.86001 240.047 1.76001 240.447 1.76001Z" fill="#E31D13"/>
<path d="M248.13 6.09601C247.708 6.09601 247.326 5.99867 246.982 5.80401C246.638 5.60934 246.37 5.34667 246.178 5.01601C245.986 4.68534 245.89 4.32267 245.89 3.92801C245.89 3.53334 245.986 3.17067 246.178 2.84001C246.37 2.50934 246.638 2.24667 246.982 2.05201C247.326 1.85734 247.708 1.76001 248.13 1.76001C248.708 1.76001 249.211 1.94267 249.638 2.30801L249.258 2.88001C248.906 2.56801 248.53 2.41201 248.13 2.41201C247.708 2.41201 247.352 2.56001 247.062 2.85601C246.774 3.14934 246.63 3.50667 246.63 3.92801C246.63 4.34934 246.774 4.70801 247.062 5.00401C247.352 5.29734 247.708 5.44401 248.13 5.44401C248.562 5.44401 248.947 5.27734 249.286 4.94401L249.714 5.47601C249.287 5.88934 248.759 6.09601 248.13 6.09601Z" fill="#E31D13"/>
<path d="M252.52 5.44401C252.811 5.44401 253.075 5.36934 253.312 5.22001C253.552 5.07067 253.735 4.87201 253.86 4.62401V3.24401C253.735 2.99334 253.552 2.79201 253.312 2.64001C253.075 2.48801 252.811 2.41201 252.52 2.41201C252.099 2.41201 251.743 2.56001 251.452 2.85601C251.164 3.14934 251.02 3.50667 251.02 3.92801C251.02 4.34934 251.164 4.70801 251.452 5.00401C251.743 5.29734 252.099 5.44401 252.52 5.44401ZM252.4 1.76001C252.99 1.76001 253.476 1.97067 253.86 2.39201V1.85601H254.588V6.00001H253.86V5.46401C253.479 5.88534 252.992 6.09601 252.4 6.09601C252 6.09601 251.636 5.99734 251.308 5.80001C250.983 5.60001 250.73 5.33601 250.548 5.00801C250.37 4.67734 250.28 4.31734 250.28 3.92801C250.28 3.53867 250.37 3.18001 250.548 2.85201C250.73 2.52134 250.983 2.25734 251.308 2.06001C251.636 1.86001 252 1.76001 252.4 1.76001Z" fill="#E31D13"/>
<path d="M259.496 1.85601V6.00001H258.792V2.88001L256.448 6.00001H255.756V1.85601H256.46V4.97601L258.804 1.85601H259.496ZM258.524 0.988006C258.276 1.22001 257.976 1.33601 257.624 1.33601C257.272 1.33601 256.971 1.22001 256.72 0.988006C256.472 0.753339 256.339 0.457339 256.32 0.100006H256.968C256.976 0.300006 257.04 0.465339 257.16 0.596006C257.283 0.726673 257.437 0.792006 257.624 0.792006C257.811 0.792006 257.964 0.726673 258.084 0.596006C258.207 0.465339 258.272 0.300006 258.28 0.100006H258.928C258.909 0.457339 258.775 0.753339 258.524 0.988006Z" fill="#E31D13"/>
<path d="M261.594 2.50801H260.258V1.85601H263.658V2.50801H262.322V6.00001H261.594V2.50801Z" fill="#E31D13"/>
<path d="M264.72 4.15601C264.76 4.53201 264.918 4.84534 265.196 5.09601C265.476 5.34401 265.813 5.46801 266.208 5.46801C266.714 5.46801 267.15 5.26801 267.516 4.86801L268.016 5.33201C267.797 5.58001 267.534 5.76934 267.228 5.90001C266.921 6.03067 266.588 6.09601 266.228 6.09601C265.897 6.09601 265.59 6.04001 265.308 5.92801C265.025 5.81334 264.786 5.65867 264.592 5.46401C264.4 5.26934 264.249 5.04001 264.14 4.77601C264.03 4.50934 263.976 4.22667 263.976 3.92801C263.976 3.63201 264.03 3.35067 264.14 3.08401C264.252 2.81734 264.404 2.58667 264.596 2.39201C264.79 2.19734 265.024 2.04401 265.296 1.93201C265.568 1.81734 265.858 1.76001 266.168 1.76001C266.57 1.76001 266.933 1.85334 267.256 2.04001C267.581 2.22667 267.833 2.47867 268.012 2.79601C268.19 3.11067 268.28 3.45734 268.28 3.83601C268.28 3.94267 268.268 4.04934 268.244 4.15601H264.72ZM266.168 2.38801C265.826 2.38801 265.522 2.49867 265.256 2.72001C264.989 2.94134 264.82 3.21867 264.748 3.55201H267.516C267.46 3.21334 267.308 2.93467 267.06 2.71601C266.812 2.49734 266.514 2.38801 266.168 2.38801Z" fill="#E31D13"/>
<path d="M4.32401 9.85601V14H3.59601V12.184H1.31201V14H0.584005V9.85601H1.31201V11.532H3.59601V9.85601H4.32401Z" fill="#E31D13"/>
<path d="M7.44226 13.444C7.73292 13.444 7.99692 13.3693 8.23426 13.22C8.47426 13.0707 8.65692 12.872 8.78226 12.624V11.244C8.65692 10.9933 8.47426 10.792 8.23426 10.64C7.99692 10.488 7.73292 10.412 7.44226 10.412C7.02092 10.412 6.66492 10.56 6.37426 10.856C6.08626 11.1493 5.94226 11.5067 5.94226 11.928C5.94226 12.3493 6.08626 12.708 6.37426 13.004C6.66492 13.2973 7.02092 13.444 7.44226 13.444ZM7.32226 9.76001C7.91159 9.76001 8.39826 9.97067 8.78226 10.392V9.85601H9.51025V14H8.78226V13.464C8.40092 13.8853 7.91426 14.096 7.32226 14.096C6.92226 14.096 6.55826 13.9973 6.23026 13.8C5.90492 13.6 5.65159 13.336 5.47026 13.008C5.29159 12.6773 5.20226 12.3173 5.20226 11.928C5.20226 11.5387 5.29159 11.18 5.47026 10.852C5.65159 10.5213 5.90492 10.2573 6.23026 10.06C6.55826 9.86001 6.92226 9.76001 7.32226 9.76001Z" fill="#E31D13"/>
<path d="M15.8138 9.85601V14H10.6778V9.85601H11.4058V13.348H12.8818V9.85601H13.6098V13.348H15.0858V9.85601H15.8138Z" fill="#E31D13"/>
<path d="M17.2304 13.952C17.1344 13.856 17.0864 13.7373 17.0864 13.596C17.0864 13.4547 17.1344 13.336 17.2304 13.24C17.3264 13.144 17.4451 13.096 17.5864 13.096C17.7278 13.096 17.8464 13.144 17.9424 13.24C18.0384 13.336 18.0864 13.4547 18.0864 13.596C18.0864 13.7373 18.0384 13.856 17.9424 13.952C17.8464 14.048 17.7278 14.096 17.5864 14.096C17.4451 14.096 17.3264 14.048 17.2304 13.952Z" fill="#E31D13"/>
<path d="M22.9774 13.36V14.848H22.2494V14H19.6974V14.848H18.9694V13.36H19.4014C19.7988 12.52 19.9974 11.352 19.9974 9.85601H22.4454V13.36H22.9774ZM20.1774 13.36H21.7294V10.496H20.6894C20.6894 10.9787 20.6441 11.48 20.5534 12C20.4654 12.5173 20.3401 12.9707 20.1774 13.36Z" fill="#E31D13"/>
<path d="M24.6008 13.004C24.8915 13.2973 25.2475 13.444 25.6688 13.444C26.0902 13.444 26.4448 13.2973 26.7328 13.004C27.0235 12.708 27.1688 12.3493 27.1688 11.928C27.1688 11.5067 27.0235 11.1493 26.7328 10.856C26.4448 10.56 26.0902 10.412 25.6688 10.412C25.2475 10.412 24.8915 10.56 24.6008 10.856C24.3128 11.1493 24.1688 11.5067 24.1688 11.928C24.1688 12.3493 24.3128 12.708 24.6008 13.004ZM24.5208 10.052C24.8648 9.85734 25.2475 9.76001 25.6688 9.76001C26.0902 9.76001 26.4728 9.85734 26.8168 10.052C27.1608 10.2467 27.4288 10.5093 27.6208 10.84C27.8128 11.1707 27.9088 11.5333 27.9088 11.928C27.9088 12.3227 27.8128 12.6853 27.6208 13.016C27.4288 13.3467 27.1608 13.6093 26.8168 13.804C26.4728 13.9987 26.0902 14.096 25.6688 14.096C25.2475 14.096 24.8648 13.9987 24.5208 13.804C24.1768 13.6093 23.9088 13.3467 23.7168 13.016C23.5248 12.6853 23.4288 12.3227 23.4288 11.928C23.4288 11.5333 23.5248 11.1707 23.7168 10.84C23.9088 10.5093 24.1768 10.2467 24.5208 10.052Z" fill="#E31D13"/>
<path d="M29.4591 9.85601L30.9031 12.04L32.3471 9.85601H33.0191V14H32.3151V10.972L31.1231 12.748H30.6831L29.4911 10.972V14H28.7871V9.85601H29.4591Z" fill="#E31D13"/>
<path d="M34.4336 13.952C34.3376 13.856 34.2896 13.7373 34.2896 13.596C34.2896 13.4547 34.3376 13.336 34.4336 13.24C34.5296 13.144 34.6482 13.096 34.7896 13.096C34.9309 13.096 35.0496 13.144 35.1456 13.24C35.2416 13.336 35.2896 13.4547 35.2896 13.596C35.2896 13.7373 35.2416 13.856 35.1456 13.952C35.0496 14.048 34.9309 14.096 34.7896 14.096C34.6482 14.096 34.5296 14.048 34.4336 13.952Z" fill="#E31D13"/>
<path d="M38.6286 13.444C39.0499 13.444 39.4046 13.2973 39.6926 13.004C39.9832 12.708 40.1286 12.3493 40.1286 11.928C40.1286 11.5067 39.9832 11.1493 39.6926 10.856C39.4046 10.56 39.0499 10.412 38.6286 10.412C38.3379 10.412 38.0726 10.488 37.8326 10.64C37.5952 10.792 37.4139 10.9933 37.2886 11.244V12.624C37.4139 12.872 37.5952 13.0707 37.8326 13.22C38.0726 13.3693 38.3379 13.444 38.6286 13.444ZM38.7486 9.76001C39.1486 9.76001 39.5112 9.86001 39.8366 10.06C40.1646 10.2573 40.4179 10.5213 40.5966 10.852C40.7779 11.18 40.8686 11.5387 40.8686 11.928C40.8686 12.3173 40.7779 12.6773 40.5966 13.008C40.4179 13.336 40.1646 13.6 39.8366 13.8C39.5112 13.9973 39.1486 14.096 38.7486 14.096C38.1566 14.096 37.6699 13.8853 37.2886 13.464V15.856H36.5606V9.85601H37.2886V10.392C37.6726 9.97067 38.1592 9.76001 38.7486 9.76001Z" fill="#E31D13"/>
<path d="M43.7001 13.444C43.9907 13.444 44.2547 13.3693 44.4921 13.22C44.7321 13.0707 44.9147 12.872 45.0401 12.624V11.244C44.9147 10.9933 44.7321 10.792 44.4921 10.64C44.2547 10.488 43.9907 10.412 43.7001 10.412C43.2787 10.412 42.9227 10.56 42.6321 10.856C42.3441 11.1493 42.2001 11.5067 42.2001 11.928C42.2001 12.3493 42.3441 12.708 42.6321 13.004C42.9227 13.2973 43.2787 13.444 43.7001 13.444ZM45.7681 13.464V15.856H45.0401V13.464C44.6587 13.8853 44.1721 14.096 43.5801 14.096C43.1801 14.096 42.8161 13.9973 42.4881 13.8C42.1627 13.6 41.9094 13.336 41.7281 13.008C41.5494 12.6773 41.4601 12.3173 41.4601 11.928C41.4601 11.5387 41.5494 11.18 41.7281 10.852C41.9094 10.5213 42.1627 10.2573 42.4881 10.06C42.8161 9.86001 43.1801 9.76001 43.5801 9.76001C44.1694 9.76001 44.6561 9.97067 45.0401 10.392V8.16001H45.7681V10.392C46.1521 9.97067 46.6387 9.76001 47.2281 9.76001C47.6281 9.76001 47.9907 9.86001 48.3161 10.06C48.6441 10.2573 48.8974 10.5213 49.0761 10.852C49.2574 11.18 49.3481 11.5387 49.3481 11.928C49.3481 12.3173 49.2574 12.6773 49.0761 13.008C48.8974 13.336 48.6441 13.6 48.3161 13.8C47.9907 13.9973 47.6281 14.096 47.2281 14.096C46.6361 14.096 46.1494 13.8853 45.7681 13.464ZM47.1081 13.444C47.5294 13.444 47.8841 13.2973 48.1721 13.004C48.4627 12.708 48.6081 12.3493 48.6081 11.928C48.6081 11.5067 48.4627 11.1493 48.1721 10.856C47.8841 10.56 47.5294 10.412 47.1081 10.412C46.8174 10.412 46.5521 10.488 46.3121 10.64C46.0747 10.792 45.8934 10.9933 45.7681 11.244V12.624C45.8934 12.872 46.0747 13.0707 46.3121 13.22C46.5521 13.3693 46.8174 13.444 47.1081 13.444Z" fill="#E31D13"/>
<path d="M50.4726 13.952C50.3766 13.856 50.3286 13.7373 50.3286 13.596C50.3286 13.4547 50.3766 13.336 50.4726 13.24C50.5686 13.144 50.6873 13.096 50.8286 13.096C50.97 13.096 51.0886 13.144 51.1846 13.24C51.2806 13.336 51.3286 13.4547 51.3286 13.596C51.3286 13.7373 51.2806 13.856 51.1846 13.952C51.0886 14.048 50.97 14.096 50.8286 14.096C50.6873 14.096 50.5686 14.048 50.4726 13.952Z" fill="#E31D13"/>
<path d="M55.1546 8.40001H55.9066V14H55.1546V8.40001Z" fill="#E31D13"/>
<path d="M57.3439 8.40001H59.2439C60.0865 8.40001 60.7559 8.65334 61.2519 9.16001C61.7505 9.66401 61.9999 10.344 61.9999 11.2C61.9999 12.056 61.7505 12.7373 61.2519 13.244C60.7559 13.748 60.0865 14 59.2439 14H57.3439V8.40001ZM59.2439 9.064H58.0959V13.336H59.2439C59.8492 13.336 60.3319 13.152 60.6919 12.784C61.0545 12.4133 61.2359 11.8853 61.2359 11.2C61.2359 10.5147 61.0545 9.98801 60.6919 9.62001C60.3319 9.24934 59.8492 9.064 59.2439 9.064Z" fill="#E31D13"/>
<path d="M68.8993 13.36V14.848H68.1713V14H65.6193V14.848H64.8913V13.36H65.3233C65.7207 12.52 65.9193 11.352 65.9193 9.85601H68.3673V13.36H68.8993ZM66.0993 13.36H67.6513V10.496H66.6113C66.6113 10.9787 66.566 11.48 66.4753 12C66.3873 12.5173 66.262 12.9707 66.0993 13.36Z" fill="#E31D13"/>
<path d="M70.5227 13.004C70.8134 13.2973 71.1694 13.444 71.5907 13.444C72.012 13.444 72.3667 13.2973 72.6547 13.004C72.9454 12.708 73.0907 12.3493 73.0907 11.928C73.0907 11.5067 72.9454 11.1493 72.6547 10.856C72.3667 10.56 72.012 10.412 71.5907 10.412C71.1694 10.412 70.8134 10.56 70.5227 10.856C70.2347 11.1493 70.0907 11.5067 70.0907 11.928C70.0907 12.3493 70.2347 12.708 70.5227 13.004ZM70.4427 10.052C70.7867 9.85734 71.1694 9.76001 71.5907 9.76001C72.012 9.76001 72.3947 9.85734 72.7387 10.052C73.0827 10.2467 73.3507 10.5093 73.5427 10.84C73.7347 11.1707 73.8307 11.5333 73.8307 11.928C73.8307 12.3227 73.7347 12.6853 73.5427 13.016C73.3507 13.3467 73.0827 13.6093 72.7387 13.804C72.3947 13.9987 72.012 14.096 71.5907 14.096C71.1694 14.096 70.7867 13.9987 70.4427 13.804C70.0987 13.6093 69.8307 13.3467 69.6387 13.016C69.4467 12.6853 69.3507 12.3227 69.3507 11.928C69.3507 11.5333 69.4467 11.1707 69.6387 10.84C69.8307 10.5093 70.0987 10.2467 70.4427 10.052Z" fill="#E31D13"/>
<path d="M75.381 9.85601L76.825 12.04L78.269 9.85601H78.941V14H78.237V10.972L77.045 12.748H76.605L75.413 10.972V14H74.709V9.85601H75.381Z" fill="#E31D13"/>
<path d="M80.9914 13.004C81.2821 13.2973 81.6381 13.444 82.0594 13.444C82.4808 13.444 82.8354 13.2973 83.1234 13.004C83.4141 12.708 83.5594 12.3493 83.5594 11.928C83.5594 11.5067 83.4141 11.1493 83.1234 10.856C82.8354 10.56 82.4808 10.412 82.0594 10.412C81.6381 10.412 81.2821 10.56 80.9914 10.856C80.7034 11.1493 80.5594 11.5067 80.5594 11.928C80.5594 12.3493 80.7034 12.708 80.9914 13.004ZM80.9114 10.052C81.2554 9.85734 81.6381 9.76001 82.0594 9.76001C82.4808 9.76001 82.8634 9.85734 83.2074 10.052C83.5514 10.2467 83.8194 10.5093 84.0114 10.84C84.2034 11.1707 84.2994 11.5333 84.2994 11.928C84.2994 12.3227 84.2034 12.6853 84.0114 13.016C83.8194 13.3467 83.5514 13.6093 83.2074 13.804C82.8634 13.9987 82.4808 14.096 82.0594 14.096C81.6381 14.096 81.2554 13.9987 80.9114 13.804C80.5674 13.6093 80.2994 13.3467 80.1074 13.016C79.9154 12.6853 79.8194 12.3227 79.8194 11.928C79.8194 11.5333 79.9154 11.1707 80.1074 10.84C80.2994 10.5093 80.5674 10.2467 80.9114 10.052Z" fill="#E31D13"/>
<path d="M86.9298 14H85.1778V9.85601H86.8058C87.1844 9.85601 87.5018 9.96134 87.7578 10.172C88.0164 10.3827 88.1458 10.6427 88.1458 10.952C88.1458 11.144 88.0884 11.3187 87.9738 11.476C87.8591 11.6333 87.7098 11.748 87.5258 11.82C87.7551 11.8733 87.9471 11.996 88.1018 12.188C88.2591 12.38 88.3378 12.5933 88.3378 12.828C88.3378 13.1587 88.2018 13.4373 87.9298 13.664C87.6604 13.888 87.3271 14 86.9298 14ZM85.9058 11.564H86.7578C86.9471 11.564 87.1044 11.5133 87.2298 11.412C87.3551 11.308 87.4178 11.1787 87.4178 11.024C87.4178 10.8693 87.3551 10.7413 87.2298 10.64C87.1044 10.536 86.9471 10.484 86.7578 10.484H85.9058V11.564ZM85.9058 13.372H86.8938C87.0964 13.372 87.2658 13.3147 87.4018 13.2C87.5404 13.0853 87.6098 12.944 87.6098 12.776C87.6098 12.6053 87.5404 12.4613 87.4018 12.344C87.2658 12.2267 87.0964 12.168 86.8938 12.168H85.9058V13.372Z" fill="#E31D13"/>
<path d="M89.5508 13.952C89.4548 13.856 89.4068 13.7373 89.4068 13.596C89.4068 13.4547 89.4548 13.336 89.5508 13.24C89.6468 13.144 89.7654 13.096 89.9068 13.096C90.0481 13.096 90.1668 13.144 90.2628 13.24C90.3588 13.336 90.4068 13.4547 90.4068 13.596C90.4068 13.7373 90.3588 13.856 90.2628 13.952C90.1668 14.048 90.0481 14.096 89.9068 14.096C89.7654 14.096 89.6468 14.048 89.5508 13.952ZM89.5508 10.616C89.4548 10.52 89.4068 10.4013 89.4068 10.26C89.4068 10.1187 89.4548 10 89.5508 9.90401C89.6468 9.80801 89.7654 9.76001 89.9068 9.76001C90.0481 9.76001 90.1668 9.80801 90.2628 9.90401C90.3588 10 90.4068 10.1187 90.4068 10.26C90.4068 10.4013 90.3588 10.52 90.2628 10.616C90.1668 10.712 90.0481 10.76 89.9068 10.76C89.7654 10.76 89.6468 10.712 89.5508 10.616Z" fill="#E31D13"/>
<path d="M96.8288 12.264C96.8288 11.9333 96.7101 11.652 96.4728 11.42C96.2354 11.188 95.9408 11.072 95.5888 11.072C95.4821 11.072 95.3728 11.0893 95.2608 11.124L94.9688 10.752L96.4088 9.05201H94.1928V8.40001H97.3088V9.05201L95.9728 10.596C96.4474 10.6307 96.8314 10.812 97.1248 11.14C97.4208 11.4653 97.5688 11.8627 97.5688 12.332C97.5688 12.556 97.5221 12.7733 97.4288 12.984C97.3354 13.1947 97.2061 13.3827 97.0408 13.548C96.8754 13.7133 96.6688 13.8467 96.4208 13.948C96.1728 14.0467 95.9034 14.096 95.6128 14.096C95.2421 14.096 94.9088 14.016 94.6128 13.856C94.3194 13.696 94.0754 13.468 93.8808 13.172L94.3888 12.748C94.7008 13.22 95.1008 13.456 95.5888 13.456C95.9408 13.456 96.2354 13.3413 96.4728 13.112C96.7101 12.88 96.8288 12.5973 96.8288 12.264Z" fill="#E31D13"/>
<path d="M98.8948 8.40001H102.323V9.02401L100.235 14H99.4028L101.491 9.05201H98.8948V8.40001Z" fill="#E31D13"/>
<path d="M104.377 14L105.765 11.852C105.629 11.9347 105.459 11.976 105.257 11.976C104.755 11.976 104.322 11.8027 103.957 11.456C103.594 11.1067 103.413 10.6693 103.413 10.144C103.413 9.79734 103.503 9.48134 103.685 9.196C103.866 8.91067 104.103 8.69067 104.397 8.53601C104.693 8.38134 105.011 8.30401 105.353 8.30401C105.694 8.30401 106.013 8.38134 106.309 8.53601C106.605 8.69067 106.843 8.91067 107.025 9.196C107.206 9.48134 107.297 9.79734 107.297 10.144C107.297 10.504 107.205 10.8267 107.021 11.112L105.165 14H104.377ZM104.153 10.144C104.153 10.4827 104.269 10.768 104.501 11C104.735 11.232 105.019 11.348 105.353 11.348C105.686 11.348 105.97 11.232 106.205 11C106.439 10.768 106.557 10.4827 106.557 10.144C106.557 9.80801 106.439 9.52401 106.205 9.29201C105.973 9.06001 105.689 8.94401 105.353 8.94401C105.019 8.94401 104.735 9.06001 104.501 9.29201C104.269 9.52401 104.153 9.80801 104.153 10.144Z" fill="#E31D13"/>
<path d="M111.079 12.264C111.079 11.9333 110.96 11.652 110.723 11.42C110.485 11.188 110.191 11.072 109.839 11.072C109.732 11.072 109.623 11.0893 109.511 11.124L109.219 10.752L110.659 9.05201H108.443V8.40001H111.559V9.05201L110.223 10.596C110.697 10.6307 111.081 10.812 111.375 11.14C111.671 11.4653 111.819 11.8627 111.819 12.332C111.819 12.556 111.772 12.7733 111.679 12.984C111.585 13.1947 111.456 13.3827 111.291 13.548C111.125 13.7133 110.919 13.8467 110.671 13.948C110.423 14.0467 110.153 14.096 109.863 14.096C109.492 14.096 109.159 14.016 108.863 13.856C108.569 13.696 108.325 13.468 108.131 13.172L108.639 12.748C108.951 13.22 109.351 13.456 109.839 13.456C110.191 13.456 110.485 13.3413 110.723 13.112C110.96 12.88 111.079 12.5973 111.079 12.264Z" fill="#E31D13"/>
<path d="M115.797 11.58L114.189 13.36H116.537V14H113.217V13.392L115.221 11.184C115.447 10.9333 115.609 10.7093 115.705 10.512C115.803 10.312 115.853 10.108 115.853 9.90001C115.853 9.62001 115.758 9.39067 115.569 9.21201C115.382 9.03334 115.142 8.94401 114.849 8.94401C114.315 8.94401 113.953 9.22801 113.761 9.79601L113.141 9.52801C113.25 9.15467 113.453 8.85734 113.749 8.63601C114.047 8.41467 114.414 8.30401 114.849 8.30401C115.355 8.30401 115.773 8.45067 116.101 8.74401C116.429 9.03734 116.593 9.42134 116.593 9.89601C116.593 10.1947 116.53 10.472 116.405 10.728C116.279 10.984 116.077 11.268 115.797 11.58Z" fill="#E31D13"/>
<path d="M117.907 13.596C117.907 13.4547 117.955 13.336 118.051 13.24C118.147 13.144 118.265 13.096 118.407 13.096C118.548 13.096 118.667 13.144 118.763 13.24C118.859 13.336 118.907 13.4547 118.907 13.596C118.907 13.6733 118.889 13.7493 118.855 13.824L118.327 14.98H117.843L118.251 14.072C118.147 14.04 118.063 13.9813 117.999 13.896C117.937 13.808 117.907 13.708 117.907 13.596Z" fill="#E31D13"/>
<path d="M125.329 12.264C125.329 11.9333 125.21 11.652 124.973 11.42C124.735 11.188 124.441 11.072 124.089 11.072C123.982 11.072 123.873 11.0893 123.761 11.124L123.469 10.752L124.909 9.05201H122.693V8.40001H125.809V9.05201L124.473 10.596C124.947 10.6307 125.331 10.812 125.625 11.14C125.921 11.4653 126.069 11.8627 126.069 12.332C126.069 12.556 126.022 12.7733 125.929 12.984C125.835 13.1947 125.706 13.3827 125.541 13.548C125.375 13.7133 125.169 13.8467 124.921 13.948C124.673 14.0467 124.403 14.096 124.113 14.096C123.742 14.096 123.409 14.016 123.113 13.856C122.819 13.696 122.575 13.468 122.381 13.172L122.889 12.748C123.201 13.22 123.601 13.456 124.089 13.456C124.441 13.456 124.735 13.3413 124.973 13.112C125.21 12.88 125.329 12.5973 125.329 12.264Z" fill="#E31D13"/>
<path d="M130.455 13.6C130.087 13.9307 129.633 14.096 129.095 14.096C128.556 14.096 128.103 13.9307 127.735 13.6C127.367 13.2667 127.183 12.856 127.183 12.368C127.183 12.032 127.277 11.7333 127.467 11.472C127.659 11.2107 127.919 11.0267 128.247 10.92C128.02 10.8267 127.833 10.6733 127.687 10.46C127.543 10.2467 127.471 10.016 127.471 9.76801C127.471 9.35734 127.624 9.01067 127.931 8.72801C128.24 8.44534 128.628 8.30401 129.095 8.30401C129.561 8.30401 129.948 8.44534 130.255 8.72801C130.564 9.01067 130.719 9.35734 130.719 9.76801C130.719 10.016 130.645 10.2467 130.499 10.46C130.355 10.6733 130.169 10.8267 129.943 10.92C130.271 11.0267 130.529 11.2107 130.719 11.472C130.911 11.7333 131.007 12.032 131.007 12.368C131.007 12.856 130.823 13.2667 130.455 13.6ZM129.927 11.576C129.703 11.36 129.425 11.252 129.095 11.252C128.764 11.252 128.485 11.36 128.259 11.576C128.035 11.792 127.923 12.052 127.923 12.356C127.923 12.66 128.035 12.92 128.259 13.136C128.485 13.3493 128.764 13.456 129.095 13.456C129.425 13.456 129.703 13.3493 129.927 13.136C130.153 12.92 130.267 12.66 130.267 12.356C130.267 12.052 130.153 11.792 129.927 11.576ZM128.451 10.384C128.627 10.552 128.841 10.636 129.095 10.636C129.348 10.636 129.563 10.552 129.739 10.384C129.915 10.216 130.003 10.016 130.003 9.78401C130.003 9.55201 129.915 9.35467 129.739 9.19201C129.563 9.02667 129.348 8.94401 129.095 8.94401C128.841 8.94401 128.627 9.02667 128.451 9.19201C128.275 9.35467 128.187 9.55201 128.187 9.78401C128.187 10.016 128.275 10.216 128.451 10.384Z" fill="#E31D13"/>
<path d="M134.813 8.40001L133.425 10.548C133.561 10.4653 133.73 10.424 133.933 10.424C134.434 10.424 134.866 10.5987 135.229 10.948C135.594 11.2947 135.777 11.7307 135.777 12.256C135.777 12.6027 135.686 12.9187 135.505 13.204C135.323 13.4893 135.085 13.7093 134.789 13.864C134.495 14.0187 134.178 14.096 133.837 14.096C133.495 14.096 133.177 14.0187 132.881 13.864C132.585 13.7093 132.346 13.4893 132.165 13.204C131.983 12.9187 131.893 12.6027 131.893 12.256C131.893 11.896 131.985 11.5733 132.169 11.288L134.025 8.40001H134.813ZM135.037 12.256C135.037 11.9173 134.919 11.632 134.685 11.4C134.453 11.168 134.17 11.052 133.837 11.052C133.503 11.052 133.219 11.168 132.985 11.4C132.75 11.632 132.633 11.9173 132.633 12.256C132.633 12.592 132.749 12.876 132.981 13.108C133.215 13.34 133.501 13.456 133.837 13.456C134.17 13.456 134.453 13.34 134.685 13.108C134.919 12.876 135.037 12.592 135.037 12.256Z" fill="#E31D13"/>
<path d="M138.575 8.40001H139.255V14H138.515V9.144L137.455 9.72401L137.143 9.17601L138.575 8.40001Z" fill="#E31D13"/>
<path d="M144.329 12.264C144.329 11.9333 144.21 11.652 143.973 11.42C143.735 11.188 143.441 11.072 143.089 11.072C142.982 11.072 142.873 11.0893 142.761 11.124L142.469 10.752L143.909 9.05201H141.693V8.40001H144.809V9.05201L143.473 10.596C143.947 10.6307 144.331 10.812 144.625 11.14C144.921 11.4653 145.069 11.8627 145.069 12.332C145.069 12.556 145.022 12.7733 144.929 12.984C144.835 13.1947 144.706 13.3827 144.541 13.548C144.375 13.7133 144.169 13.8467 143.921 13.948C143.673 14.0467 143.403 14.096 143.113 14.096C142.742 14.096 142.409 14.016 142.113 13.856C141.819 13.696 141.575 13.468 141.381 13.172L141.889 12.748C142.201 13.22 142.601 13.456 143.089 13.456C143.441 13.456 143.735 13.3413 143.973 13.112C144.21 12.88 144.329 12.5973 144.329 12.264Z" fill="#E31D13"/>
<path d="M146.551 13.952C146.455 13.856 146.407 13.7373 146.407 13.596C146.407 13.4547 146.455 13.336 146.551 13.24C146.647 13.144 146.765 13.096 146.907 13.096C147.048 13.096 147.167 13.144 147.263 13.24C147.359 13.336 147.407 13.4547 147.407 13.596C147.407 13.7373 147.359 13.856 147.263 13.952C147.167 14.048 147.048 14.096 146.907 14.096C146.765 14.096 146.647 14.048 146.551 13.952Z" fill="#E31D13"/>
<path d="M151.141 14V8.40001H151.893V10.86H154.621V8.40001H155.373V14H154.621V11.512H151.893V14H151.141Z" fill="#E31D13"/>
<path d="M157.087 12.156C157.127 12.532 157.286 12.8453 157.563 13.096C157.843 13.344 158.18 13.468 158.575 13.468C159.082 13.468 159.518 13.268 159.883 12.868L160.383 13.332C160.164 13.58 159.902 13.7693 159.595 13.9C159.288 14.0307 158.955 14.096 158.595 14.096C158.264 14.096 157.958 14.04 157.675 13.928C157.392 13.8133 157.154 13.6587 156.959 13.464C156.767 13.2693 156.616 13.04 156.507 12.776C156.398 12.5093 156.343 12.2267 156.343 11.928C156.343 11.632 156.398 11.3507 156.507 11.084C156.619 10.8173 156.771 10.5867 156.963 10.392C157.158 10.1973 157.391 10.044 157.663 9.932C157.935 9.81734 158.226 9.76001 158.535 9.76001C158.938 9.76001 159.3 9.85334 159.623 10.04C159.948 10.2267 160.2 10.4787 160.379 10.796C160.558 11.1107 160.647 11.4573 160.647 11.836C160.647 11.9427 160.635 12.0493 160.611 12.156H157.087ZM158.535 10.388C158.194 10.388 157.89 10.4987 157.623 10.72C157.356 10.9413 157.187 11.2187 157.115 11.552H159.883C159.827 11.2133 159.675 10.9347 159.427 10.716C159.179 10.4973 158.882 10.388 158.535 10.388Z" fill="#E31D13"/>
<path d="M166.38 12.536H165.56L164.404 14H163.596L164.8 12.484C164.472 12.404 164.207 12.2467 164.004 12.012C163.802 11.7773 163.7 11.5053 163.7 11.196C163.7 10.8173 163.848 10.5 164.144 10.244C164.443 9.98534 164.811 9.85601 165.248 9.85601H167.108V14H166.38V12.536ZM165.272 11.908H166.38V10.484H165.272C165.032 10.484 164.831 10.552 164.668 10.688C164.508 10.824 164.428 10.9933 164.428 11.196C164.428 11.4013 164.508 11.572 164.668 11.708C164.831 11.8413 165.032 11.908 165.272 11.908Z" fill="#E31D13"/>
<path d="M170.031 14H168.279V9.85601H169.907C170.286 9.85601 170.603 9.96134 170.859 10.172C171.118 10.3827 171.247 10.6427 171.247 10.952C171.247 11.144 171.19 11.3187 171.075 11.476C170.961 11.6333 170.811 11.748 170.627 11.82C170.857 11.8733 171.049 11.996 171.203 12.188C171.361 12.38 171.439 12.5933 171.439 12.828C171.439 13.1587 171.303 13.4373 171.031 13.664C170.762 13.888 170.429 14 170.031 14ZM169.007 11.564H169.859C170.049 11.564 170.206 11.5133 170.331 11.412C170.457 11.308 170.519 11.1787 170.519 11.024C170.519 10.8693 170.457 10.7413 170.331 10.64C170.206 10.536 170.049 10.484 169.859 10.484H169.007V11.564ZM169.007 13.372H169.995C170.198 13.372 170.367 13.3147 170.503 13.2C170.642 13.0853 170.711 12.944 170.711 12.776C170.711 12.6053 170.642 12.4613 170.503 12.344C170.367 12.2267 170.198 12.168 169.995 12.168H169.007V13.372Z" fill="#E31D13"/>
<path d="M172.666 12.804V9.85601H176.07V14H175.342V10.508H173.394V12.86C173.394 13.196 173.289 13.4747 173.078 13.696C172.868 13.9173 172.6 14.028 172.274 14.028C172.133 14.028 172.016 14.0187 171.922 14V13.356C171.965 13.3587 172.036 13.36 172.134 13.36C172.292 13.36 172.42 13.3093 172.518 13.208C172.617 13.1067 172.666 12.972 172.666 12.804Z" fill="#E31D13"/>
<path d="M179.716 12.536H178.896L177.74 14H176.932L178.136 12.484C177.808 12.404 177.543 12.2467 177.34 12.012C177.138 11.7773 177.036 11.5053 177.036 11.196C177.036 10.8173 177.184 10.5 177.48 10.244C177.779 9.98534 178.147 9.85601 178.584 9.85601H180.444V14H179.716V12.536ZM178.608 11.908H179.716V10.484H178.608C178.368 10.484 178.167 10.552 178.004 10.688C177.844 10.824 177.764 10.9933 177.764 11.196C177.764 11.4013 177.844 11.572 178.004 11.708C178.167 11.8413 178.368 11.908 178.608 11.908Z" fill="#E31D13"/>
<path d="M182.071 12.156C182.111 12.532 182.27 12.8453 182.547 13.096C182.827 13.344 183.165 13.468 183.559 13.468C184.066 13.468 184.502 13.268 184.867 12.868L185.367 13.332C185.149 13.58 184.886 13.7693 184.579 13.9C184.273 14.0307 183.939 14.096 183.579 14.096C183.249 14.096 182.942 14.04 182.659 13.928C182.377 13.8133 182.138 13.6587 181.943 13.464C181.751 13.2693 181.601 13.04 181.491 12.776C181.382 12.5093 181.327 12.2267 181.327 11.928C181.327 11.632 181.382 11.3507 181.491 11.084C181.603 10.8173 181.755 10.5867 181.947 10.392C182.142 10.1973 182.375 10.044 182.647 9.932C182.919 9.81734 183.21 9.76001 183.519 9.76001C183.922 9.76001 184.285 9.85334 184.607 10.04C184.933 10.2267 185.185 10.4787 185.363 10.796C185.542 11.1107 185.631 11.4573 185.631 11.836C185.631 11.9427 185.619 12.0493 185.595 12.156H182.071ZM183.519 10.388C183.178 10.388 182.874 10.4987 182.607 10.72C182.341 10.9413 182.171 11.2187 182.099 11.552H184.867C184.811 11.2133 184.659 10.9347 184.411 10.716C184.163 10.4973 183.866 10.388 183.519 10.388Z" fill="#E31D13"/>
<path d="M187.368 10.508H186.032V9.85601H189.432V10.508H188.096V14H187.368V10.508Z" fill="#E31D13"/>
<path d="M191.989 14.096C191.568 14.096 191.185 13.9987 190.841 13.804C190.497 13.6093 190.229 13.3467 190.037 13.016C189.845 12.6853 189.749 12.3227 189.749 11.928C189.749 11.5333 189.845 11.1707 190.037 10.84C190.229 10.5093 190.497 10.2467 190.841 10.052C191.185 9.85734 191.568 9.76001 191.989 9.76001C192.568 9.76001 193.07 9.94267 193.497 10.308L193.117 10.88C192.765 10.568 192.389 10.412 191.989 10.412C191.568 10.412 191.212 10.56 190.921 10.856C190.633 11.1493 190.489 11.5067 190.489 11.928C190.489 12.3493 190.633 12.708 190.921 13.004C191.212 13.2973 191.568 13.444 191.989 13.444C192.421 13.444 192.806 13.2773 193.145 12.944L193.573 13.476C193.146 13.8893 192.618 14.096 191.989 14.096Z" fill="#E31D13"/>
<path d="M196.904 12.536H196.084L194.928 14H194.12L195.324 12.484C194.996 12.404 194.73 12.2467 194.528 12.012C194.325 11.7773 194.224 11.5053 194.224 11.196C194.224 10.8173 194.372 10.5 194.668 10.244C194.966 9.98534 195.334 9.85601 195.772 9.85601H197.632V14H196.904V12.536ZM195.796 11.908H196.904V10.484H195.796C195.556 10.484 195.354 10.552 195.192 10.688C195.032 10.824 194.952 10.9933 194.952 11.196C194.952 11.4013 195.032 11.572 195.192 11.708C195.354 11.8413 195.556 11.908 195.796 11.908Z" fill="#E31D13"/>
<path d="M204.918 9.85601V14H204.19V10.508H201.906V14H201.178V9.85601H204.918Z" fill="#E31D13"/>
<path d="M206.492 15.856L207.228 13.984L205.608 9.85601H206.368L207.6 13.06L208.832 9.85601H209.592L207.252 15.856H206.492Z" fill="#E31D13"/>
<path d="M210.867 10.888C211.043 10.6827 211.256 10.52 211.507 10.4C211.76 10.2773 212.032 10.216 212.323 10.216C212.87 10.216 213.331 10.404 213.707 10.78C214.083 11.1533 214.271 11.612 214.271 12.156C214.271 12.7133 214.074 13.176 213.679 13.544C213.284 13.912 212.783 14.096 212.175 14.096C211.559 14.096 211.055 13.888 210.663 13.472C210.274 13.056 210.079 12.4827 210.079 11.752C210.079 11.2427 210.114 10.8027 210.183 10.432C210.252 10.0613 210.36 9.73734 210.507 9.46C210.654 9.18267 210.851 8.95601 211.099 8.78001C211.35 8.60134 211.644 8.46267 211.983 8.36401C212.324 8.26267 212.732 8.19467 213.207 8.16001L213.311 8.81201C212.935 8.84667 212.615 8.89734 212.351 8.96401C212.087 9.03067 211.863 9.11467 211.679 9.21601C211.498 9.31734 211.351 9.44934 211.239 9.61201C211.13 9.77467 211.046 9.95601 210.987 10.156C210.931 10.356 210.891 10.6 210.867 10.888ZM210.819 11.7C210.819 12.2413 210.942 12.668 211.187 12.98C211.432 13.2893 211.762 13.444 212.175 13.444C212.562 13.444 212.884 13.3213 213.143 13.076C213.402 12.828 213.531 12.5213 213.531 12.156C213.531 11.7933 213.403 11.488 213.147 11.24C212.894 10.992 212.583 10.868 212.215 10.868C211.93 10.868 211.668 10.944 211.431 11.096C211.194 11.2453 210.99 11.4467 210.819 11.7Z" fill="#E31D13"/>
<path d="M215.377 12.804V9.85601H218.781V14H218.053V10.508H216.105V12.86C216.105 13.196 216 13.4747 215.789 13.696C215.578 13.9173 215.31 14.028 214.985 14.028C214.844 14.028 214.726 14.0187 214.633 14V13.356C214.676 13.3587 214.746 13.36 214.845 13.36C215.002 13.36 215.13 13.3093 215.229 13.208C215.328 13.1067 215.377 12.972 215.377 12.804Z" fill="#E31D13"/>
<path d="M223.691 9.85601V14H222.987V10.88L220.643 14H219.951V9.85601H220.655V12.976L222.999 9.85601H223.691Z" fill="#E31D13"/>
<path d="M227.353 14V12.216C227.217 12.4107 227.048 12.5653 226.845 12.68C226.645 12.792 226.423 12.848 226.177 12.848C225.753 12.848 225.395 12.6973 225.101 12.396C224.808 12.092 224.661 11.72 224.661 11.28V9.85601H225.389V11.244C225.389 11.5133 225.477 11.74 225.653 11.924C225.829 12.1053 226.048 12.196 226.309 12.196C226.765 12.196 227.113 11.948 227.353 11.452V9.85601H228.081V14H227.353Z" fill="#E31D13"/>
<path d="M232.988 9.85601V14H232.26V12.184H229.976V14H229.248V9.85601H229.976V11.532H232.26V9.85601H232.988Z" fill="#E31D13"/>
<path d="M235.038 13.004C235.329 13.2973 235.685 13.444 236.106 13.444C236.528 13.444 236.882 13.2973 237.17 13.004C237.461 12.708 237.606 12.3493 237.606 11.928C237.606 11.5067 237.461 11.1493 237.17 10.856C236.882 10.56 236.528 10.412 236.106 10.412C235.685 10.412 235.329 10.56 235.038 10.856C234.75 11.1493 234.606 11.5067 234.606 11.928C234.606 12.3493 234.75 12.708 235.038 13.004ZM234.958 10.052C235.302 9.85734 235.685 9.76001 236.106 9.76001C236.528 9.76001 236.91 9.85734 237.254 10.052C237.598 10.2467 237.866 10.5093 238.058 10.84C238.25 11.1707 238.346 11.5333 238.346 11.928C238.346 12.3227 238.25 12.6853 238.058 13.016C237.866 13.3467 237.598 13.6093 237.254 13.804C236.91 13.9987 236.528 14.096 236.106 14.096C235.685 14.096 235.302 13.9987 234.958 13.804C234.614 13.6093 234.346 13.3467 234.154 13.016C233.962 12.6853 233.866 12.3227 233.866 11.928C233.866 11.5333 233.962 11.1707 234.154 10.84C234.346 10.5093 234.614 10.2467 234.958 10.052Z" fill="#E31D13"/>
<path d="M242.965 9.85601V14H242.261V10.88L239.917 14H239.225V9.85601H239.929V12.976L242.273 9.85601H242.965ZM241.993 8.98801C241.745 9.22001 241.445 9.33601 241.093 9.33601C240.741 9.33601 240.439 9.22001 240.189 8.98801C239.941 8.75334 239.807 8.45734 239.789 8.10001H240.437C240.445 8.30001 240.509 8.46534 240.629 8.59601C240.751 8.72667 240.906 8.79201 241.093 8.79201C241.279 8.79201 241.433 8.72667 241.553 8.59601C241.675 8.46534 241.741 8.30001 241.749 8.10001H242.397C242.378 8.45734 242.243 8.75334 241.993 8.98801Z" fill="#E31D13"/>
<path d="M247.39 13.004C247.681 13.2973 248.037 13.444 248.458 13.444C248.879 13.444 249.234 13.2973 249.522 13.004C249.813 12.708 249.958 12.3493 249.958 11.928C249.958 11.5067 249.813 11.1493 249.522 10.856C249.234 10.56 248.879 10.412 248.458 10.412C248.037 10.412 247.681 10.56 247.39 10.856C247.102 11.1493 246.958 11.5067 246.958 11.928C246.958 12.3493 247.102 12.708 247.39 13.004ZM247.31 10.052C247.654 9.85734 248.037 9.76001 248.458 9.76001C248.879 9.76001 249.262 9.85734 249.606 10.052C249.95 10.2467 250.218 10.5093 250.41 10.84C250.602 11.1707 250.698 11.5333 250.698 11.928C250.698 12.3227 250.602 12.6853 250.41 13.016C250.218 13.3467 249.95 13.6093 249.606 13.804C249.262 13.9987 248.879 14.096 248.458 14.096C248.037 14.096 247.654 13.9987 247.31 13.804C246.966 13.6093 246.698 13.3467 246.506 13.016C246.314 12.6853 246.218 12.3227 246.218 11.928C246.218 11.5333 246.314 11.1707 246.506 10.84C246.698 10.5093 246.966 10.2467 247.31 10.052Z" fill="#E31D13"/>
<path d="M253.528 13.444C253.819 13.444 254.083 13.3693 254.32 13.22C254.56 13.0707 254.743 12.872 254.868 12.624V11.244C254.743 10.9933 254.56 10.792 254.32 10.64C254.083 10.488 253.819 10.412 253.528 10.412C253.107 10.412 252.751 10.56 252.46 10.856C252.172 11.1493 252.028 11.5067 252.028 11.928C252.028 12.3493 252.172 12.708 252.46 13.004C252.751 13.2973 253.107 13.444 253.528 13.444ZM255.596 13.464V15.856H254.868V13.464C254.487 13.8853 254 14.096 253.408 14.096C253.008 14.096 252.644 13.9973 252.316 13.8C251.991 13.6 251.738 13.336 251.556 13.008C251.378 12.6773 251.288 12.3173 251.288 11.928C251.288 11.5387 251.378 11.18 251.556 10.852C251.738 10.5213 251.991 10.2573 252.316 10.06C252.644 9.86001 253.008 9.76001 253.408 9.76001C253.998 9.76001 254.484 9.97067 254.868 10.392V8.16001H255.596V10.392C255.98 9.97067 256.467 9.76001 257.056 9.76001C257.456 9.76001 257.819 9.86001 258.144 10.06C258.472 10.2573 258.726 10.5213 258.904 10.852C259.086 11.18 259.176 11.5387 259.176 11.928C259.176 12.3173 259.086 12.6773 258.904 13.008C258.726 13.336 258.472 13.6 258.144 13.8C257.819 13.9973 257.456 14.096 257.056 14.096C256.464 14.096 255.978 13.8853 255.596 13.464ZM256.936 13.444C257.358 13.444 257.712 13.2973 258 13.004C258.291 12.708 258.436 12.3493 258.436 11.928C258.436 11.5067 258.291 11.1493 258 10.856C257.712 10.56 257.358 10.412 256.936 10.412C256.646 10.412 256.38 10.488 256.14 10.64C255.903 10.792 255.722 10.9933 255.596 11.244V12.624C255.722 12.872 255.903 13.0707 256.14 13.22C256.38 13.3693 256.646 13.444 256.936 13.444Z" fill="#E31D13"/>
<path d="M260.509 12.156C260.549 12.532 260.707 12.8453 260.985 13.096C261.265 13.344 261.602 13.468 261.997 13.468C262.503 13.468 262.939 13.268 263.305 12.868L263.805 13.332C263.586 13.58 263.323 13.7693 263.017 13.9C262.71 14.0307 262.377 14.096 262.017 14.096C261.686 14.096 261.379 14.04 261.097 13.928C260.814 13.8133 260.575 13.6587 260.381 13.464C260.189 13.2693 260.038 13.04 259.929 12.776C259.819 12.5093 259.765 12.2267 259.765 11.928C259.765 11.632 259.819 11.3507 259.929 11.084C260.041 10.8173 260.193 10.5867 260.385 10.392C260.579 10.1973 260.813 10.044 261.085 9.932C261.357 9.81734 261.647 9.76001 261.957 9.76001C262.359 9.76001 262.722 9.85334 263.045 10.04C263.37 10.2267 263.622 10.4787 263.801 10.796C263.979 11.1107 264.069 11.4573 264.069 11.836C264.069 11.9427 264.057 12.0493 264.033 12.156H260.509ZM261.957 10.388C261.615 10.388 261.311 10.4987 261.045 10.72C260.778 10.9413 260.609 11.2187 260.537 11.552H263.305C263.249 11.2133 263.097 10.9347 262.849 10.716C262.601 10.4973 262.303 10.388 261.957 10.388Z" fill="#E31D13"/>
<path d="M267.019 13.444C267.441 13.444 267.795 13.2973 268.083 13.004C268.374 12.708 268.519 12.3493 268.519 11.928C268.519 11.5067 268.374 11.1493 268.083 10.856C267.795 10.56 267.441 10.412 267.019 10.412C266.729 10.412 266.463 10.488 266.223 10.64C265.986 10.792 265.805 10.9933 265.679 11.244V12.624C265.805 12.872 265.986 13.0707 266.223 13.22C266.463 13.3693 266.729 13.444 267.019 13.444ZM267.139 9.76001C267.539 9.76001 267.902 9.86001 268.227 10.06C268.555 10.2573 268.809 10.5213 268.987 10.852C269.169 11.18 269.259 11.5387 269.259 11.928C269.259 12.3173 269.169 12.6773 268.987 13.008C268.809 13.336 268.555 13.6 268.227 13.8C267.902 13.9973 267.539 14.096 267.139 14.096C266.547 14.096 266.061 13.8853 265.679 13.464V15.856H264.951V9.85601H265.679V10.392C266.063 9.97067 266.55 9.76001 267.139 9.76001Z" fill="#E31D13"/>
<path d="M270.993 10.508H269.657V9.85601H273.057V10.508H271.721V14H270.993V10.508Z" fill="#E31D13"/>
<path d="M274.546 13.004C274.837 13.2973 275.193 13.444 275.614 13.444C276.035 13.444 276.39 13.2973 276.678 13.004C276.969 12.708 277.114 12.3493 277.114 11.928C277.114 11.5067 276.969 11.1493 276.678 10.856C276.39 10.56 276.035 10.412 275.614 10.412C275.193 10.412 274.837 10.56 274.546 10.856C274.258 11.1493 274.114 11.5067 274.114 11.928C274.114 12.3493 274.258 12.708 274.546 13.004ZM274.466 10.052C274.81 9.85734 275.193 9.76001 275.614 9.76001C276.035 9.76001 276.418 9.85734 276.762 10.052C277.106 10.2467 277.374 10.5093 277.566 10.84C277.758 11.1707 277.854 11.5333 277.854 11.928C277.854 12.3227 277.758 12.6853 277.566 13.016C277.374 13.3467 277.106 13.6093 276.762 13.804C276.418 13.9987 276.035 14.096 275.614 14.096C275.193 14.096 274.81 13.9987 274.466 13.804C274.122 13.6093 273.854 13.3467 273.662 13.016C273.47 12.6853 273.374 12.3227 273.374 11.928C273.374 11.5333 273.47 11.1707 273.662 10.84C273.854 10.5093 274.122 10.2467 274.466 10.052Z" fill="#E31D13"/>
<path d="M282.472 9.85601V14H281.768V10.88L279.424 14H278.732V9.85601H279.436V12.976L281.78 9.85601H282.472ZM281.5 8.98801C281.252 9.22001 280.952 9.33601 280.6 9.33601C280.248 9.33601 279.947 9.22001 279.696 8.98801C279.448 8.75334 279.315 8.45734 279.296 8.10001H279.944C279.952 8.30001 280.016 8.46534 280.136 8.59601C280.259 8.72667 280.414 8.79201 280.6 8.79201C280.787 8.79201 280.94 8.72667 281.06 8.59601C281.183 8.46534 281.248 8.30001 281.256 8.10001H281.904C281.886 8.45734 281.751 8.75334 281.5 8.98801Z" fill="#E31D13"/>
<path d="M283.743 13.596C283.743 13.4547 283.791 13.336 283.887 13.24C283.983 13.144 284.101 13.096 284.243 13.096C284.384 13.096 284.503 13.144 284.599 13.24C284.695 13.336 284.743 13.4547 284.743 13.596C284.743 13.6733 284.725 13.7493 284.691 13.824L284.163 14.98H283.679L284.087 14.072C283.983 14.04 283.899 13.9813 283.835 13.896C283.773 13.808 283.743 13.708 283.743 13.596Z" fill="#E31D13"/>
<path d="M4.32401 17.856V22H3.59601V18.508H1.31201V22H0.584005V17.856H4.32401Z" fill="#E31D13"/>
<path d="M6.37426 21.004C6.66492 21.2973 7.02092 21.444 7.44226 21.444C7.86359 21.444 8.21826 21.2973 8.50626 21.004C8.79692 20.708 8.94226 20.3493 8.94226 19.928C8.94226 19.5067 8.79692 19.1493 8.50626 18.856C8.21826 18.56 7.86359 18.412 7.44226 18.412C7.02092 18.412 6.66492 18.56 6.37426 18.856C6.08626 19.1493 5.94226 19.5067 5.94226 19.928C5.94226 20.3493 6.08626 20.708 6.37426 21.004ZM6.29426 18.052C6.63826 17.8573 7.02092 17.76 7.44226 17.76C7.86359 17.76 8.24625 17.8573 8.59025 18.052C8.93425 18.2467 9.20226 18.5093 9.39426 18.84C9.58626 19.1707 9.68225 19.5333 9.68225 19.928C9.68225 20.3227 9.58626 20.6853 9.39426 21.016C9.20226 21.3467 8.93425 21.6093 8.59025 21.804C8.24625 21.9987 7.86359 22.096 7.44226 22.096C7.02092 22.096 6.63826 21.9987 6.29426 21.804C5.95026 21.6093 5.68226 21.3467 5.49026 21.016C5.29826 20.6853 5.20226 20.3227 5.20226 19.928C5.20226 19.5333 5.29826 19.1707 5.49026 18.84C5.68226 18.5093 5.95026 18.2467 6.29426 18.052Z" fill="#E31D13"/>
<path d="M14.1024 21.36V22.848H13.3744V22H10.8224V22.848H10.0944V21.36H10.5264C10.9238 20.52 11.1224 19.352 11.1224 17.856H13.5704V21.36H14.1024ZM11.3024 21.36H12.8544V18.496H11.8144C11.8144 18.9787 11.7691 19.48 11.6784 20C11.5904 20.5173 11.4651 20.9707 11.3024 21.36Z" fill="#E31D13"/>
<path d="M16.9489 21.444C17.3702 21.444 17.7249 21.2973 18.0129 21.004C18.3035 20.708 18.4489 20.3493 18.4489 19.928C18.4489 19.5067 18.3035 19.1493 18.0129 18.856C17.7249 18.56 17.3702 18.412 16.9489 18.412C16.6582 18.412 16.3929 18.488 16.1529 18.64C15.9155 18.792 15.7342 18.9933 15.6089 19.244V20.624C15.7342 20.872 15.9155 21.0707 16.1529 21.22C16.3929 21.3693 16.6582 21.444 16.9489 21.444ZM17.0689 17.76C17.4689 17.76 17.8315 17.86 18.1569 18.06C18.4849 18.2573 18.7382 18.5213 18.9169 18.852C19.0982 19.18 19.1889 19.5387 19.1889 19.928C19.1889 20.3173 19.0982 20.6773 18.9169 21.008C18.7382 21.336 18.4849 21.6 18.1569 21.8C17.8315 21.9973 17.4689 22.096 17.0689 22.096C16.4769 22.096 15.9902 21.8853 15.6089 21.464V23.856H14.8809V17.856H15.6089V18.392C15.9929 17.9707 16.4795 17.76 17.0689 17.76Z" fill="#E31D13"/>
<path d="M20.9524 21.004C21.243 21.2973 21.599 21.444 22.0204 21.444C22.4417 21.444 22.7964 21.2973 23.0844 21.004C23.375 20.708 23.5204 20.3493 23.5204 19.928C23.5204 19.5067 23.375 19.1493 23.0844 18.856C22.7964 18.56 22.4417 18.412 22.0204 18.412C21.599 18.412 21.243 18.56 20.9524 18.856C20.6644 19.1493 20.5204 19.5067 20.5204 19.928C20.5204 20.3493 20.6644 20.708 20.9524 21.004ZM20.8724 18.052C21.2164 17.8573 21.599 17.76 22.0204 17.76C22.4417 17.76 22.8244 17.8573 23.1684 18.052C23.5124 18.2467 23.7804 18.5093 23.9724 18.84C24.1644 19.1707 24.2604 19.5333 24.2604 19.928C24.2604 20.3227 24.1644 20.6853 23.9724 21.016C23.7804 21.3467 23.5124 21.6093 23.1684 21.804C22.8244 21.9987 22.4417 22.096 22.0204 22.096C21.599 22.096 21.2164 21.9987 20.8724 21.804C20.5284 21.6093 20.2604 21.3467 20.0684 21.016C19.8764 20.6853 19.7804 20.3227 19.7804 19.928C19.7804 19.5333 19.8764 19.1707 20.0684 18.84C20.2604 18.5093 20.5284 18.2467 20.8724 18.052Z" fill="#E31D13"/>
<path d="M25.7187 18.888C25.8947 18.6827 26.108 18.52 26.3587 18.4C26.612 18.2773 26.884 18.216 27.1747 18.216C27.7214 18.216 28.1827 18.404 28.5587 18.78C28.9347 19.1533 29.1227 19.612 29.1227 20.156C29.1227 20.7133 28.9254 21.176 28.5307 21.544C28.136 21.912 27.6347 22.096 27.0267 22.096C26.4107 22.096 25.9067 21.888 25.5147 21.472C25.1254 21.056 24.9307 20.4827 24.9307 19.752C24.9307 19.2427 24.9654 18.8027 25.0347 18.432C25.104 18.0613 25.212 17.7373 25.3587 17.46C25.5054 17.1827 25.7027 16.956 25.9507 16.78C26.2014 16.6013 26.496 16.4627 26.8347 16.364C27.176 16.2627 27.584 16.1947 28.0587 16.16L28.1627 16.812C27.7867 16.8467 27.4667 16.8973 27.2027 16.964C26.9387 17.0307 26.7147 17.1147 26.5307 17.216C26.3494 17.3173 26.2027 17.4493 26.0907 17.612C25.9814 17.7747 25.8974 17.956 25.8387 18.156C25.7827 18.356 25.7427 18.6 25.7187 18.888ZM25.6707 19.7C25.6707 20.2413 25.7934 20.668 26.0387 20.98C26.284 21.2893 26.6134 21.444 27.0267 21.444C27.4134 21.444 27.736 21.3213 27.9947 21.076C28.2534 20.828 28.3827 20.5213 28.3827 20.156C28.3827 19.7933 28.2547 19.488 27.9987 19.24C27.7454 18.992 27.4347 18.868 27.0667 18.868C26.7814 18.868 26.52 18.944 26.2827 19.096C26.0454 19.2453 25.8414 19.4467 25.6707 19.7Z" fill="#E31D13"/>
<path d="M33.7459 17.856V22H33.0179V20.184H30.7339V22H30.0059V17.856H30.7339V19.532H33.0179V17.856H33.7459Z" fill="#E31D13"/>
<path d="M35.7961 21.004C36.0868 21.2973 36.4428 21.444 36.8641 21.444C37.2855 21.444 37.6401 21.2973 37.9281 21.004C38.2188 20.708 38.3641 20.3493 38.3641 19.928C38.3641 19.5067 38.2188 19.1493 37.9281 18.856C37.6401 18.56 37.2855 18.412 36.8641 18.412C36.4428 18.412 36.0868 18.56 35.7961 18.856C35.5081 19.1493 35.3641 19.5067 35.3641 19.928C35.3641 20.3493 35.5081 20.708 35.7961 21.004ZM35.7161 18.052C36.0601 17.8573 36.4428 17.76 36.8641 17.76C37.2855 17.76 37.6681 17.8573 38.0121 18.052C38.3561 18.2467 38.6241 18.5093 38.8161 18.84C39.0081 19.1707 39.1041 19.5333 39.1041 19.928C39.1041 20.3227 39.0081 20.6853 38.8161 21.016C38.6241 21.3467 38.3561 21.6093 38.0121 21.804C37.6681 21.9987 37.2855 22.096 36.8641 22.096C36.4428 22.096 36.0601 21.9987 35.7161 21.804C35.3721 21.6093 35.1041 21.3467 34.9121 21.016C34.7201 20.6853 34.6241 20.3227 34.6241 19.928C34.6241 19.5333 34.7201 19.1707 34.9121 18.84C35.1041 18.5093 35.3721 18.2467 35.7161 18.052Z" fill="#E31D13"/>
<path d="M41.9344 22.096C41.5131 22.096 41.1304 21.9987 40.7864 21.804C40.4424 21.6093 40.1744 21.3467 39.9824 21.016C39.7904 20.6853 39.6944 20.3227 39.6944 19.928C39.6944 19.5333 39.7904 19.1707 39.9824 18.84C40.1744 18.5093 40.4424 18.2467 40.7864 18.052C41.1304 17.8573 41.5131 17.76 41.9344 17.76C42.5131 17.76 43.0158 17.9427 43.4424 18.308L43.0624 18.88C42.7104 18.568 42.3344 18.412 41.9344 18.412C41.5131 18.412 41.1571 18.56 40.8664 18.856C40.5784 19.1493 40.4344 19.5067 40.4344 19.928C40.4344 20.3493 40.5784 20.708 40.8664 21.004C41.1571 21.2973 41.5131 21.444 41.9344 21.444C42.3664 21.444 42.7518 21.2773 43.0904 20.944L43.5184 21.476C43.0918 21.8893 42.5638 22.096 41.9344 22.096Z" fill="#E31D13"/>
<path d="M45.266 18.508H43.93V17.856H47.33V18.508H45.994V22H45.266V18.508Z" fill="#E31D13"/>
<path d="M51.8318 17.856V22H51.1278V18.88L48.7838 22H48.0918V17.856H48.7958V20.976L51.1398 17.856H51.8318Z" fill="#E31D13"/>
<path d="M57.1251 22H55.3731V17.856H57.0011C57.3797 17.856 57.6971 17.9613 57.9531 18.172C58.2117 18.3827 58.3411 18.6427 58.3411 18.952C58.3411 19.144 58.2837 19.3187 58.1691 19.476C58.0544 19.6333 57.9051 19.748 57.7211 19.82C57.9504 19.8733 58.1424 19.996 58.2971 20.188C58.4544 20.38 58.5331 20.5933 58.5331 20.828C58.5331 21.1587 58.3971 21.4373 58.1251 21.664C57.8557 21.888 57.5224 22 57.1251 22ZM56.1011 19.564H56.9531C57.1424 19.564 57.2997 19.5133 57.4251 19.412C57.5504 19.308 57.6131 19.1787 57.6131 19.024C57.6131 18.8693 57.5504 18.7413 57.4251 18.64C57.2997 18.536 57.1424 18.484 56.9531 18.484H56.1011V19.564ZM56.1011 21.372H57.0891C57.2917 21.372 57.4611 21.3147 57.5971 21.2C57.7357 21.0853 57.8051 20.944 57.8051 20.776C57.8051 20.6053 57.7357 20.4613 57.5971 20.344C57.4611 20.2267 57.2917 20.168 57.0891 20.168H56.1011V21.372Z" fill="#E31D13"/>
<path d="M62.7571 21.004C63.0477 21.2973 63.4037 21.444 63.8251 21.444C64.2464 21.444 64.6011 21.2973 64.8891 21.004C65.1797 20.708 65.3251 20.3493 65.3251 19.928C65.3251 19.5067 65.1797 19.1493 64.8891 18.856C64.6011 18.56 64.2464 18.412 63.8251 18.412C63.4037 18.412 63.0477 18.56 62.7571 18.856C62.4691 19.1493 62.3251 19.5067 62.3251 19.928C62.3251 20.3493 62.4691 20.708 62.7571 21.004ZM62.6771 18.052C63.0211 17.8573 63.4037 17.76 63.8251 17.76C64.2464 17.76 64.6291 17.8573 64.9731 18.052C65.3171 18.2467 65.5851 18.5093 65.7771 18.84C65.9691 19.1707 66.0651 19.5333 66.0651 19.928C66.0651 20.3227 65.9691 20.6853 65.7771 21.016C65.5851 21.3467 65.3171 21.6093 64.9731 21.804C64.6291 21.9987 64.2464 22.096 63.8251 22.096C63.4037 22.096 63.0211 21.9987 62.6771 21.804C62.3331 21.6093 62.0651 21.3467 61.8731 21.016C61.6811 20.6853 61.5851 20.3227 61.5851 19.928C61.5851 19.5333 61.6811 19.1707 61.8731 18.84C62.0651 18.5093 62.3331 18.2467 62.6771 18.052Z" fill="#E31D13"/>
<path d="M67.7973 18.508H66.4613V17.856H69.8613V18.508H68.5253V22H67.7973V18.508Z" fill="#E31D13"/>
<path d="M74.0868 21.36V22.848H73.3588V22H70.8068V22.848H70.0788V21.36H70.5108C70.9082 20.52 71.1068 19.352 71.1068 17.856H73.5548V21.36H74.0868ZM71.2868 21.36H72.8388V18.496H71.7988C71.7988 18.9787 71.7535 19.48 71.6628 20C71.5748 20.5173 71.4495 20.9707 71.2868 21.36Z" fill="#E31D13"/>
<path d="M75.2822 20.156C75.3222 20.532 75.4809 20.8453 75.7582 21.096C76.0382 21.344 76.3755 21.468 76.7702 21.468C77.2769 21.468 77.7129 21.268 78.0782 20.868L78.5782 21.332C78.3595 21.58 78.0969 21.7693 77.7902 21.9C77.4835 22.0307 77.1502 22.096 76.7902 22.096C76.4595 22.096 76.1529 22.04 75.8702 21.928C75.5875 21.8133 75.3489 21.6587 75.1542 21.464C74.9622 21.2693 74.8115 21.04 74.7022 20.776C74.5929 20.5093 74.5382 20.2267 74.5382 19.928C74.5382 19.632 74.5929 19.3507 74.7022 19.084C74.8142 18.8173 74.9662 18.5867 75.1582 18.392C75.3529 18.1973 75.5862 18.044 75.8582 17.932C76.1302 17.8173 76.4209 17.76 76.7302 17.76C77.1329 17.76 77.4955 17.8533 77.8182 18.04C78.1435 18.2267 78.3955 18.4787 78.5742 18.796C78.7529 19.1107 78.8422 19.4573 78.8422 19.836C78.8422 19.9427 78.8302 20.0493 78.8062 20.156H75.2822ZM76.7302 18.388C76.3889 18.388 76.0849 18.4987 75.8182 18.72C75.5515 18.9413 75.3822 19.2187 75.3102 19.552H78.0782C78.0222 19.2133 77.8702 18.9347 77.6222 18.716C77.3742 18.4973 77.0769 18.388 76.7302 18.388Z" fill="#E31D13"/>
<path d="M79.9865 20.804V17.856H83.3905V22H82.6625V18.508H80.7145V20.86C80.7145 21.196 80.6092 21.4747 80.3985 21.696C80.1878 21.9173 79.9198 22.028 79.5945 22.028C79.4532 22.028 79.3358 22.0187 79.2425 22V21.356C79.2852 21.3587 79.3558 21.36 79.4545 21.36C79.6118 21.36 79.7398 21.3093 79.8385 21.208C79.9372 21.1067 79.9865 20.972 79.9865 20.804Z" fill="#E31D13"/>
<path d="M85.0166 20.156C85.0566 20.532 85.2152 20.8453 85.4926 21.096C85.7726 21.344 86.1099 21.468 86.5046 21.468C87.0112 21.468 87.4472 21.268 87.8126 20.868L88.3126 21.332C88.0939 21.58 87.8312 21.7693 87.5246 21.9C87.2179 22.0307 86.8846 22.096 86.5246 22.096C86.1939 22.096 85.8872 22.04 85.6046 21.928C85.3219 21.8133 85.0832 21.6587 84.8886 21.464C84.6966 21.2693 84.5459 21.04 84.4366 20.776C84.3272 20.5093 84.2726 20.2267 84.2726 19.928C84.2726 19.632 84.3272 19.3507 84.4366 19.084C84.5486 18.8173 84.7006 18.5867 84.8926 18.392C85.0872 18.1973 85.3206 18.044 85.5926 17.932C85.8646 17.8173 86.1552 17.76 86.4646 17.76C86.8672 17.76 87.2299 17.8533 87.5526 18.04C87.8779 18.2267 88.1299 18.4787 88.3086 18.796C88.4872 19.1107 88.5766 19.4573 88.5766 19.836C88.5766 19.9427 88.5646 20.0493 88.5406 20.156H85.0166ZM86.4646 18.388C86.1232 18.388 85.8192 18.4987 85.5526 18.72C85.2859 18.9413 85.1166 19.2187 85.0446 19.552H87.8126C87.7566 19.2133 87.6046 18.9347 87.3566 18.716C87.1086 18.4973 86.8112 18.388 86.4646 18.388Z" fill="#E31D13"/>
<path d="M95.574 17.856V22H94.846V18.508H92.562V22H91.834V17.856H95.574Z" fill="#E31D13"/>
<path d="M98.8083 21.444C99.2296 21.444 99.5843 21.2973 99.8723 21.004C100.163 20.708 100.308 20.3493 100.308 19.928C100.308 19.5067 100.163 19.1493 99.8723 18.856C99.5843 18.56 99.2296 18.412 98.8083 18.412C98.5176 18.412 98.2523 18.488 98.0123 18.64C97.7749 18.792 97.5936 18.9933 97.4683 19.244V20.624C97.5936 20.872 97.7749 21.0707 98.0123 21.22C98.2523 21.3693 98.5176 21.444 98.8083 21.444ZM98.9283 17.76C99.3283 17.76 99.6909 17.86 100.016 18.06C100.344 18.2573 100.598 18.5213 100.776 18.852C100.958 19.18 101.048 19.5387 101.048 19.928C101.048 20.3173 100.958 20.6773 100.776 21.008C100.598 21.336 100.344 21.6 100.016 21.8C99.6909 21.9973 99.3283 22.096 98.9283 22.096C98.3363 22.096 97.8496 21.8853 97.4683 21.464V23.856H96.7403V17.856H97.4683V18.392C97.8523 17.9707 98.3389 17.76 98.9283 17.76Z" fill="#E31D13"/>
<path d="M102.812 21.004C103.102 21.2973 103.458 21.444 103.88 21.444C104.301 21.444 104.656 21.2973 104.944 21.004C105.234 20.708 105.38 20.3493 105.38 19.928C105.38 19.5067 105.234 19.1493 104.944 18.856C104.656 18.56 104.301 18.412 103.88 18.412C103.458 18.412 103.102 18.56 102.812 18.856C102.524 19.1493 102.38 19.5067 102.38 19.928C102.38 20.3493 102.524 20.708 102.812 21.004ZM102.732 18.052C103.076 17.8573 103.458 17.76 103.88 17.76C104.301 17.76 104.684 17.8573 105.028 18.052C105.372 18.2467 105.64 18.5093 105.832 18.84C106.024 19.1707 106.12 19.5333 106.12 19.928C106.12 20.3227 106.024 20.6853 105.832 21.016C105.64 21.3467 105.372 21.6093 105.028 21.804C104.684 21.9987 104.301 22.096 103.88 22.096C103.458 22.096 103.076 21.9987 102.732 21.804C102.388 21.6093 102.12 21.3467 101.928 21.016C101.736 20.6853 101.64 20.3227 101.64 19.928C101.64 19.5333 101.736 19.1707 101.928 18.84C102.12 18.5093 102.388 18.2467 102.732 18.052Z" fill="#E31D13"/>
<path d="M110.54 21.36V22.848H109.812V22H107.26V22.848H106.532V21.36H106.964C107.361 20.52 107.56 19.352 107.56 17.856H110.008V21.36H110.54ZM107.74 21.36H109.292V18.496H108.252C108.252 18.9787 108.207 19.48 108.116 20C108.028 20.5173 107.903 20.9707 107.74 21.36Z" fill="#E31D13"/>
<path d="M113.27 21.444C113.561 21.444 113.825 21.3693 114.062 21.22C114.302 21.0707 114.485 20.872 114.61 20.624V19.244C114.485 18.9933 114.302 18.792 114.062 18.64C113.825 18.488 113.561 18.412 113.27 18.412C112.849 18.412 112.493 18.56 112.202 18.856C111.914 19.1493 111.77 19.5067 111.77 19.928C111.77 20.3493 111.914 20.708 112.202 21.004C112.493 21.2973 112.849 21.444 113.27 21.444ZM113.15 17.76C113.74 17.76 114.226 17.9707 114.61 18.392V17.856H115.338V22H114.61V21.464C114.229 21.8853 113.742 22.096 113.15 22.096C112.75 22.096 112.386 21.9973 112.058 21.8C111.733 21.6 111.48 21.336 111.298 21.008C111.12 20.6773 111.03 20.3173 111.03 19.928C111.03 19.5387 111.12 19.18 111.298 18.852C111.48 18.5213 111.733 18.2573 112.058 18.06C112.386 17.86 112.75 17.76 113.15 17.76Z" fill="#E31D13"/>
<path d="M121.306 22L119.914 20.092H119.414V22H118.686V20.092H118.186L116.794 22H115.954L117.582 19.776L116.17 17.856H117.034L118.19 19.464H118.686V17.856H119.414V19.464H119.91L121.066 17.856H121.93L120.518 19.776L122.146 22H121.306Z" fill="#E31D13"/>
<path d="M128.879 17.856V22H128.175V18.88L125.831 22H125.139V17.856H125.843V20.976L128.187 17.856H128.879Z" fill="#E31D13"/>
<path d="M130.385 20.804V17.856H133.789V22H133.061V18.508H131.113V20.86C131.113 21.196 131.008 21.4747 130.797 21.696C130.586 21.9173 130.318 22.028 129.993 22.028C129.852 22.028 129.734 22.0187 129.641 22V21.356C129.684 21.3587 129.754 21.36 129.853 21.36C130.01 21.36 130.138 21.3093 130.237 21.208C130.336 21.1067 130.385 20.972 130.385 20.804Z" fill="#E31D13"/>
<path d="M138.699 17.856V22H137.995V18.88L135.651 22H134.959V17.856H135.663V20.976L138.007 17.856H138.699Z" fill="#E31D13"/>
<path d="M145.98 17.856V22H145.252V18.508H142.968V22H142.24V17.856H145.98Z" fill="#E31D13"/>
<path d="M148.031 21.004C148.321 21.2973 148.677 21.444 149.098 21.444C149.52 21.444 149.875 21.2973 150.163 21.004C150.453 20.708 150.598 20.3493 150.598 19.928C150.598 19.5067 150.453 19.1493 150.163 18.856C149.875 18.56 149.52 18.412 149.098 18.412C148.677 18.412 148.321 18.56 148.031 18.856C147.743 19.1493 147.598 19.5067 147.598 19.928C147.598 20.3493 147.743 20.708 148.031 21.004ZM147.951 18.052C148.295 17.8573 148.677 17.76 149.098 17.76C149.52 17.76 149.903 17.8573 150.247 18.052C150.591 18.2467 150.859 18.5093 151.051 18.84C151.243 19.1707 151.339 19.5333 151.339 19.928C151.339 20.3227 151.243 20.6853 151.051 21.016C150.859 21.3467 150.591 21.6093 150.247 21.804C149.903 21.9987 149.52 22.096 149.098 22.096C148.677 22.096 148.295 21.9987 147.951 21.804C147.607 21.6093 147.338 21.3467 147.146 21.016C146.954 20.6853 146.859 20.3227 146.859 19.928C146.859 19.5333 146.954 19.1707 147.146 18.84C147.338 18.5093 147.607 18.2467 147.951 18.052Z" fill="#E31D13"/>
<path d="M158.332 17.856V22H157.604V20.184H155.32V22H154.592V17.856H155.32V19.532H157.604V17.856H158.332Z" fill="#E31D13"/>
<path d="M160.382 21.004C160.673 21.2973 161.029 21.444 161.45 21.444C161.871 21.444 162.226 21.2973 162.514 21.004C162.805 20.708 162.95 20.3493 162.95 19.928C162.95 19.5067 162.805 19.1493 162.514 18.856C162.226 18.56 161.871 18.412 161.45 18.412C161.029 18.412 160.673 18.56 160.382 18.856C160.094 19.1493 159.95 19.5067 159.95 19.928C159.95 20.3493 160.094 20.708 160.382 21.004ZM160.302 18.052C160.646 17.8573 161.029 17.76 161.45 17.76C161.871 17.76 162.254 17.8573 162.598 18.052C162.942 18.2467 163.21 18.5093 163.402 18.84C163.594 19.1707 163.69 19.5333 163.69 19.928C163.69 20.3227 163.594 20.6853 163.402 21.016C163.21 21.3467 162.942 21.6093 162.598 21.804C162.254 21.9987 161.871 22.096 161.45 22.096C161.029 22.096 160.646 21.9987 160.302 21.804C159.958 21.6093 159.69 21.3467 159.498 21.016C159.306 20.6853 159.21 20.3227 159.21 19.928C159.21 19.5333 159.306 19.1707 159.498 18.84C159.69 18.5093 159.958 18.2467 160.302 18.052Z" fill="#E31D13"/>
<path d="M165.24 17.856L166.684 20.04L168.128 17.856H168.8V22H168.096V18.972L166.904 20.748H166.464L165.272 18.972V22H164.568V17.856H165.24Z" fill="#E31D13"/>
<path d="M170.423 20.156C170.463 20.532 170.621 20.8453 170.899 21.096C171.179 21.344 171.516 21.468 171.911 21.468C172.417 21.468 172.853 21.268 173.219 20.868L173.719 21.332C173.5 21.58 173.237 21.7693 172.931 21.9C172.624 22.0307 172.291 22.096 171.931 22.096C171.6 22.096 171.293 22.04 171.011 21.928C170.728 21.8133 170.489 21.6587 170.295 21.464C170.103 21.2693 169.952 21.04 169.843 20.776C169.733 20.5093 169.679 20.2267 169.679 19.928C169.679 19.632 169.733 19.3507 169.843 19.084C169.955 18.8173 170.107 18.5867 170.299 18.392C170.493 18.1973 170.727 18.044 170.999 17.932C171.271 17.8173 171.561 17.76 171.871 17.76C172.273 17.76 172.636 17.8533 172.959 18.04C173.284 18.2267 173.536 18.4787 173.715 18.796C173.893 19.1107 173.983 19.4573 173.983 19.836C173.983 19.9427 173.971 20.0493 173.947 20.156H170.423ZM171.871 18.388C171.529 18.388 171.225 18.4987 170.959 18.72C170.692 18.9413 170.523 19.2187 170.451 19.552H173.219C173.163 19.2133 173.011 18.9347 172.763 18.716C172.515 18.4973 172.217 18.388 171.871 18.388Z" fill="#E31D13"/>
<path d="M176.933 21.444C177.355 21.444 177.709 21.2973 177.997 21.004C178.288 20.708 178.433 20.3493 178.433 19.928C178.433 19.5067 178.288 19.1493 177.997 18.856C177.709 18.56 177.355 18.412 176.933 18.412C176.643 18.412 176.377 18.488 176.137 18.64C175.9 18.792 175.719 18.9933 175.593 19.244V20.624C175.719 20.872 175.9 21.0707 176.137 21.22C176.377 21.3693 176.643 21.444 176.933 21.444ZM177.053 17.76C177.453 17.76 177.816 17.86 178.141 18.06C178.469 18.2573 178.723 18.5213 178.901 18.852C179.083 19.18 179.173 19.5387 179.173 19.928C179.173 20.3173 179.083 20.6773 178.901 21.008C178.723 21.336 178.469 21.6 178.141 21.8C177.816 21.9973 177.453 22.096 177.053 22.096C176.461 22.096 175.975 21.8853 175.593 21.464V23.856H174.865V17.856H175.593V18.392C175.977 17.9707 176.464 17.76 177.053 17.76Z" fill="#E31D13"/>
<path d="M180.383 23.856L181.119 21.984L179.499 17.856H180.259L181.491 21.06L182.723 17.856H183.483L181.143 23.856H180.383Z" fill="#E31D13"/>
<path d="M189.705 21.6C189.337 21.9307 188.883 22.096 188.345 22.096C187.806 22.096 187.353 21.9307 186.985 21.6C186.617 21.2667 186.433 20.856 186.433 20.368C186.433 20.032 186.527 19.7333 186.717 19.472C186.909 19.2107 187.169 19.0267 187.497 18.92C187.27 18.8267 187.083 18.6733 186.937 18.46C186.793 18.2467 186.721 18.016 186.721 17.768C186.721 17.3573 186.874 17.0107 187.181 16.728C187.49 16.4453 187.878 16.304 188.345 16.304C188.811 16.304 189.198 16.4453 189.505 16.728C189.814 17.0107 189.969 17.3573 189.969 17.768C189.969 18.016 189.895 18.2467 189.749 18.46C189.605 18.6733 189.419 18.8267 189.193 18.92C189.521 19.0267 189.779 19.2107 189.969 19.472C190.161 19.7333 190.257 20.032 190.257 20.368C190.257 20.856 190.073 21.2667 189.705 21.6ZM189.177 19.576C188.953 19.36 188.675 19.252 188.345 19.252C188.014 19.252 187.735 19.36 187.509 19.576C187.285 19.792 187.173 20.052 187.173 20.356C187.173 20.66 187.285 20.92 187.509 21.136C187.735 21.3493 188.014 21.456 188.345 21.456C188.675 21.456 188.953 21.3493 189.177 21.136C189.403 20.92 189.517 20.66 189.517 20.356C189.517 20.052 189.403 19.792 189.177 19.576ZM187.701 18.384C187.877 18.552 188.091 18.636 188.345 18.636C188.598 18.636 188.813 18.552 188.989 18.384C189.165 18.216 189.253 18.016 189.253 17.784C189.253 17.552 189.165 17.3547 188.989 17.192C188.813 17.0267 188.598 16.944 188.345 16.944C188.091 16.944 187.877 17.0267 187.701 17.192C187.525 17.3547 187.437 17.552 187.437 17.784C187.437 18.016 187.525 18.216 187.701 18.384Z" fill="#E31D13"/>
<path d="M196.83 21.6C196.462 21.9307 196.008 22.096 195.47 22.096C194.931 22.096 194.478 21.9307 194.11 21.6C193.742 21.2667 193.558 20.856 193.558 20.368C193.558 20.032 193.652 19.7333 193.842 19.472C194.034 19.2107 194.294 19.0267 194.622 18.92C194.395 18.8267 194.208 18.6733 194.062 18.46C193.918 18.2467 193.846 18.016 193.846 17.768C193.846 17.3573 193.999 17.0107 194.306 16.728C194.615 16.4453 195.003 16.304 195.47 16.304C195.936 16.304 196.323 16.4453 196.63 16.728C196.939 17.0107 197.094 17.3573 197.094 17.768C197.094 18.016 197.02 18.2467 196.874 18.46C196.73 18.6733 196.544 18.8267 196.318 18.92C196.646 19.0267 196.904 19.2107 197.094 19.472C197.286 19.7333 197.382 20.032 197.382 20.368C197.382 20.856 197.198 21.2667 196.83 21.6ZM196.302 19.576C196.078 19.36 195.8 19.252 195.47 19.252C195.139 19.252 194.86 19.36 194.634 19.576C194.41 19.792 194.298 20.052 194.298 20.356C194.298 20.66 194.41 20.92 194.634 21.136C194.86 21.3493 195.139 21.456 195.47 21.456C195.8 21.456 196.078 21.3493 196.302 21.136C196.528 20.92 196.642 20.66 196.642 20.356C196.642 20.052 196.528 19.792 196.302 19.576ZM194.826 18.384C195.002 18.552 195.216 18.636 195.47 18.636C195.723 18.636 195.938 18.552 196.114 18.384C196.29 18.216 196.378 18.016 196.378 17.784C196.378 17.552 196.29 17.3547 196.114 17.192C195.938 17.0267 195.723 16.944 195.47 16.944C195.216 16.944 195.002 17.0267 194.826 17.192C194.65 17.3547 194.562 17.552 194.562 17.784C194.562 18.016 194.65 18.216 194.826 18.384Z" fill="#E31D13"/>
<path d="M198.444 20.344C198.366 19.9947 198.328 19.6133 198.328 19.2C198.328 18.7867 198.366 18.4067 198.444 18.06C198.524 17.7107 198.64 17.4053 198.792 17.144C198.944 16.88 199.141 16.6747 199.384 16.528C199.629 16.3787 199.908 16.304 200.22 16.304C200.532 16.304 200.809 16.3787 201.052 16.528C201.297 16.6747 201.496 16.88 201.648 17.144C201.8 17.4053 201.914 17.7107 201.992 18.06C202.072 18.4067 202.112 18.7867 202.112 19.2C202.112 19.6133 202.072 19.9947 201.992 20.344C201.914 20.6907 201.8 20.996 201.648 21.26C201.496 21.5213 201.297 21.7267 201.052 21.876C200.809 22.0227 200.532 22.096 200.22 22.096C199.908 22.096 199.629 22.0227 199.384 21.876C199.141 21.7267 198.944 21.5213 198.792 21.26C198.64 20.996 198.524 20.6907 198.444 20.344ZM199.184 18.048C199.106 18.3707 199.068 18.7547 199.068 19.2C199.068 19.6453 199.106 20.0307 199.184 20.356C199.264 20.6787 199.39 20.9373 199.564 21.132C199.74 21.324 199.958 21.42 200.22 21.42C200.481 21.42 200.698 21.324 200.872 21.132C201.048 20.9373 201.174 20.6787 201.252 20.356C201.332 20.0307 201.372 19.6453 201.372 19.2C201.372 18.7547 201.332 18.3707 201.252 18.048C201.174 17.7227 201.048 17.464 200.872 17.272C200.698 17.0773 200.481 16.98 200.22 16.98C199.958 16.98 199.74 17.0773 199.564 17.272C199.39 17.464 199.264 17.7227 199.184 18.048Z" fill="#E31D13"/>
<path d="M203.194 20.344C203.116 19.9947 203.078 19.6133 203.078 19.2C203.078 18.7867 203.116 18.4067 203.194 18.06C203.274 17.7107 203.39 17.4053 203.542 17.144C203.694 16.88 203.891 16.6747 204.134 16.528C204.379 16.3787 204.658 16.304 204.97 16.304C205.282 16.304 205.559 16.3787 205.802 16.528C206.047 16.6747 206.246 16.88 206.398 17.144C206.55 17.4053 206.664 17.7107 206.742 18.06C206.822 18.4067 206.862 18.7867 206.862 19.2C206.862 19.6133 206.822 19.9947 206.742 20.344C206.664 20.6907 206.55 20.996 206.398 21.26C206.246 21.5213 206.047 21.7267 205.802 21.876C205.559 22.0227 205.282 22.096 204.97 22.096C204.658 22.096 204.379 22.0227 204.134 21.876C203.891 21.7267 203.694 21.5213 203.542 21.26C203.39 20.996 203.274 20.6907 203.194 20.344ZM203.934 18.048C203.856 18.3707 203.818 18.7547 203.818 19.2C203.818 19.6453 203.856 20.0307 203.934 20.356C204.014 20.6787 204.14 20.9373 204.314 21.132C204.49 21.324 204.708 21.42 204.97 21.42C205.231 21.42 205.448 21.324 205.622 21.132C205.798 20.9373 205.924 20.6787 206.002 20.356C206.082 20.0307 206.122 19.6453 206.122 19.2C206.122 18.7547 206.082 18.3707 206.002 18.048C205.924 17.7227 205.798 17.464 205.622 17.272C205.448 17.0773 205.231 16.98 204.97 16.98C204.708 16.98 204.49 17.0773 204.314 17.272C204.14 17.464 204.014 17.7227 203.934 18.048Z" fill="#E31D13"/>
<path d="M210.035 20.864V20.196L212.591 16.4H213.331V20.188H213.991V20.864H213.331V22H212.591V20.864H210.035ZM210.855 20.196H212.591V17.616L210.855 20.196Z" fill="#E31D13"/>
<path d="M214.785 20.864V20.196L217.341 16.4H218.081V20.188H218.741V20.864H218.081V22H217.341V20.864H214.785ZM215.605 20.196H217.341V17.616L215.605 20.196Z" fill="#E31D13"/>
<path d="M219.535 20.864V20.196L222.091 16.4H222.831V20.188H223.491V20.864H222.831V22H222.091V20.864H219.535ZM220.355 20.196H222.091V17.616L220.355 20.196Z" fill="#E31D13"/>
<path d="M229.704 20.264C229.704 19.9333 229.585 19.652 229.348 19.42C229.11 19.188 228.816 19.072 228.464 19.072C228.357 19.072 228.248 19.0893 228.136 19.124L227.844 18.752L229.284 17.052H227.068V16.4H230.184V17.052L228.848 18.596C229.322 18.6307 229.706 18.812 230 19.14C230.296 19.4653 230.444 19.8627 230.444 20.332C230.444 20.556 230.397 20.7733 230.304 20.984C230.21 21.1947 230.081 21.3827 229.916 21.548C229.75 21.7133 229.544 21.8467 229.296 21.948C229.048 22.0467 228.778 22.096 228.488 22.096C228.117 22.096 227.784 22.016 227.488 21.856C227.194 21.696 226.95 21.468 226.756 21.172L227.264 20.748C227.576 21.22 227.976 21.456 228.464 21.456C228.816 21.456 229.11 21.3413 229.348 21.112C229.585 20.88 229.704 20.5973 229.704 20.264Z" fill="#E31D13"/>
<path d="M234.454 20.264C234.454 19.9333 234.335 19.652 234.098 19.42C233.86 19.188 233.566 19.072 233.214 19.072C233.107 19.072 232.998 19.0893 232.886 19.124L232.594 18.752L234.034 17.052H231.818V16.4H234.934V17.052L233.598 18.596C234.072 18.6307 234.456 18.812 234.75 19.14C235.046 19.4653 235.194 19.8627 235.194 20.332C235.194 20.556 235.147 20.7733 235.054 20.984C234.96 21.1947 234.831 21.3827 234.666 21.548C234.5 21.7133 234.294 21.8467 234.046 21.948C233.798 22.0467 233.528 22.096 233.238 22.096C232.867 22.096 232.534 22.016 232.238 21.856C231.944 21.696 231.7 21.468 231.506 21.172L232.014 20.748C232.326 21.22 232.726 21.456 233.214 21.456C233.566 21.456 233.86 21.3413 234.098 21.112C234.335 20.88 234.454 20.5973 234.454 20.264Z" fill="#E31D13"/>
<path d="M241.563 16.4L240.175 18.548C240.311 18.4653 240.48 18.424 240.683 18.424C241.184 18.424 241.616 18.5987 241.979 18.948C242.344 19.2947 242.527 19.7307 242.527 20.256C242.527 20.6027 242.436 20.9187 242.255 21.204C242.073 21.4893 241.835 21.7093 241.539 21.864C241.245 22.0187 240.928 22.096 240.587 22.096C240.245 22.096 239.927 22.0187 239.631 21.864C239.335 21.7093 239.096 21.4893 238.915 21.204C238.733 20.9187 238.643 20.6027 238.643 20.256C238.643 19.896 238.735 19.5733 238.919 19.288L240.775 16.4H241.563ZM241.787 20.256C241.787 19.9173 241.669 19.632 241.435 19.4C241.203 19.168 240.92 19.052 240.587 19.052C240.253 19.052 239.969 19.168 239.735 19.4C239.5 19.632 239.383 19.9173 239.383 20.256C239.383 20.592 239.499 20.876 239.731 21.108C239.965 21.34 240.251 21.456 240.587 21.456C240.92 21.456 241.203 21.34 241.435 21.108C241.669 20.876 241.787 20.592 241.787 20.256Z" fill="#E31D13"/>
<path d="M244.377 22L245.765 19.852C245.629 19.9347 245.459 19.976 245.257 19.976C244.755 19.976 244.322 19.8027 243.957 19.456C243.594 19.1067 243.413 18.6693 243.413 18.144C243.413 17.7973 243.503 17.4813 243.685 17.196C243.866 16.9107 244.103 16.6907 244.397 16.536C244.693 16.3813 245.011 16.304 245.353 16.304C245.694 16.304 246.013 16.3813 246.309 16.536C246.605 16.6907 246.843 16.9107 247.025 17.196C247.206 17.4813 247.297 17.7973 247.297 18.144C247.297 18.504 247.205 18.8267 247.021 19.112L245.165 22H244.377ZM244.153 18.144C244.153 18.4827 244.269 18.768 244.501 19C244.735 19.232 245.019 19.348 245.353 19.348C245.686 19.348 245.97 19.232 246.205 19C246.439 18.768 246.557 18.4827 246.557 18.144C246.557 17.808 246.439 17.524 246.205 17.292C245.973 17.06 245.689 16.944 245.353 16.944C245.019 16.944 244.735 17.06 244.501 17.292C244.269 17.524 244.153 17.808 244.153 18.144Z" fill="#E31D13"/>
</svg>
