<svg width="114" height="28" viewBox="0 0 114 28" fill="none" xmlns="http://www.w3.org/2000/svg">
<path d="M2.91269 11.0463C2.22326 11.0783 1.54773 10.83 1.01907 10.3503C0.781638 10.1296 0.592736 9.85438 0.466136 9.54471C0.339537 9.23503 0.27843 8.8987 0.287272 8.56024C0.288272 8.3706 0.305773 8.18148 0.339543 7.99538C0.443939 7.40186 0.703027 6.85297 1.08627 6.41341C1.47829 5.95329 1.9781 5.61645 2.53274 5.43857C2.24793 5.30452 2.00919 5.07722 1.85014 4.78868C1.6825 4.49043 1.59588 4.14717 1.6002 3.79816C1.5986 3.6654 1.60949 3.53281 1.63271 3.40243C1.77002 2.66573 2.1566 2.01096 2.71679 1.5663C3.29452 1.07244 4.01154 0.808133 4.7479 0.817591C5.33763 0.787275 5.91615 0.999233 6.36742 1.41095C6.56658 1.59835 6.72499 1.83103 6.8313 2.09236C6.93761 2.35369 6.9892 2.6372 6.98238 2.92262C6.98375 3.08396 6.96902 3.24498 6.93845 3.40291C6.85186 3.85861 6.65339 4.28068 6.36391 4.62478C6.07911 4.98628 5.71562 5.26546 5.30619 5.43715C5.7007 5.57518 6.04397 5.84622 6.28572 6.21056C6.518 6.57657 6.63787 7.01237 6.62834 7.45618C6.62964 7.63623 6.61493 7.816 6.58442 7.99301C6.4207 8.86689 5.95909 9.64221 5.29125 10.165C4.61372 10.742 3.775 11.0527 2.91269 11.0463V11.0463ZM3.81404 6.02481C3.27955 6.02224 2.76144 6.22417 2.35133 6.59489C1.93963 6.93526 1.65455 7.42412 1.54793 7.97258C1.52636 8.08879 1.51547 8.20703 1.51543 8.32556C1.51014 8.53863 1.54703 8.75046 1.62362 8.94686C1.70021 9.14326 1.81473 9.31968 1.95951 9.46429C2.27482 9.77338 2.69002 9.93569 3.11519 9.91608C3.6507 9.91836 4.16982 9.71652 4.58142 9.346C4.99299 9.00988 5.27545 8.52136 5.37471 7.97401C5.3963 7.85299 5.40719 7.73003 5.40722 7.60678C5.41276 7.39492 5.37645 7.18422 5.3007 6.98875C5.22495 6.79328 5.11151 6.61754 4.96796 6.47327C4.65292 6.16524 4.23832 6.00393 3.81404 6.02433V6.02481ZM4.00995 4.93833C4.42322 4.93826 4.82325 4.78065 5.13971 4.49319C5.45815 4.23283 5.6785 3.85644 5.75994 3.43379C5.77809 3.34569 5.78678 3.25563 5.78585 3.16537C5.78946 3.00212 5.7604 2.83995 5.70065 2.68998C5.64091 2.54001 5.5519 2.40577 5.43972 2.29648C5.1943 2.05992 4.87342 1.93589 4.54496 1.95063C4.14176 1.9517 3.75068 2.09983 3.43497 2.37106C3.11401 2.62065 2.88868 2.98873 2.80156 3.40576C2.78079 3.50075 2.76988 3.59795 2.76906 3.69555C2.76629 3.8607 2.79568 4.02464 2.85531 4.17671C2.91494 4.32878 3.00349 4.46558 3.11519 4.57822C3.23482 4.69939 3.37553 4.79362 3.52914 4.85544C3.68275 4.91726 3.84618 4.94543 4.00995 4.93833V4.93833ZM13.041 6.56828C13.2702 5.29557 13.7045 4.07636 14.3241 2.96632C14.9366 1.84424 15.7191 0.841498 16.6389 0L17.3571 0.699299C16.5639 1.47381 15.8923 2.38258 15.3686 3.39008C14.8444 4.37767 14.4727 5.45118 14.2683 6.56828C14.165 7.14257 14.1128 7.72625 14.1123 8.31131C14.0734 9.78223 14.4717 11.2279 15.2487 12.4358L14.2753 13.1366C13.812 12.4981 13.4592 11.7744 13.2338 11.0002C12.9892 10.171 12.8669 9.30522 12.8715 8.43482C12.8734 7.80825 12.9301 7.18328 13.041 6.56828V6.56828ZM19.9764 11.0463C19.287 11.0784 18.6115 10.8303 18.0828 10.3508C17.8454 10.13 17.6565 9.85466 17.53 9.5449C17.4035 9.23514 17.3424 8.89874 17.3514 8.56024C17.3524 8.3706 17.3699 8.18148 17.4037 7.99538C17.5081 7.40186 17.7672 6.85297 18.1504 6.41341C18.5424 5.95329 19.0422 5.61645 19.5969 5.43857C19.3122 5.30444 19.0737 5.07715 18.9147 4.78868C18.7469 4.49113 18.6599 4.14856 18.6635 3.80006C18.6619 3.6673 18.6727 3.53471 18.696 3.40433C18.8333 2.66763 19.2199 2.01286 19.78 1.5682C20.3578 1.07434 21.0748 0.810033 21.8112 0.819492C22.4009 0.789176 22.9794 1.00113 23.4307 1.41285C23.6298 1.60025 23.7882 1.83293 23.8946 2.09426C24.0009 2.35559 24.0525 2.6391 24.0456 2.92452C24.047 3.08586 24.0323 3.24689 24.0017 3.40481C23.9151 3.86051 23.7167 4.28258 23.4272 4.62668C23.1424 4.98818 22.7789 5.26736 22.3694 5.43905C22.764 5.57708 23.1072 5.84812 23.349 6.21246C23.5811 6.57789 23.7011 7.01296 23.692 7.45618C23.6933 7.63623 23.6786 7.816 23.6481 7.99301C23.4844 8.86689 23.0228 9.64221 22.3549 10.165C21.6774 10.742 20.8387 11.0527 19.9764 11.0463V11.0463ZM20.8777 6.02481C20.3432 6.02224 19.8251 6.22417 19.415 6.59489C19.0033 6.93526 18.7182 7.42412 18.6116 7.97258C18.5901 8.08879 18.5792 8.20703 18.5791 8.32556C18.574 8.53839 18.611 8.74995 18.6876 8.94609C18.7642 9.14222 18.8786 9.31841 19.0232 9.46287C19.3385 9.77195 19.7537 9.93427 20.1789 9.91466C20.7144 9.91693 21.2335 9.71509 21.6451 9.34458C22.0564 9.0088 22.3388 8.52084 22.4384 7.97401C22.46 7.85299 22.4709 7.73003 22.4709 7.60678C22.4765 7.39492 22.4401 7.18422 22.3644 6.98875C22.2886 6.79328 22.1752 6.61754 22.0317 6.47327C21.7166 6.16524 21.302 6.00393 20.8777 6.02433V6.02481ZM21.0736 4.93738C21.4869 4.93731 21.8869 4.7797 22.2034 4.49224C22.5221 4.23185 22.7426 3.85526 22.8241 3.43236C22.8422 3.34427 22.8509 3.2542 22.85 3.16395C22.8536 3.0007 22.8245 2.83853 22.7648 2.68856C22.705 2.53858 22.616 2.40435 22.5039 2.29505C22.2584 2.05849 21.9376 1.93446 21.6091 1.9492C21.2059 1.95028 20.8148 2.09841 20.4991 2.36964C20.1781 2.61923 19.9528 2.9873 19.8657 3.40433C19.8449 3.49932 19.834 3.59652 19.8332 3.69412C19.8304 3.85928 19.8598 4.02321 19.9194 4.17528C19.9791 4.32735 20.0676 4.46415 20.1793 4.5768C20.2988 4.69814 20.4394 4.79258 20.5929 4.85465C20.7465 4.91671 20.9099 4.94515 21.0736 4.93833V4.93738ZM24.7634 8.87141L24.972 7.69372L30.3529 0.988616H31.5608L30.3595 7.67709H31.437L31.2213 8.87046H30.1442L29.7849 10.8767H28.5783L28.9376 8.87093L24.7634 8.87141ZM26.3109 7.69372H29.1449L29.9677 3.1383L26.3109 7.69372ZM37.6801 7.81391C37.7055 7.68057 37.7186 7.54482 37.7192 7.40868C37.725 7.18147 37.6864 6.95548 37.606 6.7455C37.5255 6.53552 37.405 6.34628 37.2522 6.19013C37.0888 6.02656 36.897 5.89962 36.6879 5.81662C36.4789 5.73361 36.2567 5.69619 36.0342 5.70651C35.8461 5.70872 35.6591 5.73958 35.479 5.7982L35.1197 5.14118L38.0126 2.1397H34.3953L34.6044 0.988616H39.6914L39.4823 2.1397L36.8112 4.86612C37.3982 4.88359 37.9553 5.14994 38.3622 5.6077C38.7434 6.06307 38.9459 6.66082 38.9271 7.27471C38.9265 7.49504 38.9069 7.71483 38.8687 7.93125C38.7934 8.34151 38.646 8.7323 38.4343 9.08234C38.2121 9.45796 37.9379 9.79443 37.6212 10.08C37.2812 10.3825 36.8959 10.6199 36.4818 10.7817C36.0442 10.9583 35.5806 11.0481 35.1135 11.0467C34.5692 11.0636 34.0312 10.9167 33.5594 10.6225C33.1265 10.3377 32.7846 9.91622 32.5799 9.41489L33.5419 8.66618C33.6775 9.04194 33.9167 9.36346 34.2271 9.58707C34.5375 9.81068 34.9041 9.92555 35.2769 9.91608C35.8452 9.9187 36.3956 9.70075 36.8279 9.30182C37.2659 8.92959 37.5678 8.40161 37.6801 7.81153V7.81391ZM44.0339 6.57066C43.8017 7.84421 43.3663 9.06433 42.7473 10.1764C42.136 11.2974 41.3544 12.2991 40.4355 13.1394L39.7239 12.4401C40.5139 11.6641 41.1831 10.7555 41.7058 9.74933C42.2301 8.76175 42.6017 7.68823 42.8062 6.57113C42.9094 5.99634 42.962 5.41223 42.963 4.82669C43.0033 3.35663 42.6074 1.91122 41.8332 0.70215L42.7996 0.00285065C43.2668 0.635276 43.6211 1.35618 43.8446 2.12878C44.0878 2.96024 44.209 3.82778 44.2039 4.69984C44.2011 5.327 44.1443 5.9525 44.0343 6.56828L44.0339 6.57066ZM54.9067 6.60581L51.7199 9.74886H55.5533L55.3513 10.8767H49.9309L50.1202 9.80302L54.0906 5.90414C54.4666 5.54862 54.8054 5.14955 55.1009 4.71409C55.3137 4.3919 55.4617 4.02501 55.5353 3.63712C55.5556 3.52071 55.5665 3.4026 55.5678 3.28414C55.575 3.10273 55.5455 2.92181 55.4812 2.75406C55.4169 2.58632 55.3195 2.43581 55.1958 2.3131C54.9175 2.05896 54.5602 1.92886 54.1965 1.9492C53.3215 1.9492 52.6402 2.45071 52.1526 3.45374L51.2253 2.97867C51.508 2.33618 51.9499 1.79104 52.5018 1.40382C53.0667 1.00989 53.7269 0.805885 54.399 0.817591C55.0281 0.784021 55.647 1.00009 56.1393 1.4252C56.3551 1.62464 56.5263 1.87443 56.64 2.15577C56.7537 2.43711 56.8068 2.74267 56.7955 3.04946C56.7962 3.24391 56.7787 3.43794 56.7433 3.62857C56.6478 4.15528 56.4534 4.65522 56.1722 5.09747C55.8043 5.64953 55.38 6.15488 54.9072 6.60391L54.9067 6.60581ZM58.1458 5.93502C58.2653 5.24536 58.4502 4.57084 58.6975 3.92216C58.9164 3.34572 59.2041 2.80271 59.5532 2.30693C59.8667 1.85838 60.2638 1.48611 60.7189 1.21427C61.1572 0.954545 61.6494 0.819672 62.1491 0.822342C62.4885 0.798576 62.8279 0.867635 63.136 1.02315C63.4442 1.17866 63.7112 1.41561 63.9123 1.71214C64.3367 2.43106 64.5422 3.27567 64.5 4.12739C64.4962 4.73485 64.4373 5.34044 64.3243 5.93549C64.2047 6.62556 64.0186 7.30019 63.7691 7.94835C63.5483 8.52447 63.2597 9.06737 62.9104 9.56358C62.5969 10.0121 62.1997 10.3844 61.7446 10.6562C61.3063 10.916 60.8141 11.0508 60.3144 11.0482C59.9758 11.0721 59.637 11.0035 59.3294 10.8486C59.0218 10.6936 58.7552 10.4574 58.5543 10.1617C58.1322 9.4457 57.9278 8.60484 57.9696 7.7569C57.9732 7.14403 58.0323 6.53302 58.1462 5.93264L58.1458 5.93502ZM59.3537 5.93502C59.2429 6.50895 59.1841 7.09319 59.178 7.67947C59.1492 8.23699 59.2645 8.79217 59.511 9.28282C59.6175 9.46827 59.7684 9.61915 59.9478 9.71949C60.1271 9.81984 60.3281 9.86593 60.5296 9.8529C60.8588 9.84142 61.1795 9.73776 61.4605 9.55207C61.7416 9.36638 61.9732 9.10501 62.1329 8.7935C62.63 7.91858 62.9638 6.94683 63.1155 5.93312C63.2265 5.36162 63.2853 4.77973 63.2912 4.1958C63.3205 3.63596 63.2052 3.07835 62.9583 2.58532C62.8507 2.39926 62.6986 2.24807 62.5182 2.14773C62.3377 2.04739 62.1355 2.00161 61.933 2.01524C61.6043 2.02658 61.284 2.13021 61.0035 2.31595C60.723 2.50169 60.4921 2.76315 60.3333 3.07464C59.8386 3.94962 59.5061 4.92032 59.3542 5.93264L59.3537 5.93502ZM67.1053 0.990991H72.7018L72.4993 2.09267L67.5173 10.8767H66.1591L71.1354 2.14018H66.897L67.1053 0.990991ZM77.1949 6.79441H73.4859L73.7015 5.57967H77.4106L77.1949 6.79441ZM83.4323 6.60439L80.2455 9.74743H84.0789L83.8755 10.8767H78.4556L78.6449 9.80302L82.6153 5.90414C82.9913 5.54862 83.3301 5.14955 83.6256 4.71409C83.8384 4.3919 83.9864 4.02501 84.06 3.63712C84.0803 3.52071 84.0912 3.4026 84.0925 3.28414C84.0997 3.10273 84.0702 2.92181 84.0059 2.75406C83.9416 2.58632 83.8442 2.43581 83.7205 2.3131C83.4422 2.05896 83.0849 1.92886 82.7212 1.9492C81.8462 1.9492 81.1649 2.45071 80.6773 3.45374L79.7501 2.97867C80.0327 2.33618 80.4746 1.79104 81.0265 1.40382C81.5914 1.00989 82.2516 0.805885 82.9237 0.817591C83.5528 0.784021 84.1717 1.00009 84.664 1.4252C84.8798 1.62464 85.051 1.87443 85.1647 2.15577C85.2784 2.43711 85.3315 2.74267 85.3202 3.04946C85.3209 3.24391 85.3034 3.43794 85.268 3.62857C85.1725 4.15528 84.9781 4.65522 84.6969 5.09747C84.3289 5.64956 83.9044 6.15491 83.4314 6.60391L83.4323 6.60439ZM88.5905 11.0463C88.0494 11.0602 87.5149 10.9163 87.043 10.6296C86.6068 10.356 86.2617 9.94034 86.0569 9.44197L87.0562 8.67901C87.1866 9.04924 87.4199 9.36671 87.7238 9.58787C88.0278 9.80902 88.3876 9.92301 88.7539 9.91418C89.317 9.91855 89.8631 9.70508 90.2935 9.31227C90.731 8.93693 91.0299 8.40456 91.1359 7.81153C91.161 7.67189 91.1741 7.53003 91.175 7.38777C91.1823 7.16237 91.1453 6.93787 91.0665 6.72906C90.9876 6.52025 90.8688 6.33188 90.7178 6.17635C90.3884 5.85313 89.9541 5.68419 89.5098 5.70651C89.194 5.70609 88.8819 5.78086 88.5957 5.92552C88.3212 6.05738 88.0762 6.25185 87.8776 6.4956L87.0483 6.38253L88.5698 0.986715H93.2325L93.0234 2.1378H89.4316L88.5826 5.06897C88.9933 4.75076 89.4879 4.58417 89.993 4.5939C90.6303 4.56865 91.2518 4.81166 91.7267 5.27182C91.9548 5.50326 92.1339 5.78532 92.2517 6.09864C92.3696 6.41197 92.4233 6.74915 92.4093 7.08706C92.4112 7.31933 92.3915 7.55122 92.3505 7.77923C92.1986 8.70737 91.7388 9.54367 91.0573 10.1313C90.3607 10.7418 89.4869 11.0659 88.5905 11.0463V11.0463ZM97.9615 6.79441H94.2525L94.4681 5.57967H98.1772L97.9615 6.79441ZM103.623 0.988616H104.733L102.957 10.8767H101.749L103.284 2.30265L101.371 3.3269L101.038 2.35918L103.623 0.988616ZM109.357 11.0463C108.816 11.0602 108.281 10.9163 107.81 10.6296C107.373 10.356 107.028 9.94034 106.823 9.44197L107.823 8.67901C107.953 9.04924 108.186 9.36671 108.49 9.58787C108.794 9.80902 109.154 9.92301 109.52 9.91418C110.084 9.91848 110.631 9.70429 111.062 9.31037C111.499 8.93558 111.798 8.40394 111.905 7.81153C111.93 7.67189 111.943 7.53003 111.944 7.38777C111.951 7.16237 111.914 6.93787 111.835 6.72906C111.756 6.52025 111.638 6.33188 111.487 6.17635C111.157 5.85313 110.723 5.68419 110.279 5.70651C109.963 5.70609 109.651 5.78086 109.365 5.92552C109.09 6.05738 108.845 6.25185 108.646 6.4956L107.817 6.38253L109.339 0.986715H114L113.791 2.1378H110.199L109.35 5.06897C109.761 4.75076 110.255 4.58417 110.76 4.5939C111.398 4.56865 112.019 4.81166 112.494 5.27182C112.723 5.50351 112.903 5.78611 113.021 6.10014C113.139 6.41417 113.193 6.75218 113.179 7.09086C113.18 7.32313 113.161 7.55502 113.12 7.78303C112.968 8.71117 112.508 9.54747 111.827 10.1351C111.129 10.7449 110.254 11.0677 109.357 11.0463V11.0463ZM0 26.4076L0.933854 25.5049C1.17746 25.8913 1.49486 26.2166 1.86463 26.4589C2.23311 26.7026 2.65736 26.8298 3.08927 26.8261C3.63352 26.8429 4.1704 26.687 4.63369 26.3776C4.83236 26.2504 5.00398 26.0793 5.13735 25.8755C5.27071 25.6716 5.36282 25.4397 5.40765 25.1947C5.42716 25.09 5.43804 24.9837 5.44016 24.8769C5.44016 24.1 4.81979 23.5656 3.57904 23.2736C2.92867 23.1575 2.31817 22.8578 1.80929 22.4047C1.61848 22.2229 1.46635 21.9986 1.36338 21.7471C1.26041 21.4957 1.20903 21.2231 1.21278 20.9481C1.21207 20.7797 1.22679 20.6117 1.25671 20.4464C1.3907 19.6644 1.80356 18.9706 2.40623 18.5148C3.05384 18.011 3.83574 17.7495 4.63325 17.7699C5.13549 17.7388 5.63741 17.8365 6.09814 18.0549C6.55888 18.2734 6.96539 18.6064 7.28459 19.0269L6.37709 19.9804C6.15398 19.6644 5.86784 19.407 5.53997 19.2273C5.21211 19.0476 4.85097 18.9502 4.48346 18.9424C4.02128 18.9293 3.56618 19.0672 3.17756 19.3381C3.00901 19.4496 2.86352 19.5974 2.75015 19.7724C2.63679 19.9474 2.55799 20.1458 2.51868 20.3552C2.501 20.4482 2.49232 20.5429 2.49277 20.6379C2.49277 21.3536 3.09132 21.8669 4.28844 22.1776C4.96537 22.3086 5.60012 22.6245 6.13242 23.0954C6.32115 23.2838 6.4706 23.5135 6.5708 23.7692C6.67101 24.025 6.71967 24.3009 6.71356 24.5786C6.71249 24.7827 6.69277 24.9862 6.6547 25.1862C6.58313 25.596 6.43721 25.9864 6.22536 26.3349C6.0135 26.6834 5.73992 26.9831 5.42039 27.2166C4.69074 27.7548 3.82177 28.0281 2.93905 27.9971C2.33899 28.0049 1.74583 27.8583 1.20839 27.5696C0.713465 27.3114 0.294975 26.909 0 26.4076V26.4076ZM16.1694 17.9395L15.0133 24.3738C14.893 25.0648 14.6246 25.7156 14.2296 26.2741C13.8574 26.8068 13.3757 27.2386 12.8226 27.5354C12.2695 27.8322 11.6602 27.9859 11.0428 27.9843C10.3138 28.0208 9.60032 27.748 9.05434 27.2242C8.80134 26.9626 8.60312 26.6453 8.47303 26.2938C8.34293 25.9424 8.28398 25.5648 8.30014 25.1866C8.3014 24.9137 8.32759 24.6416 8.37833 24.3743L9.53401 17.94H10.7622L9.57354 24.522C9.54362 24.6873 9.52891 24.8553 9.52961 25.0237C9.51951 25.2642 9.55646 25.5043 9.63806 25.7283C9.71966 25.9523 9.84406 26.1551 10.0031 26.3235C10.3439 26.6587 10.7936 26.834 11.2537 26.8109C11.8431 26.8145 12.414 26.5883 12.8618 26.1738C13.3313 25.7552 13.6474 25.1692 13.753 24.5211L14.9417 17.9385L16.1694 17.9395ZM18.8075 17.9395L20.1446 26.1534L24.4353 17.9395H25.753L20.5316 27.8271H19.1603L17.4885 17.9395H18.8075ZM32.0835 27.8271H30.7447L30.3529 25.2774H26.4611L25.1548 27.8271H23.8163L29.0404 17.9395H30.4117L32.0835 27.8271ZM27.029 24.1263H30.1917L29.4568 19.4084L27.029 24.1263ZM36.6166 24.0983H35.3867L34.7208 27.8276H33.494L35.2703 17.9395H38.1892C38.8897 17.8931 39.5824 18.1198 40.1417 18.5785C40.3739 18.7942 40.5576 19.0644 40.6787 19.3685C40.7998 19.6726 40.8551 20.0026 40.8405 20.3334C40.8401 20.5635 40.8181 20.793 40.7751 21.0184C40.6504 21.7709 40.3113 22.4624 39.8052 22.9961C39.288 23.5314 38.6339 23.8858 37.9278 24.0132L39.7235 27.8271H38.3658L36.6166 24.0983ZM39.5293 21.0189C39.5549 20.8699 39.568 20.7187 39.5684 20.5671C39.5781 20.3638 39.5452 20.1607 39.4723 19.973C39.3993 19.7853 39.2882 19.6178 39.1472 19.483C38.8 19.1982 38.3692 19.0588 37.9344 19.0906H36.289L35.5967 22.9467H37.2421C37.7895 22.9683 38.327 22.7849 38.7637 22.4275C39.1713 22.0768 39.4437 21.5747 39.528 21.0189H39.5293ZM41.1673 26.4076L42.1012 25.5049C42.3441 25.891 42.6608 26.2163 43.0297 26.4589C43.3982 26.7026 43.8225 26.8298 44.2544 26.8261C44.7986 26.8429 45.3355 26.687 45.7988 26.3776C45.9975 26.2504 46.1691 26.0793 46.3025 25.8755C46.4358 25.6716 46.5279 25.4397 46.5728 25.1947C46.5923 25.09 46.6032 24.9837 46.6053 24.8769C46.6053 24.1 45.9849 23.5656 44.7442 23.2736C44.0938 23.1575 43.4833 22.8578 42.9744 22.4047C42.7843 22.2225 42.6329 21.998 42.5306 21.7466C42.4284 21.4951 42.3776 21.2227 42.3818 20.9481C42.3811 20.7797 42.3959 20.6117 42.4258 20.4464C42.5598 19.6644 42.9726 18.9706 43.5753 18.5148C44.2229 18.011 45.0048 17.7495 45.8023 17.7699C46.3046 17.7388 46.8065 17.8365 47.2672 18.0549C47.7279 18.2734 48.1345 18.6064 48.4537 19.0269L47.5462 19.9804C47.3231 19.6644 47.0369 19.407 46.709 19.2273C46.3812 19.0476 46.02 18.9502 45.6525 18.9424C45.1903 18.9293 44.7352 19.0672 44.3466 19.3381C44.1781 19.4496 44.0326 19.5974 43.9192 19.7724C43.8059 19.9474 43.7271 20.1458 43.6878 20.3552C43.6701 20.4482 43.6614 20.5429 43.6618 20.6379C43.6618 21.3536 44.2604 21.8669 45.4575 22.1776C46.1336 22.3092 46.7674 22.6253 47.2989 23.0959C47.4876 23.2843 47.637 23.514 47.7372 23.7697C47.8374 24.0255 47.8861 24.3014 47.88 24.579C47.8789 24.7832 47.8592 24.9867 47.8211 25.1866C47.7496 25.5965 47.6036 25.9869 47.3918 26.3354C47.1799 26.6839 46.9063 26.9836 46.5868 27.2171C45.8572 27.7553 44.9882 28.0286 44.1055 27.9976C43.5054 28.0053 42.9123 27.8588 42.3748 27.5701C41.8802 27.3116 41.462 26.909 41.1673 26.4076V26.4076ZM50.6231 27.8271L52.1904 19.0906H49.6238L49.8329 17.9395H56.1933L55.9842 19.0906H53.4181L51.8508 27.8271H50.6231ZM59.0405 24.0978H57.8128L57.1469 27.8271H55.9192L57.6956 17.939H60.6144C61.3149 17.8926 62.0077 18.1193 62.5669 18.578C62.7991 18.7937 62.9828 19.0639 63.1039 19.3681C63.225 19.6722 63.2804 20.0021 63.2657 20.3329C63.2653 20.563 63.2434 20.7925 63.2003 21.0179C63.0756 21.7704 62.7365 22.4619 62.2304 22.9956C61.7133 23.5309 61.0591 23.8853 60.353 24.0128L62.1487 27.8266H60.7905L59.0405 24.0978ZM61.9532 21.0184C61.9788 20.8694 61.9919 20.7182 61.9923 20.5666C62.002 20.3633 61.9691 20.1602 61.8962 19.9725C61.8232 19.7849 61.7121 19.6174 61.5711 19.4825C61.2242 19.1982 60.7939 19.059 60.3596 19.0906H58.7142L58.0219 22.9467H59.6674C60.2147 22.9683 60.7522 22.7849 61.1889 22.4275C61.5965 22.0768 61.8689 21.5747 61.9532 21.0189V21.0184ZM68.1028 26.8242C69.1115 26.8177 70.0829 26.4106 70.8323 25.6802C71.6308 24.9698 72.1757 23.981 72.3737 22.8835C72.4197 22.6227 72.4438 22.358 72.4457 22.0925C72.4622 21.6729 72.3978 21.2541 72.2564 20.8629C72.1151 20.4717 71.9 20.1166 71.6248 19.8203C71.3496 19.524 71.0203 19.2928 70.658 19.1417C70.2957 18.9905 69.9082 18.9227 69.5203 18.9424C68.5115 18.9489 67.5401 19.356 66.7907 20.0863C65.9926 20.7959 65.4496 21.7855 65.256 22.883C65.2073 23.1458 65.1831 23.4132 65.184 23.6812C65.1683 24.0996 65.2332 24.517 65.3745 24.9069C65.5158 25.2969 65.7305 25.6508 66.0049 25.9463C66.2793 26.2418 66.6075 26.4724 66.9686 26.6235C67.3297 26.7746 67.716 26.843 68.1028 26.8242V26.8242ZM69.728 17.7699C70.2826 17.7637 70.8335 17.8679 71.3533 18.0773C71.823 18.2641 72.252 18.5537 72.6135 18.9281C72.962 19.2981 73.2365 19.7417 73.42 20.2312C73.6165 20.7524 73.7153 21.3107 73.7107 21.8735C73.7116 22.2127 73.681 22.551 73.6194 22.8835C73.4494 23.8302 73.0721 24.719 72.5191 25.4755C71.964 26.2494 71.2569 26.8803 70.4489 27.3226C69.6589 27.7653 68.7822 27.9967 67.8924 27.9971C67.3378 28.0033 66.7869 27.8991 66.2672 27.6898C65.798 27.5033 65.3691 27.2148 65.0069 26.8423C64.6582 26.4744 64.3845 26.0316 64.2035 25.5425C64.0092 25.0207 63.9116 24.4627 63.9163 23.9002C63.9156 23.5587 63.9462 23.218 64.0076 22.883C64.1781 21.9358 64.5545 21.046 65.1058 20.2873C65.6578 19.5117 66.3642 18.8805 67.1725 18.4402C67.9638 17.9995 68.841 17.7697 69.7311 17.7699H69.728ZM76.2843 17.9395H77.5121L75.7388 27.8271H74.5111L76.2843 17.9395ZM79.9543 27.8276L81.5216 19.0911H78.955L79.1641 17.94H85.5245L85.3154 19.0911H82.7488L81.1816 27.8276H79.9543ZM84.5941 27.0765C84.6442 26.8337 84.7698 26.6168 84.9499 26.4622C85.1222 26.31 85.3381 26.2275 85.5605 26.2289C85.7411 26.221 85.9172 26.2909 86.0503 26.4233C86.113 26.4882 86.1623 26.5668 86.1949 26.6538C86.2276 26.7409 86.2428 26.8344 86.2396 26.9282C86.2392 26.9922 86.2326 27.0559 86.2198 27.1183C86.1718 27.3628 86.0478 27.5821 85.8684 27.7397C85.6962 27.9039 85.4743 27.9943 85.2447 27.9938C85.0641 28.0017 84.8879 27.9319 84.7549 27.7995C84.6922 27.7346 84.6429 27.656 84.6102 27.569C84.5776 27.4819 84.5624 27.3884 84.5656 27.2945C84.5668 27.2209 84.5764 27.1476 84.5941 27.0765V27.0765ZM91.4377 24.0959H90.21L89.5441 27.8252H88.3168L90.0932 17.9371H93.012C93.7125 17.8907 94.4053 18.1174 94.9645 18.5761C95.1967 18.7918 95.3804 19.062 95.5015 19.3661C95.6226 19.6703 95.678 20.0002 95.6633 20.331C95.6629 20.5611 95.641 20.7906 95.5979 21.016C95.4732 21.7685 95.1341 22.46 94.628 22.9937C94.1109 23.529 93.4567 23.8834 92.7506 24.0109L94.5463 27.8247H93.1881L91.4377 24.0959ZM94.3504 21.0165C94.376 20.8675 94.389 20.7163 94.3895 20.5647C94.3991 20.3614 94.3663 20.1583 94.2933 19.9706C94.2204 19.783 94.1093 19.6155 93.9683 19.4806C93.6213 19.1963 93.1911 19.0571 92.7568 19.0887H91.1113L90.4191 22.9448H92.0645C92.6119 22.9664 93.1494 22.783 93.5861 22.4256C93.9933 22.0754 94.2657 21.574 94.3504 21.0189V21.0165ZM104.479 17.9371L103.323 24.3714C103.203 25.0624 102.935 25.7132 102.54 26.2717C102.168 26.8044 101.686 27.2362 101.133 27.533C100.58 27.8299 99.9705 27.9835 99.3531 27.9819C98.624 28.0184 97.9106 27.7457 97.3646 27.2218C97.1116 26.9602 96.9133 26.643 96.7832 26.2915C96.6531 25.94 96.5942 25.5625 96.6104 25.1843C96.6116 24.9114 96.6378 24.6393 96.6886 24.3719L97.8442 17.9376H99.0719L97.8833 24.5201C97.8534 24.6854 97.8387 24.8534 97.8394 25.0218C97.8293 25.2623 97.8663 25.5024 97.9479 25.7264C98.0295 25.9504 98.1539 26.1532 98.3129 26.3216C98.653 26.6568 99.102 26.8326 99.5617 26.8104C100.152 26.8148 100.723 26.5892 101.172 26.1748C101.641 25.7562 101.957 25.1701 102.063 24.522L103.251 17.9395L104.479 17.9371Z" fill="black"/>
</svg>
