<svg width="132" height="15" viewBox="0 0 132 15" fill="none" xmlns="http://www.w3.org/2000/svg">
<path d="M5.3534 12.748C3.92949 12.8108 2.5391 12.2936 1.48519 11.3092C0.997635 10.8383 0.613277 10.2664 0.357635 9.63145C0.101993 8.99649 -0.0190846 8.31299 0.00244022 7.62634C0.00158619 7.2067 0.0417985 6.78803 0.122472 6.37663C0.34622 5.19555 0.844994 4.0875 1.57627 3.14694C2.31638 2.17812 3.25865 1.39176 4.33383 0.845657C5.39706 0.292451 6.57252 0.00451848 7.76464 0.00527171C9.17879 -0.0450819 10.5575 0.465386 11.6145 1.43067L10.0364 3.28749C9.65987 2.9581 9.24044 2.68415 8.7902 2.47354C8.3362 2.27593 7.84679 2.17843 7.3537 2.18738C6.61732 2.18845 5.89256 2.37582 5.24361 2.7329C4.56706 3.09738 3.97881 3.61294 3.52221 4.24161C3.05622 4.87108 2.73517 5.60062 2.58313 6.37554C2.52594 6.6627 2.49719 6.95507 2.49734 7.24817C2.48128 7.68929 2.55367 8.12911 2.71004 8.54035C2.86642 8.9516 3.10343 9.32551 3.40641 9.63892C3.71755 9.94984 4.08713 10.1925 4.49263 10.3521C4.89813 10.5117 5.33106 10.585 5.76504 10.5673C6.92736 10.53 8.04789 10.1138 8.96425 9.3792L9.90756 11.2186C8.58645 12.212 6.99127 12.7477 5.3534 12.748V12.748ZM13.6046 12.5368L15.5258 2.37248H12.4381L12.8501 0.216093H21.461L21.049 2.37248H17.9614L16.0401 12.5368H13.6046ZM25.5693 0.216093H28.2626L30.2265 12.5368H27.6448L27.2759 9.76461H22.936L21.521 12.5368H18.9393L25.5693 0.216093ZM27.0358 7.72269L26.4099 2.88287L23.9481 7.72306L27.0358 7.72269ZM36.8735 8.24178H35.0638L34.2575 12.5368H31.8215L34.1544 0.216093H38.4C39.3329 0.159838 40.2529 0.460855 40.9818 1.06083C41.2926 1.34583 41.5377 1.69819 41.6994 2.09239C41.861 2.48659 41.9352 2.91275 41.9166 3.34001C41.9167 3.6385 41.8879 3.93626 41.8308 4.22894C41.6325 5.37962 41.0279 6.41501 40.1327 7.13732C39.2042 7.88257 38.0519 8.27316 36.8735 8.24214V8.24178ZM39.3952 4.22894C39.429 4.06994 39.4463 3.90772 39.4468 3.74499C39.4571 3.5448 39.4248 3.3447 39.3523 3.15856C39.2797 2.97242 39.1686 2.80469 39.0266 2.66698C38.6831 2.38397 38.2482 2.24416 37.8087 2.2754H36.1964L35.4585 6.18283H37.0708C37.6302 6.2049 38.1784 6.01889 38.6147 5.65904C39.0309 5.2917 39.3073 4.78535 39.3952 4.2293V4.22894ZM44.3614 12.5368L46.2826 2.37248H43.1949L43.6066 0.216455H52.2178L51.8062 2.37248H48.7185L46.797 12.5368H44.3614ZM68.2308 0.216093L65.898 12.5368H63.462L65.3818 2.37248H61.1976L59.2764 12.5368H56.8405L59.1733 0.216093H68.2308ZM73.5744 8.24214H71.7647L70.9598 12.5368H68.5238L70.8539 0.216093H75.1009C76.0337 0.159838 76.9537 0.460855 77.6826 1.06083C77.9934 1.34583 78.2385 1.69819 78.4002 2.09239C78.5619 2.48659 78.6361 2.91275 78.6175 3.34001C78.6176 3.6385 78.5888 3.93626 78.5317 4.22894C78.3334 5.37962 77.7288 6.41501 76.8336 7.13732C75.9051 7.88257 74.7528 8.27316 73.5744 8.24214ZM76.0961 4.2293C76.1299 4.0703 76.1472 3.90808 76.1476 3.74535C76.1579 3.54516 76.1257 3.34506 76.0532 3.15892C75.9806 2.97278 75.8695 2.80505 75.7275 2.66734C75.384 2.38433 74.9491 2.24452 74.5096 2.27576H72.8972L72.1601 6.18283H73.7724C74.3317 6.2049 74.88 6.01889 75.3162 5.65904C75.7321 5.29153 76.0081 4.7852 76.0957 4.2293H76.0961ZM81.7913 6.37663C81.7342 6.66332 81.7054 6.95519 81.7055 7.2478C81.6894 7.68893 81.7618 8.12875 81.9182 8.53999C82.0746 8.95123 82.3116 9.32515 82.6145 9.63856C82.9257 9.94948 83.2953 10.1921 83.7008 10.3518C84.1063 10.5114 84.5392 10.5846 84.9732 10.567C86.1021 10.564 87.1904 10.1349 88.0308 9.36145C88.923 8.60233 89.5283 7.54694 89.742 6.37808C89.8019 6.09462 89.8335 5.80563 89.8362 5.51559C89.8521 5.07353 89.7796 4.63282 89.6232 4.22059C89.4668 3.80837 89.2298 3.43337 88.9268 3.11868C88.6149 2.80604 88.2441 2.56204 87.8371 2.40165C87.4301 2.24125 86.9954 2.16785 86.5597 2.18593C85.4308 2.18894 84.3425 2.61804 83.5021 3.39145C82.6095 4.15103 82.0042 5.20711 81.7909 6.37663H81.7913ZM79.3296 6.37663C79.5533 5.19555 80.0521 4.0875 80.7834 3.14694C81.5235 2.17812 82.4657 1.39176 83.5409 0.845657C84.6041 0.292451 85.7796 0.00451848 86.9717 0.00527171C88.3983 -0.0585152 89.7917 0.458626 90.8484 1.44407C91.3366 1.91636 91.7213 2.48981 91.9769 3.12633C92.2325 3.76286 92.3533 4.4479 92.3311 5.13597C92.3284 5.55255 92.2882 5.96798 92.2111 6.37699C91.987 7.55876 91.4867 8.66705 90.7531 9.60668C90.0107 10.575 89.0672 11.3612 87.9913 11.908C86.9281 12.4612 85.7526 12.7491 84.5605 12.7483C83.1368 12.8109 81.7467 12.2936 80.693 11.3092C80.2054 10.8383 79.8211 10.2664 79.5654 9.63144C79.3098 8.99648 79.1887 8.31299 79.2102 7.62634C79.209 7.20673 79.2489 6.78806 79.3292 6.37663H79.3296ZM102.667 10.4699L101.809 15H99.4166L99.8882 12.5368H94.0561L93.5844 15H91.1916L92.0491 10.4677H92.9317C94.3153 8.21485 95.3303 5.37819 95.9766 1.95772L96.3113 0.215369H103.559L101.612 10.4666L102.667 10.4699ZM95.4541 10.4699H99.2192L100.773 2.28554H98.2766C97.9942 3.7531 97.6117 5.19848 97.1317 6.61099C96.6901 7.94751 96.1284 9.239 95.4538 10.4688L95.4541 10.4699ZM109.666 0.218629H112.359L114.323 12.5368H111.741L111.372 9.76461H107.033L105.618 12.5368H103.036L109.666 0.218629ZM111.132 7.72523L110.506 2.88504L108.044 7.72523H111.132ZM117.471 0.218629H120.147L122.06 5.24356H122.565L123.519 0.218629H125.955L125.001 5.24356H125.507L129.324 0.218629H132L127.343 6.2886L130.328 12.5368H127.6L125.173 7.39741H124.59L123.62 12.5368H121.184L122.153 7.39741H121.57L117.205 12.5368H114.477L119.829 6.2886L117.471 0.218629Z" fill="#1D1D1B"/>
</svg>
