<svg width="171" height="14" viewBox="0 0 171 14" fill="none" xmlns="http://www.w3.org/2000/svg">
<path fill-rule="evenodd" clip-rule="evenodd" d="M167.926 9.05988C168.417 9.04521 168.902 9.17758 169.318 9.44003C169.734 9.70248 170.062 10.0831 170.26 10.5331C170.458 10.9831 170.518 11.4821 170.431 11.9661C170.344 12.4501 170.115 12.8972 169.772 13.2501C169.43 13.6029 168.99 13.8456 168.509 13.9469C168.027 14.0482 167.527 14.0037 167.071 13.8189C166.616 13.6341 166.225 13.3175 165.951 12.9096C165.676 12.5018 165.529 12.0212 165.529 11.5294C165.52 10.8841 165.767 10.2615 166.216 9.79835C166.666 9.33525 167.281 9.06962 167.926 9.05988" fill="#E31D13"/>
<path d="M154.485 13.7701H158.266L160.316 3.28911H164.097L164.705 0.235662H153.352L152.75 3.28911H156.53L154.485 13.7701ZM137.229 13.7701H140.933L146.747 6.38062L145.305 13.7701H148.986L151.639 0.235662H147.936L142.126 7.60324L143.569 0.235662H139.882L137.229 13.7701ZM129.001 10.9084C127.619 10.9084 126.84 9.93796 126.84 8.31573C126.84 5.16385 128.63 3.09735 130.543 3.09735C131.93 3.09735 132.726 4.08541 132.726 5.72301C132.725 8.87453 130.872 10.9084 128.999 10.9084H129.001ZM128.398 13.9999C132.942 13.9999 136.59 10.3277 136.59 5.26229C136.59 2.07235 134.655 0 131.145 0C126.585 0 122.959 3.69604 122.959 8.78268C122.958 11.9499 124.909 13.9999 128.396 13.9999H128.398ZM118.372 4.81839C118.14 6.01357 117.36 6.50174 116.094 6.50174H114.885L115.525 3.13504H116.736C117.808 3.13504 118.433 3.4805 118.433 4.32986C118.433 4.49469 118.412 4.65885 118.37 4.81839H118.372ZM122.197 4.81839C122.271 4.46855 122.309 4.11235 122.313 3.75495C122.313 1.37631 120.4 0.235662 117.438 0.235662H112.329L109.676 13.7701H113.456L114.296 9.40112H115.624C119.017 9.40112 121.593 7.91136 122.195 4.81839H122.197ZM100.396 13.7701H104.176L106.227 3.28911H110.008L110.616 0.235662H99.263L98.6605 3.28911H102.441L100.396 13.7701ZM92.4201 0C87.4676 0 84.1349 4.04552 84.1349 8.79804C84.1349 12.0703 86.2185 13.9999 89.673 13.9999C90.9777 14.0008 92.2649 13.703 93.4345 13.1297C94.6041 12.5564 95.6245 11.7231 96.4163 10.6947L93.5312 9.2423C93.1968 9.74196 92.7459 10.1543 92.2167 10.4443C91.6875 10.7344 91.0955 10.8936 90.4911 10.9084C89.0487 10.9084 88.0314 9.99835 88.0314 8.23888C88.0314 5.12543 89.9439 3.09735 92.0334 3.09735C92.5604 3.06803 93.0818 3.21613 93.5133 3.51764C93.9447 3.81915 94.2607 4.25637 94.4101 4.75838L97.8808 3.30558C97.0797 1.17797 94.9957 0 92.4201 0ZM79.5458 4.81839C79.3137 6.01357 78.534 6.50174 77.2684 6.50174H76.0581L76.6994 3.13504H77.9097C78.9819 3.13504 79.607 3.4805 79.607 4.32986C79.6076 4.49462 79.587 4.65878 79.5458 4.81839ZM83.3703 4.81839C83.4441 4.46855 83.483 4.11235 83.4866 3.75495C83.4866 1.37631 81.5741 0.235662 78.6118 0.235662H73.5058L70.8531 13.7701H74.6334L75.4736 9.40112H76.802C80.1941 9.40112 82.7696 7.91136 83.3718 4.81839H83.3703ZM64.1634 3.69494L64.6113 8.45222H61.8439L64.1634 3.69494ZM62.4059 0.235662L55.2553 13.7701H59.268L60.3403 11.528H64.8836L65.1213 13.7701H69.134L67.2824 0.235662H62.4059ZM51.8004 4.29217C51.6296 5.14738 51.082 5.45441 49.971 5.45441H48.6245L49.0721 3.15189H50.4208C51.3768 3.15189 51.841 3.34949 51.841 3.96318C51.8375 4.07383 51.8239 4.18394 51.8004 4.29217ZM51.237 9.55481C51.0433 10.5194 50.4189 10.87 49.1917 10.87H47.5726L48.0807 8.26084H49.6946C50.7669 8.26084 51.2754 8.52944 51.2754 9.20388C51.2738 9.3218 51.261 9.43931 51.237 9.55481V9.55481ZM43.2226 13.7701H48.8378C52.779 13.7701 54.5534 12.1475 55.0173 9.76816C55.0567 9.55667 55.0771 9.3421 55.0781 9.12702C55.0871 8.56094 54.9006 8.00885 54.5498 7.56225C54.1989 7.11566 53.7047 6.80138 53.1491 6.67154C53.8812 6.39925 54.5085 5.90546 54.9421 5.26007C55.3756 4.61467 55.5935 3.85038 55.5648 3.0754C55.5648 1.26104 54.183 0.235662 51.1761 0.235662H45.8752L43.2226 13.7701ZM31.6758 0.235662L34.3292 9.57129L31.6356 13.7701H35.4993L44.2336 0.235662H40.3758L36.8273 5.66811L35.5395 0.235662H31.6758ZM24.7562 0C19.8036 0 16.4705 4.04552 16.4705 8.79804C16.4705 12.0703 18.5542 13.9999 22.0091 13.9999C23.3137 14.0007 24.6009 13.7029 25.7705 13.1296C26.9401 12.5563 27.9605 11.7231 28.7523 10.6947L25.8668 9.2423C25.5325 9.74191 25.0817 10.1542 24.5525 10.4443C24.0234 10.7343 23.4315 10.8935 22.8271 10.9084C21.3844 10.9084 20.3671 9.99835 20.3671 8.23888C20.3671 5.12543 22.2795 3.09735 24.3691 3.09735C24.896 3.06803 25.4175 3.21613 25.8489 3.51764C26.2803 3.81915 26.5964 4.25637 26.7458 4.75838L30.2168 3.30558C29.4154 1.17797 27.3317 0 24.7562 0Z" fill="#1D1D1B"/>
<path d="M9.55881 6.01648L8.4741 8.78607H6.0734L7.15281 6.01648H9.55881ZM8.09383 3.58818L9.17247 0.823578H5.95246L4.86774 3.58818H2.44126L1.94308 6.01648H3.92521L2.8458 8.78607H0.500082L0 11.214H1.90289L0.841305 14H4.06701L5.12859 11.214H7.53081L6.46922 14H9.69492L10.7565 11.214H13.183L13.6827 8.78607H11.6998L12.7788 6.01648H15.1473L15.647 3.58818H13.7217L14.8065 0.823578H11.5804L10.4957 3.58818H8.09383Z" fill="#E31D13"/>
</svg>
