<svg width="203" height="80" viewBox="0 0 203 80" fill="none" xmlns="http://www.w3.org/2000/svg">
<path d="M7.80408 0L6.40577 7.30629H7.41426L13.2502 0H17.1944L10.0984 8.82957L14.7379 17.915H10.7162L6.90896 10.4418H5.79933L4.37489 17.915H0.792714L4.22359 0H7.80408ZM23.9281 17.915H16.4144L19.8436 0H26.4874C27.8922 0 28.9764 0.330523 29.74 0.991568C30.1226 1.32909 30.4246 1.75038 30.6233 2.22367C30.822 2.69696 30.9123 3.20988 30.8872 3.72373C30.8844 4.10181 30.8464 4.47878 30.7738 4.84961C30.6266 5.65658 30.282 6.41306 29.7717 7.04963C29.2909 7.64939 28.6686 8.11601 27.9624 8.40608C28.6483 8.59122 29.2524 9.00605 29.6768 9.5833C30.1185 10.2043 30.3447 10.9566 30.3199 11.7221C30.3163 12.0487 30.2826 12.3742 30.2192 12.6945C29.9553 14.1718 29.185 15.5068 28.0446 16.4631C26.8893 17.4342 25.4277 17.9497 23.9281 17.915ZM27.2435 5.13151C27.2777 4.94589 27.2947 4.75741 27.2941 4.56857C27.3089 4.35354 27.2771 4.13783 27.2008 3.93664C27.1246 3.73546 27.0058 3.5537 26.8528 3.40418C26.5081 3.12247 26.0724 2.9811 25.6307 3.00764H22.7809L21.9739 7.24255H24.8224C25.3933 7.25458 25.9498 7.05953 26.3918 6.69244C26.8517 6.29325 27.1539 5.73899 27.2435 5.13151ZM26.664 12.5276C26.703 12.3209 26.7241 12.111 26.7272 11.9005C26.7397 11.6643 26.7049 11.4279 26.6247 11.2058C26.5445 10.9836 26.4206 10.7803 26.2607 10.6082C26.0912 10.4459 25.8909 10.3202 25.672 10.2388C25.4532 10.1574 25.2203 10.122 24.9876 10.1347H21.4193L20.4993 14.9077H24.0671C24.6876 14.9149 25.2874 14.6814 25.744 14.255C26.2334 13.8006 26.5575 13.1921 26.664 12.5276ZM40.1785 0H44.137L47.0238 17.915H43.2309L42.689 13.8841H36.3081L34.2279 17.915H30.435L40.1785 0ZM42.3341 10.9154L41.4141 3.87729L37.7957 10.9154H42.3341ZM56.7943 11.6695H54.1342L52.9492 17.915H49.367L52.7962 0H59.0384C60.6522 0 61.9165 0.409518 62.8313 1.22855C63.2883 1.64292 63.6487 2.15531 63.8864 2.72856C64.124 3.30182 64.2331 3.92157 64.2056 4.5429C64.2056 4.97685 64.1632 5.40972 64.0792 5.83519C63.7877 7.50852 62.899 9.01419 61.583 10.0645C60.2186 11.1472 58.5256 11.7146 56.7943 11.6695ZM60.5008 5.83434C60.5503 5.60313 60.5756 5.36726 60.5762 5.13066C60.5914 4.83949 60.544 4.54846 60.4373 4.27775C60.3307 4.00703 60.1672 3.7631 59.9584 3.56289C59.4534 3.15138 58.8142 2.94809 58.1682 2.99353H55.7976L54.7141 8.67515H57.0843C57.9064 8.70724 58.7123 8.43684 59.3537 7.91372C59.9653 7.37965 60.3715 6.64355 60.5008 5.83519V5.83434ZM67.8 17.915L70.6236 3.13512H66.0856L66.6908 0H79.3481L78.7429 3.13512H74.2045L71.3805 17.915H67.8ZM95.9386 0L92.5094 17.915H89.1329L91.4398 5.86086L82.1721 17.915H78.5415L81.9686 0H85.3472L83.0419 12.0545L92.308 0H95.9386ZM103.793 11.6695H101.133L99.9477 17.915H96.3655L99.7951 0H106.036C107.65 0 108.914 0.409518 109.829 1.22855C110.286 1.64292 110.646 2.15531 110.884 2.72856C111.121 3.30182 111.23 3.92157 111.203 4.5429C111.203 4.97685 111.161 5.40972 111.076 5.83519C110.785 7.50852 109.896 9.01419 108.58 10.0645C107.216 11.147 105.524 11.7143 103.793 11.6695ZM107.499 5.83434C107.549 5.60314 107.574 5.36726 107.575 5.13066C107.59 4.83949 107.543 4.54846 107.436 4.27775C107.329 4.00703 107.166 3.7631 106.957 3.56289C106.452 3.15138 105.813 2.94809 105.167 2.99353H102.797L101.713 8.67515H104.083C104.905 8.70724 105.711 8.43684 106.352 7.91372C106.964 7.37965 107.37 6.64355 107.499 5.83519V5.83434ZM114.925 0H118.507L117.271 6.43663H120.12C121.75 6.43663 123.027 6.84401 123.953 7.65877C124.412 8.0655 124.774 8.57161 125.014 9.13972C125.254 9.70783 125.366 10.3234 125.34 10.941C125.342 11.3573 125.304 11.7728 125.226 12.1816C124.929 13.8315 124.04 15.311 122.73 16.3339C121.354 17.4043 119.658 17.9625 117.925 17.915H111.495L114.925 0ZM121.606 12.1829C121.645 11.9631 121.666 11.7405 121.67 11.5172C121.685 11.2349 121.637 10.9526 121.529 10.692C121.421 10.4313 121.256 10.1993 121.045 10.0136C120.519 9.6247 119.873 9.43673 119.224 9.48278H116.69L115.656 14.8821H118.19C119.006 14.9168 119.809 14.6662 120.466 14.172C121.073 13.6731 121.479 12.9653 121.606 12.1829ZM129.169 0H132.751L129.322 17.915H125.739L129.169 0ZM5.16929 38.2087C5.08522 38.6257 5.04286 39.0502 5.04286 39.4758C5.01969 40.1169 5.12633 40.756 5.35619 41.3536C5.58605 41.9512 5.93423 42.4945 6.37922 42.9501C6.83652 43.4022 7.37973 43.7551 7.97573 43.9872C8.57173 44.2193 9.20806 44.3258 9.84592 44.3001C11.5053 44.2955 13.105 43.6712 14.3401 42.5463C15.6521 41.4429 16.5426 39.9084 16.8573 38.2087C16.9454 37.7965 16.9919 37.3763 16.9959 36.9545C17.0187 36.3125 16.9119 35.6725 16.6821 35.074C16.4523 34.4754 16.1043 33.9308 15.6596 33.4737C15.2011 33.0189 14.6559 32.664 14.0575 32.4306C13.459 32.1973 12.8199 32.0905 12.1794 32.1169C10.52 32.1215 8.92031 32.7458 7.68524 33.8707C6.37356 34.9744 5.48352 36.509 5.16929 38.2087ZM1.55129 38.2087C1.88016 36.4913 2.6132 34.88 3.68795 33.5123C4.7757 32.1035 6.16059 30.96 7.74087 30.1658C9.30367 29.3614 11.0314 28.9426 12.7837 28.9437C15.1286 28.9437 17.028 29.6411 18.4819 31.0359C19.1998 31.7225 19.7655 32.5563 20.1415 33.4819C20.5175 34.4075 20.6952 35.4037 20.6628 36.4044C20.6587 37.0101 20.5996 37.6141 20.4862 38.2087C20.1569 39.9272 19.4215 41.5388 18.3433 42.9052C17.2522 44.3132 15.8655 45.4565 14.284 46.2516C12.7212 47.0561 10.9934 47.4748 9.24116 47.4738C6.90474 47.4738 5.00956 46.7764 3.55562 45.3815C2.83861 44.6969 2.27333 43.8652 1.89731 42.9417C1.52129 42.0183 1.34315 41.0242 1.37471 40.0255C1.37339 39.4154 1.43283 38.8068 1.55129 38.2087ZM23.7393 47.1662L26.5629 32.3864H22.0245L22.6309 29.2508H35.2869L34.6839 32.3864H30.1434L27.3198 47.1662H23.7393ZM42.0821 47.1662L45.5113 29.2512H49.0935L47.6817 36.5965H54.4895L55.9013 29.2512H59.4835L56.0505 47.1662H52.4683L53.8822 39.7312H47.074L45.6622 47.1658L42.0821 47.1662ZM68.1405 29.2508H72.099L74.9858 47.1658H71.193L70.651 43.1349H64.2684L62.1882 47.1658H58.3953L68.1405 29.2508ZM70.2949 40.1662L69.3762 33.1285L65.7582 40.1666L70.2949 40.1662ZM92.2688 44.1586L91.0083 50.7488H87.491L88.1843 47.1658H79.6128L78.9195 50.7488H75.4022L76.6627 44.1586H77.9612C79.995 40.8827 81.4869 36.758 82.4368 31.7845L82.9286 29.2508H93.5815L90.7196 44.1586H92.2688ZM81.6664 44.1586H87.2006L89.4827 32.258H85.8141C85.3989 34.3915 84.8364 36.4928 84.1309 38.5462C83.483 40.4906 82.6584 42.3696 81.6677 44.159L81.6664 44.1586ZM94.3237 47.1658L97.7529 29.2508H108.746L108.153 32.3474H100.74L99.9216 36.6217H106.729L106.137 39.6927H99.3316L98.4996 44.0692H106.138L105.545 47.1658H94.3237ZM111.055 29.2508H114.988L117.799 36.5575H118.543L119.942 29.2508H123.524L122.125 36.5575H122.869L128.477 29.2508H132.41L125.565 38.0804L129.952 47.1658H125.943L122.375 39.6927H121.518L120.093 47.1658H116.511L117.936 39.6927H117.078L110.662 47.1658H106.653L114.52 38.0804L111.055 29.2508ZM131.692 47.1658L135.121 29.2508H138.703L137.292 36.596H144.099L145.511 29.2508H149.093L145.664 47.1658H142.082L143.492 39.7312H136.684L135.272 47.1658H131.692ZM153.893 38.2083C153.809 38.6252 153.766 39.0497 153.766 39.4753C153.743 40.1164 153.85 40.7555 154.08 41.3531C154.309 41.9507 154.658 42.4941 155.103 42.9497C155.56 43.4018 156.103 43.7546 156.699 43.9867C157.295 44.2188 157.931 44.3253 158.569 44.2997C160.229 44.295 161.828 43.6707 163.063 42.5459C164.375 41.4426 165.266 39.9083 165.581 38.2087C165.669 37.7965 165.715 37.3763 165.719 36.9545C165.742 36.3125 165.635 35.6725 165.405 35.074C165.176 34.4754 164.828 33.9308 164.383 33.4737C163.925 33.0189 163.379 32.664 162.781 32.4306C162.182 32.1973 161.543 32.0905 160.903 32.1169C159.243 32.1216 157.644 32.7458 156.409 33.8707C155.097 34.9743 154.207 36.509 153.892 38.2087L153.893 38.2083ZM150.275 38.2083C150.604 36.4909 151.337 34.8796 152.411 33.5118C153.499 32.1031 154.884 30.9596 156.464 30.1654C158.027 29.3609 159.755 28.9422 161.507 28.9433C163.852 28.9433 165.751 29.6407 167.205 31.0355C167.923 31.7221 168.489 32.5558 168.865 33.4813C169.241 34.4068 169.419 35.403 169.386 36.4035C169.382 37.0092 169.323 37.6132 169.21 38.2079C168.88 39.9263 168.145 41.538 167.067 42.9043C165.976 44.3124 164.589 45.4556 163.007 46.2508C161.445 47.0555 159.717 47.4746 157.965 47.4738C155.628 47.4738 153.733 46.7764 152.279 45.3815C151.562 44.697 150.997 43.8654 150.621 42.9421C150.245 42.0188 150.067 41.0249 150.098 40.0263C150.097 39.416 150.156 38.8071 150.274 38.2087L150.275 38.2083ZM170.395 47.1658L173.824 29.2508H184.565L183.96 32.3859H176.799L173.976 47.1658H170.395ZM187.503 38.2083C187.419 38.6252 187.376 39.0497 187.376 39.4753C187.353 40.1164 187.46 40.7555 187.69 41.3531C187.92 41.9507 188.268 42.4941 188.713 42.9497C189.17 43.4018 189.713 43.7546 190.309 43.9867C190.905 44.2188 191.542 44.3253 192.179 44.2997C193.839 44.295 195.438 43.6707 196.674 42.5459C197.985 41.4421 198.875 39.9075 199.189 38.2079C199.277 37.7957 199.323 37.3754 199.327 36.9536C199.35 36.3116 199.243 35.6717 199.013 35.0731C198.784 34.4745 198.436 33.93 197.991 33.4729C197.533 33.0184 196.988 32.6637 196.389 32.4305C195.791 32.1973 195.152 32.0906 194.512 32.1169C192.853 32.1216 191.253 32.7458 190.018 33.8707C188.706 34.9745 187.816 36.5091 187.502 38.2087L187.503 38.2083ZM183.885 38.2083C184.214 36.4909 184.947 34.8796 186.021 33.5118C187.109 32.1031 188.494 30.9596 190.074 30.1654C191.637 29.3609 193.365 28.9422 195.117 28.9433C197.462 28.9433 199.361 29.6407 200.815 31.0355C201.533 31.7221 202.099 32.5558 202.475 33.4813C202.851 34.4068 203.029 35.403 202.996 36.4035C202.992 37.0092 202.933 37.6132 202.82 38.2079C202.49 39.9263 201.755 41.538 200.677 42.9043C199.586 44.3124 198.199 45.4556 196.617 46.2508C195.055 47.0556 193.327 47.4746 191.574 47.4738C189.238 47.4738 187.343 46.7764 185.889 45.3815C185.172 44.697 184.607 43.8654 184.231 42.9421C183.855 42.0188 183.676 41.0249 183.708 40.0263C183.707 39.416 183.766 38.8071 183.884 38.2087L183.885 38.2083ZM5.02895 62.4046L3.37904 60.3577C4.0703 59.6507 4.89641 59.0942 5.80683 58.7223C6.71724 58.3504 7.69283 58.171 8.67392 58.1949C9.87322 58.1315 11.0535 58.5188 11.9893 59.2827C12.3894 59.6257 12.7082 60.0557 12.9221 60.5408C13.136 61.026 13.2395 61.5538 13.225 62.0851C13.2203 62.3814 13.1908 62.6767 13.1369 62.968C12.9767 63.7708 12.604 64.5141 12.0589 65.1179C11.4923 65.7658 10.7872 66.2735 9.99764 66.6023C10.7448 66.8994 11.3923 67.4079 11.8633 68.0674C12.3246 68.7169 12.5677 69.4998 12.5566 70.3003C12.5541 70.5877 12.5246 70.8742 12.4685 71.1559C12.2688 72.2027 11.7989 73.177 11.1068 73.9792C10.3771 74.8403 9.4687 75.5269 8.44676 75.9897C7.39888 76.4777 6.259 76.7288 5.10607 76.7254C4.02297 76.7466 2.95275 76.4844 1.99843 75.964C1.13004 75.4935 0.430535 74.7562 0 73.8577L2.53407 71.7188C3.19797 73.0751 4.22345 73.7533 5.61053 73.7533C6.40885 73.7564 7.18212 73.4705 7.79144 72.947C8.17032 72.6381 8.47829 72.2492 8.69388 71.8071C8.90947 71.3651 9.0275 70.8807 9.03972 70.3876C9.05063 70.0748 8.98834 69.7639 8.85794 69.4803C8.72754 69.1967 8.53276 68.9485 8.28957 68.7561C7.68283 68.3176 6.94654 68.1031 6.20306 68.1482H4.37489L4.94213 65.218H6.80781C7.50541 65.2384 8.19153 65.0346 8.76832 64.6358C9.02199 64.4659 9.24003 64.2467 9.40986 63.9908C9.57969 63.735 9.69795 63.4475 9.75784 63.1451C9.78252 63.0229 9.79522 62.8985 9.79577 62.7738C9.80137 62.5502 9.75525 62.3284 9.66113 62.1262C9.56701 61.924 9.42751 61.747 9.25381 61.6094C8.84537 61.2953 8.34122 61.1367 7.82937 61.1615C6.7731 61.1929 5.76995 61.6386 5.03064 62.405L5.02895 62.4046ZM22.1758 58.5021H26.1343L29.0211 76.417H25.2282L24.6862 72.3862H18.3057L16.2251 76.417H12.4322L22.1758 58.5021ZM24.3318 69.4183L23.4114 62.3802L19.793 69.4183H24.3318ZM39.0566 76.725C36.7202 76.725 34.825 76.0276 33.3711 74.6328C32.6542 73.9482 32.089 73.1167 31.713 72.1934C31.337 71.2701 31.1588 70.2761 31.1902 69.2776C31.189 68.6674 31.2481 68.0586 31.3668 67.4604C31.6956 65.743 32.4287 64.1317 33.5034 62.7639C34.5912 61.3552 35.9761 60.2117 37.5564 59.4175C39.1192 58.613 40.8469 58.1943 42.5992 58.1954C44.6785 58.1217 46.7059 58.8641 48.2599 60.2683L45.942 62.9684C45.3877 62.4892 44.7703 62.0908 44.1075 61.7848C43.4401 61.4975 42.7206 61.3558 41.9957 61.369C40.9134 61.3706 39.8482 61.6432 38.8944 62.1625C37.8996 62.6999 37.0336 63.4533 36.3582 64.3689C35.6827 65.2846 35.2144 66.3401 34.9865 67.4604C34.9024 67.8773 34.86 68.3019 34.86 68.7274C34.8369 69.3685 34.9435 70.0076 35.1734 70.6052C35.4032 71.2028 35.7514 71.7462 36.1964 72.2018C36.6537 72.6539 37.1969 73.0067 37.7929 73.2388C38.3889 73.4709 39.0252 73.5774 39.6631 73.5518C41.3715 73.4974 43.0184 72.8924 44.3654 71.8245L45.7524 74.4989C43.8102 75.9442 41.4648 76.7236 39.0566 76.7242V76.725ZM51.1846 76.4179L54.0082 61.638H49.4698L50.075 58.5029H62.7323L62.1271 61.638H57.5887L54.7651 76.4179H51.1846ZM69.3513 70.1724H66.6912L65.5061 76.4179H61.924L65.3532 58.5029H71.5937C73.2075 58.5029 74.4718 58.9124 75.3866 59.7315C75.8436 60.1458 76.204 60.6582 76.4417 61.2315C76.6794 61.8047 76.7884 62.4245 76.7609 63.0458C76.7609 63.4798 76.7185 63.9126 76.6345 64.3381C76.343 66.0114 75.4544 67.5171 74.1383 68.5675C72.7742 69.6499 71.0818 70.2173 69.3509 70.1724H69.3513ZM73.0578 64.3373C73.1073 64.1061 73.1326 63.8702 73.1332 63.6336C73.1484 63.3424 73.101 63.0514 72.9943 62.7807C72.8877 62.5099 72.7242 62.266 72.5154 62.0658C72.0104 61.6543 71.3712 61.451 70.7252 61.4964H68.3563L67.272 67.1781H69.6421C70.4583 67.2235 71.2616 66.957 71.894 66.4313C72.5263 65.9055 72.9418 65.1584 73.0586 64.3373H73.0578ZM81.4287 67.46C81.3446 67.8769 81.3023 68.3014 81.3023 68.727C81.2791 69.3681 81.3858 70.0072 81.6156 70.6048C81.8455 71.2024 82.1936 71.7458 82.6386 72.2014C83.0959 72.6534 83.6391 73.0063 84.2351 73.2384C84.8312 73.4705 85.4675 73.577 86.1053 73.5514C87.7647 73.5467 89.3644 72.9224 90.5995 71.7975C91.9108 70.6937 92.8006 69.1591 93.1146 67.4595C93.2027 67.0473 93.2492 66.6271 93.2533 66.2053C93.276 65.5633 93.1692 64.9234 92.9394 64.3248C92.7096 63.7262 92.3616 63.1817 91.9169 62.7246C91.4585 62.2699 90.9134 61.9151 90.3151 61.6819C89.7168 61.4486 89.0779 61.3418 88.4375 61.3681C86.7782 61.3728 85.1785 61.9971 83.9434 63.122C82.6321 64.2257 81.7424 65.7601 81.4283 67.4595L81.4287 67.46ZM77.8107 67.46C78.1396 65.7426 78.8726 64.1313 79.9474 62.7635C81.0351 61.3547 82.42 60.2112 84.0003 59.4171C85.5631 58.6126 87.2909 58.1939 89.0431 58.1949C91.388 58.1949 93.2874 58.8923 94.7413 60.2871C95.4591 60.9737 96.0248 61.8075 96.4008 62.733C96.7768 63.6585 96.9546 64.6546 96.9222 65.6552C96.9181 66.2609 96.859 66.8649 96.7457 67.4595C96.4163 69.178 95.6809 70.7896 94.6027 72.156C93.5116 73.564 92.1249 74.7073 90.5434 75.5024C88.9806 76.3069 87.2529 76.7256 85.5006 76.7246C83.1642 76.7246 81.269 76.0272 79.815 74.6324C79.0981 73.9478 78.5329 73.1162 78.1569 72.1929C77.7809 71.2696 77.6027 70.2757 77.6341 69.2771C77.6326 68.6668 77.6915 68.0579 77.8099 67.4595L77.8107 67.46ZM115.329 58.5025L111.9 76.4174H108.519L110.826 64.3634L101.56 76.4174H97.929L101.358 58.5025H104.737L102.43 70.5566L111.696 58.5025H115.329ZM108.559 57.3766C107.582 57.4124 106.628 57.0743 105.886 56.4295C105.541 56.1255 105.267 55.7473 105.083 55.3223C104.9 54.8972 104.813 54.4361 104.827 53.9724C104.831 53.7668 104.848 53.5616 104.878 53.3581H107.764C107.749 53.4641 107.74 53.571 107.739 53.6781C107.732 53.8539 107.76 54.0293 107.821 54.1941C107.881 54.3589 107.974 54.5098 108.092 54.638C108.212 54.7617 108.355 54.8586 108.514 54.9226C108.672 54.9865 108.842 55.0161 109.013 55.0093C109.454 55.0078 109.879 54.8389 110.204 54.5358C110.555 54.2311 110.796 53.8172 110.891 53.3586H113.778C113.505 54.5246 112.821 55.5489 111.855 56.2379C110.909 56.9741 109.75 57.374 108.558 57.3762L108.559 57.3766ZM134.769 76.4179H115.757L119.186 58.5029H122.768L119.932 73.2828H124.997L127.833 58.5029H131.416L128.579 73.2819H133.647L136.484 58.5021H140.066L137.229 73.2819H138.778L137.492 80H134.074L134.769 76.4179ZM158.206 58.5021L154.776 76.417H151.398L153.705 64.3629L144.437 76.417H140.807L144.236 58.5021H147.615L145.308 70.5562L154.574 58.5021H158.206ZM165.643 58.5021L164.244 65.8088H165.253L171.09 58.5021H175.036L167.937 67.3316L172.576 76.417H168.555L164.748 68.9439H163.638L162.214 76.417H158.632L162.061 58.5021H165.643ZM182.486 58.5021H186.442L189.328 76.417H185.536L184.994 72.3862H178.614L176.534 76.417H172.741L182.486 58.5021ZM184.642 69.4174L183.722 62.3794L180.102 69.4183L184.642 69.4174Z" fill="#E31D13"/>
</svg>
