<svg width="111" height="90" viewBox="0 0 111 90" fill="none" xmlns="http://www.w3.org/2000/svg">
<path d="M55.1649 135.93H110.33V8.03588L55.1649 0.849408V135.93Z" fill="url(#paint0_linear)"/>
<path d="M55.165 135.93H0V8.03627L55.165 0.849794V135.93Z" fill="url(#paint1_linear)"/>
<path d="M71.0321 13.906L61.8103 12.887V23.9457L71.0321 24.962V13.906Z" fill="#E2E5E7"/>
<path d="M87.3602 15.5539L78.1385 14.5348V25.5917L87.3602 26.6098V15.5539Z" fill="#E2E5E7"/>
<path d="M103.68 17.2317L94.4629 16.2136V27.2704L103.68 28.2895V17.2317Z" fill="#E2E5E7"/>
<path d="M94.4629 36.2162L103.68 37.0303V48.0881L94.4629 47.273V36.2162Z" fill="#E2E5E7"/>
<path d="M103.68 56.8312L94.4629 56.2201V67.276L103.68 67.887V56.8312Z" fill="#E2E5E7"/>
<path d="M94.4629 76.2231L103.68 76.6302V87.688L94.4629 87.28V76.2231Z" fill="#E2E5E7"/>
<path d="M103.68 96.4311L94.4629 96.2271V107.286L103.68 107.49V96.4311Z" fill="#E2E5E7"/>
<path d="M94.4629 116.23H103.68V127.289H94.4629V116.23Z" fill="#E2E5E7"/>
<path d="M87.3565 116.23H78.1385V127.289H87.3565V116.23Z" fill="#E2E5E7"/>
<path d="M87.3602 96.095L78.1385 95.891V106.949L87.3602 107.153V96.095Z" fill="#E2E5E7"/>
<path d="M78.1385 75.5523L87.3602 75.9603V87.018L78.1385 86.611V75.5523Z" fill="#E2E5E7"/>
<path d="M87.3602 55.8242L78.1385 55.2131V66.27L87.3602 66.881V55.8242Z" fill="#E2E5E7"/>
<path d="M78.1385 34.874L87.3602 35.689V46.7422L78.1385 45.928V34.874Z" fill="#E2E5E7"/>
<path d="M71.0321 116.23H61.814V127.289H71.0321V116.23Z" fill="#E2E5E7"/>
<path d="M71.0321 95.7661L61.8103 95.5621V106.621L71.0321 106.824V95.7661Z" fill="#E2E5E7"/>
<path d="M61.8103 74.8928L71.0321 75.3008V86.3585L61.8103 85.9524V74.8928Z" fill="#E2E5E7"/>
<path d="M71.0321 54.8349L61.8103 54.2239V65.2816L71.0321 65.8918V54.8349Z" fill="#E2E5E7"/>
<path d="M61.8103 33.5559L71.0321 34.3709V45.4278L61.8103 44.6146V33.5559Z" fill="#E2E5E7"/>
<path d="M39.2988 13.906L48.516 12.887V23.9457L39.2988 24.962V13.906Z" fill="#727578"/>
<path d="M22.9669 15.5539L32.1887 14.5348V25.5917L22.9669 26.6098V15.5539Z" fill="#727578"/>
<path d="M6.64526 17.2317L15.8671 16.2136V27.2704L6.64526 28.2895V17.2317Z" fill="#727578"/>
<path d="M15.8671 36.2162L6.64526 37.0303V48.0881L15.8671 47.273V36.2162Z" fill="#727578"/>
<path d="M6.64526 56.8312L15.8671 56.2201V67.276L6.64526 67.887V56.8312Z" fill="#727578"/>
<path d="M15.8671 76.2231L6.64526 76.6302V87.688L15.8671 87.28V76.2231Z" fill="#727578"/>
<path d="M6.64526 96.4311L15.8671 96.2271V107.286L6.64526 107.49V96.4311Z" fill="#727578"/>
<path d="M6.64902 116.23H15.8671V127.289H6.64902V116.23Z" fill="#727578"/>
<path d="M32.1915 116.23H22.9734V127.289H32.1915V116.23Z" fill="#727578"/>
<path d="M22.9669 96.095L32.1887 95.891V106.949L22.9669 107.153V96.095Z" fill="#727578"/>
<path d="M32.1887 75.5523L22.9669 75.9603V87.018L32.1887 86.611V75.5523Z" fill="#727578"/>
<path d="M22.9669 55.8242L32.1887 55.2131V66.27L22.9669 66.881V55.8242Z" fill="#727578"/>
<path d="M32.1887 34.874L22.9669 35.689V46.7422L32.1887 45.928V34.874Z" fill="#727578"/>
<path d="M48.5169 116.23H39.2998V127.289H48.5169V116.23Z" fill="#727578"/>
<path d="M39.2988 95.7661L48.516 95.5621V106.621L39.2988 106.824V95.7661Z" fill="#727578"/>
<path d="M48.516 74.8928L39.2988 75.3008V86.3585L48.516 85.9524V74.8928Z" fill="#727578"/>
<path d="M39.2988 54.8349L48.516 54.2239V65.2816L39.2988 65.8918V54.8349Z" fill="#727578"/>
<path d="M48.516 33.5559L39.2988 34.3709V45.4278L48.516 44.6146V33.5559Z" fill="#727578"/>
<defs>
<linearGradient id="paint0_linear" x1="82.7474" y1="135.93" x2="82.7474" y2="0.849408" gradientUnits="userSpaceOnUse">
<stop stop-color="#4D4D4D"/>
<stop offset="1" stop-color="#989898"/>
</linearGradient>
<linearGradient id="paint1_linear" x1="27.5825" y1="135.93" x2="27.5825" y2="0.849794" gradientUnits="userSpaceOnUse">
<stop stop-color="#D8D8D8"/>
<stop offset="1" stop-color="white"/>
</linearGradient>
</defs>
</svg>
