<svg width="63" height="347" viewBox="0 0 63 347" fill="none" xmlns="http://www.w3.org/2000/svg">
<path d="M0.212158 396.499H62.9287V0.000366211L0.212158 29.0313V396.499Z" fill="url(#paint0_linear)"/>
<path d="M6.43457 56.8771L56.6728 36.2491V29.031L6.43457 49.6589V56.8771Z" fill="#727578"/>
<path d="M56.6728 53.56L6.43457 73.1558V65.9386L56.6728 46.3428V53.56Z" fill="#727578"/>
<path d="M6.43457 89.4337L56.6728 70.8691V63.6509L6.43457 82.2156V89.4337Z" fill="#727578"/>
<path d="M56.6728 88.1808L6.43457 105.714V98.4971L56.6728 80.9636V88.1808Z" fill="#727578"/>
<path d="M6.43457 121.994L56.6728 105.492V98.2736L6.43457 114.776V121.994Z" fill="#727578"/>
<path d="M56.6728 122.803L6.43457 138.274V131.056L56.6728 115.581V122.803Z" fill="#727578"/>
<path d="M6.43457 154.552L56.6728 140.113V132.895L6.43457 147.334V154.552Z" fill="#727578"/>
<path d="M56.6728 157.423L6.43457 170.831V163.613L56.6728 150.205V157.423Z" fill="#727578"/>
<path d="M6.43457 187.107L56.6728 174.731V167.513L6.43457 179.889V187.107Z" fill="#727578"/>
<path d="M56.6728 192.045L6.43457 203.391V196.173L56.6728 184.827V192.045Z" fill="#727578"/>
<path d="M6.43457 219.669L56.6728 209.356V202.142L6.43457 212.456V219.669Z" fill="#727578"/>
<path d="M56.6728 226.667L6.43457 235.949V228.731L56.6728 219.449V226.667Z" fill="#727578"/>
<path d="M6.43457 252.231L56.6728 243.977V236.762L6.43457 245.013V252.231Z" fill="#727578"/>
<path d="M56.6728 261.288L6.43457 268.508V261.29L56.6728 254.07V261.288Z" fill="#727578"/>
<path d="M6.43457 284.787L56.6728 278.599V271.38L6.43457 277.568V284.787Z" fill="#727578"/>
<path d="M56.6728 295.91L6.43457 301.066V293.848L56.6728 288.691V295.91Z" fill="#727578"/>
<path d="M6.43457 317.342L56.6728 313.221V305.999L6.43457 310.124V317.342Z" fill="#727578"/>
<path d="M56.6728 330.53L6.43457 333.625V326.407L56.6728 323.312V330.53Z" fill="#727578"/>
<path d="M6.43457 349.904L56.6728 347.841V340.623L6.43457 342.685V349.904Z" fill="#727578"/>
<path d="M56.6728 365.153L6.43457 366.184V358.966L56.6728 357.934V365.153Z" fill="#727578"/>
<path d="M56.6729 375.244H6.43457V382.463H56.6729V375.244Z" fill="#727578"/>
<defs>
<linearGradient id="paint0_linear" x1="31.5704" y1="396.499" x2="31.5704" y2="0.000366211" gradientUnits="userSpaceOnUse">
<stop stop-color="#D8D8D8"/>
<stop offset="1" stop-color="white"/>
</linearGradient>
</defs>
</svg>
