<svg width="126" height="347" viewBox="0 0 126 347" fill="none" xmlns="http://www.w3.org/2000/svg">
<path d="M125.904 396.499H63.188V0L125.904 29.031V396.499Z" fill="url(#paint0_linear)"/>
<path d="M119.688 56.8771L69.4475 36.2491V29.0319L119.688 49.6589V56.8771Z" fill="#E2E5E7"/>
<path d="M69.4475 53.56L119.688 73.1559V65.9386L69.4475 46.3419V53.56Z" fill="#E2E5E7"/>
<path d="M119.688 89.4337L69.4475 70.869V63.6527L119.688 82.2155V89.4337Z" fill="#E2E5E7"/>
<path d="M69.4475 88.1808L119.688 105.714V98.4971L69.4475 80.9636V88.1808Z" fill="#E2E5E7"/>
<path d="M119.688 121.994L69.4475 105.492V98.2745L119.688 114.776V121.994Z" fill="#E2E5E7"/>
<path d="M69.4475 122.803L119.688 138.274V131.056L69.4475 115.581V122.803Z" fill="#E2E5E7"/>
<path d="M119.688 154.552L69.4475 140.113V132.895L119.688 147.334V154.552Z" fill="#E2E5E7"/>
<path d="M69.4475 157.423L119.688 170.831V163.613L69.4475 150.206V157.423Z" fill="#E2E5E7"/>
<path d="M119.688 187.107L69.4475 174.731V167.516L119.688 179.889V187.107Z" fill="#E2E5E7"/>
<path d="M69.4475 192.045L119.688 203.391V196.173L69.4475 184.827V192.045Z" fill="#E2E5E7"/>
<path d="M119.688 219.67L69.4475 209.356V202.138L119.688 212.456V219.67Z" fill="#E2E5E7"/>
<path d="M69.4475 226.667L119.688 235.949V228.731L69.4475 219.449V226.667Z" fill="#E2E5E7"/>
<path d="M119.683 252.231L69.4475 243.977V236.759L119.683 245.013V252.231Z" fill="#E2E5E7"/>
<path d="M69.4475 261.288L119.688 268.508V261.29L69.4475 254.07V261.288Z" fill="#E2E5E7"/>
<path d="M119.688 284.787L69.4475 278.599V271.381L119.688 277.568V284.787Z" fill="#E2E5E7"/>
<path d="M69.4475 295.91L119.688 301.066V293.848L69.4475 288.691V295.91Z" fill="#E2E5E7"/>
<path d="M119.683 317.342L69.4475 313.22V306.001L119.683 310.124V317.342Z" fill="#E2E5E7"/>
<path d="M69.4475 330.53L119.688 333.625V326.407L69.4475 323.312V330.53Z" fill="#E2E5E7"/>
<path d="M119.688 349.904L69.4475 347.841V340.623L119.688 342.685V349.904Z" fill="#E2E5E7"/>
<path d="M69.4475 365.152L119.688 366.183V358.965L69.4475 357.933V365.152Z" fill="#E2E5E7"/>
<path d="M119.684 375.244H69.4438V382.463H119.684V375.244Z" fill="#E2E5E7"/>
<path d="M0.4732 396.499H63.188V0.000366211L0.47229 29.0313L0.4732 396.499Z" fill="url(#paint1_linear)"/>
<path d="M56.9339 36.2491L6.69373 56.8771V49.6589L56.9339 29.031V36.2491Z" fill="#727578"/>
<path d="M6.69373 73.1558L56.9339 53.56V46.3428L6.69373 65.9386V73.1558Z" fill="#727578"/>
<path d="M6.69373 89.4337L56.9339 70.8691V63.6509L6.69373 82.2156V89.4337Z" fill="#727578"/>
<path d="M6.69373 105.714L56.9339 88.1808V80.9636L6.69373 98.4971V105.714Z" fill="#727578"/>
<path d="M6.69373 121.994L56.9339 105.492V98.2736L6.69373 114.776V121.994Z" fill="#727578"/>
<path d="M6.69373 138.274L56.9339 122.803V115.581L6.69373 131.056V138.274Z" fill="#727578"/>
<path d="M6.69373 154.552L56.9339 140.113V132.895L6.69373 147.334V154.552Z" fill="#727578"/>
<path d="M6.69373 170.831L56.9339 157.423V150.205L6.69373 163.613V170.831Z" fill="#727578"/>
<path d="M6.69373 187.107L56.9339 174.731V167.513L6.69373 179.889V187.107Z" fill="#727578"/>
<path d="M6.69373 203.391L56.9339 192.045V184.827L6.69373 196.173V203.391Z" fill="#727578"/>
<path d="M6.69373 219.669L56.9339 209.356V202.142L6.69373 212.456V219.669Z" fill="#727578"/>
<path d="M6.69373 235.949L56.9339 226.667V219.449L6.69373 228.731V235.949Z" fill="#727578"/>
<path d="M6.69464 252.231L56.9339 243.977L56.9348 236.762L6.69464 245.013V252.231Z" fill="#727578"/>
<path d="M6.69373 268.508L56.9339 261.288V254.07L6.69373 261.29V268.508Z" fill="#727578"/>
<path d="M6.69373 284.787L56.9339 278.599V271.38L6.69373 277.568V284.787Z" fill="#727578"/>
<path d="M6.69373 301.066L56.9339 295.91V288.691L6.69373 293.848V301.066Z" fill="#727578"/>
<path d="M6.69464 317.342L56.9339 313.221L56.9348 305.999L6.69464 310.124V317.342Z" fill="#727578"/>
<path d="M6.69373 333.625L56.9339 330.53V323.312L6.69373 326.407V333.625Z" fill="#727578"/>
<path d="M6.69373 349.904L56.9339 347.841V340.623L6.69373 342.685V349.904Z" fill="#727578"/>
<path d="M56.9339 365.153L6.69373 366.184V358.966L56.9339 357.934V365.153Z" fill="#727578"/>
<path d="M6.69464 375.244H56.9348V382.463H6.69464V375.244Z" fill="#727578"/>
<defs>
<linearGradient id="paint0_linear" x1="94.5458" y1="396.499" x2="94.5458" y2="0" gradientUnits="userSpaceOnUse">
<stop stop-color="#4D4D4D"/>
<stop offset="1" stop-color="#989898"/>
</linearGradient>
<linearGradient id="paint1_linear" x1="31.8301" y1="396.499" x2="31.8301" y2="0.000366211" gradientUnits="userSpaceOnUse">
<stop stop-color="#D8D8D8"/>
<stop offset="1" stop-color="white"/>
</linearGradient>
</defs>
</svg>
