<svg width="471" height="21" viewBox="0 0 471 21" fill="none" xmlns="http://www.w3.org/2000/svg">
<path d="M1.935 5.63199C2.412 6.11799 2.9925 6.36099 3.6765 6.36099C4.3605 6.36099 4.9395 6.11799 5.4135 5.63199C5.8905 5.14599 6.129 4.55199 6.129 3.84999C6.129 3.14799 5.8905 2.55399 5.4135 2.06799C4.9395 1.58199 4.3605 1.33899 3.6765 1.33899C2.9925 1.33899 2.412 1.58199 1.935 2.06799C1.461 2.55399 1.224 3.14799 1.224 3.84999C1.224 4.55199 1.461 5.14599 1.935 5.63199ZM2.3715 0.843988C2.7825 0.675988 3.2175 0.591988 3.6765 0.591988C4.1355 0.591988 4.569 0.675988 4.977 0.843988C5.388 1.01199 5.7405 1.24149 6.0345 1.53249C6.3285 1.82049 6.561 2.16549 6.732 2.56749C6.903 2.96949 6.9885 3.39699 6.9885 3.84999C6.9885 4.30299 6.903 4.73049 6.732 5.13249C6.561 5.53449 6.3285 5.88099 6.0345 6.17199C5.7405 6.45999 5.388 6.68799 4.977 6.85599C4.569 7.02399 4.1355 7.10799 3.6765 7.10799C3.2175 7.10799 2.7825 7.02399 2.3715 6.85599C1.9635 6.68799 1.6125 6.45999 1.3185 6.17199C1.0245 5.88099 0.792002 5.53449 0.621002 5.13249C0.450002 4.73049 0.364502 4.30299 0.364502 3.84999C0.364502 3.39699 0.450002 2.96949 0.621002 2.56749C0.792002 2.16549 1.0245 1.82049 1.3185 1.53249C1.6125 1.24149 1.9635 1.01199 2.3715 0.843988Z" fill="#E31D13"/>
<path d="M9.29145 5.63199C9.76845 6.11799 10.3489 6.36099 11.0329 6.36099C11.7169 6.36099 12.2959 6.11799 12.7699 5.63199C13.2469 5.14599 13.4854 4.55199 13.4854 3.84999C13.4854 3.14799 13.2469 2.55399 12.7699 2.06799C12.2959 1.58199 11.7169 1.33899 11.0329 1.33899C10.3489 1.33899 9.76845 1.58199 9.29145 2.06799C8.81745 2.55399 8.58045 3.14799 8.58045 3.84999C8.58045 4.55199 8.81745 5.14599 9.29145 5.63199ZM9.72795 0.843988C10.1389 0.675988 10.5739 0.591988 11.0329 0.591988C11.4919 0.591988 11.9254 0.675988 12.3334 0.843988C12.7444 1.01199 13.0969 1.24149 13.3909 1.53249C13.6849 1.82049 13.9174 2.16549 14.0884 2.56749C14.2594 2.96949 14.3449 3.39699 14.3449 3.84999C14.3449 4.30299 14.2594 4.73049 14.0884 5.13249C13.9174 5.53449 13.6849 5.88099 13.3909 6.17199C13.0969 6.45999 12.7444 6.68799 12.3334 6.85599C11.9254 7.02399 11.4919 7.10799 11.0329 7.10799C10.5739 7.10799 10.1389 7.02399 9.72795 6.85599C9.31995 6.68799 8.96895 6.45999 8.67495 6.17199C8.38095 5.88099 8.14845 5.53449 7.97745 5.13249C7.80645 4.73049 7.72095 4.30299 7.72095 3.84999C7.72095 3.39699 7.80645 2.96949 7.97745 2.56749C8.14845 2.16549 8.38095 1.82049 8.67495 1.53249C8.96895 1.24149 9.31995 1.01199 9.72795 0.843988Z" fill="#E31D13"/>
<path d="M16.6479 5.63199C17.1249 6.11799 17.7054 6.36099 18.3894 6.36099C19.0734 6.36099 19.6524 6.11799 20.1264 5.63199C20.6034 5.14599 20.8419 4.55199 20.8419 3.84999C20.8419 3.14799 20.6034 2.55399 20.1264 2.06799C19.6524 1.58199 19.0734 1.33899 18.3894 1.33899C17.7054 1.33899 17.1249 1.58199 16.6479 2.06799C16.1739 2.55399 15.9369 3.14799 15.9369 3.84999C15.9369 4.55199 16.1739 5.14599 16.6479 5.63199ZM17.0844 0.843988C17.4954 0.675988 17.9304 0.591988 18.3894 0.591988C18.8484 0.591988 19.2819 0.675988 19.6899 0.843988C20.1009 1.01199 20.4534 1.24149 20.7474 1.53249C21.0414 1.82049 21.2739 2.16549 21.4449 2.56749C21.6159 2.96949 21.7014 3.39699 21.7014 3.84999C21.7014 4.30299 21.6159 4.73049 21.4449 5.13249C21.2739 5.53449 21.0414 5.88099 20.7474 6.17199C20.4534 6.45999 20.1009 6.68799 19.6899 6.85599C19.2819 7.02399 18.8484 7.10799 18.3894 7.10799C17.9304 7.10799 17.4954 7.02399 17.0844 6.85599C16.6764 6.68799 16.3254 6.45999 16.0314 6.17199C15.7374 5.88099 15.5049 5.53449 15.3339 5.13249C15.1629 4.73049 15.0774 4.30299 15.0774 3.84999C15.0774 3.39699 15.1629 2.96949 15.3339 2.56749C15.5049 2.16549 15.7374 1.82049 16.0314 1.53249C16.3254 1.24149 16.6764 1.01199 17.0844 0.843988Z" fill="#E31D13"/>
<path d="M25.2137 4.40799V3.97599L27.7022 2.41449V3.17499L26.0462 4.19199L27.7022 5.20899V5.96949L25.2137 4.40799ZM27.4187 4.40799V3.97599L29.9072 2.41449V3.17499L28.2512 4.19199L29.9072 5.20899V5.96949L27.4187 4.40799Z" fill="#E31D13"/>
<path d="M34.1394 6.36099C34.7574 6.36099 35.3259 6.14799 35.8449 5.72199L36.2949 6.35649C35.6829 6.85749 34.9644 7.10799 34.1394 7.10799C33.6804 7.10799 33.2454 7.02399 32.8344 6.85599C32.4264 6.68799 32.0754 6.45999 31.7814 6.17199C31.4874 5.88099 31.2549 5.53449 31.0839 5.13249C30.9129 4.73049 30.8274 4.30299 30.8274 3.84999C30.8274 3.39699 30.9129 2.96949 31.0839 2.56749C31.2549 2.16549 31.4874 1.82049 31.7814 1.53249C32.0754 1.24149 32.4264 1.01199 32.8344 0.843988C33.2454 0.675988 33.6804 0.591988 34.1394 0.591988C34.9194 0.591988 35.6124 0.824488 36.2184 1.28949L35.7909 1.92849C35.5179 1.73949 35.2509 1.59399 34.9899 1.49199C34.7289 1.38999 34.4454 1.33899 34.1394 1.33899C33.4554 1.33899 32.8749 1.58199 32.3979 2.06799C31.9239 2.55399 31.6869 3.14799 31.6869 3.84999C31.6869 4.55199 31.9239 5.14599 32.3979 5.63199C32.8749 6.11799 33.4554 6.36099 34.1394 6.36099Z" fill="#E31D13"/>
<path d="M40.1657 5.15049C40.1657 4.79049 40.0307 4.49349 39.7607 4.25949C39.4907 4.02549 39.1382 3.90849 38.7032 3.90849H38.0507V3.21549H38.7122C39.0542 3.21549 39.3317 3.12549 39.5447 2.94549C39.7607 2.76249 39.8687 2.53299 39.8687 2.25699C39.8687 1.98699 39.7637 1.76199 39.5537 1.58199C39.3467 1.40199 39.0887 1.31199 38.7797 1.31199C38.3507 1.31199 37.9817 1.49049 37.6727 1.84749L37.1687 1.33449C37.5827 0.839488 38.1422 0.591988 38.8472 0.591988C39.3782 0.591988 39.8147 0.749488 40.1567 1.06449C40.5017 1.37949 40.6742 1.77099 40.6742 2.23899C40.6742 2.52699 40.5872 2.78799 40.4132 3.02199C40.2422 3.25599 40.0172 3.42699 39.7382 3.53499C40.1132 3.66099 40.4162 3.87099 40.6472 4.16499C40.8812 4.45599 40.9982 4.78899 40.9982 5.16399C40.9982 5.71299 40.7897 6.17499 40.3727 6.54999C39.9587 6.92199 39.4472 7.10799 38.8382 7.10799C38.4362 7.10799 38.0627 7.01949 37.7177 6.84249C37.3757 6.66249 37.1027 6.41499 36.8987 6.09999L37.4342 5.56449C37.5992 5.81649 37.8017 6.01749 38.0417 6.16749C38.2817 6.31449 38.5472 6.38799 38.8382 6.38799C39.2132 6.38799 39.5282 6.26949 39.7832 6.03249C40.0382 5.79249 40.1657 5.49849 40.1657 5.15049Z" fill="#E31D13"/>
<path d="M44.5145 4.40799V3.97599L47.003 2.41449V3.17499L45.347 4.19199L47.003 5.20899V5.96949L44.5145 4.40799ZM46.7195 4.40799V3.97599L49.208 2.41449V3.17499L47.552 4.19199L49.208 5.20899V5.96949L46.7195 4.40799Z" fill="#E31D13"/>
<path d="M53.4402 6.36099C54.0582 6.36099 54.6267 6.14799 55.1457 5.72199L55.5957 6.35649C54.9837 6.85749 54.2652 7.10799 53.4402 7.10799C52.9812 7.10799 52.5462 7.02399 52.1352 6.85599C51.7272 6.68799 51.3762 6.45999 51.0822 6.17199C50.7882 5.88099 50.5557 5.53449 50.3847 5.13249C50.2137 4.73049 50.1282 4.30299 50.1282 3.84999C50.1282 3.39699 50.2137 2.96949 50.3847 2.56749C50.5557 2.16549 50.7882 1.82049 51.0822 1.53249C51.3762 1.24149 51.7272 1.01199 52.1352 0.843988C52.5462 0.675988 52.9812 0.591988 53.4402 0.591988C54.2202 0.591988 54.9132 0.824488 55.5192 1.28949L55.0917 1.92849C54.8187 1.73949 54.5517 1.59399 54.2907 1.49199C54.0297 1.38999 53.7462 1.33899 53.4402 1.33899C52.7562 1.33899 52.1757 1.58199 51.6987 2.06799C51.2247 2.55399 50.9877 3.14799 50.9877 3.84999C50.9877 4.55199 51.2247 5.14599 51.6987 5.63199C52.1757 6.11799 52.7562 6.36099 53.4402 6.36099Z" fill="#E31D13"/>
<path d="M57.6215 3.07149H56.1185V2.33799H59.9435V3.07149H58.4405V6.99999H57.6215V3.07149Z" fill="#E31D13"/>
<path d="M62.9526 6.37449C63.2796 6.37449 63.5766 6.29049 63.8436 6.12249C64.1136 5.95449 64.3191 5.73099 64.4601 5.45199V3.89949C64.3191 3.61749 64.1136 3.39099 63.8436 3.21999C63.5766 3.04899 63.2796 2.96349 62.9526 2.96349C62.4786 2.96349 62.0781 3.12999 61.7511 3.46299C61.4271 3.79299 61.2651 4.19499 61.2651 4.66899C61.2651 5.14299 61.4271 5.54649 61.7511 5.87949C62.0781 6.20949 62.4786 6.37449 62.9526 6.37449ZM62.8176 2.22999C63.4806 2.22999 64.0281 2.46699 64.4601 2.94099V2.33799H65.2791V6.99999H64.4601V6.39699C64.0311 6.87099 63.4836 7.10799 62.8176 7.10799C62.3676 7.10799 61.9581 6.99699 61.5891 6.77499C61.2231 6.54999 60.9381 6.25299 60.7341 5.88399C60.5331 5.51199 60.4326 5.10699 60.4326 4.66899C60.4326 4.23099 60.5331 3.82749 60.7341 3.45849C60.9381 3.08649 61.2231 2.78949 61.5891 2.56749C61.9581 2.34249 62.3676 2.22999 62.8176 2.22999Z" fill="#E31D13"/>
<path d="M70.8 2.33799V6.99999H69.981V4.95699H67.4115V6.99999H66.5925V2.33799H67.4115V4.22349H69.981V2.33799H70.8Z" fill="#E31D13"/>
<path d="M76.0496 8.25999V6.99999H72.1121V2.33799H72.9311V6.26649H75.5006V2.33799H76.3196V6.26649H76.8686V8.25999H76.0496Z" fill="#E31D13"/>
<path d="M81.9534 2.33799V6.99999H81.1614V3.48999L78.5244 6.99999H77.7459V2.33799H78.5379V5.84799L81.1749 2.33799H81.9534Z" fill="#E31D13"/>
<path d="M86.0509 5.35299H85.1284L83.8279 6.99999H82.9189L84.2734 5.29449C83.9044 5.20449 83.6059 5.02749 83.3779 4.76349C83.1499 4.49949 83.0359 4.19349 83.0359 3.84549C83.0359 3.41949 83.2024 3.06249 83.5354 2.77449C83.8714 2.48349 84.2854 2.33799 84.7774 2.33799H86.8699V6.99999H86.0509V5.35299ZM84.8044 4.64649H86.0509V3.04449H84.8044C84.5344 3.04449 84.3079 3.12099 84.1249 3.27399C83.9449 3.42699 83.8549 3.61749 83.8549 3.84549C83.8549 4.07649 83.9449 4.26849 84.1249 4.42149C84.3079 4.57149 84.5344 4.64649 84.8044 4.64649Z" fill="#E31D13"/>
<path d="M93.8786 6.36099C94.4966 6.36099 95.0652 6.14799 95.5842 5.72199L96.0341 6.35649C95.4221 6.85749 94.7036 7.10799 93.8786 7.10799C93.4196 7.10799 92.9846 7.02399 92.5736 6.85599C92.1656 6.68799 91.8146 6.45999 91.5206 6.17199C91.2266 5.88099 90.9942 5.53449 90.8232 5.13249C90.6522 4.73049 90.5667 4.30299 90.5667 3.84999C90.5667 3.39699 90.6522 2.96949 90.8232 2.56749C90.9942 2.16549 91.2266 1.82049 91.5206 1.53249C91.8146 1.24149 92.1656 1.01199 92.5736 0.843988C92.9846 0.675988 93.4196 0.591988 93.8786 0.591988C94.6586 0.591988 95.3516 0.824488 95.9576 1.28949L95.5302 1.92849C95.2572 1.73949 94.9901 1.59399 94.7291 1.49199C94.4681 1.38999 94.1846 1.33899 93.8786 1.33899C93.1946 1.33899 92.6141 1.58199 92.1371 2.06799C91.6631 2.55399 91.4261 3.14799 91.4261 3.84999C91.4261 4.55199 91.6631 5.14599 92.1371 5.63199C92.6141 6.11799 93.1946 6.36099 93.8786 6.36099Z" fill="#E31D13"/>
<path d="M101.219 2.33799V6.99999H100.4V3.07149H97.8305V6.99999H97.0115V2.33799H101.219Z" fill="#E31D13"/>
<path d="M103.526 5.87949C103.853 6.20949 104.253 6.37449 104.727 6.37449C105.201 6.37449 105.6 6.20949 105.924 5.87949C106.251 5.54649 106.415 5.14299 106.415 4.66899C106.415 4.19499 106.251 3.79299 105.924 3.46299C105.6 3.12999 105.201 2.96349 104.727 2.96349C104.253 2.96349 103.853 3.12999 103.526 3.46299C103.202 3.79299 103.04 4.19499 103.04 4.66899C103.04 5.14299 103.202 5.54649 103.526 5.87949ZM103.436 2.55849C103.823 2.33949 104.253 2.22999 104.727 2.22999C105.201 2.22999 105.632 2.33949 106.019 2.55849C106.406 2.77749 106.707 3.07299 106.923 3.44499C107.139 3.81699 107.247 4.22499 107.247 4.66899C107.247 5.11299 107.139 5.52099 106.923 5.89299C106.707 6.26499 106.406 6.56049 106.019 6.77949C105.632 6.99849 105.201 7.10799 104.727 7.10799C104.253 7.10799 103.823 6.99849 103.436 6.77949C103.049 6.56049 102.747 6.26499 102.531 5.89299C102.315 5.52099 102.207 5.11299 102.207 4.66899C102.207 4.22499 102.315 3.81699 102.531 3.44499C102.747 3.07299 103.049 2.77749 103.436 2.55849Z" fill="#E31D13"/>
<path d="M110.562 6.37449C111.036 6.37449 111.435 6.20949 111.759 5.87949C112.086 5.54649 112.249 5.14299 112.249 4.66899C112.249 4.19499 112.086 3.79299 111.759 3.46299C111.435 3.12999 111.036 2.96349 110.562 2.96349C110.235 2.96349 109.936 3.04899 109.666 3.21999C109.399 3.39099 109.195 3.61749 109.054 3.89949V5.45199C109.195 5.73099 109.399 5.95449 109.666 6.12249C109.936 6.29049 110.235 6.37449 110.562 6.37449ZM110.697 2.22999C111.147 2.22999 111.555 2.34249 111.921 2.56749C112.29 2.78949 112.575 3.08649 112.776 3.45849C112.98 3.82749 113.082 4.23099 113.082 4.66899C113.082 5.10699 112.98 5.51199 112.776 5.88399C112.575 6.25299 112.29 6.54999 111.921 6.77499C111.555 6.99699 111.147 7.10799 110.697 7.10799C110.031 7.10799 109.483 6.87099 109.054 6.39699V9.08799H108.235V2.33799H109.054V2.94099C109.486 2.46699 110.034 2.22999 110.697 2.22999Z" fill="#E31D13"/>
<path d="M115.032 3.07149H113.529V2.33799H117.354V3.07149H115.851V6.99999H115.032V3.07149Z" fill="#E31D13"/>
<path d="M122.418 2.33799V6.99999H121.626V3.48999L118.989 6.99999H118.211V2.33799H119.003V5.84799L121.64 2.33799H122.418Z" fill="#E31D13"/>
<path d="M125.701 6.99999H123.73V2.33799H125.562C125.988 2.33799 126.345 2.45649 126.633 2.69349C126.924 2.93049 127.069 3.22299 127.069 3.57099C127.069 3.78699 127.005 3.98349 126.876 4.16049C126.747 4.33749 126.579 4.46649 126.372 4.54749C126.63 4.60749 126.846 4.74549 127.02 4.96149C127.197 5.17749 127.285 5.41749 127.285 5.68149C127.285 6.05349 127.132 6.36699 126.826 6.62199C126.523 6.87399 126.148 6.99999 125.701 6.99999ZM124.549 4.25949H125.508C125.721 4.25949 125.898 4.20249 126.039 4.08849C126.18 3.97149 126.25 3.82599 126.25 3.65199C126.25 3.47799 126.18 3.33399 126.039 3.21999C125.898 3.10299 125.721 3.04449 125.508 3.04449H124.549V4.25949ZM124.549 6.29349H125.661C125.889 6.29349 126.079 6.22899 126.232 6.09999C126.388 5.97099 126.466 5.81199 126.466 5.62299C126.466 5.43099 126.388 5.26899 126.232 5.13699C126.079 5.00499 125.889 4.93899 125.661 4.93899H124.549V6.29349Z" fill="#E31D13"/>
<path d="M132.578 2.33799V6.99999H131.759V4.95699H129.19V6.99999H128.371V2.33799H129.19V4.22349H131.759V2.33799H132.578Z" fill="#E31D13"/>
<path d="M136.086 6.37449C136.413 6.37449 136.71 6.29049 136.977 6.12249C137.247 5.95449 137.453 5.73099 137.594 5.45199V3.89949C137.453 3.61749 137.247 3.39099 136.977 3.21999C136.71 3.04899 136.413 2.96349 136.086 2.96349C135.612 2.96349 135.212 3.12999 134.885 3.46299C134.561 3.79299 134.399 4.19499 134.399 4.66899C134.399 5.14299 134.561 5.54649 134.885 5.87949C135.212 6.20949 135.612 6.37449 136.086 6.37449ZM135.951 2.22999C136.614 2.22999 137.162 2.46699 137.594 2.94099V2.33799H138.413V6.99999H137.594V6.39699C137.165 6.87099 136.617 7.10799 135.951 7.10799C135.501 7.10799 135.092 6.99699 134.723 6.77499C134.357 6.54999 134.072 6.25299 133.868 5.88399C133.667 5.51199 133.566 5.10699 133.566 4.66899C133.566 4.23099 133.667 3.82749 133.868 3.45849C134.072 3.08649 134.357 2.78949 134.723 2.56749C135.092 2.34249 135.501 2.22999 135.951 2.22999Z" fill="#E31D13"/>
<path d="M142.512 5.35299H141.589L140.289 6.99999H139.38L140.734 5.29449C140.365 5.20449 140.067 5.02749 139.839 4.76349C139.611 4.49949 139.497 4.19349 139.497 3.84549C139.497 3.41949 139.663 3.06249 139.996 2.77449C140.332 2.48349 140.746 2.33799 141.238 2.33799H143.331V6.99999H142.512V5.35299ZM141.265 4.64649H142.512V3.04449H141.265C140.995 3.04449 140.769 3.12099 140.586 3.27399C140.406 3.42699 140.316 3.61749 140.316 3.84549C140.316 4.07649 140.406 4.26849 140.586 4.42149C140.769 4.57149 140.995 4.64649 141.265 4.64649Z" fill="#E31D13"/>
<path d="M149.238 3.97599V4.40799L146.75 5.96949V5.20899L148.406 4.19199L146.75 3.17499V2.41449L149.238 3.97599ZM147.033 3.97599V4.40799L144.545 5.96949V5.20899L146.201 4.19199L144.545 3.17499V2.41449L147.033 3.97599Z" fill="#E31D13"/>
<path d="M150.487 6.54549C150.487 6.38649 150.541 6.25299 150.649 6.14499C150.757 6.03699 150.89 5.98299 151.049 5.98299C151.208 5.98299 151.342 6.03699 151.45 6.14499C151.558 6.25299 151.612 6.38649 151.612 6.54549C151.612 6.63249 151.592 6.71799 151.553 6.80199L150.959 8.10249H150.415L150.874 7.08099C150.757 7.04499 150.662 6.97899 150.59 6.88299C150.521 6.78399 150.487 6.67149 150.487 6.54549Z" fill="#E31D13"/>
<path d="M159.921 2.33799V6.99999H159.102V3.07149H156.533V6.99999H155.714V2.33799H159.921Z" fill="#E31D13"/>
<path d="M163.56 6.37449C164.034 6.37449 164.433 6.20949 164.757 5.87949C165.084 5.54649 165.247 5.14299 165.247 4.66899C165.247 4.19499 165.084 3.79299 164.757 3.46299C164.433 3.12999 164.034 2.96349 163.56 2.96349C163.233 2.96349 162.934 3.04899 162.664 3.21999C162.397 3.39099 162.193 3.61749 162.052 3.89949V5.45199C162.193 5.73099 162.397 5.95449 162.664 6.12249C162.934 6.29049 163.233 6.37449 163.56 6.37449ZM163.695 2.22999C164.145 2.22999 164.553 2.34249 164.919 2.56749C165.288 2.78949 165.573 3.08649 165.774 3.45849C165.978 3.82749 166.08 4.23099 166.08 4.66899C166.08 5.10699 165.978 5.51199 165.774 5.88399C165.573 6.25299 165.288 6.54999 164.919 6.77499C164.553 6.99699 164.145 7.10799 163.695 7.10799C163.029 7.10799 162.481 6.87099 162.052 6.39699V9.08799H161.233V2.33799H162.052V2.94099C162.484 2.46699 163.032 2.22999 163.695 2.22999Z" fill="#E31D13"/>
<path d="M168.064 5.87949C168.391 6.20949 168.791 6.37449 169.265 6.37449C169.739 6.37449 170.138 6.20949 170.462 5.87949C170.789 5.54649 170.953 5.14299 170.953 4.66899C170.953 4.19499 170.789 3.79299 170.462 3.46299C170.138 3.12999 169.739 2.96349 169.265 2.96349C168.791 2.96349 168.391 3.12999 168.064 3.46299C167.74 3.79299 167.578 4.19499 167.578 4.66899C167.578 5.14299 167.74 5.54649 168.064 5.87949ZM167.974 2.55849C168.361 2.33949 168.791 2.22999 169.265 2.22999C169.739 2.22999 170.17 2.33949 170.557 2.55849C170.944 2.77749 171.245 3.07299 171.461 3.44499C171.677 3.81699 171.785 4.22499 171.785 4.66899C171.785 5.11299 171.677 5.52099 171.461 5.89299C171.245 6.26499 170.944 6.56049 170.557 6.77949C170.17 6.99849 169.739 7.10799 169.265 7.10799C168.791 7.10799 168.361 6.99849 167.974 6.77949C167.587 6.56049 167.285 6.26499 167.069 5.89299C166.853 5.52099 166.745 5.11299 166.745 4.66899C166.745 4.22499 166.853 3.81699 167.069 3.44499C167.285 3.07299 167.587 2.77749 167.974 2.55849Z" fill="#E31D13"/>
<path d="M173.286 4.92549C173.331 5.34849 173.51 5.70099 173.822 5.98299C174.137 6.26199 174.516 6.40149 174.96 6.40149C175.53 6.40149 176.021 6.17649 176.432 5.72649L176.994 6.24849C176.748 6.52749 176.453 6.74049 176.108 6.88749C175.763 7.03449 175.388 7.10799 174.983 7.10799C174.611 7.10799 174.266 7.04499 173.948 6.91899C173.63 6.78999 173.361 6.61599 173.142 6.39699C172.926 6.17799 172.757 5.91999 172.634 5.62299C172.511 5.32299 172.449 5.00499 172.449 4.66899C172.449 4.33599 172.511 4.01949 172.634 3.71949C172.76 3.41949 172.931 3.15999 173.147 2.94099C173.366 2.72199 173.628 2.54949 173.934 2.42349C174.24 2.29449 174.567 2.22999 174.915 2.22999C175.368 2.22999 175.776 2.33499 176.139 2.54499C176.505 2.75499 176.789 3.03849 176.99 3.39549C177.191 3.74949 177.291 4.13949 177.291 4.56549C177.291 4.68549 177.278 4.80549 177.251 4.92549H173.286ZM174.915 2.93649C174.531 2.93649 174.189 3.06099 173.889 3.30999C173.589 3.55899 173.399 3.87099 173.318 4.24599H176.432C176.369 3.86499 176.198 3.55149 175.919 3.30549C175.64 3.05949 175.305 2.93649 174.915 2.93649Z" fill="#E31D13"/>
<path d="M181.276 6.99999L179.679 4.78599H179.103V6.99999H178.284V2.33799H179.103V4.07949H179.688L181.006 2.33799H181.978L180.367 4.43049L182.221 6.99999H181.276Z" fill="#E31D13"/>
<path d="M183.964 3.07149H182.461V2.33799H186.286V3.07149H184.783V6.99999H183.964V3.07149Z" fill="#E31D13"/>
<path d="M191.351 2.33799V6.99999H190.532V4.95699H187.962V6.99999H187.143V2.33799H187.962V4.22349H190.532V2.33799H191.351Z" fill="#E31D13"/>
<path d="M194.859 6.37449C195.186 6.37449 195.483 6.29049 195.75 6.12249C196.02 5.95449 196.225 5.73099 196.366 5.45199V3.89949C196.225 3.61749 196.02 3.39099 195.75 3.21999C195.483 3.04899 195.186 2.96349 194.859 2.96349C194.385 2.96349 193.984 3.12999 193.657 3.46299C193.333 3.79299 193.171 4.19499 193.171 4.66899C193.171 5.14299 193.333 5.54649 193.657 5.87949C193.984 6.20949 194.385 6.37449 194.859 6.37449ZM194.724 2.22999C195.387 2.22999 195.934 2.46699 196.366 2.94099V2.33799H197.185V6.99999H196.366V6.39699C195.937 6.87099 195.39 7.10799 194.724 7.10799C194.274 7.10799 193.864 6.99699 193.495 6.77499C193.129 6.54999 192.844 6.25299 192.64 5.88399C192.439 5.51199 192.339 5.10699 192.339 4.66899C192.339 4.23099 192.439 3.82749 192.64 3.45849C192.844 3.08649 193.129 2.78949 193.495 2.56749C193.864 2.34249 194.274 2.22999 194.724 2.22999Z" fill="#E31D13"/>
<path d="M201.284 5.35299H200.362L199.061 6.99999H198.152L199.507 5.29449C199.138 5.20449 198.839 5.02749 198.611 4.76349C198.383 4.49949 198.269 4.19349 198.269 3.84549C198.269 3.41949 198.436 3.06249 198.769 2.77449C199.105 2.48349 199.519 2.33799 200.011 2.33799H202.103V6.99999H201.284V5.35299ZM200.038 4.64649H201.284V3.04449H200.038C199.768 3.04449 199.541 3.12099 199.358 3.27399C199.178 3.42699 199.088 3.61749 199.088 3.84549C199.088 4.07649 199.178 4.26849 199.358 4.42149C199.541 4.57149 199.768 4.64649 200.038 4.64649Z" fill="#E31D13"/>
<path d="M210.165 6.27999V7.95399H209.346V6.99999H206.475V7.95399H205.656V6.27999H206.142C206.589 5.33499 206.813 4.02099 206.813 2.33799H209.567V6.27999H210.165ZM207.015 6.27999H208.761V3.05799H207.591C207.591 3.60099 207.54 4.16499 207.438 4.74999C207.339 5.33199 207.198 5.84199 207.015 6.27999Z" fill="#E31D13"/>
<path d="M211.51 4.92549C211.555 5.34849 211.733 5.70099 212.045 5.98299C212.36 6.26199 212.74 6.40149 213.184 6.40149C213.754 6.40149 214.244 6.17649 214.655 5.72649L215.218 6.24849C214.972 6.52749 214.676 6.74049 214.331 6.88749C213.986 7.03449 213.611 7.10799 213.206 7.10799C212.834 7.10799 212.489 7.04499 212.171 6.91899C211.853 6.78999 211.585 6.61599 211.366 6.39699C211.15 6.17799 210.98 5.91999 210.857 5.62299C210.734 5.32299 210.673 5.00499 210.673 4.66899C210.673 4.33599 210.734 4.01949 210.857 3.71949C210.983 3.41949 211.154 3.15999 211.37 2.94099C211.589 2.72199 211.852 2.54949 212.158 2.42349C212.464 2.29449 212.791 2.22999 213.139 2.22999C213.592 2.22999 214 2.33499 214.363 2.54499C214.729 2.75499 215.012 3.03849 215.213 3.39549C215.414 3.74949 215.515 4.13949 215.515 4.56549C215.515 4.68549 215.501 4.80549 215.474 4.92549H211.51ZM213.139 2.93649C212.755 2.93649 212.413 3.06099 212.113 3.30999C211.813 3.55899 211.622 3.87099 211.541 4.24599H214.655C214.592 3.86499 214.421 3.55149 214.142 3.30549C213.863 3.05949 213.529 2.93649 213.139 2.93649Z" fill="#E31D13"/>
<path d="M219.5 6.99999L217.903 4.78599H217.327V6.99999H216.508V2.33799H217.327V4.07949H217.912L219.23 2.33799H220.202L218.591 4.43049L220.445 6.99999H219.5Z" fill="#E31D13"/>
<path d="M221.522 5.65449V2.33799H225.351V6.99999H224.532V3.07149H222.341V5.71749C222.341 6.09549 222.222 6.40899 221.985 6.65799C221.748 6.90699 221.447 7.03149 221.081 7.03149C220.922 7.03149 220.79 7.02099 220.685 6.99999V6.27549C220.733 6.27849 220.812 6.27999 220.923 6.27999C221.1 6.27999 221.244 6.22299 221.355 6.10899C221.466 5.99499 221.522 5.84349 221.522 5.65449Z" fill="#E31D13"/>
<path d="M228.864 6.37449C229.191 6.37449 229.488 6.29049 229.755 6.12249C230.025 5.95449 230.23 5.73099 230.371 5.45199V3.89949C230.23 3.61749 230.025 3.39099 229.755 3.21999C229.488 3.04899 229.191 2.96349 228.864 2.96349C228.39 2.96349 227.989 3.12999 227.662 3.46299C227.338 3.79299 227.176 4.19499 227.176 4.66899C227.176 5.14299 227.338 5.54649 227.662 5.87949C227.989 6.20949 228.39 6.37449 228.864 6.37449ZM228.729 2.22999C229.392 2.22999 229.939 2.46699 230.371 2.94099V2.33799H231.19V6.99999H230.371V6.39699C229.942 6.87099 229.395 7.10799 228.729 7.10799C228.279 7.10799 227.869 6.99699 227.5 6.77499C227.134 6.54999 226.849 6.25299 226.645 5.88399C226.444 5.51199 226.344 5.10699 226.344 4.66899C226.344 4.23099 226.444 3.82749 226.645 3.45849C226.849 3.08649 227.134 2.78949 227.5 2.56749C227.869 2.34249 228.279 2.22999 228.729 2.22999Z" fill="#E31D13"/>
<path d="M234.83 6.37449C235.304 6.37449 235.703 6.20949 236.027 5.87949C236.354 5.54649 236.518 5.14299 236.518 4.66899C236.518 4.19499 236.354 3.79299 236.027 3.46299C235.703 3.12999 235.304 2.96349 234.83 2.96349C234.503 2.96349 234.205 3.04899 233.935 3.21999C233.668 3.39099 233.464 3.61749 233.323 3.89949V5.45199C233.464 5.73099 233.668 5.95449 233.935 6.12249C234.205 6.29049 234.503 6.37449 234.83 6.37449ZM234.965 2.22999C235.415 2.22999 235.823 2.34249 236.189 2.56749C236.558 2.78949 236.843 3.08649 237.044 3.45849C237.248 3.82749 237.35 4.23099 237.35 4.66899C237.35 5.10699 237.248 5.51199 237.044 5.88399C236.843 6.25299 236.558 6.54999 236.189 6.77499C235.823 6.99699 235.415 7.10799 234.965 7.10799C234.299 7.10799 233.752 6.87099 233.323 6.39699V9.08799H232.504V2.33799H233.323V2.94099C233.755 2.46699 234.302 2.22999 234.965 2.22999Z" fill="#E31D13"/>
<path d="M240.536 6.37449C240.863 6.37449 241.16 6.29049 241.427 6.12249C241.697 5.95449 241.902 5.73099 242.043 5.45199V3.89949C241.902 3.61749 241.697 3.39099 241.427 3.21999C241.16 3.04899 240.863 2.96349 240.536 2.96349C240.062 2.96349 239.661 3.12999 239.334 3.46299C239.01 3.79299 238.848 4.19499 238.848 4.66899C238.848 5.14299 239.01 5.54649 239.334 5.87949C239.661 6.20949 240.062 6.37449 240.536 6.37449ZM240.401 2.22999C241.064 2.22999 241.611 2.46699 242.043 2.94099V2.33799H242.862V6.99999H242.043V6.39699C241.614 6.87099 241.067 7.10799 240.401 7.10799C239.951 7.10799 239.541 6.99699 239.172 6.77499C238.806 6.54999 238.521 6.25299 238.317 5.88399C238.116 5.51199 238.016 5.10699 238.016 4.66899C238.016 4.23099 238.116 3.82749 238.317 3.45849C238.521 3.08649 238.806 2.78949 239.172 2.56749C239.541 2.34249 239.951 2.22999 240.401 2.22999Z" fill="#E31D13"/>
<path d="M248.113 8.25999V6.99999H244.176V2.33799H244.995V6.26649H247.564V2.33799H248.383V6.26649H248.932V8.25999H248.113Z" fill="#E31D13"/>
<path d="M254.017 2.33799V6.99999H253.225V3.48999L250.588 6.99999H249.809V2.33799H250.601V5.84799L253.238 2.33799H254.017Z" fill="#E31D13"/>
<path d="M258.114 5.35299H257.192L255.891 6.99999H254.982L256.337 5.29449C255.968 5.20449 255.669 5.02749 255.441 4.76349C255.213 4.49949 255.099 4.19349 255.099 3.84549C255.099 3.41949 255.266 3.06249 255.599 2.77449C255.935 2.48349 256.349 2.33799 256.841 2.33799H258.933V6.99999H258.114V5.35299ZM256.868 4.64649H258.114V3.04449H256.868C256.598 3.04449 256.371 3.12099 256.188 3.27399C256.008 3.42699 255.918 3.61749 255.918 3.84549C255.918 4.07649 256.008 4.26849 256.188 4.42149C256.371 4.57149 256.598 4.64649 256.868 4.64649Z" fill="#E31D13"/>
<path d="M267.13 2.33799V6.99999H266.311V4.95699H263.742V6.99999H262.923V2.33799H263.742V4.22349H266.311V2.33799H267.13Z" fill="#E31D13"/>
<path d="M270.638 6.37449C270.965 6.37449 271.262 6.29049 271.529 6.12249C271.799 5.95449 272.005 5.73099 272.146 5.45199V3.89949C272.005 3.61749 271.799 3.39099 271.529 3.21999C271.262 3.04899 270.965 2.96349 270.638 2.96349C270.164 2.96349 269.764 3.12999 269.437 3.46299C269.113 3.79299 268.951 4.19499 268.951 4.66899C268.951 5.14299 269.113 5.54649 269.437 5.87949C269.764 6.20949 270.164 6.37449 270.638 6.37449ZM270.503 2.22999C271.166 2.22999 271.714 2.46699 272.146 2.94099V2.33799H272.965V6.99999H272.146V6.39699C271.717 6.87099 271.169 7.10799 270.503 7.10799C270.053 7.10799 269.644 6.99699 269.275 6.77499C268.909 6.54999 268.624 6.25299 268.42 5.88399C268.219 5.51199 268.118 5.10699 268.118 4.66899C268.118 4.23099 268.219 3.82749 268.42 3.45849C268.624 3.08649 268.909 2.78949 269.275 2.56749C269.644 2.34249 270.053 2.22999 270.503 2.22999Z" fill="#E31D13"/>
<path d="M279.146 7.10799C278.672 7.10799 278.241 6.99849 277.854 6.77949C277.467 6.56049 277.166 6.26499 276.95 5.89299C276.734 5.52099 276.626 5.11299 276.626 4.66899C276.626 4.22499 276.734 3.81699 276.95 3.44499C277.166 3.07299 277.467 2.77749 277.854 2.55849C278.241 2.33949 278.672 2.22999 279.146 2.22999C279.797 2.22999 280.362 2.43549 280.842 2.84649L280.415 3.48999C280.019 3.13899 279.596 2.96349 279.146 2.96349C278.672 2.96349 278.271 3.12999 277.944 3.46299C277.62 3.79299 277.458 4.19499 277.458 4.66899C277.458 5.14299 277.62 5.54649 277.944 5.87949C278.271 6.20949 278.672 6.37449 279.146 6.37449C279.632 6.37449 280.065 6.18699 280.446 5.81199L280.928 6.41049C280.448 6.87549 279.854 7.10799 279.146 7.10799Z" fill="#E31D13"/>
<path d="M284.085 6.37449C284.412 6.37449 284.709 6.29049 284.976 6.12249C285.246 5.95449 285.452 5.73099 285.593 5.45199V3.89949C285.452 3.61749 285.246 3.39099 284.976 3.21999C284.709 3.04899 284.412 2.96349 284.085 2.96349C283.611 2.96349 283.211 3.12999 282.884 3.46299C282.56 3.79299 282.398 4.19499 282.398 4.66899C282.398 5.14299 282.56 5.54649 282.884 5.87949C283.211 6.20949 283.611 6.37449 284.085 6.37449ZM283.95 2.22999C284.613 2.22999 285.161 2.46699 285.593 2.94099V2.33799H286.412V6.99999H285.593V6.39699C285.164 6.87099 284.616 7.10799 283.95 7.10799C283.5 7.10799 283.091 6.99699 282.722 6.77499C282.356 6.54999 282.071 6.25299 281.867 5.88399C281.666 5.51199 281.565 5.10699 281.565 4.66899C281.565 4.23099 281.666 3.82749 281.867 3.45849C282.071 3.08649 282.356 2.78949 282.722 2.56749C283.091 2.34249 283.5 2.22999 283.95 2.22999Z" fill="#E31D13"/>
<path d="M291.933 2.33799V6.99999H291.141V3.48999L288.504 6.99999H287.725V2.33799H288.517V5.84799L291.154 2.33799H291.933ZM290.839 1.36149C290.56 1.62249 290.223 1.75299 289.827 1.75299C289.431 1.75299 289.092 1.62249 288.81 1.36149C288.531 1.09749 288.381 0.764488 288.36 0.362488H289.089C289.098 0.587488 289.17 0.773488 289.305 0.920488C289.443 1.06749 289.617 1.14099 289.827 1.14099C290.037 1.14099 290.209 1.06749 290.344 0.920488C290.482 0.773488 290.556 0.587488 290.565 0.362488H291.294C291.273 0.764488 291.121 1.09749 290.839 1.36149Z" fill="#E31D13"/>
<path d="M294.293 3.07149H292.79V2.33799H296.615V3.07149H295.112V6.99999H294.293V3.07149Z" fill="#E31D13"/>
<path d="M297.81 4.92549C297.855 5.34849 298.033 5.70099 298.345 5.98299C298.66 6.26199 299.04 6.40149 299.484 6.40149C300.054 6.40149 300.544 6.17649 300.955 5.72649L301.518 6.24849C301.272 6.52749 300.976 6.74049 300.631 6.88749C300.286 7.03449 299.911 7.10799 299.506 7.10799C299.134 7.10799 298.789 7.04499 298.471 6.91899C298.153 6.78999 297.885 6.61599 297.666 6.39699C297.45 6.17799 297.28 5.91999 297.157 5.62299C297.034 5.32299 296.973 5.00499 296.973 4.66899C296.973 4.33599 297.034 4.01949 297.157 3.71949C297.283 3.41949 297.454 3.15999 297.67 2.94099C297.889 2.72199 298.152 2.54949 298.458 2.42349C298.764 2.29449 299.091 2.22999 299.439 2.22999C299.892 2.22999 300.3 2.33499 300.663 2.54499C301.029 2.75499 301.312 3.03849 301.513 3.39549C301.714 3.74949 301.815 4.13949 301.815 4.56549C301.815 4.68549 301.801 4.80549 301.774 4.92549H297.81ZM299.439 2.93649C299.055 2.93649 298.713 3.06099 298.413 3.30999C298.113 3.55899 297.922 3.87099 297.841 4.24599H300.955C300.892 3.86499 300.721 3.55149 300.442 3.30549C300.163 3.05949 299.829 2.93649 299.439 2.93649Z" fill="#E31D13"/>
<path d="M309.687 2.33799V6.99999H308.868V4.95699H306.298V6.99999H305.479V2.33799H306.298V4.22349H308.868V2.33799H309.687Z" fill="#E31D13"/>
<path d="M313.195 6.37449C313.522 6.37449 313.819 6.29049 314.086 6.12249C314.356 5.95449 314.561 5.73099 314.702 5.45199V3.89949C314.561 3.61749 314.356 3.39099 314.086 3.21999C313.819 3.04899 313.522 2.96349 313.195 2.96349C312.721 2.96349 312.32 3.12999 311.993 3.46299C311.669 3.79299 311.507 4.19499 311.507 4.66899C311.507 5.14299 311.669 5.54649 311.993 5.87949C312.32 6.20949 312.721 6.37449 313.195 6.37449ZM313.06 2.22999C313.723 2.22999 314.27 2.46699 314.702 2.94099V2.33799H315.521V6.99999H314.702V6.39699C314.273 6.87099 313.726 7.10799 313.06 7.10799C312.61 7.10799 312.2 6.99699 311.831 6.77499C311.465 6.54999 311.18 6.25299 310.976 5.88399C310.775 5.51199 310.675 5.10699 310.675 4.66899C310.675 4.23099 310.775 3.82749 310.976 3.45849C311.18 3.08649 311.465 2.78949 311.831 2.56749C312.2 2.34249 312.61 2.22999 313.06 2.22999Z" fill="#E31D13"/>
<path d="M322.613 2.33799V6.99999H316.835V2.33799H317.654V6.26649H319.314V2.33799H320.133V6.26649H321.794V2.33799H322.613Z" fill="#E31D13"/>
<path d="M324.207 6.94599C324.099 6.83799 324.044 6.70449 324.044 6.54549C324.044 6.38649 324.099 6.25299 324.207 6.14499C324.315 6.03699 324.448 5.98299 324.607 5.98299C324.766 5.98299 324.9 6.03699 325.008 6.14499C325.116 6.25299 325.169 6.38649 325.169 6.54549C325.169 6.70449 325.116 6.83799 325.008 6.94599C324.9 7.05399 324.766 7.10799 324.607 7.10799C324.448 7.10799 324.315 7.05399 324.207 6.94599Z" fill="#E31D13"/>
<path d="M330.672 6.27999V7.95399H329.853V6.99999H326.982V7.95399H326.163V6.27999H326.649C327.096 5.33499 327.319 4.02099 327.319 2.33799H330.073V6.27999H330.672ZM327.522 6.27999H329.268V3.05799H328.098C328.098 3.60099 328.047 4.16499 327.945 4.74999C327.846 5.33199 327.705 5.84199 327.522 6.27999Z" fill="#E31D13"/>
<path d="M332.498 5.87949C332.825 6.20949 333.226 6.37449 333.7 6.37449C334.174 6.37449 334.573 6.20949 334.897 5.87949C335.224 5.54649 335.387 5.14299 335.387 4.66899C335.387 4.19499 335.224 3.79299 334.897 3.46299C334.573 3.12999 334.174 2.96349 333.7 2.96349C333.226 2.96349 332.825 3.12999 332.498 3.46299C332.174 3.79299 332.012 4.19499 332.012 4.66899C332.012 5.14299 332.174 5.54649 332.498 5.87949ZM332.408 2.55849C332.795 2.33949 333.226 2.22999 333.7 2.22999C334.174 2.22999 334.604 2.33949 334.991 2.55849C335.378 2.77749 335.68 3.07299 335.896 3.44499C336.112 3.81699 336.22 4.22499 336.22 4.66899C336.22 5.11299 336.112 5.52099 335.896 5.89299C335.68 6.26499 335.378 6.56049 334.991 6.77949C334.604 6.99849 334.174 7.10799 333.7 7.10799C333.226 7.10799 332.795 6.99849 332.408 6.77949C332.021 6.56049 331.72 6.26499 331.504 5.89299C331.288 5.52099 331.18 5.11299 331.18 4.66899C331.18 4.22499 331.288 3.81699 331.504 3.44499C331.72 3.07299 332.021 2.77749 332.408 2.55849Z" fill="#E31D13"/>
<path d="M337.964 2.33799L339.588 4.79499L341.213 2.33799H341.969V6.99999H341.177V3.59349L339.836 5.59149H339.341L338 3.59349V6.99999H337.208V2.33799H337.964Z" fill="#E31D13"/>
<path d="M343.56 6.94599C343.452 6.83799 343.398 6.70449 343.398 6.54549C343.398 6.38649 343.452 6.25299 343.56 6.14499C343.668 6.03699 343.802 5.98299 343.961 5.98299C344.12 5.98299 344.253 6.03699 344.361 6.14499C344.469 6.25299 344.523 6.38649 344.523 6.54549C344.523 6.70449 344.469 6.83799 344.361 6.94599C344.253 7.05399 344.12 7.10799 343.961 7.10799C343.802 7.10799 343.668 7.05399 343.56 6.94599Z" fill="#E31D13"/>
<path d="M348.279 6.37449C348.753 6.37449 349.152 6.20949 349.476 5.87949C349.803 5.54649 349.967 5.14299 349.967 4.66899C349.967 4.19499 349.803 3.79299 349.476 3.46299C349.152 3.12999 348.753 2.96349 348.279 2.96349C347.952 2.96349 347.654 3.04899 347.384 3.21999C347.117 3.39099 346.913 3.61749 346.772 3.89949V5.45199C346.913 5.73099 347.117 5.95449 347.384 6.12249C347.654 6.29049 347.952 6.37449 348.279 6.37449ZM348.414 2.22999C348.864 2.22999 349.272 2.34249 349.638 2.56749C350.007 2.78949 350.292 3.08649 350.493 3.45849C350.697 3.82749 350.799 4.23099 350.799 4.66899C350.799 5.10699 350.697 5.51199 350.493 5.88399C350.292 6.25299 350.007 6.54999 349.638 6.77499C349.272 6.99699 348.864 7.10799 348.414 7.10799C347.748 7.10799 347.201 6.87099 346.772 6.39699V9.08799H345.953V2.33799H346.772V2.94099C347.204 2.46699 347.751 2.22999 348.414 2.22999Z" fill="#E31D13"/>
<path d="M353.985 6.37449C354.312 6.37449 354.609 6.29049 354.876 6.12249C355.146 5.95449 355.351 5.73099 355.492 5.45199V3.89949C355.351 3.61749 355.146 3.39099 354.876 3.21999C354.609 3.04899 354.312 2.96349 353.985 2.96349C353.511 2.96349 353.11 3.12999 352.783 3.46299C352.459 3.79299 352.297 4.19499 352.297 4.66899C352.297 5.14299 352.459 5.54649 352.783 5.87949C353.11 6.20949 353.511 6.37449 353.985 6.37449ZM356.311 6.39699V9.08799H355.492V6.39699C355.063 6.87099 354.516 7.10799 353.85 7.10799C353.4 7.10799 352.99 6.99699 352.621 6.77499C352.255 6.54999 351.97 6.25299 351.766 5.88399C351.565 5.51199 351.465 5.10699 351.465 4.66899C351.465 4.23099 351.565 3.82749 351.766 3.45849C351.97 3.08649 352.255 2.78949 352.621 2.56749C352.99 2.34249 353.4 2.22999 353.85 2.22999C354.513 2.22999 355.06 2.46699 355.492 2.94099V0.429988H356.311V2.94099C356.743 2.46699 357.291 2.22999 357.954 2.22999C358.404 2.22999 358.812 2.34249 359.178 2.56749C359.547 2.78949 359.832 3.08649 360.033 3.45849C360.237 3.82749 360.339 4.23099 360.339 4.66899C360.339 5.10699 360.237 5.51199 360.033 5.88399C359.832 6.25299 359.547 6.54999 359.178 6.77499C358.812 6.99699 358.404 7.10799 357.954 7.10799C357.288 7.10799 356.74 6.87099 356.311 6.39699ZM357.819 6.37449C358.293 6.37449 358.692 6.20949 359.016 5.87949C359.343 5.54649 359.506 5.14299 359.506 4.66899C359.506 4.19499 359.343 3.79299 359.016 3.46299C358.692 3.12999 358.293 2.96349 357.819 2.96349C357.492 2.96349 357.193 3.04899 356.923 3.21999C356.656 3.39099 356.452 3.61749 356.311 3.89949V5.45199C356.452 5.73099 356.656 5.95449 356.923 6.12249C357.193 6.29049 357.492 6.37449 357.819 6.37449Z" fill="#E31D13"/>
<path d="M361.604 6.94599C361.496 6.83799 361.442 6.70449 361.442 6.54549C361.442 6.38649 361.496 6.25299 361.604 6.14499C361.712 6.03699 361.845 5.98299 362.004 5.98299C362.163 5.98299 362.297 6.03699 362.405 6.14499C362.513 6.25299 362.567 6.38649 362.567 6.54549C362.567 6.70449 362.513 6.83799 362.405 6.94599C362.297 7.05399 362.163 7.10799 362.004 7.10799C361.845 7.10799 361.712 7.05399 361.604 6.94599Z" fill="#E31D13"/>
<path d="M366.871 0.699987H367.717V6.99999H366.871V0.699987Z" fill="#E31D13"/>
<path d="M369.334 0.699987H371.472C372.42 0.699987 373.173 0.984987 373.731 1.55499C374.292 2.12199 374.572 2.88699 374.572 3.84999C374.572 4.81299 374.292 5.57949 373.731 6.14949C373.173 6.71649 372.42 6.99999 371.472 6.99999H369.334V0.699987ZM371.472 1.44699H370.18V6.25299H371.472C372.153 6.25299 372.696 6.04599 373.101 5.63199C373.509 5.21499 373.713 4.62099 373.713 3.84999C373.713 3.07899 373.509 2.48649 373.101 2.07249C372.696 1.65549 372.153 1.44699 371.472 1.44699Z" fill="#E31D13"/>
<path d="M382.334 6.27999V7.95399H381.515V6.99999H378.644V7.95399H377.825V6.27999H378.311C378.758 5.33499 378.982 4.02099 378.982 2.33799H381.736V6.27999H382.334ZM379.184 6.27999H380.93V3.05799H379.76C379.76 3.60099 379.709 4.16499 379.607 4.74999C379.508 5.33199 379.367 5.84199 379.184 6.27999Z" fill="#E31D13"/>
<path d="M384.16 5.87949C384.487 6.20949 384.888 6.37449 385.362 6.37449C385.836 6.37449 386.235 6.20949 386.559 5.87949C386.886 5.54649 387.049 5.14299 387.049 4.66899C387.049 4.19499 386.886 3.79299 386.559 3.46299C386.235 3.12999 385.836 2.96349 385.362 2.96349C384.888 2.96349 384.487 3.12999 384.16 3.46299C383.836 3.79299 383.674 4.19499 383.674 4.66899C383.674 5.14299 383.836 5.54649 384.16 5.87949ZM384.07 2.55849C384.457 2.33949 384.888 2.22999 385.362 2.22999C385.836 2.22999 386.266 2.33949 386.653 2.55849C387.04 2.77749 387.342 3.07299 387.558 3.44499C387.774 3.81699 387.882 4.22499 387.882 4.66899C387.882 5.11299 387.774 5.52099 387.558 5.89299C387.342 6.26499 387.04 6.56049 386.653 6.77949C386.266 6.99849 385.836 7.10799 385.362 7.10799C384.888 7.10799 384.457 6.99849 384.07 6.77949C383.683 6.56049 383.382 6.26499 383.166 5.89299C382.95 5.52099 382.842 5.11299 382.842 4.66899C382.842 4.22499 382.95 3.81699 383.166 3.44499C383.382 3.07299 383.683 2.77749 384.07 2.55849Z" fill="#E31D13"/>
<path d="M389.626 2.33799L391.25 4.79499L392.875 2.33799H393.631V6.99999H392.839V3.59349L391.498 5.59149H391.003L389.662 3.59349V6.99999H388.87V2.33799H389.626Z" fill="#E31D13"/>
<path d="M395.938 5.87949C396.265 6.20949 396.665 6.37449 397.139 6.37449C397.613 6.37449 398.012 6.20949 398.336 5.87949C398.663 5.54649 398.827 5.14299 398.827 4.66899C398.827 4.19499 398.663 3.79299 398.336 3.46299C398.012 3.12999 397.613 2.96349 397.139 2.96349C396.665 2.96349 396.265 3.12999 395.938 3.46299C395.614 3.79299 395.452 4.19499 395.452 4.66899C395.452 5.14299 395.614 5.54649 395.938 5.87949ZM395.848 2.55849C396.235 2.33949 396.665 2.22999 397.139 2.22999C397.613 2.22999 398.044 2.33949 398.431 2.55849C398.818 2.77749 399.119 3.07299 399.335 3.44499C399.551 3.81699 399.659 4.22499 399.659 4.66899C399.659 5.11299 399.551 5.52099 399.335 5.89299C399.119 6.26499 398.818 6.56049 398.431 6.77949C398.044 6.99849 397.613 7.10799 397.139 7.10799C396.665 7.10799 396.235 6.99849 395.848 6.77949C395.461 6.56049 395.159 6.26499 394.943 5.89299C394.727 5.52099 394.619 5.11299 394.619 4.66899C394.619 4.22499 394.727 3.81699 394.943 3.44499C395.159 3.07299 395.461 2.77749 395.848 2.55849Z" fill="#E31D13"/>
<path d="M402.618 6.99999H400.647V2.33799H402.479C402.905 2.33799 403.262 2.45649 403.55 2.69349C403.841 2.93049 403.986 3.22299 403.986 3.57099C403.986 3.78699 403.922 3.98349 403.793 4.16049C403.664 4.33749 403.496 4.46649 403.289 4.54749C403.547 4.60749 403.763 4.74549 403.937 4.96149C404.114 5.17749 404.202 5.41749 404.202 5.68149C404.202 6.05349 404.049 6.36699 403.743 6.62199C403.44 6.87399 403.065 6.99999 402.618 6.99999ZM401.466 4.25949H402.425C402.638 4.25949 402.815 4.20249 402.956 4.08849C403.097 3.97149 403.167 3.82599 403.167 3.65199C403.167 3.47799 403.097 3.33399 402.956 3.21999C402.815 3.10299 402.638 3.04449 402.425 3.04449H401.466V4.25949ZM401.466 6.29349H402.578C402.806 6.29349 402.996 6.22899 403.149 6.09999C403.305 5.97099 403.383 5.81199 403.383 5.62299C403.383 5.43099 403.305 5.26899 403.149 5.13699C402.996 5.00499 402.806 4.93899 402.578 4.93899H401.466V6.29349Z" fill="#E31D13"/>
<path d="M405.567 6.94599C405.459 6.83799 405.405 6.70449 405.405 6.54549C405.405 6.38649 405.459 6.25299 405.567 6.14499C405.675 6.03699 405.808 5.98299 405.967 5.98299C406.126 5.98299 406.26 6.03699 406.368 6.14499C406.476 6.25299 406.53 6.38649 406.53 6.54549C406.53 6.70449 406.476 6.83799 406.368 6.94599C406.26 7.05399 406.126 7.10799 405.967 7.10799C405.808 7.10799 405.675 7.05399 405.567 6.94599ZM405.567 3.19299C405.459 3.08499 405.405 2.95149 405.405 2.79249C405.405 2.63349 405.459 2.49999 405.567 2.39199C405.675 2.28399 405.808 2.22999 405.967 2.22999C406.126 2.22999 406.26 2.28399 406.368 2.39199C406.476 2.49999 406.53 2.63349 406.53 2.79249C406.53 2.95149 406.476 3.08499 406.368 3.19299C406.26 3.30099 406.126 3.35499 405.967 3.35499C405.808 3.35499 405.675 3.30099 405.567 3.19299Z" fill="#E31D13"/>
<path d="M413.755 5.04699C413.755 4.67499 413.621 4.35849 413.354 4.09749C413.087 3.83649 412.756 3.70599 412.36 3.70599C412.24 3.70599 412.117 3.72549 411.991 3.76449L411.662 3.34599L413.282 1.43349H410.789V0.699987H414.295V1.43349L412.792 3.17049C413.326 3.20949 413.758 3.41349 414.088 3.78249C414.421 4.14849 414.587 4.59549 414.587 5.12349C414.587 5.37549 414.535 5.61999 414.43 5.85699C414.325 6.09399 414.179 6.30549 413.993 6.49149C413.807 6.67749 413.575 6.82749 413.296 6.94149C413.017 7.05249 412.714 7.10799 412.387 7.10799C411.97 7.10799 411.595 7.01799 411.262 6.83799C410.932 6.65799 410.657 6.40149 410.438 6.06849L411.01 5.59149C411.361 6.12249 411.811 6.38799 412.36 6.38799C412.756 6.38799 413.087 6.25899 413.354 6.00099C413.621 5.73999 413.755 5.42199 413.755 5.04699Z" fill="#E31D13"/>
<path d="M416.079 0.699987H419.935V1.40199L417.586 6.99999H416.65L418.999 1.43349H416.079V0.699987Z" fill="#E31D13"/>
<path d="M422.246 6.99999L423.808 4.58349C423.655 4.67649 423.464 4.72299 423.236 4.72299C422.672 4.72299 422.185 4.52799 421.774 4.13799C421.366 3.74499 421.162 3.25299 421.162 2.66199C421.162 2.27199 421.264 1.91649 421.468 1.59549C421.672 1.27449 421.939 1.02699 422.269 0.852988C422.602 0.678988 422.96 0.591988 423.344 0.591988C423.728 0.591988 424.087 0.678988 424.42 0.852988C424.753 1.02699 425.021 1.27449 425.225 1.59549C425.429 1.91649 425.531 2.27199 425.531 2.66199C425.531 3.06699 425.428 3.42999 425.221 3.75099L423.133 6.99999H422.246ZM421.994 2.66199C421.994 3.04299 422.125 3.36399 422.386 3.62499C422.65 3.88599 422.969 4.01649 423.344 4.01649C423.719 4.01649 424.039 3.88599 424.303 3.62499C424.567 3.36399 424.699 3.04299 424.699 2.66199C424.699 2.28399 424.567 1.96449 424.303 1.70349C424.042 1.44249 423.722 1.31199 423.344 1.31199C422.969 1.31199 422.65 1.44249 422.386 1.70349C422.125 1.96449 421.994 2.28399 421.994 2.66199Z" fill="#E31D13"/>
<path d="M429.786 5.04699C429.786 4.67499 429.652 4.35849 429.385 4.09749C429.118 3.83649 428.787 3.70599 428.391 3.70599C428.271 3.70599 428.148 3.72549 428.022 3.76449L427.693 3.34599L429.313 1.43349H426.82V0.699987H430.326V1.43349L428.823 3.17049C429.357 3.20949 429.789 3.41349 430.119 3.78249C430.452 4.14849 430.618 4.59549 430.618 5.12349C430.618 5.37549 430.566 5.61999 430.461 5.85699C430.356 6.09399 430.21 6.30549 430.024 6.49149C429.838 6.67749 429.606 6.82749 429.327 6.94149C429.048 7.05249 428.745 7.10799 428.418 7.10799C428.001 7.10799 427.626 7.01799 427.293 6.83799C426.963 6.65799 426.688 6.40149 426.469 6.06849L427.041 5.59149C427.392 6.12249 427.842 6.38799 428.391 6.38799C428.787 6.38799 429.118 6.25899 429.385 6.00099C429.652 5.73999 429.786 5.42199 429.786 5.04699Z" fill="#E31D13"/>
<path d="M435.094 4.27749L433.285 6.27999H435.926V6.99999H432.191V6.31599L434.446 3.83199C434.701 3.54999 434.882 3.29799 434.99 3.07599C435.101 2.85099 435.157 2.62149 435.157 2.38749C435.157 2.07249 435.05 1.81449 434.837 1.61349C434.627 1.41249 434.357 1.31199 434.027 1.31199C433.427 1.31199 433.019 1.63149 432.803 2.27049L432.106 1.96899C432.229 1.54899 432.457 1.21449 432.79 0.965488C433.126 0.716488 433.538 0.591988 434.027 0.591988C434.597 0.591988 435.067 0.756988 435.436 1.08699C435.805 1.41699 435.989 1.84899 435.989 2.38299C435.989 2.71899 435.919 3.03099 435.778 3.31899C435.637 3.60699 435.409 3.92649 435.094 4.27749Z" fill="#E31D13"/>
<path d="M437.467 6.54549C437.467 6.38649 437.521 6.25299 437.629 6.14499C437.737 6.03699 437.871 5.98299 438.03 5.98299C438.189 5.98299 438.322 6.03699 438.43 6.14499C438.538 6.25299 438.592 6.38649 438.592 6.54549C438.592 6.63249 438.573 6.71799 438.534 6.80199L437.94 8.10249H437.395L437.854 7.08099C437.737 7.04499 437.643 6.97899 437.571 6.88299C437.502 6.78399 437.467 6.67149 437.467 6.54549Z" fill="#E31D13"/>
<path d="M445.817 5.04699C445.817 4.67499 445.684 4.35849 445.417 4.09749C445.15 3.83649 444.818 3.70599 444.422 3.70599C444.302 3.70599 444.179 3.72549 444.053 3.76449L443.725 3.34599L445.345 1.43349H442.852V0.699987H446.357V1.43349L444.854 3.17049C445.388 3.20949 445.82 3.41349 446.15 3.78249C446.483 4.14849 446.65 4.59549 446.65 5.12349C446.65 5.37549 446.597 5.61999 446.492 5.85699C446.387 6.09399 446.242 6.30549 446.056 6.49149C445.87 6.67749 445.637 6.82749 445.358 6.94149C445.079 7.05249 444.776 7.10799 444.449 7.10799C444.032 7.10799 443.657 7.01799 443.324 6.83799C442.994 6.65799 442.72 6.40149 442.501 6.06849L443.072 5.59149C443.423 6.12249 443.873 6.38799 444.422 6.38799C444.818 6.38799 445.15 6.25899 445.417 6.00099C445.684 5.73999 445.817 5.42199 445.817 5.04699Z" fill="#E31D13"/>
<path d="M451.584 6.54999C451.17 6.92199 450.66 7.10799 450.054 7.10799C449.448 7.10799 448.938 6.92199 448.524 6.54999C448.11 6.17499 447.903 5.71299 447.903 5.16399C447.903 4.78599 448.009 4.44999 448.222 4.15599C448.438 3.86199 448.731 3.65499 449.1 3.53499C448.845 3.42999 448.635 3.25749 448.47 3.01749C448.308 2.77749 448.227 2.51799 448.227 2.23899C448.227 1.77699 448.399 1.38699 448.744 1.06899C449.092 0.750988 449.529 0.591988 450.054 0.591988C450.579 0.591988 451.014 0.750988 451.359 1.06899C451.707 1.38699 451.881 1.77699 451.881 2.23899C451.881 2.51799 451.798 2.77749 451.633 3.01749C451.471 3.25749 451.263 3.42999 451.008 3.53499C451.377 3.65499 451.668 3.86199 451.881 4.15599C452.097 4.44999 452.205 4.78599 452.205 5.16399C452.205 5.71299 451.998 6.17499 451.584 6.54999ZM450.99 4.27299C450.738 4.02999 450.426 3.90849 450.054 3.90849C449.682 3.90849 449.368 4.02999 449.113 4.27299C448.861 4.51599 448.735 4.80849 448.735 5.15049C448.735 5.49249 448.861 5.78499 449.113 6.02799C449.368 6.26799 449.682 6.38799 450.054 6.38799C450.426 6.38799 450.738 6.26799 450.99 6.02799C451.245 5.78499 451.372 5.49249 451.372 5.15049C451.372 4.80849 451.245 4.51599 450.99 4.27299ZM449.329 2.93199C449.527 3.12099 449.769 3.21549 450.054 3.21549C450.339 3.21549 450.58 3.12099 450.778 2.93199C450.976 2.74299 451.075 2.51799 451.075 2.25699C451.075 1.99599 450.976 1.77399 450.778 1.59099C450.58 1.40499 450.339 1.31199 450.054 1.31199C449.769 1.31199 449.527 1.40499 449.329 1.59099C449.131 1.77399 449.032 1.99599 449.032 2.25699C449.032 2.51799 449.131 2.74299 449.329 2.93199Z" fill="#E31D13"/>
<path d="M456.487 0.699987L454.925 3.11649C455.078 3.02349 455.269 2.97699 455.497 2.97699C456.061 2.97699 456.547 3.17349 456.955 3.56649C457.366 3.95649 457.571 4.44699 457.571 5.03799C457.571 5.42799 457.469 5.78349 457.265 6.10449C457.061 6.42549 456.793 6.67299 456.46 6.84699C456.13 7.02099 455.773 7.10799 455.389 7.10799C455.005 7.10799 454.646 7.02099 454.313 6.84699C453.98 6.67299 453.712 6.42549 453.508 6.10449C453.304 5.78349 453.202 5.42799 453.202 5.03799C453.202 4.63299 453.305 4.26999 453.512 3.94899L455.6 0.699987H456.487ZM456.739 5.03799C456.739 4.65699 456.607 4.33599 456.343 4.07499C456.082 3.81399 455.764 3.68349 455.389 3.68349C455.014 3.68349 454.694 3.81399 454.43 4.07499C454.166 4.33599 454.034 4.65699 454.034 5.03799C454.034 5.41599 454.165 5.73549 454.426 5.99649C454.69 6.25749 455.011 6.38799 455.389 6.38799C455.764 6.38799 456.082 6.25749 456.343 5.99649C456.607 5.73549 456.739 5.41599 456.739 5.03799Z" fill="#E31D13"/>
<path d="M460.719 0.699987H461.484V6.99999H460.651V1.53699L459.459 2.18949L459.108 1.57299L460.719 0.699987Z" fill="#E31D13"/>
<path d="M467.192 5.04699C467.192 4.67499 467.059 4.35849 466.792 4.09749C466.525 3.83649 466.193 3.70599 465.797 3.70599C465.677 3.70599 465.554 3.72549 465.428 3.76449L465.1 3.34599L466.72 1.43349H464.227V0.699987H467.732V1.43349L466.229 3.17049C466.763 3.20949 467.195 3.41349 467.525 3.78249C467.858 4.14849 468.025 4.59549 468.025 5.12349C468.025 5.37549 467.972 5.61999 467.867 5.85699C467.762 6.09399 467.617 6.30549 467.431 6.49149C467.245 6.67749 467.012 6.82749 466.733 6.94149C466.454 7.05249 466.151 7.10799 465.824 7.10799C465.407 7.10799 465.032 7.01799 464.699 6.83799C464.369 6.65799 464.095 6.40149 463.876 6.06849L464.447 5.59149C464.798 6.12249 465.248 6.38799 465.797 6.38799C466.193 6.38799 466.525 6.25899 466.792 6.00099C467.059 5.73999 467.192 5.42199 467.192 5.04699Z" fill="#E31D13"/>
<path d="M469.692 6.94599C469.584 6.83799 469.53 6.70449 469.53 6.54549C469.53 6.38649 469.584 6.25299 469.692 6.14499C469.8 6.03699 469.933 5.98299 470.092 5.98299C470.251 5.98299 470.385 6.03699 470.493 6.14499C470.601 6.25299 470.655 6.38649 470.655 6.54549C470.655 6.70449 470.601 6.83799 470.493 6.94599C470.385 7.05399 470.251 7.10799 470.092 7.10799C469.933 7.10799 469.8 7.05399 469.692 6.94599Z" fill="#E31D13"/>
<path d="M0.756002 18V11.7H1.602V14.4675H4.671V11.7H5.517V18H4.671V15.201H1.602V18H0.756002Z" fill="#E31D13"/>
<path d="M7.44539 15.9255C7.49039 16.3485 7.66889 16.701 7.98089 16.983C8.29589 17.262 8.67539 17.4015 9.11939 17.4015C9.68939 17.4015 10.1799 17.1765 10.5909 16.7265L11.1534 17.2485C10.9074 17.5275 10.6119 17.7405 10.2669 17.8875C9.92189 18.0345 9.54689 18.108 9.14189 18.108C8.76989 18.108 8.42489 18.045 8.10689 17.919C7.78889 17.79 7.52039 17.616 7.30139 17.397C7.08539 17.178 6.91589 16.92 6.79289 16.623C6.66989 16.323 6.60839 16.005 6.60839 15.669C6.60839 15.336 6.66989 15.0195 6.79289 14.7195C6.91889 14.4195 7.08989 14.16 7.30589 13.941C7.52489 13.722 7.78739 13.5495 8.09339 13.4235C8.39939 13.2945 8.72639 13.23 9.07439 13.23C9.52739 13.23 9.93539 13.335 10.2984 13.545C10.6644 13.755 10.9479 14.0385 11.1489 14.3955C11.3499 14.7495 11.4504 15.1395 11.4504 15.5655C11.4504 15.6855 11.4369 15.8055 11.4099 15.9255H7.44539ZM9.07439 13.9365C8.69039 13.9365 8.34839 14.061 8.04839 14.31C7.74839 14.559 7.55789 14.871 7.47689 15.246H10.5909C10.5279 14.865 10.3569 14.5515 10.0779 14.3055C9.79889 14.0595 9.46439 13.9365 9.07439 13.9365Z" fill="#E31D13"/>
<path d="M17.9005 16.353H16.978L15.6775 18H14.7685L16.123 16.2945C15.754 16.2045 15.4555 16.0275 15.2275 15.7635C14.9995 15.4995 14.8855 15.1935 14.8855 14.8455C14.8855 14.4195 15.052 14.0625 15.385 13.7745C15.721 13.4835 16.135 13.338 16.627 13.338H18.7195V18H17.9005V16.353ZM16.654 15.6465H17.9005V14.0445H16.654C16.384 14.0445 16.1575 14.121 15.9745 14.274C15.7945 14.427 15.7045 14.6175 15.7045 14.8455C15.7045 15.0765 15.7945 15.2685 15.9745 15.4215C16.1575 15.5715 16.384 15.6465 16.654 15.6465Z" fill="#E31D13"/>
<path d="M22.0079 18H20.0369V13.338H21.8684C22.2944 13.338 22.6514 13.4565 22.9394 13.6935C23.2304 13.9305 23.3759 14.223 23.3759 14.571C23.3759 14.787 23.3114 14.9835 23.1824 15.1605C23.0534 15.3375 22.8854 15.4665 22.6784 15.5475C22.9364 15.6075 23.1524 15.7455 23.3264 15.9615C23.5034 16.1775 23.5919 16.4175 23.5919 16.6815C23.5919 17.0535 23.4389 17.367 23.1329 17.622C22.8299 17.874 22.4549 18 22.0079 18ZM20.8559 15.2595H21.8144C22.0274 15.2595 22.2044 15.2025 22.3454 15.0885C22.4864 14.9715 22.5569 14.826 22.5569 14.652C22.5569 14.478 22.4864 14.334 22.3454 14.22C22.2044 14.103 22.0274 14.0445 21.8144 14.0445H20.8559V15.2595ZM20.8559 17.2935H21.9674C22.1954 17.2935 22.3859 17.229 22.5389 17.1C22.6949 16.971 22.7729 16.812 22.7729 16.623C22.7729 16.431 22.6949 16.269 22.5389 16.137C22.3859 16.005 22.1954 15.939 21.9674 15.939H20.8559V17.2935Z" fill="#E31D13"/>
<path d="M24.9721 16.6545V13.338H28.8016V18H27.9826V14.0715H25.7911V16.7175C25.7911 17.0955 25.6726 17.409 25.4356 17.658C25.1986 17.907 24.8971 18.0315 24.5311 18.0315C24.3721 18.0315 24.2401 18.021 24.1351 18V17.2755C24.1831 17.2785 24.2626 17.28 24.3736 17.28C24.5506 17.28 24.6946 17.223 24.8056 17.109C24.9166 16.995 24.9721 16.8435 24.9721 16.6545Z" fill="#E31D13"/>
<path d="M32.9034 16.353H31.9809L30.6804 18H29.7714L31.1259 16.2945C30.7569 16.2045 30.4584 16.0275 30.2304 15.7635C30.0024 15.4995 29.8884 15.1935 29.8884 14.8455C29.8884 14.4195 30.0549 14.0625 30.3879 13.7745C30.7239 13.4835 31.1379 13.338 31.6299 13.338H33.7224V18H32.9034V16.353ZM31.6569 15.6465H32.9034V14.0445H31.6569C31.3869 14.0445 31.1604 14.121 30.9774 14.274C30.7974 14.427 30.7074 14.6175 30.7074 14.8455C30.7074 15.0765 30.7974 15.2685 30.9774 15.4215C31.1604 15.5715 31.3869 15.6465 31.6569 15.6465Z" fill="#E31D13"/>
<path d="M35.5528 15.9255C35.5978 16.3485 35.7763 16.701 36.0883 16.983C36.4033 17.262 36.7828 17.4015 37.2268 17.4015C37.7968 17.4015 38.2873 17.1765 38.6983 16.7265L39.2608 17.2485C39.0148 17.5275 38.7193 17.7405 38.3743 17.8875C38.0293 18.0345 37.6543 18.108 37.2493 18.108C36.8773 18.108 36.5323 18.045 36.2143 17.919C35.8963 17.79 35.6278 17.616 35.4088 17.397C35.1928 17.178 35.0233 16.92 34.9003 16.623C34.7773 16.323 34.7158 16.005 34.7158 15.669C34.7158 15.336 34.7773 15.0195 34.9003 14.7195C35.0263 14.4195 35.1973 14.16 35.4133 13.941C35.6323 13.722 35.8948 13.5495 36.2008 13.4235C36.5068 13.2945 36.8338 13.23 37.1818 13.23C37.6348 13.23 38.0428 13.335 38.4058 13.545C38.7718 13.755 39.0553 14.0385 39.2563 14.3955C39.4573 14.7495 39.5578 15.1395 39.5578 15.5655C39.5578 15.6855 39.5443 15.8055 39.5173 15.9255H35.5528ZM37.1818 13.9365C36.7978 13.9365 36.4558 14.061 36.1558 14.31C35.8558 14.559 35.6653 14.871 35.5843 15.246H38.6983C38.6353 14.865 38.4643 14.5515 38.1853 14.3055C37.9063 14.0595 37.5718 13.9365 37.1818 13.9365Z" fill="#E31D13"/>
<path d="M41.5112 14.0715H40.0082V13.338H43.8332V14.0715H42.3302V18H41.5112V14.0715Z" fill="#E31D13"/>
<path d="M46.7104 18.108C46.2364 18.108 45.8059 17.9985 45.4189 17.7795C45.0319 17.5605 44.7304 17.265 44.5144 16.893C44.2984 16.521 44.1904 16.113 44.1904 15.669C44.1904 15.225 44.2984 14.817 44.5144 14.445C44.7304 14.073 45.0319 13.7775 45.4189 13.5585C45.8059 13.3395 46.2364 13.23 46.7104 13.23C47.3614 13.23 47.9269 13.4355 48.4069 13.8465L47.9794 14.49C47.5834 14.139 47.1604 13.9635 46.7104 13.9635C46.2364 13.9635 45.8359 14.13 45.5089 14.463C45.1849 14.793 45.0229 15.195 45.0229 15.669C45.0229 16.143 45.1849 16.5465 45.5089 16.8795C45.8359 17.2095 46.2364 17.3745 46.7104 17.3745C47.1964 17.3745 47.6299 17.187 48.0109 16.812L48.4924 17.4105C48.0124 17.8755 47.4184 18.108 46.7104 18.108Z" fill="#E31D13"/>
<path d="M52.2394 16.353H51.3169L50.0164 18H49.1074L50.4619 16.2945C50.0929 16.2045 49.7944 16.0275 49.5664 15.7635C49.3384 15.4995 49.2244 15.1935 49.2244 14.8455C49.2244 14.4195 49.3909 14.0625 49.7239 13.7745C50.0599 13.4835 50.4739 13.338 50.9659 13.338H53.0584V18H52.2394V16.353ZM50.9929 15.6465H52.2394V14.0445H50.9929C50.7229 14.0445 50.4964 14.121 50.3134 14.274C50.1334 14.427 50.0434 14.6175 50.0434 14.8455C50.0434 15.0765 50.1334 15.2685 50.3134 15.4215C50.4964 15.5715 50.7229 15.6465 50.9929 15.6465Z" fill="#E31D13"/>
<path d="M61.2551 13.338V18H60.4361V14.0715H57.8666V18H57.0476V13.338H61.2551Z" fill="#E31D13"/>
<path d="M63.0262 20.088L63.8542 17.982L62.0317 13.338H62.8867L64.2727 16.9425L65.6587 13.338H66.5137L63.8812 20.088H63.0262Z" fill="#E31D13"/>
<path d="M67.9482 14.499C68.1462 14.268 68.3862 14.085 68.6682 13.95C68.9532 13.812 69.2592 13.743 69.5862 13.743C70.2012 13.743 70.7202 13.9545 71.1432 14.3775C71.5662 14.7975 71.7777 15.3135 71.7777 15.9255C71.7777 16.5525 71.5557 17.073 71.1117 17.487C70.6677 17.901 70.1037 18.108 69.4197 18.108C68.7267 18.108 68.1597 17.874 67.7187 17.406C67.2807 16.938 67.0617 16.293 67.0617 15.471C67.0617 14.898 67.1007 14.403 67.1787 13.986C67.2567 13.569 67.3782 13.2045 67.5432 12.8925C67.7082 12.5805 67.9302 12.3255 68.2092 12.1275C68.4912 11.9265 68.8227 11.7705 69.2037 11.6595C69.5877 11.5455 70.0467 11.469 70.5807 11.43L70.6977 12.1635C70.2747 12.2025 69.9147 12.2595 69.6177 12.3345C69.3207 12.4095 69.0687 12.504 68.8617 12.618C68.6577 12.732 68.4927 12.8805 68.3667 13.0635C68.2437 13.2465 68.1492 13.4505 68.0832 13.6755C68.0202 13.9005 67.9752 14.175 67.9482 14.499ZM67.8942 15.4125C67.8942 16.0215 68.0322 16.5015 68.3082 16.8525C68.5842 17.2005 68.9547 17.3745 69.4197 17.3745C69.8547 17.3745 70.2177 17.2365 70.5087 16.9605C70.7997 16.6815 70.9452 16.3365 70.9452 15.9255C70.9452 15.5175 70.8012 15.174 70.5132 14.895C70.2282 14.616 69.8787 14.4765 69.4647 14.4765C69.1437 14.4765 68.8497 14.562 68.5827 14.733C68.3157 14.901 68.0862 15.1275 67.8942 15.4125Z" fill="#E31D13"/>
<path d="M73.0219 16.6545V13.338H76.8514V18H76.0324V14.0715H73.8409V16.7175C73.8409 17.0955 73.7224 17.409 73.4854 17.658C73.2484 17.907 72.9469 18.0315 72.5809 18.0315C72.4219 18.0315 72.2899 18.021 72.1849 18V17.2755C72.2329 17.2785 72.3124 17.28 72.4234 17.28C72.6004 17.28 72.7444 17.223 72.8554 17.109C72.9664 16.995 73.0219 16.8435 73.0219 16.6545Z" fill="#E31D13"/>
<path d="M82.3752 13.338V18H81.5832V14.49L78.9462 18H78.1677V13.338H78.9597V16.848L81.5967 13.338H82.3752Z" fill="#E31D13"/>
<path d="M86.4953 18V15.993C86.3423 16.212 86.1518 16.386 85.9238 16.515C85.6988 16.641 85.4483 16.704 85.1723 16.704C84.6953 16.704 84.2918 16.5345 83.9618 16.1955C83.6318 15.8535 83.4668 15.435 83.4668 14.94V13.338H84.2858V14.8995C84.2858 15.2025 84.3848 15.4575 84.5828 15.6645C84.7808 15.8685 85.0268 15.9705 85.3208 15.9705C85.8338 15.9705 86.2253 15.6915 86.4953 15.1335V13.338H87.3143V18H86.4953Z" fill="#E31D13"/>
<path d="M92.8342 13.338V18H92.0152V15.957H89.4457V18H88.6267V13.338H89.4457V15.2235H92.0152V13.338H92.8342Z" fill="#E31D13"/>
<path d="M95.1408 16.8795C95.4678 17.2095 95.8683 17.3745 96.3423 17.3745C96.8163 17.3745 97.2153 17.2095 97.5393 16.8795C97.8663 16.5465 98.0298 16.143 98.0298 15.669C98.0298 15.195 97.8663 14.793 97.5393 14.463C97.2153 14.13 96.8163 13.9635 96.3423 13.9635C95.8683 13.9635 95.4678 14.13 95.1408 14.463C94.8168 14.793 94.6548 15.195 94.6548 15.669C94.6548 16.143 94.8168 16.5465 95.1408 16.8795ZM95.0508 13.5585C95.4378 13.3395 95.8683 13.23 96.3423 13.23C96.8163 13.23 97.2468 13.3395 97.6338 13.5585C98.0208 13.7775 98.3223 14.073 98.5383 14.445C98.7543 14.817 98.8623 15.225 98.8623 15.669C98.8623 16.113 98.7543 16.521 98.5383 16.893C98.3223 17.265 98.0208 17.5605 97.6338 17.7795C97.2468 17.9985 96.8163 18.108 96.3423 18.108C95.8683 18.108 95.4378 17.9985 95.0508 17.7795C94.6638 17.5605 94.3623 17.265 94.1463 16.893C93.9303 16.521 93.8223 16.113 93.8223 15.669C93.8223 15.225 93.9303 14.817 94.1463 14.445C94.3623 14.073 94.6638 13.7775 95.0508 13.5585Z" fill="#E31D13"/>
<path d="M104.058 13.338V18H103.266V14.49L100.629 18H99.8504V13.338H100.642V16.848L103.279 13.338H104.058ZM102.964 12.3615C102.685 12.6225 102.348 12.753 101.952 12.753C101.556 12.753 101.217 12.6225 100.935 12.3615C100.656 12.0975 100.506 11.7645 100.485 11.3625H101.214C101.223 11.5875 101.295 11.7735 101.43 11.9205C101.568 12.0675 101.742 12.141 101.952 12.141C102.162 12.141 102.334 12.0675 102.469 11.9205C102.607 11.7735 102.681 11.5875 102.69 11.3625H103.419C103.398 11.7645 103.246 12.0975 102.964 12.3615Z" fill="#E31D13"/>
<path d="M109.036 16.8795C109.363 17.2095 109.764 17.3745 110.238 17.3745C110.712 17.3745 111.111 17.2095 111.435 16.8795C111.762 16.5465 111.925 16.143 111.925 15.669C111.925 15.195 111.762 14.793 111.435 14.463C111.111 14.13 110.712 13.9635 110.238 13.9635C109.764 13.9635 109.363 14.13 109.036 14.463C108.712 14.793 108.55 15.195 108.55 15.669C108.55 16.143 108.712 16.5465 109.036 16.8795ZM108.946 13.5585C109.333 13.3395 109.764 13.23 110.238 13.23C110.712 13.23 111.142 13.3395 111.529 13.5585C111.916 13.7775 112.218 14.073 112.434 14.445C112.65 14.817 112.758 15.225 112.758 15.669C112.758 16.113 112.65 16.521 112.434 16.893C112.218 17.265 111.916 17.5605 111.529 17.7795C111.142 17.9985 110.712 18.108 110.238 18.108C109.764 18.108 109.333 17.9985 108.946 17.7795C108.559 17.5605 108.258 17.265 108.042 16.893C107.826 16.521 107.718 16.113 107.718 15.669C107.718 15.225 107.826 14.817 108.042 14.445C108.258 14.073 108.559 13.7775 108.946 13.5585Z" fill="#E31D13"/>
<path d="M115.942 17.3745C116.269 17.3745 116.566 17.2905 116.833 17.1225C117.103 16.9545 117.308 16.731 117.449 16.452V14.8995C117.308 14.6175 117.103 14.391 116.833 14.22C116.566 14.049 116.269 13.9635 115.942 13.9635C115.468 13.9635 115.067 14.13 114.74 14.463C114.416 14.793 114.254 15.195 114.254 15.669C114.254 16.143 114.416 16.5465 114.74 16.8795C115.067 17.2095 115.468 17.3745 115.942 17.3745ZM118.268 17.397V20.088H117.449V17.397C117.02 17.871 116.473 18.108 115.807 18.108C115.357 18.108 114.947 17.997 114.578 17.775C114.212 17.55 113.927 17.253 113.723 16.884C113.522 16.512 113.422 16.107 113.422 15.669C113.422 15.231 113.522 14.8275 113.723 14.4585C113.927 14.0865 114.212 13.7895 114.578 13.5675C114.947 13.3425 115.357 13.23 115.807 13.23C116.47 13.23 117.017 13.467 117.449 13.941V11.43H118.268V13.941C118.7 13.467 119.248 13.23 119.911 13.23C120.361 13.23 120.769 13.3425 121.135 13.5675C121.504 13.7895 121.789 14.0865 121.99 14.4585C122.194 14.8275 122.296 15.231 122.296 15.669C122.296 16.107 122.194 16.512 121.99 16.884C121.789 17.253 121.504 17.55 121.135 17.775C120.769 17.997 120.361 18.108 119.911 18.108C119.245 18.108 118.697 17.871 118.268 17.397ZM119.776 17.3745C120.25 17.3745 120.649 17.2095 120.973 16.8795C121.3 16.5465 121.463 16.143 121.463 15.669C121.463 15.195 121.3 14.793 120.973 14.463C120.649 14.13 120.25 13.9635 119.776 13.9635C119.449 13.9635 119.15 14.049 118.88 14.22C118.613 14.391 118.409 14.6175 118.268 14.8995V16.452C118.409 16.731 118.613 16.9545 118.88 17.1225C119.15 17.2905 119.449 17.3745 119.776 17.3745Z" fill="#E31D13"/>
<path d="M123.795 15.9255C123.84 16.3485 124.018 16.701 124.33 16.983C124.645 17.262 125.025 17.4015 125.469 17.4015C126.039 17.4015 126.529 17.1765 126.94 16.7265L127.503 17.2485C127.257 17.5275 126.962 17.7405 126.617 17.8875C126.272 18.0345 125.897 18.108 125.492 18.108C125.12 18.108 124.774 18.045 124.456 17.919C124.138 17.79 123.87 17.616 123.651 17.397C123.435 17.178 123.266 16.92 123.143 16.623C123.02 16.323 122.958 16.005 122.958 15.669C122.958 15.336 123.02 15.0195 123.143 14.7195C123.269 14.4195 123.44 14.16 123.656 13.941C123.875 13.722 124.137 13.5495 124.443 13.4235C124.749 13.2945 125.076 13.23 125.424 13.23C125.877 13.23 126.285 13.335 126.648 13.545C127.014 13.755 127.297 14.0385 127.498 14.3955C127.699 14.7495 127.8 15.1395 127.8 15.5655C127.8 15.6855 127.786 15.8055 127.759 15.9255H123.795ZM125.424 13.9365C125.04 13.9365 124.698 14.061 124.398 14.31C124.098 14.559 123.907 14.871 123.826 15.246H126.94C126.877 14.865 126.706 14.5515 126.427 14.3055C126.148 14.0595 125.814 13.9365 125.424 13.9365Z" fill="#E31D13"/>
<path d="M131.119 17.3745C131.593 17.3745 131.992 17.2095 132.316 16.8795C132.643 16.5465 132.807 16.143 132.807 15.669C132.807 15.195 132.643 14.793 132.316 14.463C131.992 14.13 131.593 13.9635 131.119 13.9635C130.792 13.9635 130.494 14.049 130.224 14.22C129.957 14.391 129.753 14.6175 129.612 14.8995V16.452C129.753 16.731 129.957 16.9545 130.224 17.1225C130.494 17.2905 130.792 17.3745 131.119 17.3745ZM131.254 13.23C131.704 13.23 132.112 13.3425 132.478 13.5675C132.847 13.7895 133.132 14.0865 133.333 14.4585C133.537 14.8275 133.639 15.231 133.639 15.669C133.639 16.107 133.537 16.512 133.333 16.884C133.132 17.253 132.847 17.55 132.478 17.775C132.112 17.997 131.704 18.108 131.254 18.108C130.588 18.108 130.041 17.871 129.612 17.397V20.088H128.793V13.338H129.612V13.941C130.044 13.467 130.591 13.23 131.254 13.23Z" fill="#E31D13"/>
<path d="M135.589 14.0715H134.086V13.338H137.911V14.0715H136.408V18H135.589V14.0715Z" fill="#E31D13"/>
<path d="M139.587 16.8795C139.914 17.2095 140.315 17.3745 140.789 17.3745C141.263 17.3745 141.662 17.2095 141.986 16.8795C142.313 16.5465 142.476 16.143 142.476 15.669C142.476 15.195 142.313 14.793 141.986 14.463C141.662 14.13 141.263 13.9635 140.789 13.9635C140.315 13.9635 139.914 14.13 139.587 14.463C139.263 14.793 139.101 15.195 139.101 15.669C139.101 16.143 139.263 16.5465 139.587 16.8795ZM139.497 13.5585C139.884 13.3395 140.315 13.23 140.789 13.23C141.263 13.23 141.693 13.3395 142.08 13.5585C142.467 13.7775 142.769 14.073 142.985 14.445C143.201 14.817 143.309 15.225 143.309 15.669C143.309 16.113 143.201 16.521 142.985 16.893C142.769 17.265 142.467 17.5605 142.08 17.7795C141.693 17.9985 141.263 18.108 140.789 18.108C140.315 18.108 139.884 17.9985 139.497 17.7795C139.11 17.5605 138.809 17.265 138.593 16.893C138.377 16.521 138.269 16.113 138.269 15.669C138.269 15.225 138.377 14.817 138.593 14.445C138.809 14.073 139.11 13.7775 139.497 13.5585Z" fill="#E31D13"/>
<path d="M148.504 13.338V18H147.712V14.49L145.075 18H144.297V13.338H145.089V16.848L147.726 13.338H148.504ZM147.411 12.3615C147.132 12.6225 146.794 12.753 146.398 12.753C146.002 12.753 145.663 12.6225 145.381 12.3615C145.102 12.0975 144.952 11.7645 144.931 11.3625H145.66C145.669 11.5875 145.741 11.7735 145.876 11.9205C146.014 12.0675 146.188 12.141 146.398 12.141C146.608 12.141 146.781 12.0675 146.916 11.9205C147.054 11.7735 147.127 11.5875 147.136 11.3625H147.865C147.844 11.7645 147.693 12.0975 147.411 12.3615Z" fill="#E31D13"/>
<path d="M149.933 17.5455C149.933 17.3865 149.987 17.253 150.095 17.145C150.203 17.037 150.337 16.983 150.496 16.983C150.655 16.983 150.788 17.037 150.896 17.145C151.004 17.253 151.058 17.3865 151.058 17.5455C151.058 17.6325 151.039 17.718 151 17.802L150.406 19.1025H149.861L150.32 18.081C150.203 18.045 150.109 17.979 150.037 17.883C149.968 17.784 149.933 17.6715 149.933 17.5455Z" fill="#E31D13"/>
<path d="M159.367 13.338V18H158.548V14.0715H155.979V18H155.16V13.338H159.367Z" fill="#E31D13"/>
<path d="M161.674 16.8795C162.001 17.2095 162.401 17.3745 162.875 17.3745C163.349 17.3745 163.748 17.2095 164.072 16.8795C164.399 16.5465 164.563 16.143 164.563 15.669C164.563 15.195 164.399 14.793 164.072 14.463C163.748 14.13 163.349 13.9635 162.875 13.9635C162.401 13.9635 162.001 14.13 161.674 14.463C161.35 14.793 161.188 15.195 161.188 15.669C161.188 16.143 161.35 16.5465 161.674 16.8795ZM161.584 13.5585C161.971 13.3395 162.401 13.23 162.875 13.23C163.349 13.23 163.78 13.3395 164.167 13.5585C164.554 13.7775 164.855 14.073 165.071 14.445C165.287 14.817 165.395 15.225 165.395 15.669C165.395 16.113 165.287 16.521 165.071 16.893C164.855 17.265 164.554 17.5605 164.167 17.7795C163.78 17.9985 163.349 18.108 162.875 18.108C162.401 18.108 161.971 17.9985 161.584 17.7795C161.197 17.5605 160.895 17.265 160.679 16.893C160.463 16.521 160.355 16.113 160.355 15.669C160.355 15.225 160.463 14.817 160.679 14.445C160.895 14.073 161.197 13.7775 161.584 13.5585Z" fill="#E31D13"/>
<path d="M170.368 17.28V18.954H169.549V18H166.678V18.954H165.859V17.28H166.345C166.792 16.335 167.016 15.021 167.016 13.338H169.77V17.28H170.368ZM167.218 17.28H168.964V14.058H167.794C167.794 14.601 167.743 15.165 167.641 15.75C167.542 16.332 167.401 16.842 167.218 17.28Z" fill="#E31D13"/>
<path d="M173.57 17.3745C174.044 17.3745 174.443 17.2095 174.767 16.8795C175.094 16.5465 175.258 16.143 175.258 15.669C175.258 15.195 175.094 14.793 174.767 14.463C174.443 14.13 174.044 13.9635 173.57 13.9635C173.243 13.9635 172.945 14.049 172.675 14.22C172.408 14.391 172.204 14.6175 172.063 14.8995V16.452C172.204 16.731 172.408 16.9545 172.675 17.1225C172.945 17.2905 173.243 17.3745 173.57 17.3745ZM173.705 13.23C174.155 13.23 174.563 13.3425 174.929 13.5675C175.298 13.7895 175.583 14.0865 175.784 14.4585C175.988 14.8275 176.09 15.231 176.09 15.669C176.09 16.107 175.988 16.512 175.784 16.884C175.583 17.253 175.298 17.55 174.929 17.775C174.563 17.997 174.155 18.108 173.705 18.108C173.039 18.108 172.492 17.871 172.063 17.397V20.088H171.244V13.338H172.063V13.941C172.495 13.467 173.042 13.23 173.705 13.23Z" fill="#E31D13"/>
<path d="M178.074 16.8795C178.401 17.2095 178.802 17.3745 179.276 17.3745C179.75 17.3745 180.149 17.2095 180.473 16.8795C180.8 16.5465 180.963 16.143 180.963 15.669C180.963 15.195 180.8 14.793 180.473 14.463C180.149 14.13 179.75 13.9635 179.276 13.9635C178.802 13.9635 178.401 14.13 178.074 14.463C177.75 14.793 177.588 15.195 177.588 15.669C177.588 16.143 177.75 16.5465 178.074 16.8795ZM177.984 13.5585C178.371 13.3395 178.802 13.23 179.276 13.23C179.75 13.23 180.18 13.3395 180.567 13.5585C180.954 13.7775 181.256 14.073 181.472 14.445C181.688 14.817 181.796 15.225 181.796 15.669C181.796 16.113 181.688 16.521 181.472 16.893C181.256 17.265 180.954 17.5605 180.567 17.7795C180.18 17.9985 179.75 18.108 179.276 18.108C178.802 18.108 178.371 17.9985 177.984 17.7795C177.597 17.5605 177.296 17.265 177.08 16.893C176.864 16.521 176.756 16.113 176.756 15.669C176.756 15.225 176.864 14.817 177.08 14.445C177.296 14.073 177.597 13.7775 177.984 13.5585Z" fill="#E31D13"/>
<path d="M183.436 14.499C183.634 14.268 183.874 14.085 184.156 13.95C184.441 13.812 184.747 13.743 185.074 13.743C185.689 13.743 186.208 13.9545 186.631 14.3775C187.054 14.7975 187.266 15.3135 187.266 15.9255C187.266 16.5525 187.044 17.073 186.6 17.487C186.156 17.901 185.592 18.108 184.908 18.108C184.215 18.108 183.648 17.874 183.207 17.406C182.769 16.938 182.55 16.293 182.55 15.471C182.55 14.898 182.589 14.403 182.667 13.986C182.745 13.569 182.866 13.2045 183.031 12.8925C183.196 12.5805 183.418 12.3255 183.697 12.1275C183.979 11.9265 184.311 11.7705 184.692 11.6595C185.076 11.5455 185.535 11.469 186.069 11.43L186.186 12.1635C185.763 12.2025 185.403 12.2595 185.106 12.3345C184.809 12.4095 184.557 12.504 184.35 12.618C184.146 12.732 183.981 12.8805 183.855 13.0635C183.732 13.2465 183.637 13.4505 183.571 13.6755C183.508 13.9005 183.463 14.175 183.436 14.499ZM183.382 15.4125C183.382 16.0215 183.52 16.5015 183.796 16.8525C184.072 17.2005 184.443 17.3745 184.908 17.3745C185.343 17.3745 185.706 17.2365 185.997 16.9605C186.288 16.6815 186.433 16.3365 186.433 15.9255C186.433 15.5175 186.289 15.174 186.001 14.895C185.716 14.616 185.367 14.4765 184.953 14.4765C184.632 14.4765 184.338 14.562 184.071 14.733C183.804 14.901 183.574 15.1275 183.382 15.4125Z" fill="#E31D13"/>
<path d="M192.467 13.338V18H191.648V15.957H189.079V18H188.26V13.338H189.079V15.2235H191.648V13.338H192.467Z" fill="#E31D13"/>
<path d="M194.774 16.8795C195.101 17.2095 195.501 17.3745 195.975 17.3745C196.449 17.3745 196.848 17.2095 197.172 16.8795C197.499 16.5465 197.663 16.143 197.663 15.669C197.663 15.195 197.499 14.793 197.172 14.463C196.848 14.13 196.449 13.9635 195.975 13.9635C195.501 13.9635 195.101 14.13 194.774 14.463C194.45 14.793 194.288 15.195 194.288 15.669C194.288 16.143 194.45 16.5465 194.774 16.8795ZM194.684 13.5585C195.071 13.3395 195.501 13.23 195.975 13.23C196.449 13.23 196.88 13.3395 197.267 13.5585C197.654 13.7775 197.955 14.073 198.171 14.445C198.387 14.817 198.495 15.225 198.495 15.669C198.495 16.113 198.387 16.521 198.171 16.893C197.955 17.265 197.654 17.5605 197.267 17.7795C196.88 17.9985 196.449 18.108 195.975 18.108C195.501 18.108 195.071 17.9985 194.684 17.7795C194.297 17.5605 193.995 17.265 193.779 16.893C193.563 16.521 193.455 16.113 193.455 15.669C193.455 15.225 193.563 14.817 193.779 14.445C193.995 14.073 194.297 13.7775 194.684 13.5585Z" fill="#E31D13"/>
<path d="M201.679 18.108C201.205 18.108 200.775 17.9985 200.388 17.7795C200.001 17.5605 199.699 17.265 199.483 16.893C199.267 16.521 199.159 16.113 199.159 15.669C199.159 15.225 199.267 14.817 199.483 14.445C199.699 14.073 200.001 13.7775 200.388 13.5585C200.775 13.3395 201.205 13.23 201.679 13.23C202.33 13.23 202.896 13.4355 203.376 13.8465L202.948 14.49C202.552 14.139 202.129 13.9635 201.679 13.9635C201.205 13.9635 200.805 14.13 200.478 14.463C200.154 14.793 199.992 15.195 199.992 15.669C199.992 16.143 200.154 16.5465 200.478 16.8795C200.805 17.2095 201.205 17.3745 201.679 17.3745C202.165 17.3745 202.599 17.187 202.98 16.812L203.461 17.4105C202.981 17.8755 202.387 18.108 201.679 18.108Z" fill="#E31D13"/>
<path d="M205.427 14.0715H203.924V13.338H207.749V14.0715H206.246V18H205.427V14.0715Z" fill="#E31D13"/>
<path d="M212.814 13.338V18H212.022V14.49L209.385 18H208.606V13.338H209.398V16.848L212.035 13.338H212.814Z" fill="#E31D13"/>
<path d="M218.769 18H216.798V13.338H218.629C219.055 13.338 219.412 13.4565 219.7 13.6935C219.991 13.9305 220.137 14.223 220.137 14.571C220.137 14.787 220.072 14.9835 219.943 15.1605C219.814 15.3375 219.646 15.4665 219.439 15.5475C219.697 15.6075 219.913 15.7455 220.087 15.9615C220.264 16.1775 220.353 16.4175 220.353 16.6815C220.353 17.0535 220.2 17.367 219.894 17.622C219.591 17.874 219.216 18 218.769 18ZM217.617 15.2595H218.575C218.788 15.2595 218.965 15.2025 219.106 15.0885C219.247 14.9715 219.318 14.826 219.318 14.652C219.318 14.478 219.247 14.334 219.106 14.22C218.965 14.103 218.788 14.0445 218.575 14.0445H217.617V15.2595ZM217.617 17.2935H218.728C218.956 17.2935 219.147 17.229 219.3 17.1C219.456 16.971 219.534 16.812 219.534 16.623C219.534 16.431 219.456 16.269 219.3 16.137C219.147 16.005 218.956 15.939 218.728 15.939H217.617V17.2935Z" fill="#E31D13"/>
<path d="M225.105 16.8795C225.432 17.2095 225.832 17.3745 226.306 17.3745C226.78 17.3745 227.179 17.2095 227.503 16.8795C227.83 16.5465 227.994 16.143 227.994 15.669C227.994 15.195 227.83 14.793 227.503 14.463C227.179 14.13 226.78 13.9635 226.306 13.9635C225.832 13.9635 225.432 14.13 225.105 14.463C224.781 14.793 224.619 15.195 224.619 15.669C224.619 16.143 224.781 16.5465 225.105 16.8795ZM225.015 13.5585C225.402 13.3395 225.832 13.23 226.306 13.23C226.78 13.23 227.211 13.3395 227.598 13.5585C227.985 13.7775 228.286 14.073 228.502 14.445C228.718 14.817 228.826 15.225 228.826 15.669C228.826 16.113 228.718 16.521 228.502 16.893C228.286 17.265 227.985 17.5605 227.598 17.7795C227.211 17.9985 226.78 18.108 226.306 18.108C225.832 18.108 225.402 17.9985 225.015 17.7795C224.628 17.5605 224.326 17.265 224.11 16.893C223.894 16.521 223.786 16.113 223.786 15.669C223.786 15.225 223.894 14.817 224.11 14.445C224.326 14.073 224.628 13.7775 225.015 13.5585Z" fill="#E31D13"/>
<path d="M230.775 14.0715H229.272V13.338H233.097V14.0715H231.594V18H230.775V14.0715Z" fill="#E31D13"/>
<path d="M237.851 17.28V18.954H237.032V18H234.161V18.954H233.342V17.28H233.828C234.275 16.335 234.498 15.021 234.498 13.338H237.252V17.28H237.851ZM234.701 17.28H236.447V14.058H235.277C235.277 14.601 235.226 15.165 235.124 15.75C235.025 16.332 234.884 16.842 234.701 17.28Z" fill="#E31D13"/>
<path d="M239.195 15.9255C239.24 16.3485 239.419 16.701 239.731 16.983C240.046 17.262 240.425 17.4015 240.869 17.4015C241.439 17.4015 241.93 17.1765 242.341 16.7265L242.903 17.2485C242.657 17.5275 242.362 17.7405 242.017 17.8875C241.672 18.0345 241.297 18.108 240.892 18.108C240.52 18.108 240.175 18.045 239.857 17.919C239.539 17.79 239.27 17.616 239.051 17.397C238.835 17.178 238.666 16.92 238.543 16.623C238.42 16.323 238.358 16.005 238.358 15.669C238.358 15.336 238.42 15.0195 238.543 14.7195C238.669 14.4195 238.84 14.16 239.056 13.941C239.275 13.722 239.537 13.5495 239.843 13.4235C240.149 13.2945 240.476 13.23 240.824 13.23C241.277 13.23 241.685 13.335 242.048 13.545C242.414 13.755 242.698 14.0385 242.899 14.3955C243.1 14.7495 243.2 15.1395 243.2 15.5655C243.2 15.6855 243.187 15.8055 243.16 15.9255H239.195ZM240.824 13.9365C240.44 13.9365 240.098 14.061 239.798 14.31C239.498 14.559 239.308 14.871 239.227 15.246H242.341C242.278 14.865 242.107 14.5515 241.828 14.3055C241.549 14.0595 241.214 13.9365 240.824 13.9365Z" fill="#E31D13"/>
<path d="M244.488 16.6545V13.338H248.317V18H247.498V14.0715H245.307V16.7175C245.307 17.0955 245.188 17.409 244.951 17.658C244.714 17.907 244.413 18.0315 244.047 18.0315C243.888 18.0315 243.756 18.021 243.651 18V17.2755C243.699 17.2785 243.778 17.28 243.889 17.28C244.066 17.28 244.21 17.223 244.321 17.109C244.432 16.995 244.488 16.8435 244.488 16.6545Z" fill="#E31D13"/>
<path d="M250.147 15.9255C250.192 16.3485 250.37 16.701 250.682 16.983C250.997 17.262 251.377 17.4015 251.821 17.4015C252.391 17.4015 252.881 17.1765 253.292 16.7265L253.855 17.2485C253.609 17.5275 253.313 17.7405 252.968 17.8875C252.623 18.0345 252.248 18.108 251.843 18.108C251.471 18.108 251.126 18.045 250.808 17.919C250.49 17.79 250.222 17.616 250.003 17.397C249.787 17.178 249.617 16.92 249.494 16.623C249.371 16.323 249.31 16.005 249.31 15.669C249.31 15.336 249.371 15.0195 249.494 14.7195C249.62 14.4195 249.791 14.16 250.007 13.941C250.226 13.722 250.489 13.5495 250.795 13.4235C251.101 13.2945 251.428 13.23 251.776 13.23C252.229 13.23 252.637 13.335 253 13.545C253.366 13.755 253.649 14.0385 253.85 14.3955C254.051 14.7495 254.152 15.1395 254.152 15.5655C254.152 15.6855 254.138 15.8055 254.111 15.9255H250.147ZM251.776 13.9365C251.392 13.9365 251.05 14.061 250.75 14.31C250.45 14.559 250.259 14.871 250.178 15.246H253.292C253.229 14.865 253.058 14.5515 252.779 14.3055C252.5 14.0595 252.166 13.9365 251.776 13.9365Z" fill="#E31D13"/>
<path d="M262.024 13.338V18H261.205V14.0715H258.635V18H257.816V13.338H262.024Z" fill="#E31D13"/>
<path d="M265.662 17.3745C266.136 17.3745 266.535 17.2095 266.859 16.8795C267.186 16.5465 267.35 16.143 267.35 15.669C267.35 15.195 267.186 14.793 266.859 14.463C266.535 14.13 266.136 13.9635 265.662 13.9635C265.335 13.9635 265.037 14.049 264.767 14.22C264.5 14.391 264.296 14.6175 264.155 14.8995V16.452C264.296 16.731 264.5 16.9545 264.767 17.1225C265.037 17.2905 265.335 17.3745 265.662 17.3745ZM265.797 13.23C266.247 13.23 266.655 13.3425 267.021 13.5675C267.39 13.7895 267.675 14.0865 267.876 14.4585C268.08 14.8275 268.182 15.231 268.182 15.669C268.182 16.107 268.08 16.512 267.876 16.884C267.675 17.253 267.39 17.55 267.021 17.775C266.655 17.997 266.247 18.108 265.797 18.108C265.131 18.108 264.584 17.871 264.155 17.397V20.088H263.336V13.338H264.155V13.941C264.587 13.467 265.134 13.23 265.797 13.23Z" fill="#E31D13"/>
<path d="M270.166 16.8795C270.493 17.2095 270.894 17.3745 271.368 17.3745C271.842 17.3745 272.241 17.2095 272.565 16.8795C272.892 16.5465 273.055 16.143 273.055 15.669C273.055 15.195 272.892 14.793 272.565 14.463C272.241 14.13 271.842 13.9635 271.368 13.9635C270.894 13.9635 270.493 14.13 270.166 14.463C269.842 14.793 269.68 15.195 269.68 15.669C269.68 16.143 269.842 16.5465 270.166 16.8795ZM270.076 13.5585C270.463 13.3395 270.894 13.23 271.368 13.23C271.842 13.23 272.272 13.3395 272.659 13.5585C273.046 13.7775 273.348 14.073 273.564 14.445C273.78 14.817 273.888 15.225 273.888 15.669C273.888 16.113 273.78 16.521 273.564 16.893C273.348 17.265 273.046 17.5605 272.659 17.7795C272.272 17.9985 271.842 18.108 271.368 18.108C270.894 18.108 270.463 17.9985 270.076 17.7795C269.689 17.5605 269.388 17.265 269.172 16.893C268.956 16.521 268.848 16.113 268.848 15.669C268.848 15.225 268.956 14.817 269.172 14.445C269.388 14.073 269.689 13.7775 270.076 13.5585Z" fill="#E31D13"/>
<path d="M278.86 17.28V18.954H278.041V18H275.17V18.954H274.351V17.28H274.837C275.284 16.335 275.508 15.021 275.508 13.338H278.262V17.28H278.86ZM275.71 17.28H277.456V14.058H276.286C276.286 14.601 276.235 15.165 276.133 15.75C276.034 16.332 275.893 16.842 275.71 17.28Z" fill="#E31D13"/>
<path d="M281.932 17.3745C282.259 17.3745 282.556 17.2905 282.823 17.1225C283.093 16.9545 283.299 16.731 283.44 16.452V14.8995C283.299 14.6175 283.093 14.391 282.823 14.22C282.556 14.049 282.259 13.9635 281.932 13.9635C281.458 13.9635 281.058 14.13 280.731 14.463C280.407 14.793 280.245 15.195 280.245 15.669C280.245 16.143 280.407 16.5465 280.731 16.8795C281.058 17.2095 281.458 17.3745 281.932 17.3745ZM281.797 13.23C282.46 13.23 283.008 13.467 283.44 13.941V13.338H284.259V18H283.44V17.397C283.011 17.871 282.463 18.108 281.797 18.108C281.347 18.108 280.938 17.997 280.569 17.775C280.203 17.55 279.918 17.253 279.714 16.884C279.513 16.512 279.412 16.107 279.412 15.669C279.412 15.231 279.513 14.8275 279.714 14.4585C279.918 14.0865 280.203 13.7895 280.569 13.5675C280.938 13.3425 281.347 13.23 281.797 13.23Z" fill="#E31D13"/>
<path d="M290.972 18L289.406 15.8535H288.844V18H288.025V15.8535H287.462L285.896 18H284.951L286.783 15.498L285.194 13.338H286.166L287.467 15.147H288.025V13.338H288.844V15.147H289.402L290.702 13.338H291.674L290.086 15.498L291.917 18H290.972Z" fill="#E31D13"/>
<path d="M299.491 13.338V18H298.699V14.49L296.062 18H295.284V13.338H296.076V16.848L298.713 13.338H299.491Z" fill="#E31D13"/>
<path d="M301.186 16.6545V13.338H305.015V18H304.196V14.0715H302.005V16.7175C302.005 17.0955 301.886 17.409 301.649 17.658C301.412 17.907 301.111 18.0315 300.745 18.0315C300.586 18.0315 300.454 18.021 300.349 18V17.2755C300.397 17.2785 300.476 17.28 300.587 17.28C300.764 17.28 300.908 17.223 301.019 17.109C301.13 16.995 301.186 16.8435 301.186 16.6545Z" fill="#E31D13"/>
<path d="M310.539 13.338V18H309.747V14.49L307.11 18H306.332V13.338H307.124V16.848L309.761 13.338H310.539Z" fill="#E31D13"/>
<path d="M318.731 13.338V18H317.912V14.0715H315.342V18H314.523V13.338H318.731Z" fill="#E31D13"/>
<path d="M321.037 16.8795C321.364 17.2095 321.765 17.3745 322.239 17.3745C322.713 17.3745 323.112 17.2095 323.436 16.8795C323.763 16.5465 323.926 16.143 323.926 15.669C323.926 15.195 323.763 14.793 323.436 14.463C323.112 14.13 322.713 13.9635 322.239 13.9635C321.765 13.9635 321.364 14.13 321.037 14.463C320.713 14.793 320.551 15.195 320.551 15.669C320.551 16.143 320.713 16.5465 321.037 16.8795ZM320.947 13.5585C321.334 13.3395 321.765 13.23 322.239 13.23C322.713 13.23 323.143 13.3395 323.53 13.5585C323.917 13.7775 324.219 14.073 324.435 14.445C324.651 14.817 324.759 15.225 324.759 15.669C324.759 16.113 324.651 16.521 324.435 16.893C324.219 17.265 323.917 17.5605 323.53 17.7795C323.143 17.9985 322.713 18.108 322.239 18.108C321.765 18.108 321.334 17.9985 320.947 17.7795C320.56 17.5605 320.259 17.265 320.043 16.893C319.827 16.521 319.719 16.113 319.719 15.669C319.719 15.225 319.827 14.817 320.043 14.445C320.259 14.073 320.56 13.7775 320.947 13.5585Z" fill="#E31D13"/>
<path d="M332.626 13.338V18H331.807V15.957H329.238V18H328.419V13.338H329.238V15.2235H331.807V13.338H332.626Z" fill="#E31D13"/>
<path d="M334.933 16.8795C335.26 17.2095 335.66 17.3745 336.134 17.3745C336.608 17.3745 337.007 17.2095 337.331 16.8795C337.658 16.5465 337.822 16.143 337.822 15.669C337.822 15.195 337.658 14.793 337.331 14.463C337.007 14.13 336.608 13.9635 336.134 13.9635C335.66 13.9635 335.26 14.13 334.933 14.463C334.609 14.793 334.447 15.195 334.447 15.669C334.447 16.143 334.609 16.5465 334.933 16.8795ZM334.843 13.5585C335.23 13.3395 335.66 13.23 336.134 13.23C336.608 13.23 337.039 13.3395 337.426 13.5585C337.813 13.7775 338.114 14.073 338.33 14.445C338.546 14.817 338.654 15.225 338.654 15.669C338.654 16.113 338.546 16.521 338.33 16.893C338.114 17.265 337.813 17.5605 337.426 17.7795C337.039 17.9985 336.608 18.108 336.134 18.108C335.66 18.108 335.23 17.9985 334.843 17.7795C334.456 17.5605 334.154 17.265 333.938 16.893C333.722 16.521 333.614 16.113 333.614 15.669C333.614 15.225 333.722 14.817 333.938 14.445C334.154 14.073 334.456 13.7775 334.843 13.5585Z" fill="#E31D13"/>
<path d="M340.398 13.338L342.023 15.795L343.647 13.338H344.403V18H343.611V14.5935L342.27 16.5915H341.775L340.434 14.5935V18H339.642V13.338H340.398Z" fill="#E31D13"/>
<path d="M346.229 15.9255C346.274 16.3485 346.452 16.701 346.764 16.983C347.079 17.262 347.459 17.4015 347.903 17.4015C348.473 17.4015 348.963 17.1765 349.374 16.7265L349.937 17.2485C349.691 17.5275 349.395 17.7405 349.05 17.8875C348.705 18.0345 348.33 18.108 347.925 18.108C347.553 18.108 347.208 18.045 346.89 17.919C346.572 17.79 346.304 17.616 346.085 17.397C345.869 17.178 345.699 16.92 345.576 16.623C345.453 16.323 345.392 16.005 345.392 15.669C345.392 15.336 345.453 15.0195 345.576 14.7195C345.702 14.4195 345.873 14.16 346.089 13.941C346.308 13.722 346.571 13.5495 346.877 13.4235C347.183 13.2945 347.51 13.23 347.858 13.23C348.311 13.23 348.719 13.335 349.082 13.545C349.448 13.755 349.731 14.0385 349.932 14.3955C350.133 14.7495 350.234 15.1395 350.234 15.5655C350.234 15.6855 350.22 15.8055 350.193 15.9255H346.229ZM347.858 13.9365C347.474 13.9365 347.132 14.061 346.832 14.31C346.532 14.559 346.341 14.871 346.26 15.246H349.374C349.311 14.865 349.14 14.5515 348.861 14.3055C348.582 14.0595 348.248 13.9365 347.858 13.9365Z" fill="#E31D13"/>
<path d="M353.553 17.3745C354.027 17.3745 354.426 17.2095 354.75 16.8795C355.077 16.5465 355.24 16.143 355.24 15.669C355.24 15.195 355.077 14.793 354.75 14.463C354.426 14.13 354.027 13.9635 353.553 13.9635C353.226 13.9635 352.927 14.049 352.657 14.22C352.39 14.391 352.186 14.6175 352.045 14.8995V16.452C352.186 16.731 352.39 16.9545 352.657 17.1225C352.927 17.2905 353.226 17.3745 353.553 17.3745ZM353.688 13.23C354.138 13.23 354.546 13.3425 354.912 13.5675C355.281 13.7895 355.566 14.0865 355.767 14.4585C355.971 14.8275 356.073 15.231 356.073 15.669C356.073 16.107 355.971 16.512 355.767 16.884C355.566 17.253 355.281 17.55 354.912 17.775C354.546 17.997 354.138 18.108 353.688 18.108C353.022 18.108 352.474 17.871 352.045 17.397V20.088H351.226V13.338H352.045V13.941C352.477 13.467 353.025 13.23 353.688 13.23Z" fill="#E31D13"/>
<path d="M357.433 20.088L358.261 17.982L356.439 13.338H357.294L358.68 16.9425L360.066 13.338H360.921L358.288 20.088H357.433Z" fill="#E31D13"/>
<path d="M367.921 17.55C367.507 17.922 366.997 18.108 366.391 18.108C365.785 18.108 365.275 17.922 364.861 17.55C364.447 17.175 364.24 16.713 364.24 16.164C364.24 15.786 364.346 15.45 364.559 15.156C364.775 14.862 365.068 14.655 365.437 14.535C365.182 14.43 364.972 14.2575 364.807 14.0175C364.645 13.7775 364.564 13.518 364.564 13.239C364.564 12.777 364.736 12.387 365.081 12.069C365.429 11.751 365.866 11.592 366.391 11.592C366.916 11.592 367.351 11.751 367.696 12.069C368.044 12.387 368.218 12.777 368.218 13.239C368.218 13.518 368.135 13.7775 367.97 14.0175C367.808 14.2575 367.6 14.43 367.345 14.535C367.714 14.655 368.005 14.862 368.218 15.156C368.434 15.45 368.542 15.786 368.542 16.164C368.542 16.713 368.335 17.175 367.921 17.55ZM367.327 15.273C367.075 15.03 366.763 14.9085 366.391 14.9085C366.019 14.9085 365.705 15.03 365.45 15.273C365.198 15.516 365.072 15.8085 365.072 16.1505C365.072 16.4925 365.198 16.785 365.45 17.028C365.705 17.268 366.019 17.388 366.391 17.388C366.763 17.388 367.075 17.268 367.327 17.028C367.582 16.785 367.709 16.4925 367.709 16.1505C367.709 15.8085 367.582 15.516 367.327 15.273ZM365.666 13.932C365.864 14.121 366.106 14.2155 366.391 14.2155C366.676 14.2155 366.917 14.121 367.115 13.932C367.313 13.743 367.412 13.518 367.412 13.257C367.412 12.996 367.313 12.774 367.115 12.591C366.917 12.405 366.676 12.312 366.391 12.312C366.106 12.312 365.864 12.405 365.666 12.591C365.468 12.774 365.369 12.996 365.369 13.257C365.369 13.518 365.468 13.743 365.666 13.932Z" fill="#E31D13"/>
<path d="M375.936 17.55C375.522 17.922 375.012 18.108 374.406 18.108C373.8 18.108 373.29 17.922 372.876 17.55C372.462 17.175 372.255 16.713 372.255 16.164C372.255 15.786 372.362 15.45 372.575 15.156C372.791 14.862 373.083 14.655 373.452 14.535C373.197 14.43 372.987 14.2575 372.822 14.0175C372.66 13.7775 372.579 13.518 372.579 13.239C372.579 12.777 372.752 12.387 373.097 12.069C373.445 11.751 373.881 11.592 374.406 11.592C374.931 11.592 375.366 11.751 375.711 12.069C376.059 12.387 376.233 12.777 376.233 13.239C376.233 13.518 376.151 13.7775 375.986 14.0175C375.824 14.2575 375.615 14.43 375.36 14.535C375.729 14.655 376.02 14.862 376.233 15.156C376.449 15.45 376.557 15.786 376.557 16.164C376.557 16.713 376.35 17.175 375.936 17.55ZM375.342 15.273C375.09 15.03 374.778 14.9085 374.406 14.9085C374.034 14.9085 373.721 15.03 373.466 15.273C373.214 15.516 373.088 15.8085 373.088 16.1505C373.088 16.4925 373.214 16.785 373.466 17.028C373.721 17.268 374.034 17.388 374.406 17.388C374.778 17.388 375.09 17.268 375.342 17.028C375.597 16.785 375.725 16.4925 375.725 16.1505C375.725 15.8085 375.597 15.516 375.342 15.273ZM373.682 13.932C373.88 14.121 374.121 14.2155 374.406 14.2155C374.691 14.2155 374.933 14.121 375.131 13.932C375.329 13.743 375.428 13.518 375.428 13.257C375.428 12.996 375.329 12.774 375.131 12.591C374.933 12.405 374.691 12.312 374.406 12.312C374.121 12.312 373.88 12.405 373.682 12.591C373.484 12.774 373.385 12.996 373.385 13.257C373.385 13.518 373.484 13.743 373.682 13.932Z" fill="#E31D13"/>
<path d="M377.752 16.137C377.665 15.744 377.622 15.315 377.622 14.85C377.622 14.385 377.665 13.9575 377.752 13.5675C377.842 13.1745 377.973 12.831 378.144 12.537C378.315 12.24 378.537 12.009 378.81 11.844C379.086 11.676 379.399 11.592 379.75 11.592C380.101 11.592 380.413 11.676 380.686 11.844C380.962 12.009 381.186 12.24 381.357 12.537C381.528 12.831 381.657 13.1745 381.744 13.5675C381.834 13.9575 381.879 14.385 381.879 14.85C381.879 15.315 381.834 15.744 381.744 16.137C381.657 16.527 381.528 16.8705 381.357 17.1675C381.186 17.4615 380.962 17.6925 380.686 17.8605C380.413 18.0255 380.101 18.108 379.75 18.108C379.399 18.108 379.086 18.0255 378.81 17.8605C378.537 17.6925 378.315 17.4615 378.144 17.1675C377.973 16.8705 377.842 16.527 377.752 16.137ZM378.585 13.554C378.498 13.917 378.454 14.349 378.454 14.85C378.454 15.351 378.498 15.7845 378.585 16.1505C378.675 16.5135 378.817 16.8045 379.012 17.0235C379.21 17.2395 379.456 17.3475 379.75 17.3475C380.044 17.3475 380.289 17.2395 380.484 17.0235C380.682 16.8045 380.824 16.5135 380.911 16.1505C381.001 15.7845 381.046 15.351 381.046 14.85C381.046 14.349 381.001 13.917 380.911 13.554C380.824 13.188 380.682 12.897 380.484 12.681C380.289 12.462 380.044 12.3525 379.75 12.3525C379.456 12.3525 379.21 12.462 379.012 12.681C378.817 12.897 378.675 13.188 378.585 13.554Z" fill="#E31D13"/>
<path d="M383.096 16.137C383.009 15.744 382.965 15.315 382.965 14.85C382.965 14.385 383.009 13.9575 383.096 13.5675C383.186 13.1745 383.316 12.831 383.487 12.537C383.658 12.24 383.88 12.009 384.153 11.844C384.429 11.676 384.743 11.592 385.094 11.592C385.445 11.592 385.757 11.676 386.03 11.844C386.306 12.009 386.529 12.24 386.7 12.537C386.871 12.831 387 13.1745 387.087 13.5675C387.177 13.9575 387.222 14.385 387.222 14.85C387.222 15.315 387.177 15.744 387.087 16.137C387 16.527 386.871 16.8705 386.7 17.1675C386.529 17.4615 386.306 17.6925 386.03 17.8605C385.757 18.0255 385.445 18.108 385.094 18.108C384.743 18.108 384.429 18.0255 384.153 17.8605C383.88 17.6925 383.658 17.4615 383.487 17.1675C383.316 16.8705 383.186 16.527 383.096 16.137ZM383.928 13.554C383.841 13.917 383.798 14.349 383.798 14.85C383.798 15.351 383.841 15.7845 383.928 16.1505C384.018 16.5135 384.161 16.8045 384.356 17.0235C384.554 17.2395 384.8 17.3475 385.094 17.3475C385.388 17.3475 385.632 17.2395 385.827 17.0235C386.025 16.8045 386.168 16.5135 386.255 16.1505C386.345 15.7845 386.39 15.351 386.39 14.85C386.39 14.349 386.345 13.917 386.255 13.554C386.168 13.188 386.025 12.897 385.827 12.681C385.632 12.462 385.388 12.3525 385.094 12.3525C384.8 12.3525 384.554 12.462 384.356 12.681C384.161 12.897 384.018 13.188 383.928 13.554Z" fill="#E31D13"/>
<path d="M390.792 16.722V15.9705L393.668 11.7H394.5V15.9615H395.243V16.722H394.5V18H393.668V16.722H390.792ZM391.715 15.9705H393.668V13.068L391.715 15.9705Z" fill="#E31D13"/>
<path d="M396.136 16.722V15.9705L399.011 11.7H399.844V15.9615H400.586V16.722H399.844V18H399.011V16.722H396.136ZM397.058 15.9705H399.011V13.068L397.058 15.9705Z" fill="#E31D13"/>
<path d="M401.48 16.722V15.9705L404.355 11.7H405.188V15.9615H405.93V16.722H405.188V18H404.355V16.722H401.48ZM402.402 15.9705H404.355V13.068L402.402 15.9705Z" fill="#E31D13"/>
<path d="M412.92 16.047C412.92 15.675 412.786 15.3585 412.519 15.0975C412.252 14.8365 411.921 14.706 411.525 14.706C411.405 14.706 411.282 14.7255 411.156 14.7645L410.827 14.346L412.447 12.4335H409.954V11.7H413.46V12.4335L411.957 14.1705C412.491 14.2095 412.923 14.4135 413.253 14.7825C413.586 15.1485 413.752 15.5955 413.752 16.1235C413.752 16.3755 413.7 16.62 413.595 16.857C413.49 17.094 413.344 17.3055 413.158 17.4915C412.972 17.6775 412.74 17.8275 412.461 17.9415C412.182 18.0525 411.879 18.108 411.552 18.108C411.135 18.108 410.76 18.018 410.427 17.838C410.097 17.658 409.822 17.4015 409.603 17.0685L410.175 16.5915C410.526 17.1225 410.976 17.388 411.525 17.388C411.921 17.388 412.252 17.259 412.519 17.001C412.786 16.74 412.92 16.422 412.92 16.047Z" fill="#E31D13"/>
<path d="M418.263 16.047C418.263 15.675 418.13 15.3585 417.863 15.0975C417.596 14.8365 417.264 14.706 416.868 14.706C416.748 14.706 416.625 14.7255 416.499 14.7645L416.171 14.346L417.791 12.4335H415.298V11.7H418.803V12.4335L417.3 14.1705C417.834 14.2095 418.266 14.4135 418.596 14.7825C418.929 15.1485 419.096 15.5955 419.096 16.1235C419.096 16.3755 419.043 16.62 418.938 16.857C418.833 17.094 418.688 17.3055 418.502 17.4915C418.316 17.6775 418.083 17.8275 417.804 17.9415C417.525 18.0525 417.222 18.108 416.895 18.108C416.478 18.108 416.103 18.018 415.77 17.838C415.44 17.658 415.166 17.4015 414.947 17.0685L415.518 16.5915C415.869 17.1225 416.319 17.388 416.868 17.388C417.264 17.388 417.596 17.259 417.863 17.001C418.13 16.74 418.263 16.422 418.263 16.047Z" fill="#E31D13"/>
<path d="M426.261 11.7L424.7 14.1165C424.853 14.0235 425.043 13.977 425.271 13.977C425.835 13.977 426.321 14.1735 426.729 14.5665C427.14 14.9565 427.346 15.447 427.346 16.038C427.346 16.428 427.244 16.7835 427.04 17.1045C426.836 17.4255 426.567 17.673 426.234 17.847C425.904 18.021 425.547 18.108 425.163 18.108C424.779 18.108 424.421 18.021 424.088 17.847C423.755 17.673 423.486 17.4255 423.282 17.1045C423.078 16.7835 422.976 16.428 422.976 16.038C422.976 15.633 423.08 15.27 423.287 14.949L425.375 11.7H426.261ZM426.513 16.038C426.513 15.657 426.381 15.336 426.117 15.075C425.856 14.814 425.538 14.6835 425.163 14.6835C424.788 14.6835 424.469 14.814 424.205 15.075C423.941 15.336 423.809 15.657 423.809 16.038C423.809 16.416 423.939 16.7355 424.2 16.9965C424.464 17.2575 424.785 17.388 425.163 17.388C425.538 17.388 425.856 17.2575 426.117 16.9965C426.381 16.7355 426.513 16.416 426.513 16.038Z" fill="#E31D13"/>
<path d="M429.427 18L430.988 15.5835C430.835 15.6765 430.645 15.723 430.417 15.723C429.853 15.723 429.365 15.528 428.954 15.138C428.546 14.745 428.342 14.253 428.342 13.662C428.342 13.272 428.444 12.9165 428.648 12.5955C428.852 12.2745 429.119 12.027 429.449 11.853C429.782 11.679 430.141 11.592 430.525 11.592C430.909 11.592 431.267 11.679 431.6 11.853C431.933 12.027 432.202 12.2745 432.406 12.5955C432.61 12.9165 432.712 13.272 432.712 13.662C432.712 14.067 432.608 14.43 432.401 14.751L430.313 18H429.427ZM429.175 13.662C429.175 14.043 429.305 14.364 429.566 14.625C429.83 14.886 430.15 15.0165 430.525 15.0165C430.9 15.0165 431.219 14.886 431.483 14.625C431.747 14.364 431.879 14.043 431.879 13.662C431.879 13.284 431.747 12.9645 431.483 12.7035C431.222 12.4425 430.903 12.312 430.525 12.312C430.15 12.312 429.83 12.4425 429.566 12.7035C429.305 12.9645 429.175 13.284 429.175 13.662Z" fill="#E31D13"/>
</svg>
