<svg width="198" height="48" viewBox="0 0 198 48" fill="none" xmlns="http://www.w3.org/2000/svg">
<path d="M5.05889 18.9365C3.86145 18.9913 2.68816 18.5657 1.76996 17.7434C1.35758 17.365 1.02949 16.8932 0.809605 16.3624C0.589722 15.8315 0.483589 15.2549 0.498946 14.6747C0.500682 14.3496 0.531079 14.0254 0.589733 13.7064C0.771053 12.6889 1.22105 11.748 1.88669 10.9944C2.56756 10.2056 3.43565 9.6282 4.39897 9.32327C3.90431 9.09347 3.48965 8.70381 3.2134 8.20917C2.92223 7.69788 2.7718 7.10943 2.7793 6.51114C2.77652 6.28355 2.79543 6.05625 2.83575 5.83274C3.07424 4.56982 3.74567 3.44736 4.71863 2.68508C5.72207 1.83847 6.96742 1.38537 8.24634 1.40159C9.27061 1.34962 10.2754 1.71297 11.0592 2.41877C11.4051 2.74002 11.6802 3.13891 11.8649 3.58691C12.0495 4.0349 12.1391 4.52092 12.1273 5.0102C12.1297 5.28678 12.1041 5.56283 12.051 5.83356C11.9006 6.61475 11.5559 7.3383 11.0531 7.9282C10.5585 8.54792 9.92712 9.0265 9.21601 9.32082C9.90121 9.55745 10.4974 10.0221 10.9173 10.6467C11.3207 11.2741 11.5289 12.0212 11.5124 12.782C11.5146 13.0907 11.4891 13.3989 11.4361 13.7023C11.1517 15.2004 10.35 16.5295 9.19007 17.4257C8.01331 18.4148 6.55658 18.9475 5.05889 18.9365V18.9365ZM6.62439 10.3282C5.69606 10.3238 4.79619 10.67 4.08388 11.3055C3.36883 11.889 2.8737 12.7271 2.68851 13.6673C2.65104 13.8665 2.63213 14.0692 2.63206 14.2724C2.62287 14.6377 2.68694 15.0008 2.81997 15.3375C2.953 15.6742 3.1519 15.9766 3.40336 16.2245C3.95101 16.7544 4.67214 17.0326 5.41059 16.999C6.34068 17.0029 7.24233 16.6569 7.9572 16.0217C8.67204 15.4455 9.16263 14.608 9.33502 13.6697C9.37253 13.4623 9.39143 13.2515 9.39148 13.0402C9.40111 12.677 9.33804 12.3158 9.20648 11.9807C9.07492 11.6456 8.87789 11.3444 8.62856 11.097C8.08139 10.569 7.36129 10.2925 6.62439 10.3274V10.3282ZM6.96465 8.4657C7.68244 8.4656 8.37722 8.1954 8.92686 7.70261C9.47994 7.25629 9.86266 6.61105 10.0041 5.88649C10.0356 5.73547 10.0507 5.58107 10.0491 5.42636C10.0554 5.14649 10.0049 4.86849 9.90114 4.6114C9.79737 4.3543 9.64278 4.12419 9.44793 3.93682C9.02168 3.53128 8.46436 3.31866 7.89388 3.34393C7.19358 3.34578 6.51435 3.59971 5.96599 4.06468C5.40854 4.49254 5.01719 5.12354 4.86587 5.83844C4.82979 6.00128 4.81085 6.16791 4.80941 6.33523C4.80461 6.61835 4.85565 6.89938 4.95922 7.16007C5.06279 7.42076 5.21658 7.65528 5.41059 7.84839C5.61837 8.05609 5.86277 8.21763 6.12956 8.32361C6.39635 8.42959 6.68021 8.47789 6.96465 8.4657V8.4657ZM22.6502 11.2599C23.0482 9.07813 23.8025 6.98805 24.8786 5.08512C25.9424 3.16156 27.3016 1.44257 28.8992 0L30.1466 1.1988C28.7689 2.52653 27.6024 4.08442 26.6929 5.81157C25.7823 7.50457 25.1368 9.34489 24.7818 11.2599C24.6023 12.2444 24.5116 13.245 24.5109 14.248C24.4433 16.7695 25.135 19.2478 26.4846 21.3186L24.794 22.5198C23.9892 21.4253 23.3764 20.1846 22.9851 18.8575C22.5603 17.4359 22.3478 15.9518 22.3557 14.4597C22.359 13.3856 22.4576 12.3142 22.6502 11.2599V11.2599ZM34.6958 18.9365C33.4985 18.9915 32.3252 18.5662 31.4069 17.7442C30.9946 17.3657 30.6666 16.8937 30.4468 16.3627C30.227 15.8317 30.1211 15.255 30.1367 14.6747C30.1384 14.3496 30.1688 14.0254 30.2274 13.7064C30.4088 12.6889 30.8588 11.748 31.5244 10.9944C32.2053 10.2056 33.0734 9.6282 34.0367 9.32327C33.5423 9.09333 33.1279 8.70368 32.8519 8.20917C32.5605 7.69908 32.4092 7.11182 32.4155 6.5144C32.4127 6.28681 32.4316 6.0595 32.4719 5.836C32.7104 4.57307 33.3819 3.45062 34.3548 2.68834C35.3582 1.84173 36.6036 1.38863 37.8825 1.40484C38.9068 1.35287 39.9116 1.71623 40.6954 2.42203C41.0413 2.74328 41.3164 3.14217 41.5011 3.59016C41.6857 4.03816 41.7753 4.52418 41.7635 5.01345C41.7659 5.29004 41.7403 5.56609 41.6872 5.83681C41.5368 6.61801 41.1921 7.34156 40.6893 7.93145C40.1946 8.55117 39.5633 9.02976 38.8522 9.32408C39.5374 9.56071 40.1336 10.0253 40.5535 10.6499C40.9566 11.2764 41.165 12.0222 41.1493 12.782C41.1516 13.0907 41.126 13.3989 41.073 13.7023C40.7887 15.2004 39.9869 16.5295 38.827 17.4257C37.6503 18.4148 36.1935 18.9475 34.6958 18.9365V18.9365ZM36.2613 10.3282C35.333 10.3238 34.4331 10.67 33.7208 11.3055C33.0058 11.889 32.5106 12.7271 32.3255 13.6673C32.288 13.8665 32.2691 14.0692 32.269 14.2724C32.2601 14.6372 32.3244 14.9999 32.4574 15.3361C32.5904 15.6724 32.7891 15.9744 33.0403 16.2221C33.588 16.7519 34.3091 17.0302 35.0475 16.9966C35.9776 17.0005 36.8793 16.6544 37.5941 16.0193C38.3085 15.4437 38.799 14.6072 38.972 13.6697C39.0095 13.4623 39.0284 13.2515 39.0284 13.0402C39.0381 12.677 38.975 12.3158 38.8434 11.9807C38.7119 11.6456 38.5148 11.3444 38.2655 11.097C37.7183 10.569 36.9982 10.2925 36.2613 10.3274V10.3282ZM36.6016 8.46407C37.3194 8.46397 38.0142 8.19377 38.5638 7.70098C39.1173 7.2546 39.5003 6.60902 39.6418 5.88405C39.6733 5.73303 39.6884 5.57863 39.6868 5.42391C39.6931 5.14405 39.6426 4.86605 39.5388 4.60895C39.4351 4.35186 39.2805 4.12174 39.0856 3.93437C38.6594 3.52884 38.1021 3.31622 37.5316 3.34149C36.8313 3.34333 36.1521 3.59727 35.6037 4.06223C35.0462 4.4901 34.6549 5.12109 34.5036 5.836C34.4675 5.99884 34.4486 6.16546 34.4471 6.33278C34.4423 6.6159 34.4934 6.89694 34.5969 7.15763C34.7005 7.41832 34.8543 7.65283 35.0483 7.84594C35.2558 8.05395 35.5 8.21586 35.7667 8.32225C36.0333 8.42864 36.3171 8.47741 36.6016 8.4657V8.46407ZM43.0101 15.2081L43.3725 13.1892L52.7182 1.69477H54.8162L52.7296 13.1607H54.601L54.2264 15.2065H52.3558L51.7317 18.6457H49.636L50.26 15.2073L43.0101 15.2081ZM45.6978 13.1892H50.6201L52.0491 5.37994L45.6978 13.1892ZM65.4443 13.3953C65.4885 13.1667 65.5112 12.934 65.5122 12.7006C65.5224 12.3111 65.4554 11.9237 65.3156 11.5637C65.1759 11.2038 64.9665 10.8793 64.7013 10.6116C64.4173 10.3313 64.0842 10.1136 63.7211 9.97134C63.358 9.82905 62.9721 9.7649 62.5857 9.78259C62.2589 9.78637 61.9343 9.83929 61.6214 9.93977L60.9973 8.81345L66.0219 3.66806H59.7393L60.1024 1.69477H68.9377L68.5746 3.66806L63.9353 8.34191C64.9547 8.37187 65.9223 8.82847 66.6291 9.61319C67.2911 10.3938 67.6429 11.4186 67.6103 12.4709C67.6091 12.8486 67.5751 13.2254 67.5088 13.5964C67.3781 14.2997 67.1219 14.9697 66.7543 15.5697C66.3684 16.2136 65.8921 16.7905 65.3421 17.28C64.7516 17.7986 64.0823 18.2055 63.3631 18.4828C62.603 18.7857 61.798 18.9397 60.9866 18.9373C60.0412 18.9661 59.1068 18.7143 58.2874 18.21C57.5355 17.7217 56.9417 16.9992 56.5861 16.1398L58.2569 14.8563C58.4925 15.5005 58.908 16.0516 59.4471 16.435C59.9863 16.8183 60.6228 17.0152 61.2704 16.999C62.2575 17.0035 63.2133 16.6299 63.9643 15.946C64.725 15.3079 65.2493 14.4028 65.4443 13.3912V13.3953ZM76.4799 11.264C76.0766 13.4472 75.3205 15.5389 74.2453 17.4453C73.1835 19.367 71.8261 21.0842 70.2301 22.5247L68.9942 21.3259C70.3662 19.9956 71.5285 18.4381 72.4365 16.7131C73.347 15.0201 73.9925 13.1798 74.3476 11.2648C74.5269 10.2794 74.6181 9.27811 74.6199 8.27432C74.69 5.75422 74.0024 3.27638 72.6577 1.20369L74.3361 0.00488683C75.1476 1.08904 75.763 2.32488 76.1511 3.64933C76.5735 5.07469 76.7841 6.56191 76.7751 8.05687C76.7703 9.13199 76.6717 10.2043 76.4807 11.2599L76.4799 11.264ZM95.3643 11.3243L89.8294 16.7123H96.4873L96.1364 18.6457H86.722L87.0508 16.8052L93.9468 10.1214C94.5999 9.51191 95.1883 8.82779 95.7015 8.0813C96.0712 7.52897 96.3282 6.90002 96.4561 6.23506C96.4914 6.0355 96.5102 5.83303 96.5125 5.62996C96.5251 5.31897 96.4737 5.00882 96.3621 4.72125C96.2505 4.43369 96.0813 4.17568 95.8663 3.96532C95.383 3.52965 94.7625 3.30662 94.1307 3.34149C92.611 3.34149 91.4277 4.20123 90.5809 5.9207L88.9703 5.1063C89.4613 4.00489 90.2288 3.07036 91.1874 2.40656C92.1685 1.73124 93.3151 1.38152 94.4824 1.40159C95.5752 1.34404 96.6501 1.71444 97.5051 2.4432C97.8799 2.78509 98.1773 3.21331 98.3747 3.6956C98.5721 4.1779 98.6645 4.70173 98.6448 5.22764C98.6461 5.56099 98.6157 5.89361 98.5541 6.2204C98.3883 7.12334 98.0507 7.98038 97.5623 8.73853C96.9233 9.68492 96.1862 10.5512 95.3651 11.321L95.3643 11.3243ZM100.99 10.1743C101.198 8.99204 101.519 7.83573 101.948 6.7237C102.329 5.73552 102.828 4.80465 103.434 3.95473C103.979 3.18579 104.669 2.54762 105.459 2.08161C106.22 1.63636 107.075 1.40515 107.943 1.40973C108.533 1.36899 109.122 1.48737 109.657 1.75397C110.193 2.02056 110.656 2.42677 111.006 2.9351C111.743 4.16754 112.1 5.61544 112.026 7.07552C112.02 8.11688 111.917 9.15504 111.721 10.1751C111.513 11.3581 111.19 12.5146 110.757 13.6257C110.373 14.6134 109.872 15.5441 109.265 16.3947C108.721 17.1637 108.031 17.8018 107.241 18.2678C106.479 18.7131 105.625 18.9443 104.757 18.9397C104.168 18.9808 103.58 18.8631 103.046 18.5975C102.512 18.3319 102.049 17.927 101.7 17.42C100.966 16.1926 100.611 14.7511 100.684 13.2975C100.69 12.2469 100.793 11.1995 100.991 10.1702L100.99 10.1743ZM103.088 10.1743C102.896 11.1582 102.793 12.1598 102.783 13.1648C102.733 14.1205 102.933 15.0723 103.361 15.9134C103.546 16.2313 103.808 16.49 104.12 16.662C104.431 16.834 104.78 16.913 105.13 16.8907C105.702 16.871 106.259 16.6933 106.747 16.375C107.235 16.0567 107.638 15.6086 107.915 15.0746C108.778 13.5747 109.358 11.9088 109.622 10.1711C109.814 9.19135 109.917 8.19381 109.927 7.19279C109.978 6.23308 109.777 5.27718 109.349 4.43197C109.162 4.11301 108.898 3.85384 108.584 3.68182C108.271 3.5098 107.92 3.43133 107.568 3.45469C106.997 3.47414 106.441 3.65179 105.953 3.9702C105.466 4.28861 105.065 4.73682 104.789 5.27081C103.93 6.77078 103.353 8.43483 103.089 10.1702L103.088 10.1743ZM116.551 1.69884H126.272L125.92 3.58744L117.267 18.6457H114.908L123.551 3.66888H116.19L116.551 1.69884ZM134.075 11.6476H127.633L128.008 9.56514H134.45L134.075 11.6476ZM144.909 11.3218L139.374 16.7099H146.032L145.679 18.6457H136.265L136.594 16.8052L143.49 10.1214C144.143 9.51191 144.731 8.82779 145.244 8.0813C145.614 7.52897 145.871 6.90002 145.999 6.23506C146.034 6.0355 146.053 5.83303 146.055 5.62996C146.068 5.31897 146.017 5.00882 145.905 4.72125C145.793 4.43369 145.624 4.17568 145.409 3.96532C144.926 3.52965 144.305 3.30662 143.674 3.34149C142.154 3.34149 140.971 4.20123 140.124 5.9207L138.513 5.1063C139.004 4.00489 139.772 3.07036 140.73 2.40656C141.711 1.73124 142.858 1.38152 144.025 1.40159C145.118 1.34404 146.193 1.71444 147.048 2.4432C147.423 2.78509 147.72 3.21331 147.918 3.6956C148.115 4.1779 148.207 4.70173 148.188 5.22764C148.189 5.56099 148.159 5.8936 148.097 6.2204C147.931 7.12334 147.594 7.98038 147.105 8.73853C146.466 9.68496 145.729 10.5513 144.907 11.321L144.909 11.3218ZM153.868 18.9365C152.928 18.9604 151.999 18.7137 151.18 18.2222C150.422 17.7531 149.823 17.0406 149.467 16.1862L151.203 14.8783C151.429 15.513 151.835 16.0572 152.362 16.4363C152.89 16.8155 153.515 17.0109 154.151 16.9957C155.13 17.0032 156.078 16.6373 156.825 15.9639C157.585 15.3204 158.105 14.4078 158.289 13.3912C158.332 13.1518 158.355 12.9086 158.357 12.6648C158.369 12.2784 158.305 11.8935 158.168 11.5355C158.031 11.1776 157.825 10.8546 157.562 10.588C156.99 10.0339 156.236 9.74433 155.464 9.78259C154.916 9.78186 154.374 9.91004 153.877 10.158C153.4 10.3841 152.974 10.7174 152.629 11.1353L151.189 10.9415L153.832 1.69151H161.93L161.567 3.66481H155.329L153.854 8.68966C154.567 8.14415 155.426 7.85857 156.304 7.87526C157.41 7.83198 158.49 8.24857 159.315 9.03741C159.711 9.43417 160.022 9.91769 160.227 10.4548C160.431 10.9919 160.525 11.57 160.5 12.1492C160.504 12.5474 160.469 12.945 160.398 13.3358C160.134 14.9269 159.336 16.3606 158.152 17.3679C156.942 18.4145 155.425 18.9701 153.868 18.9365V18.9365ZM170.144 11.6476H163.702L164.076 9.56514H170.518L170.144 11.6476ZM179.978 1.69477H181.906L178.82 18.6457H176.722L179.388 3.9474L176.065 5.70325L175.486 4.04432L179.978 1.69477ZM189.936 18.9365C188.996 18.9604 188.068 18.7137 187.248 18.2222C186.491 17.7531 185.891 17.0406 185.535 16.1862L187.271 14.8783C187.498 15.513 187.903 16.0572 188.431 16.4363C188.959 16.8155 189.584 17.0109 190.22 16.9957C191.199 17.0031 192.149 16.6359 192.897 15.9606C193.656 15.3181 194.176 14.4068 194.361 13.3912C194.404 13.1518 194.427 12.9086 194.429 12.6648C194.441 12.2784 194.377 11.8935 194.24 11.5355C194.103 11.1776 193.897 10.8546 193.635 10.588C193.063 10.0339 192.308 9.74433 191.537 9.78259C190.988 9.78186 190.446 9.91004 189.949 10.158C189.472 10.3841 189.047 10.7174 188.702 11.1353L187.261 10.9415L189.904 1.69151H198L197.637 3.66481H191.398L189.924 8.68966C190.637 8.14415 191.496 7.85857 192.373 7.87526C193.48 7.83198 194.56 8.24857 195.385 9.03741C195.782 9.4346 196.094 9.91905 196.299 10.4574C196.505 10.9957 196.598 11.5752 196.573 12.1558C196.577 12.5539 196.542 12.9515 196.471 13.3423C196.207 14.9334 195.409 16.3671 194.225 17.3744C193.013 18.4198 191.494 18.9731 189.936 18.9365V18.9365ZM0 45.2701L1.62196 43.7228C2.04506 44.385 2.59633 44.9427 3.23857 45.3581C3.87856 45.7759 4.61541 45.994 5.36558 45.9876C6.31085 46.0164 7.24332 45.7491 8.04799 45.2188C8.39305 45.0007 8.69113 44.7074 8.92276 44.358C9.1544 44.0085 9.31437 43.6109 9.39224 43.191C9.42612 43.0115 9.44501 42.8292 9.4487 42.6461C9.4487 41.3143 8.37121 40.3981 6.21623 39.8975C5.08664 39.6986 4.0263 39.1848 3.14245 38.408C2.81104 38.0964 2.54683 37.7118 2.36798 37.2808C2.18912 36.8497 2.09989 36.3824 2.10641 35.911C2.10518 35.6224 2.13074 35.3343 2.1827 35.051C2.41542 33.7103 3.1325 32.521 4.17925 31.7397C5.30403 30.876 6.66207 30.4276 8.04722 30.4627C8.91953 30.4094 9.79129 30.5768 10.5915 30.9513C11.3917 31.3258 12.0978 31.8967 12.6522 32.6176L11.076 34.2521C10.6885 33.7105 10.1915 33.2692 9.62206 32.9611C9.0526 32.653 8.42537 32.486 7.78707 32.4726C6.98432 32.4502 6.19389 32.6866 5.51892 33.151C5.22618 33.3421 4.97348 33.5956 4.77658 33.8956C4.57969 34.1956 4.44283 34.5357 4.37455 34.8947C4.34385 35.0541 4.32876 35.2165 4.32954 35.3792C4.32954 36.6063 5.36914 37.4861 7.44834 38.0187C8.62407 38.2433 9.72653 38.7849 10.6511 39.5921C10.9788 39.9151 11.2384 40.3089 11.4124 40.7473C11.5865 41.1857 11.671 41.6587 11.6604 42.1347C11.6585 42.4846 11.6243 42.8335 11.5582 43.1763C11.4339 43.8789 11.1804 44.5482 10.8125 45.1456C10.4445 45.743 9.96933 46.2567 9.41437 46.6571C8.14707 47.5797 6.63781 48.0483 5.10466 47.9951C4.06246 48.0083 3.03223 47.7571 2.09878 47.2622C1.23918 46.8195 0.512325 46.1297 0 45.2701V45.2701ZM28.0836 30.7534L26.0757 41.7837C25.8668 42.9682 25.4006 44.0839 24.7146 45.0413C24.068 45.9545 23.2314 46.6948 22.2708 47.2036C21.3103 47.7124 20.252 47.9758 19.1797 47.9731C17.9134 48.0356 16.6742 47.5681 15.726 46.6701C15.2865 46.2215 14.9423 45.6777 14.7163 45.0752C14.4904 44.4726 14.388 43.8254 14.416 43.1771C14.4182 42.7093 14.4637 42.2428 14.5518 41.7845L16.5591 30.7542H18.6922L16.6277 42.0378C16.5758 42.321 16.5502 42.6091 16.5514 42.8978C16.5339 43.3101 16.5981 43.7216 16.7398 44.1056C16.8815 44.4896 17.0976 44.8373 17.3739 45.126C17.9656 45.7006 18.7468 46.0011 19.5459 45.9616C20.5696 45.9676 21.5611 45.5799 22.3389 44.8694C23.1544 44.1519 23.7033 43.1472 23.8869 42.0361L25.9513 30.7518L28.0836 30.7534ZM32.6657 30.7534L34.988 44.8344L42.4402 30.7534H44.7289L35.6602 47.7036H33.2783L30.3747 30.7534H32.6657ZM55.724 47.7036H53.3987L52.7182 43.3327H45.9587L43.6898 47.7036H41.3652L50.4386 30.7534H52.8204L55.724 47.7036ZM46.9452 41.3594H52.4382L51.1618 33.2716L46.9452 41.3594ZM63.5973 41.3113H61.4612L60.3046 47.7044H58.1738L61.259 30.7534H66.3286C67.5453 30.6738 68.7484 31.0625 69.7197 31.8488C70.1231 32.2186 70.4421 32.6819 70.6524 33.2032C70.8628 33.7245 70.9589 34.2902 70.9335 34.8572C70.9327 35.2517 70.8946 35.6452 70.8198 36.0316C70.6033 37.3216 70.0143 38.507 69.1353 39.4219C68.2371 40.3395 67.1009 40.9471 65.8746 41.1655L68.9934 47.7036H66.6353L63.5973 41.3113ZM68.6562 36.0324C68.7006 35.7769 68.7233 35.5177 68.7241 35.2579C68.7408 34.9093 68.6838 34.5612 68.5571 34.2395C68.4304 33.9177 68.2374 33.6306 67.9925 33.3994C67.3894 32.9111 66.6412 32.6722 65.8861 32.7267H63.0282L61.8258 39.3372H64.6837C65.6344 39.3743 66.5679 39.0599 67.3265 38.4471C68.0343 37.8459 68.5075 36.9852 68.6539 36.0324H68.6562ZM71.5011 45.2701L73.1231 43.7228C73.5451 44.3846 74.095 44.9422 74.7359 45.3581C75.3759 45.7759 76.1127 45.994 76.8629 45.9876C77.8082 46.0164 78.7406 45.7491 79.5453 45.2188C79.8904 45.0007 80.1884 44.7074 80.4201 44.358C80.6517 44.0085 80.8117 43.6109 80.8895 43.191C80.9234 43.0115 80.9423 42.8292 80.946 42.6461C80.946 41.3143 79.8685 40.3981 77.7135 39.8975C76.5839 39.6986 75.5236 39.1848 74.6397 38.408C74.3096 38.0957 74.0467 37.7108 73.869 37.2798C73.6914 36.8488 73.6032 36.3818 73.6106 35.911C73.6094 35.6224 73.6349 35.3343 73.6869 35.051C73.9196 33.7103 74.6367 32.521 75.6834 31.7397C76.8082 30.876 78.1662 30.4276 79.5514 30.4627C80.4237 30.4094 81.2955 30.5768 82.0957 30.9513C82.8959 31.3258 83.602 31.8967 84.1563 32.6176L82.5802 34.2521C82.1927 33.7105 81.6957 33.2692 81.1262 32.9611C80.5568 32.653 79.9295 32.486 79.2912 32.4726C78.4885 32.4502 77.6981 32.6866 77.0231 33.151C76.7304 33.3421 76.4776 33.5956 76.2808 33.8956C76.0839 34.1956 75.947 34.5357 75.8787 34.8947C75.848 35.0541 75.8329 35.2165 75.8337 35.3792C75.8337 36.6063 76.8733 37.4861 78.9525 38.0187C80.1267 38.2443 81.2275 38.7861 82.1506 39.5929C82.4784 39.9159 82.738 40.3097 82.912 40.7481C83.0861 41.1865 83.1706 41.6595 83.16 42.1355C83.1581 42.4854 83.1239 42.8343 83.0578 43.1771C82.9335 43.8797 82.68 44.549 82.3121 45.1464C81.9441 45.7439 81.4689 46.2576 80.914 46.6579C79.6467 47.5805 78.1374 48.0491 76.6043 47.9959C75.5621 48.0092 74.5318 47.7579 73.5984 47.263C72.7392 46.8199 72.0129 46.1297 71.5011 45.2701V45.2701ZM87.9244 47.7036L90.6465 32.7267H86.1888L86.5519 30.7534H97.5989L97.2358 32.7267H92.7788L90.0567 47.7036H87.9244ZM102.544 41.3105H100.412L99.2552 47.7036H97.1228L100.208 30.7526H105.278C106.494 30.673 107.698 31.0617 108.669 31.848C109.072 32.2178 109.391 32.681 109.602 33.2024C109.812 33.7237 109.908 34.2894 109.883 34.8564C109.882 35.2509 109.844 35.6444 109.769 36.0307C109.552 37.3207 108.963 38.5062 108.084 39.4211C107.186 40.3387 106.05 40.9463 104.824 41.1647L107.942 47.7027H105.584L102.544 41.3105ZM107.603 36.0316C107.647 35.7761 107.67 35.5169 107.671 35.2571C107.688 34.9085 107.631 34.5604 107.504 34.2386C107.377 33.9169 107.184 33.6298 106.939 33.3986C106.337 32.9112 105.589 32.6726 104.835 32.7267H101.977L100.775 39.3372H103.633C104.583 39.3743 105.517 39.0599 106.276 38.4471C106.983 37.8459 107.457 36.9852 107.603 36.0324V36.0316ZM118.284 45.9844C120.036 45.9732 121.723 45.2753 123.025 44.0233C124.411 42.8054 125.358 41.1104 125.702 39.2289C125.782 38.7819 125.823 38.328 125.827 37.8729C125.855 37.1535 125.743 36.4357 125.498 35.765C125.253 35.0944 124.879 34.4857 124.401 33.9777C123.923 33.4696 123.351 33.0735 122.722 32.8143C122.092 32.5552 121.419 32.4388 120.746 32.4726C118.994 32.4838 117.307 33.1817 116.005 34.4337C114.619 35.6501 113.676 37.3465 113.339 39.2281C113.255 39.6785 113.213 40.1369 113.214 40.5963C113.187 41.3136 113.3 42.0292 113.545 42.6976C113.791 43.366 114.163 43.9728 114.64 44.4793C115.117 44.9859 115.687 45.3812 116.314 45.6403C116.941 45.8994 117.612 46.0165 118.284 45.9844V45.9844ZM121.107 30.4627C122.07 30.4521 123.027 30.6308 123.929 30.9896C124.745 31.3098 125.49 31.8064 126.118 32.4482C126.724 33.0825 127.2 33.8429 127.519 34.6821C127.86 35.5756 128.032 36.5326 128.024 37.4975C128.025 38.0788 127.972 38.6589 127.865 39.2289C127.57 40.8518 126.915 42.3755 125.954 43.6723C124.99 44.999 123.762 46.0805 122.359 46.8387C120.986 47.5977 119.464 47.9943 117.918 47.9951C116.955 48.0057 115.998 47.827 115.096 47.4682C114.281 47.1485 113.536 46.654 112.907 46.0153C112.301 45.3847 111.826 44.6257 111.511 43.7871C111.174 42.8926 111.004 41.936 111.012 40.9717C111.011 40.3863 111.064 39.8023 111.171 39.2281C111.467 37.6042 112.121 36.0789 113.078 34.7782C114.037 33.4487 115.264 32.3665 116.668 31.6118C118.042 30.8563 119.566 30.4623 121.112 30.4627H121.107ZM132.494 30.7534H134.626L131.546 47.7036H129.414L132.494 30.7534ZM138.868 47.7044L141.59 32.7275H137.132L137.496 30.7542H148.543L148.179 32.7275H143.722L141 47.7044H138.868ZM146.927 46.4168C147.014 46.0006 147.232 45.6288 147.545 45.3638C147.844 45.1028 148.219 44.9614 148.605 44.9639C148.919 44.9503 149.225 45.0701 149.456 45.297C149.565 45.4083 149.65 45.543 149.707 45.6923C149.764 45.8415 149.79 46.0018 149.785 46.1627C149.784 46.2723 149.772 46.3815 149.75 46.4885C149.667 46.9076 149.451 47.2836 149.14 47.5537C148.841 47.8353 148.455 47.9903 148.057 47.9894C147.743 48.003 147.437 47.8832 147.206 47.6563C147.097 47.545 147.011 47.4103 146.955 47.2611C146.898 47.1119 146.872 46.9515 146.877 46.7906C146.879 46.6643 146.896 46.5388 146.927 46.4168V46.4168ZM158.813 41.3073H156.681L155.524 47.7003H153.392L156.478 30.7494H161.547C162.764 30.6698 163.967 31.0584 164.938 31.8447C165.342 32.2146 165.661 32.6778 165.871 33.1991C166.081 33.7204 166.178 34.2861 166.152 34.8531C166.151 35.2477 166.113 35.6411 166.038 36.0275C165.822 37.3175 165.233 38.5029 164.354 39.4178C163.456 40.3354 162.32 40.943 161.093 41.1615L164.212 47.6995H161.853L158.813 41.3073ZM163.872 36.0283C163.916 35.7728 163.939 35.5136 163.94 35.2538C163.956 34.9052 163.899 34.5571 163.773 34.2354C163.646 33.9136 163.453 33.6265 163.208 33.3953C162.605 32.9079 161.858 32.6693 161.104 32.7235H158.246L157.044 39.334H159.902C160.852 39.371 161.786 39.0566 162.544 38.4438C163.252 37.8435 163.725 36.9841 163.872 36.0324V36.0283ZM181.464 30.7494L179.457 41.7796C179.248 42.9641 178.782 44.0798 178.096 45.0372C177.449 45.9504 176.612 46.6907 175.652 47.1995C174.691 47.7083 173.633 47.9718 172.561 47.9691C171.294 48.0315 170.055 47.564 169.107 46.666C168.667 46.2175 168.323 45.6737 168.097 45.0711C167.871 44.4686 167.769 43.8214 167.797 43.173C167.799 42.7052 167.845 42.2387 167.933 41.7804L169.94 30.7502H172.072L170.008 42.0345C169.956 42.3178 169.93 42.6059 169.932 42.8945C169.914 43.3068 169.978 43.7184 170.12 44.1023C170.262 44.4863 170.478 44.834 170.754 45.1227C171.345 45.6974 172.125 45.9987 172.923 45.9607C173.947 45.9683 174.94 45.5814 175.719 44.8711C176.535 44.1535 177.083 43.1488 177.267 42.0378L179.331 30.7534L181.464 30.7494Z" fill="black"/>
</svg>
