<svg width="243" height="27" viewBox="0 0 243 27" fill="none" xmlns="http://www.w3.org/2000/svg">
<path d="M9.85513 22.9464C7.23384 23.0594 4.67425 22.1285 2.7341 20.3565C1.83655 19.509 1.12899 18.4795 0.658374 17.3366C0.18776 16.1937 -0.035133 14.9634 0.00449223 13.7274C0.00292003 12.9721 0.0769473 12.2184 0.22546 11.4779C0.637359 9.35199 1.55556 7.35749 2.90178 5.66449C4.26424 3.92061 5.99887 2.50517 7.9782 1.52218C9.9355 0.526412 12.0994 0.00813327 14.294 0.00948908C16.8973 -0.0811473 19.4354 0.837695 21.3812 2.5752L18.4761 5.91747C17.7829 5.32458 17.0108 4.83147 16.182 4.45238C15.3462 4.09667 14.4452 3.92118 13.5375 3.93728C12.1819 3.9392 10.8477 4.27648 9.65301 4.91923C8.40753 5.57528 7.32463 6.50329 6.48406 7.6349C5.62623 8.76794 5.0352 10.0811 4.75531 11.476C4.65002 11.9929 4.59711 12.5191 4.59738 13.0467C4.5678 13.8407 4.70108 14.6324 4.98894 15.3726C5.27681 16.1129 5.71314 16.7859 6.27089 17.3501C6.84367 17.9097 7.52404 18.3465 8.27053 18.6338C9.01702 18.9211 9.81401 19.0529 10.6129 19.0212C12.7526 18.9539 14.8154 18.2049 16.5024 16.8826L18.2389 20.1935C15.8069 21.9816 12.8703 22.9458 9.85513 22.9464V22.9464ZM25.0447 22.5662L28.5815 4.27046H22.8975L23.6559 0.388967H39.5078L38.7493 4.27046H33.0652L29.5284 22.5662H25.0447ZM47.0707 0.388967H52.0289L55.6443 22.5662H50.8915L50.2124 17.5763H42.2231L39.6182 22.5662H34.8655L47.0707 0.388967ZM49.7704 13.9008L48.6182 5.18916L44.0864 13.9015L49.7704 13.9008ZM67.8807 14.8352H64.5493L63.0649 22.5662H58.5806L62.8752 0.388967H70.6909C72.4082 0.287708 74.1019 0.829539 75.4437 1.90949C76.0158 2.42249 76.4671 3.05674 76.7647 3.7663C77.0624 4.47586 77.199 5.24295 77.1647 6.01202C77.1648 6.5493 77.1119 7.08527 77.0067 7.61208C76.6416 9.68332 75.5287 11.547 73.8807 12.8472C72.1714 14.1886 70.0502 14.8917 67.8807 14.8359V14.8352ZM72.523 7.61208C72.5852 7.32589 72.617 7.03389 72.6179 6.74098C72.6369 6.38064 72.5775 6.02046 72.444 5.68541C72.3104 5.35035 72.1059 5.04843 71.8445 4.80056C71.212 4.29114 70.4115 4.03948 69.6023 4.09572H66.6342L65.2759 11.1291H68.244C69.2737 11.1688 70.283 10.834 71.0861 10.1863C71.8523 9.52506 72.3612 8.61363 72.523 7.61274V7.61208ZM81.6653 22.5662L85.202 4.27046H79.518L80.2758 0.389619H96.1283L95.3705 4.27046H89.6864L86.149 22.5662H81.6653ZM125.607 0.388967L121.312 22.5662H116.828L120.362 4.27046H112.659L109.123 22.5662H104.638L108.933 0.388967H125.607ZM135.444 14.8359H132.112L130.631 22.5662H126.146L130.436 0.388967H138.254C139.971 0.287708 141.665 0.829539 143.007 1.90949C143.579 2.42249 144.03 3.05674 144.328 3.7663C144.625 4.47586 144.762 5.24295 144.728 6.01202C144.728 6.5493 144.675 7.08527 144.57 7.61208C144.205 9.68332 143.092 11.547 141.444 12.8472C139.734 14.1886 137.613 14.8917 135.444 14.8359ZM140.086 7.61274C140.148 7.32654 140.18 7.03454 140.181 6.74163C140.2 6.38129 140.141 6.02111 140.007 5.68606C139.873 5.35101 139.669 5.04908 139.407 4.80121C138.775 4.29179 137.974 4.04014 137.165 4.09637H134.197L132.84 11.1291H135.808C136.838 11.1688 137.847 10.834 138.65 10.1863C139.416 9.52475 139.924 8.61336 140.085 7.61274H140.086ZM150.57 11.4779C150.465 11.994 150.412 12.5193 150.412 13.046C150.383 13.8401 150.516 14.6317 150.804 15.372C151.092 16.1122 151.528 16.7853 152.086 17.3494C152.659 17.9091 153.339 18.3458 154.086 18.6332C154.832 18.9205 155.629 19.0523 156.428 19.0205C158.506 19.0151 160.51 18.2427 162.057 16.8506C163.699 15.4842 164.814 13.5845 165.207 11.4805C165.317 10.9703 165.375 10.4501 165.38 9.92807C165.41 9.13236 165.276 8.33907 164.988 7.59707C164.7 6.85506 164.264 6.18006 163.706 5.61363C163.132 5.05087 162.449 4.61167 161.7 4.32296C160.951 4.03426 160.151 3.90213 159.349 3.93467C157.27 3.94008 155.267 4.71246 153.72 6.1046C152.077 7.47185 150.962 9.3728 150.57 11.4779H150.57ZM146.038 11.4779C146.45 9.35199 147.369 7.35749 148.715 5.66449C150.077 3.92061 151.812 2.50517 153.791 1.52218C155.749 0.526412 157.912 0.00813327 160.107 0.00948908C162.733 -0.105327 165.298 0.825527 167.244 2.59933C168.142 3.44945 168.851 4.48165 169.321 5.6274C169.792 6.77314 170.014 8.00621 169.973 9.24475C169.968 9.99459 169.894 10.7424 169.752 11.4786C169.34 13.6058 168.419 15.6007 167.068 17.292C165.702 19.035 163.965 20.4501 161.984 21.4343C160.027 22.4301 157.863 22.9484 155.668 22.947C153.047 23.0596 150.488 22.1285 148.548 20.3565C147.651 19.5089 146.943 18.4795 146.473 17.3366C146.002 16.1937 145.779 14.9634 145.819 13.7274C145.817 12.9721 145.89 12.2185 146.038 11.4779H146.038ZM189.001 18.8458L187.422 27H183.017L183.885 22.5662H173.149L172.28 27H167.875L169.454 18.8419H171.079C173.626 14.7867 175.494 9.68074 176.684 3.5239L177.3 0.387664H190.643L187.059 18.8399L189.001 18.8458ZM175.722 18.8458H182.654L185.513 4.11398H180.918C180.398 6.75559 179.694 9.35727 178.811 11.8998C177.998 14.3055 176.964 16.6302 175.722 18.8438L175.722 18.8458ZM201.885 0.393531H206.843L210.459 22.5662H205.706L205.027 17.5763H197.037L194.432 22.5662H189.68L201.885 0.393531ZM204.585 13.9054L203.432 5.19308L198.9 13.9054H204.585ZM216.253 0.393531H221.179L224.701 9.4384H225.632L227.387 0.393531H231.871L230.116 9.4384H231.048L238.074 0.393531H243L234.426 11.3195L239.921 22.5662H234.9L230.432 13.3153H229.358L227.574 22.5662H223.089L224.873 13.3153H223.8L215.764 22.5662H210.743L220.595 11.3195L216.253 0.393531Z" fill="#1D1D1B"/>
</svg>
