<svg width="292" height="24" viewBox="0 0 292 24" fill="none" xmlns="http://www.w3.org/2000/svg">
<path fill-rule="evenodd" clip-rule="evenodd" d="M287.642 15.5188C288.484 15.4936 289.314 15.7204 290.027 16.1699C290.739 16.6195 291.301 17.2714 291.641 18.0422C291.98 18.8131 292.082 19.6677 291.933 20.4968C291.784 21.3259 291.392 22.0917 290.805 22.6962C290.218 23.3006 289.465 23.7162 288.64 23.8898C287.816 24.0634 286.959 23.987 286.178 23.6705C285.398 23.354 284.729 22.8117 284.259 22.113C283.788 21.4144 283.537 20.5912 283.537 19.7489C283.52 18.6435 283.944 17.577 284.714 16.7837C285.484 15.9905 286.537 15.5354 287.642 15.5188" fill="#E31D13"/>
<path d="M264.619 23.587H271.095L274.608 5.63396H281.083L282.126 0.403668H262.679L261.647 5.63396H268.123L264.619 23.587ZM235.062 23.587H241.405L251.365 10.9294L248.894 23.587H255.199L259.744 0.403668H253.4L243.45 13.0237L245.92 0.403668H239.606L235.062 23.587ZM220.967 18.6852C218.6 18.6852 217.265 17.0229 217.265 14.2441C217.265 8.84521 220.333 5.30549 223.608 5.30549C225.985 5.30549 227.348 6.99795 227.348 9.80302C227.346 15.2013 224.172 18.6852 220.965 18.6852H220.967ZM219.934 23.9807C227.717 23.9807 233.966 17.6904 233.966 9.01384C233.966 3.54975 230.652 0 224.641 0C216.829 0 210.619 6.331 210.619 15.0439C210.616 20.4692 213.958 23.9807 219.932 23.9807H219.934ZM202.76 8.25348C202.363 10.3007 201.028 11.1369 198.86 11.1369H196.787L197.885 5.37005H199.958C201.795 5.37005 202.865 5.96179 202.865 7.41667C202.866 7.699 202.829 7.9802 202.758 8.25348H202.76ZM209.312 8.25348C209.439 7.65423 209.505 7.0441 209.511 6.43191C209.511 2.3575 206.235 0.403668 201.161 0.403668H192.41L187.866 23.587H194.34L195.779 16.1033H198.054C203.866 16.1033 208.278 13.5515 209.31 8.25348H209.312ZM171.969 23.587H178.445L181.957 5.63396H188.433L189.475 0.403668H170.029L168.997 5.63396H175.473L171.969 23.587ZM158.308 0C149.824 0 144.116 6.92961 144.116 15.0703C144.116 20.6754 147.685 23.9807 153.602 23.9807C155.837 23.9821 158.042 23.472 160.045 22.49C162.049 21.508 163.796 20.0807 165.153 18.3191L160.211 15.8312C159.638 16.6871 158.866 17.3934 157.959 17.8902C157.053 18.3871 156.039 18.6598 155.003 18.6852C152.533 18.6852 150.79 17.1263 150.79 14.1125C150.79 8.7794 154.066 5.30549 157.645 5.30549C158.548 5.25526 159.441 5.50895 160.18 6.02541C160.919 6.54186 161.46 7.29079 161.716 8.15068L167.661 5.66216C166.289 2.01776 162.719 0 158.308 0ZM136.255 8.25348C135.857 10.3007 134.522 11.1369 132.354 11.1369H130.281L131.379 5.37005H133.452C135.289 5.37005 136.36 5.96179 136.36 7.41667C136.361 7.69889 136.326 7.98009 136.255 8.25348ZM142.806 8.25348C142.932 7.65423 142.999 7.0441 143.005 6.43191C143.005 2.3575 139.729 0.403668 134.655 0.403668H125.909L121.365 23.587H127.84L129.28 16.1033H131.555C137.365 16.1033 141.777 13.5515 142.809 8.25348H142.806ZM109.906 6.32911L110.674 14.4779H105.933L109.906 6.32911ZM106.896 0.403668L94.6474 23.587H101.521L103.358 19.7464H111.14L111.547 23.587H118.42L115.249 0.403668H106.896ZM88.7296 7.35211C88.4369 8.81701 87.499 9.34292 85.5959 9.34292H83.2896L84.0562 5.3989H86.3664C88.004 5.3989 88.7991 5.73738 88.7991 6.78857C88.7931 6.97811 88.7698 7.16673 88.7296 7.35211ZM87.7644 16.3666C87.4326 18.0189 86.3632 18.6194 84.261 18.6194H81.4876L82.3579 14.1501H85.1225C86.9592 14.1501 87.8302 14.6102 87.8302 15.7654C87.8275 15.9674 87.8055 16.1687 87.7644 16.3666V16.3666ZM74.0364 23.587H83.6549C90.4057 23.587 93.4453 20.8077 94.2397 16.732C94.3073 16.3697 94.3422 16.0022 94.344 15.6338C94.3593 14.6641 94.0399 13.7185 93.439 12.9535C92.838 12.1885 91.9915 11.6502 91.0397 11.4278C92.2938 10.9613 93.3683 10.1155 94.1109 9.01003C94.8536 7.90453 95.2268 6.59537 95.1777 5.26788C95.1777 2.16006 92.8107 0.403668 87.6602 0.403668H78.5802L74.0364 23.587ZM54.2579 0.403668L58.8029 16.3948L54.189 23.587H60.8071L75.7682 0.403668H69.1602L63.0818 9.70898L60.876 0.403668H54.2579ZM42.4051 0C33.9218 0 28.2126 6.92961 28.2126 15.0703C28.2126 20.6754 31.7817 23.9807 37.6996 23.9807C39.9343 23.982 42.1392 23.4719 44.1426 22.4899C46.1461 21.5079 47.8939 20.0806 49.2502 18.3191L44.3076 15.8312C43.735 16.687 42.9627 17.3933 42.0563 17.8901C41.1499 18.3869 40.1361 18.6597 39.1008 18.6852C36.6295 18.6852 34.887 17.1263 34.887 14.1125C34.887 8.7794 38.1629 5.30549 41.7421 5.30549C42.6447 5.25526 43.538 5.50895 44.2769 6.02541C45.0159 6.54186 45.5572 7.29079 45.8131 8.15068L51.7588 5.66216C50.386 2.01776 46.8168 0 42.4051 0Z" fill="#1D1D1B"/>
<path d="M16.3734 10.3057L14.5154 15.0498H10.4032L12.2521 10.3057H16.3734ZM13.864 6.14624L15.7116 1.41072H10.196L8.33802 6.14624H4.18167L3.32832 10.3057H6.72354L4.87461 15.0498H0.856597L0 19.2086H3.25948L1.44108 23.9808H6.96642L8.78483 19.2086H12.8996L11.0812 23.9808H16.6066L18.425 19.2086H22.5813L23.4372 15.0498H20.0407L21.889 10.3057H25.946L26.8019 6.14624H23.5041L25.3622 1.41072H19.8362L17.9781 6.14624H13.864Z" fill="#E31D13"/>
</svg>
