<svg width="337" height="132" viewBox="0 0 337 132" fill="none" xmlns="http://www.w3.org/2000/svg">
<path d="M12.9555 0L10.6342 12.0554H12.3084L21.9967 0H28.5445L16.7643 14.5688L24.4664 29.5597H17.7899L11.4696 17.229H9.62746L7.26274 29.5597H1.31598L7.01158 0H12.9555ZM39.723 29.5597H27.2495L32.9423 0H43.9717C46.3038 0 48.1037 0.545363 49.3714 1.63609C50.0065 2.19299 50.5078 2.88813 50.8377 3.66906C51.1676 4.44999 51.3174 5.2963 51.2758 6.14415C51.2711 6.76798 51.2081 7.38998 51.0876 8.00186C50.8431 9.33335 50.2711 10.5816 49.4239 11.6319C48.6258 12.6215 47.5926 13.3914 46.4204 13.87C47.5589 14.1755 48.5618 14.86 49.2665 15.8124C49.9997 16.8372 50.3752 18.0784 50.3341 19.3415C50.328 19.8804 50.272 20.4175 50.1669 20.9459C49.7287 23.3835 48.45 25.5862 46.5568 27.1641C44.639 28.7665 42.2125 29.6171 39.723 29.5597ZM45.2269 8.467C45.2837 8.16073 45.3118 7.84973 45.3108 7.53814C45.3354 7.18334 45.2826 6.82742 45.156 6.49546C45.0295 6.16351 44.8323 5.86361 44.5783 5.6169C44.0061 5.15207 43.2828 4.91882 42.5494 4.96261H37.8186L36.4788 11.9502H41.2076C42.1554 11.9701 43.0792 11.6482 43.8129 11.0425C44.5765 10.3839 45.0781 9.46934 45.2269 8.467ZM44.2649 20.6706C44.3296 20.3294 44.3647 19.9832 44.3698 19.6359C44.3906 19.2461 44.3327 18.8561 44.1996 18.4895C44.0664 18.123 43.8609 17.7876 43.5954 17.5036C43.3139 17.2357 42.9814 17.0283 42.6181 16.894C42.2548 16.7597 41.8682 16.7013 41.4818 16.7222H35.5581L34.0309 24.5978H39.9538C40.9839 24.6096 41.9795 24.2243 42.7376 23.5207C43.55 22.7711 44.0881 21.7669 44.2649 20.6706ZM66.7003 0H73.2718L78.0642 29.5597H71.7676L70.8679 22.9087H60.275L56.8217 29.5597H50.5251L66.7003 0ZM70.2788 18.0104L68.7516 6.39754L62.7446 18.0104H70.2788ZM94.2841 19.2547H89.8681L87.9008 29.5597H81.9541L87.6469 0H98.0096C100.689 0 102.788 0.675704 104.306 2.02711C105.065 2.71082 105.663 3.55626 106.058 4.50213C106.452 5.448 106.633 6.47059 106.588 7.49579C106.588 8.2118 106.517 8.92604 106.378 9.62807C105.894 12.3891 104.419 14.8734 102.234 16.6065C99.9688 18.3929 97.1583 19.3291 94.2841 19.2547ZM100.437 9.62666C100.52 9.24517 100.561 8.85598 100.563 8.46558C100.588 7.98516 100.509 7.50496 100.332 7.05828C100.155 6.6116 99.8835 6.20912 99.5369 5.87876C98.6985 5.19978 97.6374 4.86435 96.5649 4.93932H92.6296L90.8308 14.314H94.7655C96.1303 14.3669 97.4682 13.9208 98.5329 13.0576C99.5483 12.1764 100.223 10.9619 100.437 9.62807V9.62666ZM112.555 29.5597L117.242 5.17294H109.709L110.713 0H131.726L130.721 5.17294H123.187L118.499 29.5597H112.555ZM159.268 0L153.575 29.5597H147.969L151.799 9.67042L136.414 29.5597H130.387L136.076 0H141.685L137.858 19.89L153.24 0H159.268ZM172.306 19.2547H167.89L165.923 29.5597H159.976L165.67 0H176.03C178.709 0 180.808 0.675704 182.326 2.02711C183.085 2.71082 183.683 3.55626 184.078 4.50213C184.472 5.448 184.653 6.47059 184.608 7.49579C184.608 8.2118 184.537 8.92604 184.398 9.62807C183.914 12.3891 182.439 14.8734 180.254 16.6065C177.989 18.3925 175.18 19.3287 172.306 19.2547ZM178.459 9.62666C178.542 9.24517 178.584 8.85598 178.585 8.46558C178.61 7.98516 178.531 7.50496 178.354 7.05828C178.177 6.6116 177.906 6.20912 177.559 5.87876C176.721 5.19978 175.66 4.86435 174.587 4.93932H170.652L168.853 14.314H172.788C174.153 14.3669 175.49 13.9208 176.555 13.0576C177.57 12.1764 178.245 10.9619 178.459 9.62807V9.62666ZM190.786 0H196.733L194.682 10.6204H199.412C202.117 10.6204 204.238 11.2926 205.774 12.637C206.535 13.3081 207.138 14.1432 207.536 15.0805C207.935 16.0179 208.119 17.0337 208.076 18.0527C208.081 18.7396 208.018 19.4252 207.888 20.0996C207.395 22.822 205.918 25.2631 203.744 26.951C201.46 28.7172 198.644 29.6381 195.767 29.5597H185.093L190.786 0ZM201.879 20.1017C201.943 19.7391 201.978 19.3718 201.983 19.0035C202.01 18.5376 201.93 18.0718 201.751 17.6417C201.571 17.2117 201.296 16.8288 200.947 16.5225C200.073 15.8808 199.002 15.5706 197.923 15.6466H193.716L192 24.5554H196.207C197.562 24.6128 198.895 24.1992 199.985 23.3838C200.993 22.5606 201.667 21.3928 201.879 20.1017ZM214.433 0H220.38L214.686 29.5597H208.74L214.433 0ZM8.58153 63.0444C8.44196 63.7324 8.37164 64.4328 8.37164 65.135C8.33318 66.1928 8.51022 67.2473 8.8918 68.2334C9.27339 69.2194 9.85141 70.116 10.5901 70.8677C11.3493 71.6136 12.2511 72.1958 13.2405 72.5788C14.2299 72.9618 15.2863 73.1375 16.3452 73.0952C19.1 73.0875 21.7556 72.0575 23.8059 70.2014C25.984 68.3808 27.4623 65.8489 27.9848 63.0444C28.131 62.3643 28.2081 61.6709 28.2149 60.9749C28.2527 59.9156 28.0754 58.8597 27.6939 57.8721C27.3124 56.8844 26.7347 55.9859 25.9964 55.2317C25.2353 54.4812 24.3303 53.8955 23.3368 53.5105C22.3433 53.1256 21.2824 52.9494 20.219 52.9928C17.4642 53.0005 14.8086 54.0306 12.7583 55.8867C10.5807 57.7078 9.10318 60.2399 8.58153 63.0444ZM2.5753 63.0444C3.12125 60.2107 4.33817 57.5521 6.12237 55.2952C7.92813 52.9708 10.2272 51.084 12.8506 49.7736C15.445 48.4462 18.3133 47.7553 21.2222 47.7571C25.1149 47.7571 28.2681 48.9078 30.6818 51.2092C31.8735 52.3422 32.8126 53.718 33.4368 55.2452C34.0611 56.7724 34.3561 58.4162 34.3023 60.0672C34.2955 61.0666 34.1973 62.0632 34.0092 63.0444C33.4624 65.8798 32.2416 68.539 30.4516 70.7936C28.6404 73.1168 26.3382 75.0032 23.7129 76.3152C21.1185 77.6426 18.2502 78.3335 15.3412 78.3317C11.4626 78.3317 8.31637 77.181 5.90269 74.8796C4.71238 73.7498 3.77395 72.3776 3.14972 70.8539C2.5255 69.3301 2.22976 67.6899 2.28216 66.042C2.27997 65.0354 2.37864 64.0312 2.5753 63.0444ZM39.4095 77.8242L44.097 53.4375H36.5628L37.5695 48.2639H58.5798L57.5786 53.4375H50.0409L45.3535 77.8242H39.4095ZM69.8605 77.8242L75.5532 48.2646H81.5L79.1563 60.3842H90.4579L92.8016 48.2646H98.7484L93.0493 77.8242H87.1026L89.4498 65.5564H78.1474L75.8037 77.8235L69.8605 77.8242ZM113.12 48.2639H119.692L124.484 77.8235H118.187L117.288 71.1726H106.692L103.239 77.8235H96.942L113.12 48.2639ZM116.696 66.2742L115.171 54.6621L109.165 66.2749L116.696 66.2742ZM153.175 72.8616L151.083 83.7355H145.244L146.395 77.8235H132.165L131.014 83.7355H125.175L127.268 72.8616H129.423C132.8 67.4565 135.276 60.6507 136.853 52.4444L137.67 48.2639H155.355L150.603 72.8616H153.175ZM135.574 72.8616H144.762L148.55 53.2258H142.46C141.771 56.746 140.837 60.2131 139.666 63.6013C138.59 66.8095 137.221 69.9099 135.576 72.8623L135.574 72.8616ZM156.587 77.8235L162.279 48.2639H180.529L179.545 53.3733H167.239L165.88 60.4258H177.181L176.198 65.4929H164.9L163.519 72.7141H176.199L175.215 77.8235H156.587ZM184.361 48.2639H190.891L195.558 60.3199H196.793L199.116 48.2639H205.062L202.74 60.3199H203.975L213.284 48.2639H219.814L208.45 62.8326L215.733 77.8235H209.078L203.155 65.4929H201.732L199.367 77.8235H193.42L195.785 65.4929H194.362L183.709 77.8235H177.054L190.114 62.8326L184.361 48.2639ZM218.622 77.8235L224.315 48.2639H230.261L227.918 60.3835H239.219L241.563 48.2639H247.51L241.817 77.8235H235.87L238.21 65.5564H226.909L224.565 77.8235H218.622ZM255.477 63.0437C255.337 63.7317 255.267 64.4321 255.267 65.1343C255.229 66.1921 255.406 67.2466 255.787 68.2327C256.169 69.2187 256.747 70.1153 257.486 70.867C258.245 71.6129 259.147 72.1951 260.136 72.5781C261.125 72.9611 262.182 73.1368 263.241 73.0945C265.995 73.0868 268.651 72.0567 270.701 70.2007C272.879 68.3803 274.358 65.8487 274.88 63.0444C275.027 62.3643 275.104 61.6709 275.11 60.9749C275.148 59.9156 274.971 58.8597 274.589 57.8721C274.208 56.8844 273.63 55.9859 272.892 55.2317C272.131 54.4812 271.226 53.8955 270.232 53.5105C269.239 53.1256 268.178 52.9494 267.114 52.9928C264.36 53.0006 261.704 54.0307 259.654 55.8867C257.476 57.7077 255.998 60.2398 255.476 63.0444L255.477 63.0437ZM249.471 63.0437C250.017 60.21 251.234 57.5514 253.018 55.2945C254.824 52.97 257.123 51.0833 259.746 49.7729C262.34 48.4455 265.209 47.7546 268.118 47.7564C272.01 47.7564 275.164 48.9071 277.577 51.2085C278.769 52.3414 279.708 53.7171 280.332 55.2442C280.956 56.7713 281.252 58.4149 281.198 60.0658C281.191 61.0652 281.093 62.0618 280.905 63.043C280.358 65.8784 279.137 68.5376 277.347 70.7922C275.536 73.1154 273.234 75.0018 270.608 76.3138C268.014 77.6416 265.146 78.333 262.237 78.3317C258.358 78.3317 255.212 77.181 252.798 74.8796C251.608 73.75 250.67 72.3779 250.046 70.8545C249.421 69.331 249.125 67.6911 249.178 66.0434C249.175 65.0364 249.273 64.0317 249.47 63.0444L249.471 63.0437ZM282.873 77.8235L288.565 48.2639H306.396L305.391 53.4368H293.504L288.817 77.8235H282.873ZM311.273 63.0437C311.133 63.7317 311.063 64.4321 311.063 65.1343C311.025 66.1921 311.202 67.2466 311.583 68.2327C311.965 69.2187 312.543 70.1153 313.282 70.867C314.041 71.6129 314.943 72.1951 315.932 72.5781C316.921 72.9611 317.978 73.1368 319.037 73.0945C321.791 73.0868 324.447 72.0567 326.497 70.2007C328.674 68.3794 330.151 65.8473 330.673 63.043C330.819 62.3629 330.896 61.6694 330.903 60.9735C330.941 59.9142 330.763 58.8583 330.382 57.8706C330 56.883 329.423 55.9845 328.684 55.2303C327.924 54.4803 327.019 53.8951 326.026 53.5103C325.033 53.1256 323.972 52.9495 322.909 52.9928C320.154 53.0006 317.499 54.0307 315.448 55.8867C313.271 57.7079 311.794 60.24 311.272 63.0444L311.273 63.0437ZM305.267 63.0437C305.813 60.21 307.03 57.5514 308.814 55.2945C310.62 52.97 312.919 51.0833 315.542 49.7729C318.137 48.4455 321.005 47.7546 323.914 47.7564C327.806 47.7564 330.96 48.9071 333.373 51.2085C334.565 52.3414 335.504 53.7171 336.128 55.2442C336.752 56.7713 337.048 58.4149 336.994 60.0658C336.987 61.0652 336.889 62.0618 336.701 63.043C336.154 65.8784 334.933 68.5376 333.143 70.7922C331.332 73.1154 329.03 75.0017 326.404 76.3138C323.81 77.6417 320.941 78.3331 318.032 78.3317C314.153 78.3317 311.007 77.181 308.593 74.8796C307.403 73.75 306.465 72.3779 305.841 70.8545C305.217 69.331 304.921 67.6911 304.973 66.0434C304.971 65.0364 305.069 64.0316 305.266 63.0444L305.267 63.0437ZM8.34855 102.968L5.60954 99.5902C6.7571 98.4236 8.12852 97.5054 9.6399 96.8918C11.1513 96.2782 12.7709 95.9821 14.3996 96.0216C16.3905 95.917 18.3499 96.5559 19.9035 97.8165C20.5676 98.3824 21.0968 99.0919 21.4519 99.8924C21.807 100.693 21.9789 101.564 21.9547 102.44C21.947 102.929 21.8981 103.417 21.8085 103.897C21.5427 105.222 20.924 106.448 20.0189 107.445C19.0783 108.514 17.9078 109.351 16.5971 109.894C17.8375 110.384 18.9124 111.223 19.6943 112.311C20.46 113.383 20.8635 114.675 20.8451 115.996C20.8411 116.47 20.7921 116.942 20.6989 117.407C20.3674 119.134 19.5873 120.742 18.4385 122.066C17.227 123.486 15.719 124.619 14.0225 125.383C12.2829 126.188 10.3906 126.602 8.47658 126.597C6.67853 126.632 4.90185 126.199 3.31759 125.341C1.87598 124.564 0.714731 123.348 0 121.865L4.20681 118.336C5.30894 120.574 7.01135 121.693 9.31403 121.693C10.6393 121.698 11.923 121.226 12.9346 120.362C13.5635 119.853 14.0748 119.211 14.4327 118.482C14.7906 117.752 14.9865 116.953 15.0068 116.14C15.0249 115.624 14.9215 115.11 14.7051 114.642C14.4886 114.175 14.1652 113.765 13.7615 113.448C12.7543 112.724 11.5319 112.37 10.2977 112.445H7.26274L8.20443 107.61H11.3016C12.4597 107.643 13.5987 107.307 14.5563 106.649C14.9774 106.369 15.3394 106.007 15.6213 105.585C15.9032 105.163 16.0996 104.688 16.199 104.189C16.2399 103.988 16.261 103.783 16.2619 103.577C16.2712 103.208 16.1947 102.842 16.0384 102.508C15.8822 102.175 15.6506 101.882 15.3622 101.655C14.6842 101.137 13.8472 100.876 12.9975 100.916C11.244 100.968 9.57868 101.704 8.35135 102.968L8.34855 102.968ZM36.8139 96.5284H43.3855L48.1779 126.088H41.8813L40.9816 119.437H30.3893L26.9353 126.088H20.6388L36.8139 96.5284ZM40.3932 114.54L38.8652 102.927L32.8583 114.54H40.3932ZM64.8379 126.596C60.9592 126.596 57.813 125.446 55.3993 123.144C54.2092 122.015 53.2709 120.643 52.6467 119.119C52.0224 117.596 51.7266 115.956 51.7788 114.308C51.7768 113.301 51.875 112.297 52.0719 111.31C52.6179 108.476 53.8348 105.817 55.619 103.56C57.4248 101.236 59.7238 99.3493 62.3472 98.0389C64.9416 96.7115 67.8099 96.0206 70.7189 96.0223C74.1708 95.9008 77.5363 97.1258 80.1162 99.4427L76.2683 103.898C75.3481 103.107 74.323 102.45 73.2228 101.945C72.1148 101.471 70.9204 101.237 69.717 101.259C67.9203 101.262 66.1519 101.711 64.5685 102.568C62.917 103.455 61.4795 104.698 60.3582 106.209C59.2369 107.72 58.4594 109.461 58.081 111.31C57.9414 111.998 57.8711 112.698 57.8711 113.4C57.8326 114.458 58.0097 115.513 58.3912 116.499C58.7728 117.485 59.3509 118.381 60.0896 119.133C60.8487 119.879 61.7505 120.461 62.7399 120.844C63.7294 121.227 64.7857 121.403 65.8446 121.361C68.6807 121.271 71.4148 120.272 73.651 118.51L75.9534 122.923C72.7293 125.308 68.8357 126.594 64.8379 126.595V126.596ZM84.9715 126.089L89.659 101.703H82.1248L83.1294 96.5298H104.142L103.137 101.703H95.6029L90.9155 126.089H84.9715ZM115.13 115.785H110.714L108.747 126.089H102.8L108.493 96.5298H118.853C121.532 96.5298 123.631 97.2055 125.149 98.5569C125.908 99.2406 126.506 100.086 126.901 101.032C127.295 101.978 127.476 103 127.431 104.026C127.431 104.742 127.36 105.456 127.221 106.158C126.737 108.919 125.262 111.403 123.077 113.136C120.812 114.922 118.003 115.858 115.129 115.785H115.13ZM121.283 106.156C121.365 105.775 121.407 105.386 121.408 104.995C121.434 104.515 121.355 104.035 121.178 103.588C121.001 103.141 120.729 102.739 120.383 102.409C119.544 101.73 118.483 101.394 117.411 101.469H113.478L111.678 110.844H115.613C116.968 110.919 118.301 110.479 119.351 109.612C120.401 108.744 121.091 107.511 121.285 106.156H121.283ZM135.18 111.309C135.04 111.997 134.97 112.697 134.97 113.4C134.931 114.457 135.108 115.512 135.49 116.498C135.872 117.484 136.45 118.381 137.188 119.132C137.947 119.878 138.849 120.46 139.839 120.843C140.828 121.226 141.884 121.402 142.943 121.36C145.698 121.352 148.354 120.322 150.404 118.466C152.581 116.645 154.058 114.113 154.579 111.308C154.726 110.628 154.803 109.935 154.81 109.239C154.847 108.179 154.67 107.124 154.289 106.136C153.907 105.148 153.329 104.25 152.591 103.496C151.83 102.745 150.925 102.16 149.932 101.775C148.939 101.39 147.878 101.214 146.815 101.257C144.06 101.265 141.405 102.295 139.354 104.151C137.177 105.972 135.7 108.504 135.179 111.308L135.18 111.309ZM129.173 111.309C129.719 108.475 130.936 105.817 132.721 103.56C134.526 101.235 136.825 99.3485 139.449 98.0381C142.043 96.7108 144.911 96.0199 147.82 96.0216C151.713 96.0216 154.866 97.1724 157.28 99.4738C158.472 100.607 159.411 101.982 160.035 103.509C160.659 105.037 160.954 106.68 160.9 108.331C160.894 109.33 160.795 110.327 160.607 111.308C160.061 114.144 158.84 116.803 157.05 119.057C155.239 121.381 152.936 123.267 150.311 124.579C147.717 125.906 144.848 126.597 141.939 126.596C138.061 126.596 134.915 125.445 132.501 123.143C131.311 122.014 130.372 120.642 129.748 119.118C129.124 117.595 128.828 115.955 128.88 114.307C128.878 113.3 128.976 112.296 129.172 111.308L129.173 111.309ZM191.457 96.5291L185.764 126.089H180.152L183.982 106.2L168.599 126.089H162.572L168.265 96.5291H173.873L170.044 116.418L185.426 96.5291H191.457ZM180.218 94.6714C178.597 94.7304 177.014 94.1726 175.781 93.1087C175.208 92.6071 174.753 91.983 174.449 91.2817C174.145 90.5804 173.999 89.8196 174.023 89.0545C174.03 88.7152 174.058 88.3767 174.107 88.0409H178.9C178.873 88.2157 178.859 88.3921 178.858 88.5689C178.846 88.8589 178.892 89.1483 178.993 89.4203C179.094 89.6922 179.247 89.9412 179.444 90.1527C179.642 90.3568 179.88 90.5167 180.144 90.6222C180.407 90.7277 180.689 90.7765 180.972 90.7654C181.705 90.7629 182.41 90.4842 182.95 89.9841C183.532 89.4813 183.933 88.7984 184.09 88.0416H188.882C188.43 89.9656 187.294 91.6557 185.691 92.7925C184.12 94.0072 182.196 94.6672 180.217 94.6707L180.218 94.6714ZM223.729 126.089H192.168L197.861 96.5298H203.807L199.098 120.917H207.507L212.216 96.5298H218.163L213.454 120.915H221.867L226.576 96.5284H232.523L227.814 120.915H230.384L228.25 132H222.577L223.729 126.089ZM262.637 96.5284L256.944 126.088H251.335L255.165 106.199L239.78 126.088H233.753L239.446 96.5284H245.055L241.225 116.418L256.608 96.5284H262.637ZM274.985 96.5284L272.662 108.584H274.336L284.026 96.5284H290.576L278.791 111.097L286.494 126.088H279.817L273.497 113.757H271.656L269.291 126.088H263.344L269.037 96.5284H274.985ZM302.945 96.5284H309.511L314.304 126.088H308.007L307.108 119.437H296.517L293.064 126.088H286.767L302.945 96.5284ZM306.524 114.539L304.996 102.926L298.987 114.54L306.524 114.539Z" fill="#E31D13"/>
</svg>
